M48
;DRILL file {Pcbnew (2013-may-18)-stable} date Tue Feb  3 23:34:40 2015
;FORMAT={-:-/ absolute / inch / decimal}
FMAT,2
INCH,TZ
T1C0.025
T2C0.032
T3C0.039
T4C0.040
%
G90
G05
M72
T1
X13.3228Y-8.3386
X13.3386Y-8.6929
X13.4646Y-8.5039
X13.5669Y-8.8031
X13.5906Y-8.7087
X13.6378Y-9.1654
X13.6929Y-8.7244
X13.7008Y-8.6535
X13.7008Y-9.2047
X13.7638Y-9.5669
X13.8031Y-8.8819
X13.8268Y-9.
X14.0315Y-8.7244
X14.063Y-8.9055
X14.063Y-8.9921
X14.1654Y-8.4488
X14.189Y-8.7323
X14.2047Y-8.9843
X14.2283Y-8.252
X14.3543Y-8.6299
X14.3543Y-9.2362
X14.3701Y-8.9291
X14.4961Y-8.6299
X14.5512Y-8.7953
X14.5827Y-8.2756
X14.6614Y-9.2441
X14.6772Y-8.9449
X14.7559Y-8.5591
X14.8346Y-9.5669
X14.8425Y-8.9055
X14.8425Y-9.3563
X14.8583Y-8.7795
X14.874Y-8.4331
X14.9921Y-9.5748
X15.0315Y-8.2677
X15.189Y-9.5906
X15.2205Y-8.6063
X15.3386Y-8.5906
X15.3937Y-9.5748
X15.4016Y-8.4016
X15.4173Y-8.7717
T2
X13.4098Y-8.2677
X13.5098Y-8.2677
X13.6098Y-8.2677
X13.7098Y-8.2677
X13.8098Y-8.2677
X13.9098Y-8.2677
X14.0098Y-8.2677
X14.0626Y-9.4488
X14.0626Y-9.5669
X14.1098Y-8.2677
X14.1626Y-9.2913
X14.1626Y-9.4488
X14.1626Y-9.5669
X14.2626Y-9.2913
X14.2626Y-9.4488
X14.2626Y-9.5669
X14.3626Y-9.4488
X14.3626Y-9.5669
X14.5169Y-9.3701
X14.5169Y-9.5669
X14.6169Y-9.3701
X14.6169Y-9.5669
X14.7531Y-8.2677
X14.8531Y-8.2677
X15.2335Y-8.2598
X15.3335Y-8.2598
T3
X15.0669Y-9.2559
X15.0669Y-9.4685
X15.1732Y-9.3622
X15.2795Y-9.2559
X15.2795Y-9.4685
T4
X13.3752Y-9.1898
X13.3752Y-9.2898
X13.3752Y-9.3898
X13.3752Y-9.4898
X13.3752Y-9.5898
X13.4752Y-9.1898
X13.4752Y-9.2898
X13.4752Y-9.3898
X13.4752Y-9.4898
X13.4752Y-9.5898
T0
M30
