G04 (created by PCBNEW (2013-may-18)-stable) date Mon 02 Feb 2015 06:47:34 PM EST*
%MOIN*%
G04 Gerber Fmt 3.4, Leading zero omitted, Abs format*
%FSLAX34Y34*%
G01*
G70*
G90*
G04 APERTURE LIST*
%ADD10C,0.00590551*%
%ADD11C,0.0787*%
%ADD12R,0.055X0.055*%
%ADD13C,0.055*%
%ADD14R,0.06X0.06*%
%ADD15C,0.06*%
%ADD16R,0.065X0.12*%
%ADD17R,0.24X0.24*%
%ADD18C,0.035*%
%ADD19C,0.01*%
%ADD20C,0.0275591*%
%ADD21C,0.023622*%
G04 APERTURE END LIST*
G54D10*
G54D11*
X147637Y-94094D03*
X146574Y-93031D03*
X146574Y-95157D03*
X148700Y-95157D03*
X148700Y-93031D03*
G54D12*
X141098Y-82677D03*
G54D13*
X140098Y-82677D03*
X139098Y-82677D03*
X138098Y-82677D03*
X137098Y-82677D03*
X136098Y-82677D03*
X135098Y-82677D03*
X134098Y-82677D03*
G54D12*
X139295Y-94685D03*
G54D13*
X138295Y-94685D03*
X137295Y-94685D03*
X136295Y-94685D03*
G54D12*
X139295Y-95866D03*
G54D13*
X138295Y-95866D03*
X137295Y-95866D03*
X136295Y-95866D03*
G54D12*
X148531Y-82677D03*
G54D13*
X147531Y-82677D03*
G54D12*
X139066Y-93011D03*
G54D13*
X140066Y-93011D03*
G54D12*
X149893Y-82677D03*
G54D13*
X150893Y-82677D03*
G54D12*
X141732Y-92807D03*
G54D13*
X141732Y-93807D03*
G54D12*
X141732Y-95169D03*
G54D13*
X141732Y-96169D03*
G54D14*
X134751Y-95897D03*
G54D15*
X133751Y-95897D03*
X134751Y-94897D03*
X133751Y-94897D03*
X134751Y-93897D03*
X133751Y-93897D03*
X134751Y-92897D03*
X133751Y-92897D03*
X134751Y-91897D03*
X133751Y-91897D03*
G54D16*
X144994Y-95275D03*
G54D17*
X144094Y-92775D03*
G54D16*
X143194Y-95275D03*
G54D13*
X151574Y-92700D03*
X151574Y-94700D03*
X153543Y-93881D03*
X153543Y-95881D03*
X152181Y-96456D03*
X150181Y-96456D03*
X152255Y-82677D03*
X153255Y-82677D03*
G54D18*
X148897Y-85354D03*
X142598Y-89133D03*
X137480Y-93503D03*
X135905Y-90629D03*
X137637Y-89763D03*
X136141Y-89527D03*
X142913Y-95275D03*
X137401Y-88188D03*
X138031Y-90866D03*
X137007Y-87559D03*
X140078Y-88110D03*
X134153Y-85236D03*
X132972Y-95374D03*
X136614Y-87874D03*
X140708Y-88267D03*
X140629Y-85590D03*
X133661Y-88385D03*
X153228Y-89527D03*
X136141Y-88188D03*
X152755Y-85984D03*
X153307Y-91968D03*
X136417Y-90551D03*
X133661Y-90255D03*
X144960Y-94409D03*
X135354Y-89763D03*
X137401Y-91811D03*
X152657Y-83464D03*
G54D19*
X143194Y-95275D02*
X143194Y-95005D01*
G54D20*
X149893Y-84358D02*
X149893Y-82677D01*
X148897Y-85354D02*
X149893Y-84358D01*
G54D19*
X142440Y-89291D02*
X142598Y-89133D01*
G54D20*
X142440Y-94251D02*
X142440Y-89291D01*
X143194Y-95005D02*
X142440Y-94251D01*
G54D19*
X135905Y-91929D02*
X135905Y-90629D01*
X135905Y-91929D02*
X137480Y-93503D01*
X136377Y-89763D02*
X137637Y-89763D01*
X136141Y-89527D02*
X136377Y-89763D01*
X134751Y-95897D02*
X135267Y-95897D01*
X138803Y-96358D02*
X139295Y-95866D01*
X135728Y-96358D02*
X138803Y-96358D01*
X135267Y-95897D02*
X135728Y-96358D01*
X139295Y-95866D02*
X140944Y-95866D01*
X142800Y-95669D02*
X143194Y-95275D01*
X141141Y-95669D02*
X142800Y-95669D01*
X140944Y-95866D02*
X141141Y-95669D01*
X142913Y-95275D02*
X143194Y-95275D01*
X137637Y-88818D02*
X137874Y-89527D01*
X137401Y-88188D02*
X137637Y-88425D01*
X137637Y-88425D02*
X137637Y-88818D01*
X138060Y-89922D02*
X138031Y-90866D01*
X137874Y-89527D02*
X138060Y-89922D01*
X139527Y-87559D02*
X137007Y-87559D01*
X140078Y-88110D02*
X139527Y-87559D01*
X133661Y-85728D02*
X134153Y-85236D01*
X133661Y-86909D02*
X133661Y-85728D01*
X133070Y-87500D02*
X133661Y-86909D01*
X133070Y-95275D02*
X133070Y-87500D01*
X132972Y-95374D02*
X133070Y-95275D01*
X137559Y-87874D02*
X136614Y-87874D01*
X138110Y-88425D02*
X137559Y-87874D01*
X140551Y-88425D02*
X138110Y-88425D01*
X140708Y-88267D02*
X140551Y-88425D01*
X140944Y-85275D02*
X140629Y-85590D01*
X141098Y-85275D02*
X140944Y-85275D01*
X141098Y-82677D02*
X141098Y-85275D01*
X141098Y-85275D02*
X141098Y-85279D01*
X133751Y-95897D02*
X133299Y-95897D01*
X133267Y-88779D02*
X133661Y-88385D01*
X133267Y-95866D02*
X133267Y-88779D01*
X133299Y-95897D02*
X133267Y-95866D01*
G54D20*
X153255Y-82677D02*
X153255Y-83594D01*
X153255Y-83594D02*
X152440Y-84409D01*
X152440Y-84409D02*
X152440Y-85669D01*
X152440Y-85669D02*
X152755Y-85984D01*
G54D19*
X134751Y-93897D02*
X134751Y-94897D01*
G54D20*
X148700Y-93031D02*
X149409Y-93031D01*
X150472Y-91968D02*
X153307Y-91968D01*
X149409Y-93031D02*
X150472Y-91968D01*
G54D19*
X133661Y-90255D02*
X136122Y-90255D01*
X136122Y-90255D02*
X136417Y-90551D01*
X134751Y-93897D02*
X134547Y-93897D01*
X134251Y-90846D02*
X133661Y-90255D01*
X134251Y-93602D02*
X134251Y-90846D01*
X134547Y-93897D02*
X134251Y-93602D01*
X134751Y-94897D02*
X134751Y-95185D01*
X134751Y-95185D02*
X134842Y-95275D01*
X134842Y-95275D02*
X138295Y-95275D01*
X138295Y-94685D02*
X138295Y-95275D01*
X138295Y-95275D02*
X138295Y-95866D01*
X141732Y-95169D02*
X138688Y-95169D01*
X138295Y-94775D02*
X138295Y-94685D01*
X138688Y-95169D02*
X138295Y-94775D01*
G54D21*
X146574Y-93031D02*
X146574Y-95157D01*
X148700Y-93031D02*
X148700Y-95157D01*
G54D20*
X146574Y-93031D02*
X148700Y-93031D01*
X144094Y-92775D02*
X146318Y-92775D01*
X146318Y-92775D02*
X146574Y-93031D01*
X144994Y-94443D02*
X144994Y-95275D01*
X144960Y-94409D02*
X144994Y-94443D01*
G54D21*
X150181Y-96456D02*
X150157Y-96456D01*
X147637Y-94960D02*
X147637Y-94094D01*
X148503Y-95826D02*
X147637Y-94960D01*
X149527Y-95826D02*
X148503Y-95826D01*
X150157Y-96456D02*
X149527Y-95826D01*
G54D19*
X135511Y-89921D02*
X135354Y-89763D01*
X136299Y-90000D02*
X135511Y-89921D01*
X136850Y-90472D02*
X136299Y-90000D01*
X137184Y-91091D02*
X136850Y-90472D01*
X137401Y-91811D02*
X137184Y-91091D01*
G54D20*
X150893Y-82677D02*
X151279Y-82677D01*
X152066Y-83464D02*
X152657Y-83464D01*
X151279Y-82677D02*
X152066Y-83464D01*
G54D10*
G36*
X154454Y-96895D02*
X154068Y-96895D01*
X154068Y-95777D01*
X154068Y-93777D01*
X153988Y-93584D01*
X153841Y-93437D01*
X153785Y-93414D01*
X153785Y-82752D01*
X153774Y-82544D01*
X153716Y-82404D01*
X153623Y-82380D01*
X153552Y-82450D01*
X153552Y-82309D01*
X153528Y-82216D01*
X153331Y-82147D01*
X153123Y-82158D01*
X152983Y-82216D01*
X152958Y-82309D01*
X153255Y-82606D01*
X153552Y-82309D01*
X153552Y-82450D01*
X153326Y-82677D01*
X153623Y-82974D01*
X153716Y-82949D01*
X153785Y-82752D01*
X153785Y-93414D01*
X153648Y-93356D01*
X153552Y-93356D01*
X153552Y-83044D01*
X153255Y-82747D01*
X153185Y-82818D01*
X153185Y-82677D01*
X152888Y-82380D01*
X152795Y-82404D01*
X152756Y-82514D01*
X152701Y-82380D01*
X152553Y-82232D01*
X152360Y-82152D01*
X152151Y-82152D01*
X151958Y-82231D01*
X151811Y-82379D01*
X151730Y-82572D01*
X151730Y-82580D01*
X151553Y-82402D01*
X151427Y-82318D01*
X151279Y-82289D01*
X151248Y-82289D01*
X151191Y-82232D01*
X150998Y-82152D01*
X150789Y-82152D01*
X150596Y-82231D01*
X150448Y-82379D01*
X150418Y-82451D01*
X150418Y-82352D01*
X150380Y-82260D01*
X150310Y-82190D01*
X150218Y-82152D01*
X150119Y-82152D01*
X149569Y-82152D01*
X149477Y-82190D01*
X149406Y-82260D01*
X149368Y-82352D01*
X149368Y-82451D01*
X149368Y-83001D01*
X149406Y-83093D01*
X149476Y-83163D01*
X149505Y-83176D01*
X149505Y-84197D01*
X149056Y-84647D01*
X149056Y-82902D01*
X149056Y-82451D01*
X149056Y-82352D01*
X149018Y-82260D01*
X148947Y-82190D01*
X148856Y-82152D01*
X148643Y-82152D01*
X148581Y-82214D01*
X148581Y-82627D01*
X148993Y-82627D01*
X149056Y-82564D01*
X149056Y-82451D01*
X149056Y-82902D01*
X149056Y-82789D01*
X148993Y-82727D01*
X148581Y-82727D01*
X148581Y-83139D01*
X148643Y-83202D01*
X148856Y-83202D01*
X148947Y-83164D01*
X149018Y-83093D01*
X149056Y-83002D01*
X149056Y-82902D01*
X149056Y-84647D01*
X148746Y-84956D01*
X148657Y-84993D01*
X148537Y-85113D01*
X148481Y-85248D01*
X148481Y-83139D01*
X148481Y-82727D01*
X148473Y-82727D01*
X148473Y-82627D01*
X148481Y-82627D01*
X148481Y-82214D01*
X148418Y-82152D01*
X148206Y-82152D01*
X148115Y-82190D01*
X148044Y-82260D01*
X148006Y-82352D01*
X148006Y-82451D01*
X148006Y-82451D01*
X147976Y-82380D01*
X147829Y-82232D01*
X147636Y-82152D01*
X147427Y-82152D01*
X147234Y-82231D01*
X147086Y-82379D01*
X147006Y-82572D01*
X147006Y-82781D01*
X147086Y-82974D01*
X147233Y-83121D01*
X147426Y-83202D01*
X147635Y-83202D01*
X147828Y-83122D01*
X147976Y-82974D01*
X148006Y-82902D01*
X148006Y-82902D01*
X148006Y-83002D01*
X148044Y-83093D01*
X148115Y-83164D01*
X148206Y-83202D01*
X148418Y-83202D01*
X148481Y-83139D01*
X148481Y-85248D01*
X148472Y-85269D01*
X148472Y-85438D01*
X148537Y-85594D01*
X148656Y-85714D01*
X148812Y-85779D01*
X148981Y-85779D01*
X149138Y-85714D01*
X149257Y-85595D01*
X149295Y-85505D01*
X150167Y-84632D01*
X150251Y-84506D01*
X150281Y-84358D01*
X150281Y-83176D01*
X150310Y-83164D01*
X150380Y-83093D01*
X150418Y-83002D01*
X150418Y-82902D01*
X150418Y-82902D01*
X150448Y-82974D01*
X150595Y-83121D01*
X150788Y-83202D01*
X150997Y-83202D01*
X151180Y-83126D01*
X151792Y-83738D01*
X151918Y-83822D01*
X152066Y-83852D01*
X152483Y-83852D01*
X152572Y-83889D01*
X152741Y-83889D01*
X152897Y-83825D01*
X153017Y-83705D01*
X153082Y-83549D01*
X153082Y-83380D01*
X153017Y-83224D01*
X152898Y-83104D01*
X152742Y-83039D01*
X152636Y-83039D01*
X152700Y-82974D01*
X152753Y-82848D01*
X152795Y-82949D01*
X152888Y-82974D01*
X153185Y-82677D01*
X153185Y-82818D01*
X152958Y-83044D01*
X152983Y-83137D01*
X153180Y-83207D01*
X153388Y-83195D01*
X153528Y-83137D01*
X153552Y-83044D01*
X153552Y-93356D01*
X153439Y-93356D01*
X153246Y-93436D01*
X153098Y-93584D01*
X153018Y-93777D01*
X153018Y-93985D01*
X153097Y-94178D01*
X153245Y-94326D01*
X153438Y-94406D01*
X153647Y-94406D01*
X153840Y-94327D01*
X153988Y-94179D01*
X154068Y-93986D01*
X154068Y-93777D01*
X154068Y-95777D01*
X153988Y-95584D01*
X153841Y-95437D01*
X153648Y-95356D01*
X153439Y-95356D01*
X153246Y-95436D01*
X153098Y-95584D01*
X153018Y-95777D01*
X153018Y-95985D01*
X153097Y-96178D01*
X153245Y-96326D01*
X153438Y-96406D01*
X153647Y-96406D01*
X153840Y-96327D01*
X153988Y-96179D01*
X154068Y-95986D01*
X154068Y-95777D01*
X154068Y-96895D01*
X152484Y-96895D01*
X152625Y-96754D01*
X152706Y-96561D01*
X152706Y-96352D01*
X152626Y-96159D01*
X152478Y-96011D01*
X152285Y-95931D01*
X152099Y-95931D01*
X152099Y-94596D01*
X152099Y-92596D01*
X152020Y-92403D01*
X151872Y-92255D01*
X151679Y-92175D01*
X151470Y-92175D01*
X151277Y-92255D01*
X151129Y-92403D01*
X151049Y-92595D01*
X151049Y-92804D01*
X151129Y-92997D01*
X151277Y-93145D01*
X151469Y-93225D01*
X151678Y-93225D01*
X151871Y-93146D01*
X152019Y-92998D01*
X152099Y-92805D01*
X152099Y-92596D01*
X152099Y-94596D01*
X152020Y-94403D01*
X151872Y-94255D01*
X151679Y-94175D01*
X151470Y-94175D01*
X151277Y-94255D01*
X151129Y-94403D01*
X151049Y-94595D01*
X151049Y-94804D01*
X151129Y-94997D01*
X151277Y-95145D01*
X151469Y-95225D01*
X151678Y-95225D01*
X151871Y-95146D01*
X152019Y-94998D01*
X152099Y-94805D01*
X152099Y-94596D01*
X152099Y-95931D01*
X152077Y-95931D01*
X151884Y-96011D01*
X151736Y-96158D01*
X151656Y-96351D01*
X151656Y-96560D01*
X151735Y-96753D01*
X151877Y-96895D01*
X150484Y-96895D01*
X150625Y-96754D01*
X150706Y-96561D01*
X150706Y-96352D01*
X150626Y-96159D01*
X150478Y-96011D01*
X150285Y-95931D01*
X150153Y-95931D01*
X149787Y-95566D01*
X149668Y-95486D01*
X149527Y-95458D01*
X149275Y-95458D01*
X149348Y-95261D01*
X149348Y-93135D01*
X149339Y-92879D01*
X149259Y-92687D01*
X149154Y-92648D01*
X149083Y-92719D01*
X149083Y-92577D01*
X149044Y-92472D01*
X148804Y-92383D01*
X148549Y-92393D01*
X148356Y-92472D01*
X148317Y-92577D01*
X148700Y-92960D01*
X149083Y-92577D01*
X149083Y-92719D01*
X148771Y-93031D01*
X149154Y-93414D01*
X149259Y-93375D01*
X149348Y-93135D01*
X149348Y-95261D01*
X149339Y-95005D01*
X149259Y-94813D01*
X149154Y-94774D01*
X149083Y-94845D01*
X149083Y-94703D01*
X149083Y-93485D01*
X148700Y-93102D01*
X148630Y-93172D01*
X148630Y-93031D01*
X148247Y-92648D01*
X148142Y-92687D01*
X148053Y-92927D01*
X148062Y-93183D01*
X148142Y-93375D01*
X148247Y-93414D01*
X148630Y-93031D01*
X148630Y-93172D01*
X148317Y-93485D01*
X148356Y-93590D01*
X148596Y-93679D01*
X148852Y-93669D01*
X149044Y-93590D01*
X149083Y-93485D01*
X149083Y-94703D01*
X149044Y-94598D01*
X148804Y-94509D01*
X148549Y-94519D01*
X148356Y-94598D01*
X148317Y-94703D01*
X148700Y-95086D01*
X149083Y-94703D01*
X149083Y-94845D01*
X148771Y-95157D01*
X148777Y-95163D01*
X148706Y-95233D01*
X148700Y-95228D01*
X148695Y-95233D01*
X148624Y-95163D01*
X148630Y-95157D01*
X148247Y-94774D01*
X148142Y-94813D01*
X148106Y-94908D01*
X148005Y-94808D01*
X148005Y-94636D01*
X148183Y-94459D01*
X148281Y-94223D01*
X148281Y-93967D01*
X148183Y-93730D01*
X148002Y-93549D01*
X147766Y-93451D01*
X147510Y-93450D01*
X147273Y-93548D01*
X147222Y-93599D01*
X147222Y-93135D01*
X147213Y-92879D01*
X147133Y-92687D01*
X147028Y-92648D01*
X146957Y-92719D01*
X146957Y-92577D01*
X146918Y-92472D01*
X146678Y-92383D01*
X146423Y-92393D01*
X146230Y-92472D01*
X146191Y-92577D01*
X146574Y-92960D01*
X146957Y-92577D01*
X146957Y-92719D01*
X146645Y-93031D01*
X147028Y-93414D01*
X147133Y-93375D01*
X147222Y-93135D01*
X147222Y-93599D01*
X147092Y-93729D01*
X146994Y-93965D01*
X146994Y-94221D01*
X147091Y-94458D01*
X147269Y-94636D01*
X147269Y-94960D01*
X147297Y-95101D01*
X147377Y-95220D01*
X148243Y-96087D01*
X148243Y-96087D01*
X148363Y-96166D01*
X148503Y-96194D01*
X148503Y-96194D01*
X148503Y-96194D01*
X149375Y-96194D01*
X149656Y-96475D01*
X149656Y-96560D01*
X149735Y-96753D01*
X149877Y-96895D01*
X147222Y-96895D01*
X147222Y-95261D01*
X147213Y-95005D01*
X147133Y-94813D01*
X147028Y-94774D01*
X146957Y-94845D01*
X146957Y-94703D01*
X146957Y-93485D01*
X146574Y-93102D01*
X146504Y-93172D01*
X146504Y-93031D01*
X146121Y-92648D01*
X146016Y-92687D01*
X145927Y-92927D01*
X145936Y-93183D01*
X146016Y-93375D01*
X146121Y-93414D01*
X146504Y-93031D01*
X146504Y-93172D01*
X146191Y-93485D01*
X146230Y-93590D01*
X146470Y-93679D01*
X146726Y-93669D01*
X146918Y-93590D01*
X146957Y-93485D01*
X146957Y-94703D01*
X146918Y-94598D01*
X146678Y-94509D01*
X146423Y-94519D01*
X146230Y-94598D01*
X146191Y-94703D01*
X146574Y-95086D01*
X146957Y-94703D01*
X146957Y-94845D01*
X146645Y-95157D01*
X147028Y-95540D01*
X147133Y-95501D01*
X147222Y-95261D01*
X147222Y-96895D01*
X146957Y-96895D01*
X146957Y-95611D01*
X146574Y-95228D01*
X146504Y-95298D01*
X146504Y-95157D01*
X146121Y-94774D01*
X146016Y-94813D01*
X145927Y-95053D01*
X145936Y-95309D01*
X146016Y-95501D01*
X146121Y-95540D01*
X146504Y-95157D01*
X146504Y-95298D01*
X146191Y-95611D01*
X146230Y-95716D01*
X146470Y-95805D01*
X146726Y-95795D01*
X146918Y-95716D01*
X146957Y-95611D01*
X146957Y-96895D01*
X145569Y-96895D01*
X145569Y-95826D01*
X145569Y-94626D01*
X145531Y-94534D01*
X145461Y-94463D01*
X145385Y-94432D01*
X145385Y-94325D01*
X145321Y-94169D01*
X145201Y-94049D01*
X145045Y-93984D01*
X144876Y-93984D01*
X144720Y-94048D01*
X144600Y-94168D01*
X144535Y-94324D01*
X144535Y-94460D01*
X144528Y-94463D01*
X144457Y-94533D01*
X144419Y-94625D01*
X144419Y-94725D01*
X144419Y-95925D01*
X144457Y-96017D01*
X144527Y-96087D01*
X144619Y-96125D01*
X144718Y-96125D01*
X145368Y-96125D01*
X145460Y-96087D01*
X145531Y-96017D01*
X145569Y-95925D01*
X145569Y-95826D01*
X145569Y-96895D01*
X132710Y-96895D01*
X132710Y-95713D01*
X132731Y-95734D01*
X132887Y-95798D01*
X132967Y-95799D01*
X132967Y-95866D01*
X132990Y-95980D01*
X133055Y-96078D01*
X133087Y-96109D01*
X133184Y-96174D01*
X133279Y-96193D01*
X133279Y-96193D01*
X133285Y-96208D01*
X133440Y-96363D01*
X133642Y-96447D01*
X133860Y-96447D01*
X134063Y-96364D01*
X134201Y-96225D01*
X134201Y-96247D01*
X134239Y-96339D01*
X134310Y-96409D01*
X134402Y-96447D01*
X134501Y-96447D01*
X135101Y-96447D01*
X135193Y-96409D01*
X135263Y-96339D01*
X135270Y-96324D01*
X135516Y-96570D01*
X135516Y-96570D01*
X135613Y-96635D01*
X135728Y-96658D01*
X135728Y-96658D01*
X138803Y-96658D01*
X138803Y-96658D01*
X138917Y-96635D01*
X138917Y-96635D01*
X139015Y-96570D01*
X139194Y-96391D01*
X139619Y-96391D01*
X139711Y-96353D01*
X139782Y-96282D01*
X139820Y-96191D01*
X139820Y-96166D01*
X140944Y-96166D01*
X140944Y-96166D01*
X141059Y-96143D01*
X141059Y-96143D01*
X141157Y-96078D01*
X141233Y-96001D01*
X141207Y-96064D01*
X141207Y-96273D01*
X141286Y-96466D01*
X141434Y-96614D01*
X141627Y-96694D01*
X141836Y-96694D01*
X142029Y-96614D01*
X142177Y-96467D01*
X142257Y-96274D01*
X142257Y-96065D01*
X142217Y-95969D01*
X142637Y-95969D01*
X142657Y-96017D01*
X142727Y-96087D01*
X142819Y-96125D01*
X142918Y-96125D01*
X143568Y-96125D01*
X143660Y-96087D01*
X143731Y-96017D01*
X143769Y-95925D01*
X143769Y-95826D01*
X143769Y-94626D01*
X143731Y-94534D01*
X143661Y-94463D01*
X143569Y-94425D01*
X143469Y-94425D01*
X143162Y-94425D01*
X142828Y-94091D01*
X142828Y-89498D01*
X142838Y-89494D01*
X142958Y-89374D01*
X143023Y-89218D01*
X143023Y-89049D01*
X142958Y-88893D01*
X142839Y-88773D01*
X142683Y-88708D01*
X142514Y-88708D01*
X142357Y-88773D01*
X142238Y-88892D01*
X142194Y-88998D01*
X142166Y-89017D01*
X142082Y-89142D01*
X142053Y-89291D01*
X142053Y-92282D01*
X141957Y-92282D01*
X141623Y-92282D01*
X141623Y-82902D01*
X141623Y-82352D01*
X141585Y-82260D01*
X141515Y-82190D01*
X141423Y-82152D01*
X141323Y-82152D01*
X140773Y-82152D01*
X140681Y-82190D01*
X140611Y-82260D01*
X140573Y-82352D01*
X140573Y-82451D01*
X140573Y-82451D01*
X140543Y-82380D01*
X140396Y-82232D01*
X140203Y-82152D01*
X139994Y-82152D01*
X139801Y-82231D01*
X139653Y-82379D01*
X139598Y-82512D01*
X139543Y-82380D01*
X139396Y-82232D01*
X139203Y-82152D01*
X138994Y-82152D01*
X138801Y-82231D01*
X138653Y-82379D01*
X138598Y-82512D01*
X138543Y-82380D01*
X138396Y-82232D01*
X138203Y-82152D01*
X137994Y-82152D01*
X137801Y-82231D01*
X137653Y-82379D01*
X137598Y-82512D01*
X137543Y-82380D01*
X137396Y-82232D01*
X137203Y-82152D01*
X136994Y-82152D01*
X136801Y-82231D01*
X136653Y-82379D01*
X136598Y-82512D01*
X136543Y-82380D01*
X136396Y-82232D01*
X136203Y-82152D01*
X135994Y-82152D01*
X135801Y-82231D01*
X135653Y-82379D01*
X135598Y-82512D01*
X135543Y-82380D01*
X135396Y-82232D01*
X135203Y-82152D01*
X134994Y-82152D01*
X134801Y-82231D01*
X134653Y-82379D01*
X134598Y-82512D01*
X134543Y-82380D01*
X134396Y-82232D01*
X134203Y-82152D01*
X133994Y-82152D01*
X133801Y-82231D01*
X133653Y-82379D01*
X133573Y-82572D01*
X133573Y-82781D01*
X133653Y-82974D01*
X133800Y-83121D01*
X133993Y-83202D01*
X134202Y-83202D01*
X134395Y-83122D01*
X134543Y-82974D01*
X134598Y-82841D01*
X134653Y-82974D01*
X134800Y-83121D01*
X134993Y-83202D01*
X135202Y-83202D01*
X135395Y-83122D01*
X135543Y-82974D01*
X135598Y-82841D01*
X135653Y-82974D01*
X135800Y-83121D01*
X135993Y-83202D01*
X136202Y-83202D01*
X136395Y-83122D01*
X136543Y-82974D01*
X136598Y-82841D01*
X136653Y-82974D01*
X136800Y-83121D01*
X136993Y-83202D01*
X137202Y-83202D01*
X137395Y-83122D01*
X137543Y-82974D01*
X137598Y-82841D01*
X137653Y-82974D01*
X137800Y-83121D01*
X137993Y-83202D01*
X138202Y-83202D01*
X138395Y-83122D01*
X138543Y-82974D01*
X138598Y-82841D01*
X138653Y-82974D01*
X138800Y-83121D01*
X138993Y-83202D01*
X139202Y-83202D01*
X139395Y-83122D01*
X139543Y-82974D01*
X139598Y-82841D01*
X139653Y-82974D01*
X139800Y-83121D01*
X139993Y-83202D01*
X140202Y-83202D01*
X140395Y-83122D01*
X140543Y-82974D01*
X140573Y-82902D01*
X140573Y-83001D01*
X140611Y-83093D01*
X140681Y-83163D01*
X140773Y-83202D01*
X140798Y-83202D01*
X140798Y-85019D01*
X140732Y-85063D01*
X140630Y-85165D01*
X140545Y-85165D01*
X140389Y-85230D01*
X140269Y-85349D01*
X140204Y-85505D01*
X140204Y-85674D01*
X140269Y-85830D01*
X140388Y-85950D01*
X140545Y-86015D01*
X140714Y-86015D01*
X140870Y-85951D01*
X140990Y-85831D01*
X141054Y-85675D01*
X141054Y-85589D01*
X141069Y-85575D01*
X141078Y-85575D01*
X141098Y-85579D01*
X141213Y-85556D01*
X141310Y-85491D01*
X141375Y-85394D01*
X141398Y-85279D01*
X141398Y-85275D01*
X141398Y-83202D01*
X141422Y-83202D01*
X141514Y-83164D01*
X141585Y-83093D01*
X141623Y-83002D01*
X141623Y-82902D01*
X141623Y-92282D01*
X141407Y-92282D01*
X141315Y-92320D01*
X141245Y-92390D01*
X141207Y-92482D01*
X141207Y-92581D01*
X141207Y-93131D01*
X141245Y-93223D01*
X141315Y-93293D01*
X141407Y-93332D01*
X141506Y-93332D01*
X141506Y-93332D01*
X141435Y-93361D01*
X141287Y-93509D01*
X141207Y-93702D01*
X141207Y-93911D01*
X141286Y-94104D01*
X141434Y-94251D01*
X141627Y-94331D01*
X141836Y-94332D01*
X142029Y-94252D01*
X142053Y-94228D01*
X142053Y-94251D01*
X142082Y-94400D01*
X142166Y-94526D01*
X142614Y-94973D01*
X142553Y-95034D01*
X142488Y-95190D01*
X142488Y-95359D01*
X142492Y-95369D01*
X142257Y-95369D01*
X142257Y-94844D01*
X142219Y-94752D01*
X142149Y-94682D01*
X142057Y-94644D01*
X141957Y-94644D01*
X141844Y-94644D01*
X141782Y-94706D01*
X141782Y-95119D01*
X142194Y-95119D01*
X142257Y-95056D01*
X142257Y-94844D01*
X142257Y-95369D01*
X142257Y-95369D01*
X142257Y-95281D01*
X142194Y-95219D01*
X141782Y-95219D01*
X141782Y-95227D01*
X141682Y-95227D01*
X141682Y-95219D01*
X141682Y-95119D01*
X141682Y-94706D01*
X141619Y-94644D01*
X141506Y-94644D01*
X141407Y-94644D01*
X141315Y-94682D01*
X141245Y-94752D01*
X141207Y-94844D01*
X141207Y-95056D01*
X141269Y-95119D01*
X141682Y-95119D01*
X141682Y-95219D01*
X141269Y-95219D01*
X141207Y-95281D01*
X141207Y-95369D01*
X141141Y-95369D01*
X141133Y-95370D01*
X141133Y-88183D01*
X141069Y-88027D01*
X140949Y-87907D01*
X140793Y-87842D01*
X140624Y-87842D01*
X140468Y-87907D01*
X140458Y-87916D01*
X140439Y-87869D01*
X140319Y-87750D01*
X140163Y-87685D01*
X140078Y-87685D01*
X139739Y-87346D01*
X139642Y-87281D01*
X139527Y-87259D01*
X137308Y-87259D01*
X137248Y-87198D01*
X137092Y-87134D01*
X136923Y-87133D01*
X136767Y-87198D01*
X136647Y-87317D01*
X136593Y-87448D01*
X136530Y-87448D01*
X136373Y-87513D01*
X136254Y-87632D01*
X136189Y-87789D01*
X136189Y-87958D01*
X136253Y-88114D01*
X136373Y-88234D01*
X136529Y-88298D01*
X136698Y-88299D01*
X136854Y-88234D01*
X136915Y-88174D01*
X136976Y-88174D01*
X136976Y-88273D01*
X137041Y-88429D01*
X137160Y-88549D01*
X137316Y-88613D01*
X137337Y-88613D01*
X137337Y-88818D01*
X137347Y-88865D01*
X137353Y-88913D01*
X137501Y-89360D01*
X137397Y-89403D01*
X137336Y-89463D01*
X136566Y-89463D01*
X136566Y-89443D01*
X136502Y-89287D01*
X136382Y-89167D01*
X136226Y-89102D01*
X136057Y-89102D01*
X135901Y-89167D01*
X135781Y-89286D01*
X135716Y-89442D01*
X135716Y-89527D01*
X135714Y-89523D01*
X135595Y-89403D01*
X135439Y-89338D01*
X135270Y-89338D01*
X135113Y-89403D01*
X134994Y-89522D01*
X134929Y-89678D01*
X134929Y-89847D01*
X134993Y-90004D01*
X135113Y-90123D01*
X135269Y-90188D01*
X135380Y-90188D01*
X135384Y-90190D01*
X135397Y-90198D01*
X135440Y-90206D01*
X135482Y-90219D01*
X135726Y-90244D01*
X135665Y-90269D01*
X135545Y-90388D01*
X135480Y-90545D01*
X135480Y-90714D01*
X135545Y-90870D01*
X135605Y-90930D01*
X135605Y-91929D01*
X135628Y-92043D01*
X135693Y-92141D01*
X137055Y-93503D01*
X137055Y-93588D01*
X137119Y-93744D01*
X137239Y-93864D01*
X137395Y-93928D01*
X137564Y-93929D01*
X137720Y-93864D01*
X137840Y-93744D01*
X137905Y-93588D01*
X137905Y-93419D01*
X137840Y-93263D01*
X137721Y-93143D01*
X137565Y-93079D01*
X137479Y-93078D01*
X136205Y-91804D01*
X136205Y-90930D01*
X136265Y-90870D01*
X136330Y-90714D01*
X136330Y-90545D01*
X136266Y-90389D01*
X136164Y-90287D01*
X136175Y-90288D01*
X136612Y-90663D01*
X136905Y-91205D01*
X137026Y-91605D01*
X136976Y-91726D01*
X136976Y-91895D01*
X137041Y-92051D01*
X137160Y-92171D01*
X137316Y-92235D01*
X137485Y-92236D01*
X137642Y-92171D01*
X137761Y-92052D01*
X137826Y-91895D01*
X137826Y-91726D01*
X137762Y-91570D01*
X137642Y-91450D01*
X137601Y-91433D01*
X137472Y-91005D01*
X137458Y-90980D01*
X137449Y-90948D01*
X137114Y-90329D01*
X137079Y-90288D01*
X137045Y-90244D01*
X136834Y-90063D01*
X137336Y-90063D01*
X137396Y-90123D01*
X137552Y-90188D01*
X137721Y-90188D01*
X137751Y-90176D01*
X137740Y-90556D01*
X137671Y-90625D01*
X137606Y-90781D01*
X137606Y-90950D01*
X137670Y-91106D01*
X137790Y-91226D01*
X137946Y-91291D01*
X138115Y-91291D01*
X138271Y-91226D01*
X138391Y-91107D01*
X138456Y-90951D01*
X138456Y-90781D01*
X138392Y-90625D01*
X138340Y-90573D01*
X138359Y-89931D01*
X138357Y-89922D01*
X138360Y-89907D01*
X138345Y-89849D01*
X138339Y-89815D01*
X138335Y-89808D01*
X138331Y-89793D01*
X138151Y-89412D01*
X137937Y-88770D01*
X137937Y-88663D01*
X137995Y-88702D01*
X138110Y-88725D01*
X138110Y-88725D01*
X140551Y-88725D01*
X140551Y-88725D01*
X140665Y-88702D01*
X140665Y-88702D01*
X140680Y-88692D01*
X140792Y-88692D01*
X140949Y-88628D01*
X141068Y-88508D01*
X141133Y-88352D01*
X141133Y-88183D01*
X141133Y-95370D01*
X141026Y-95392D01*
X140929Y-95457D01*
X140820Y-95566D01*
X140592Y-95566D01*
X140592Y-92907D01*
X140512Y-92714D01*
X140364Y-92566D01*
X140171Y-92486D01*
X139962Y-92486D01*
X139769Y-92566D01*
X139622Y-92714D01*
X139591Y-92786D01*
X139591Y-92687D01*
X139553Y-92595D01*
X139483Y-92524D01*
X139391Y-92486D01*
X139292Y-92486D01*
X138742Y-92486D01*
X138650Y-92524D01*
X138580Y-92595D01*
X138541Y-92686D01*
X138541Y-92786D01*
X138541Y-93336D01*
X138579Y-93428D01*
X138650Y-93498D01*
X138741Y-93536D01*
X138841Y-93536D01*
X139391Y-93536D01*
X139483Y-93498D01*
X139553Y-93428D01*
X139591Y-93336D01*
X139591Y-93237D01*
X139591Y-93237D01*
X139621Y-93308D01*
X139769Y-93456D01*
X139962Y-93536D01*
X140170Y-93536D01*
X140363Y-93457D01*
X140511Y-93309D01*
X140591Y-93116D01*
X140592Y-92907D01*
X140592Y-95566D01*
X139820Y-95566D01*
X139820Y-95541D01*
X139820Y-94910D01*
X139820Y-94360D01*
X139782Y-94268D01*
X139712Y-94198D01*
X139620Y-94160D01*
X139520Y-94159D01*
X138970Y-94159D01*
X138878Y-94197D01*
X138808Y-94268D01*
X138770Y-94360D01*
X138770Y-94447D01*
X138755Y-94412D01*
X138663Y-94387D01*
X138592Y-94458D01*
X138592Y-94317D01*
X138568Y-94224D01*
X138371Y-94155D01*
X138162Y-94166D01*
X138022Y-94224D01*
X137998Y-94317D01*
X138295Y-94614D01*
X138592Y-94317D01*
X138592Y-94458D01*
X138365Y-94685D01*
X138663Y-94982D01*
X138755Y-94957D01*
X138770Y-94916D01*
X138770Y-95009D01*
X138808Y-95101D01*
X138878Y-95171D01*
X138970Y-95209D01*
X139069Y-95210D01*
X139619Y-95210D01*
X139711Y-95172D01*
X139782Y-95101D01*
X139820Y-95009D01*
X139820Y-94910D01*
X139820Y-95541D01*
X139782Y-95449D01*
X139712Y-95379D01*
X139620Y-95341D01*
X139520Y-95341D01*
X138970Y-95341D01*
X138878Y-95379D01*
X138808Y-95449D01*
X138770Y-95541D01*
X138770Y-95628D01*
X138755Y-95593D01*
X138663Y-95569D01*
X138592Y-95639D01*
X138592Y-95498D01*
X138592Y-95052D01*
X138295Y-94755D01*
X138224Y-94826D01*
X138224Y-94685D01*
X137927Y-94387D01*
X137834Y-94412D01*
X137796Y-94522D01*
X137740Y-94388D01*
X137593Y-94240D01*
X137400Y-94160D01*
X137191Y-94159D01*
X136998Y-94239D01*
X136850Y-94387D01*
X136795Y-94520D01*
X136740Y-94388D01*
X136593Y-94240D01*
X136400Y-94160D01*
X136191Y-94159D01*
X135998Y-94239D01*
X135850Y-94387D01*
X135770Y-94580D01*
X135770Y-94789D01*
X135849Y-94982D01*
X135997Y-95129D01*
X136190Y-95209D01*
X136399Y-95210D01*
X136592Y-95130D01*
X136740Y-94982D01*
X136795Y-94849D01*
X136849Y-94982D01*
X136997Y-95129D01*
X137190Y-95209D01*
X137399Y-95210D01*
X137592Y-95130D01*
X137740Y-94982D01*
X137792Y-94856D01*
X137834Y-94957D01*
X137927Y-94982D01*
X138224Y-94685D01*
X138224Y-94826D01*
X137998Y-95052D01*
X138022Y-95145D01*
X138219Y-95214D01*
X138428Y-95203D01*
X138568Y-95145D01*
X138592Y-95052D01*
X138592Y-95498D01*
X138568Y-95405D01*
X138371Y-95336D01*
X138162Y-95347D01*
X138022Y-95405D01*
X137998Y-95498D01*
X138295Y-95795D01*
X138592Y-95498D01*
X138592Y-95639D01*
X138365Y-95866D01*
X138371Y-95871D01*
X138300Y-95942D01*
X138295Y-95936D01*
X138289Y-95942D01*
X138218Y-95871D01*
X138224Y-95866D01*
X137927Y-95569D01*
X137834Y-95593D01*
X137796Y-95703D01*
X137740Y-95569D01*
X137593Y-95421D01*
X137400Y-95341D01*
X137191Y-95341D01*
X136998Y-95420D01*
X136850Y-95568D01*
X136795Y-95701D01*
X136740Y-95569D01*
X136593Y-95421D01*
X136400Y-95341D01*
X136191Y-95341D01*
X135998Y-95420D01*
X135850Y-95568D01*
X135770Y-95761D01*
X135770Y-95970D01*
X135774Y-95979D01*
X135479Y-95685D01*
X135382Y-95620D01*
X135306Y-95605D01*
X135306Y-94979D01*
X135306Y-93979D01*
X135295Y-93760D01*
X135233Y-93609D01*
X135137Y-93582D01*
X134822Y-93897D01*
X135137Y-94212D01*
X135233Y-94185D01*
X135306Y-93979D01*
X135306Y-94979D01*
X135295Y-94760D01*
X135233Y-94609D01*
X135137Y-94582D01*
X135067Y-94653D01*
X135067Y-94511D01*
X135039Y-94416D01*
X134991Y-94399D01*
X135039Y-94378D01*
X135067Y-94283D01*
X134751Y-93968D01*
X134436Y-94283D01*
X134464Y-94378D01*
X134512Y-94396D01*
X134464Y-94416D01*
X134436Y-94511D01*
X134751Y-94826D01*
X135067Y-94511D01*
X135067Y-94653D01*
X134822Y-94897D01*
X135137Y-95212D01*
X135233Y-95185D01*
X135306Y-94979D01*
X135306Y-95605D01*
X135302Y-95604D01*
X135302Y-95548D01*
X135264Y-95456D01*
X135193Y-95385D01*
X135101Y-95347D01*
X135048Y-95347D01*
X135067Y-95283D01*
X134751Y-94968D01*
X134436Y-95283D01*
X134455Y-95347D01*
X134402Y-95347D01*
X134310Y-95385D01*
X134240Y-95455D01*
X134202Y-95547D01*
X134201Y-95569D01*
X134063Y-95431D01*
X133982Y-95397D01*
X134063Y-95364D01*
X134217Y-95209D01*
X134249Y-95133D01*
X134270Y-95185D01*
X134366Y-95212D01*
X134681Y-94897D01*
X134366Y-94582D01*
X134270Y-94609D01*
X134250Y-94665D01*
X134218Y-94586D01*
X134063Y-94431D01*
X133982Y-94397D01*
X134063Y-94364D01*
X134217Y-94209D01*
X134249Y-94133D01*
X134270Y-94185D01*
X134366Y-94212D01*
X134681Y-93897D01*
X134366Y-93582D01*
X134270Y-93609D01*
X134250Y-93665D01*
X134218Y-93586D01*
X134063Y-93431D01*
X133982Y-93397D01*
X134063Y-93364D01*
X134217Y-93209D01*
X134251Y-93127D01*
X134285Y-93208D01*
X134440Y-93363D01*
X134515Y-93395D01*
X134464Y-93416D01*
X134436Y-93511D01*
X134751Y-93826D01*
X135067Y-93511D01*
X135039Y-93416D01*
X134984Y-93396D01*
X135063Y-93364D01*
X135217Y-93209D01*
X135301Y-93007D01*
X135302Y-92788D01*
X135218Y-92586D01*
X135063Y-92431D01*
X134982Y-92397D01*
X135063Y-92364D01*
X135217Y-92209D01*
X135301Y-92007D01*
X135302Y-91788D01*
X135218Y-91586D01*
X135063Y-91431D01*
X134861Y-91347D01*
X134643Y-91347D01*
X134440Y-91431D01*
X134285Y-91585D01*
X134251Y-91667D01*
X134218Y-91586D01*
X134063Y-91431D01*
X133861Y-91347D01*
X133643Y-91347D01*
X133567Y-91378D01*
X133567Y-88903D01*
X133660Y-88810D01*
X133745Y-88810D01*
X133901Y-88746D01*
X134021Y-88626D01*
X134086Y-88470D01*
X134086Y-88301D01*
X134021Y-88145D01*
X133902Y-88025D01*
X133746Y-87960D01*
X133577Y-87960D01*
X133420Y-88025D01*
X133370Y-88075D01*
X133370Y-87624D01*
X133873Y-87121D01*
X133873Y-87121D01*
X133938Y-87024D01*
X133961Y-86909D01*
X133961Y-86909D01*
X133961Y-85852D01*
X134152Y-85661D01*
X134237Y-85661D01*
X134393Y-85596D01*
X134513Y-85477D01*
X134578Y-85321D01*
X134578Y-85152D01*
X134514Y-84995D01*
X134394Y-84876D01*
X134238Y-84811D01*
X134069Y-84811D01*
X133913Y-84875D01*
X133793Y-84995D01*
X133728Y-85151D01*
X133728Y-85236D01*
X133449Y-85516D01*
X133384Y-85613D01*
X133361Y-85728D01*
X133361Y-86785D01*
X132858Y-87287D01*
X132793Y-87385D01*
X132770Y-87500D01*
X132770Y-94997D01*
X132732Y-95013D01*
X132710Y-95034D01*
X132710Y-82001D01*
X154454Y-82001D01*
X154454Y-96895D01*
X154454Y-96895D01*
G37*
G54D19*
X154454Y-96895D02*
X154068Y-96895D01*
X154068Y-95777D01*
X154068Y-93777D01*
X153988Y-93584D01*
X153841Y-93437D01*
X153785Y-93414D01*
X153785Y-82752D01*
X153774Y-82544D01*
X153716Y-82404D01*
X153623Y-82380D01*
X153552Y-82450D01*
X153552Y-82309D01*
X153528Y-82216D01*
X153331Y-82147D01*
X153123Y-82158D01*
X152983Y-82216D01*
X152958Y-82309D01*
X153255Y-82606D01*
X153552Y-82309D01*
X153552Y-82450D01*
X153326Y-82677D01*
X153623Y-82974D01*
X153716Y-82949D01*
X153785Y-82752D01*
X153785Y-93414D01*
X153648Y-93356D01*
X153552Y-93356D01*
X153552Y-83044D01*
X153255Y-82747D01*
X153185Y-82818D01*
X153185Y-82677D01*
X152888Y-82380D01*
X152795Y-82404D01*
X152756Y-82514D01*
X152701Y-82380D01*
X152553Y-82232D01*
X152360Y-82152D01*
X152151Y-82152D01*
X151958Y-82231D01*
X151811Y-82379D01*
X151730Y-82572D01*
X151730Y-82580D01*
X151553Y-82402D01*
X151427Y-82318D01*
X151279Y-82289D01*
X151248Y-82289D01*
X151191Y-82232D01*
X150998Y-82152D01*
X150789Y-82152D01*
X150596Y-82231D01*
X150448Y-82379D01*
X150418Y-82451D01*
X150418Y-82352D01*
X150380Y-82260D01*
X150310Y-82190D01*
X150218Y-82152D01*
X150119Y-82152D01*
X149569Y-82152D01*
X149477Y-82190D01*
X149406Y-82260D01*
X149368Y-82352D01*
X149368Y-82451D01*
X149368Y-83001D01*
X149406Y-83093D01*
X149476Y-83163D01*
X149505Y-83176D01*
X149505Y-84197D01*
X149056Y-84647D01*
X149056Y-82902D01*
X149056Y-82451D01*
X149056Y-82352D01*
X149018Y-82260D01*
X148947Y-82190D01*
X148856Y-82152D01*
X148643Y-82152D01*
X148581Y-82214D01*
X148581Y-82627D01*
X148993Y-82627D01*
X149056Y-82564D01*
X149056Y-82451D01*
X149056Y-82902D01*
X149056Y-82789D01*
X148993Y-82727D01*
X148581Y-82727D01*
X148581Y-83139D01*
X148643Y-83202D01*
X148856Y-83202D01*
X148947Y-83164D01*
X149018Y-83093D01*
X149056Y-83002D01*
X149056Y-82902D01*
X149056Y-84647D01*
X148746Y-84956D01*
X148657Y-84993D01*
X148537Y-85113D01*
X148481Y-85248D01*
X148481Y-83139D01*
X148481Y-82727D01*
X148473Y-82727D01*
X148473Y-82627D01*
X148481Y-82627D01*
X148481Y-82214D01*
X148418Y-82152D01*
X148206Y-82152D01*
X148115Y-82190D01*
X148044Y-82260D01*
X148006Y-82352D01*
X148006Y-82451D01*
X148006Y-82451D01*
X147976Y-82380D01*
X147829Y-82232D01*
X147636Y-82152D01*
X147427Y-82152D01*
X147234Y-82231D01*
X147086Y-82379D01*
X147006Y-82572D01*
X147006Y-82781D01*
X147086Y-82974D01*
X147233Y-83121D01*
X147426Y-83202D01*
X147635Y-83202D01*
X147828Y-83122D01*
X147976Y-82974D01*
X148006Y-82902D01*
X148006Y-82902D01*
X148006Y-83002D01*
X148044Y-83093D01*
X148115Y-83164D01*
X148206Y-83202D01*
X148418Y-83202D01*
X148481Y-83139D01*
X148481Y-85248D01*
X148472Y-85269D01*
X148472Y-85438D01*
X148537Y-85594D01*
X148656Y-85714D01*
X148812Y-85779D01*
X148981Y-85779D01*
X149138Y-85714D01*
X149257Y-85595D01*
X149295Y-85505D01*
X150167Y-84632D01*
X150251Y-84506D01*
X150281Y-84358D01*
X150281Y-83176D01*
X150310Y-83164D01*
X150380Y-83093D01*
X150418Y-83002D01*
X150418Y-82902D01*
X150418Y-82902D01*
X150448Y-82974D01*
X150595Y-83121D01*
X150788Y-83202D01*
X150997Y-83202D01*
X151180Y-83126D01*
X151792Y-83738D01*
X151918Y-83822D01*
X152066Y-83852D01*
X152483Y-83852D01*
X152572Y-83889D01*
X152741Y-83889D01*
X152897Y-83825D01*
X153017Y-83705D01*
X153082Y-83549D01*
X153082Y-83380D01*
X153017Y-83224D01*
X152898Y-83104D01*
X152742Y-83039D01*
X152636Y-83039D01*
X152700Y-82974D01*
X152753Y-82848D01*
X152795Y-82949D01*
X152888Y-82974D01*
X153185Y-82677D01*
X153185Y-82818D01*
X152958Y-83044D01*
X152983Y-83137D01*
X153180Y-83207D01*
X153388Y-83195D01*
X153528Y-83137D01*
X153552Y-83044D01*
X153552Y-93356D01*
X153439Y-93356D01*
X153246Y-93436D01*
X153098Y-93584D01*
X153018Y-93777D01*
X153018Y-93985D01*
X153097Y-94178D01*
X153245Y-94326D01*
X153438Y-94406D01*
X153647Y-94406D01*
X153840Y-94327D01*
X153988Y-94179D01*
X154068Y-93986D01*
X154068Y-93777D01*
X154068Y-95777D01*
X153988Y-95584D01*
X153841Y-95437D01*
X153648Y-95356D01*
X153439Y-95356D01*
X153246Y-95436D01*
X153098Y-95584D01*
X153018Y-95777D01*
X153018Y-95985D01*
X153097Y-96178D01*
X153245Y-96326D01*
X153438Y-96406D01*
X153647Y-96406D01*
X153840Y-96327D01*
X153988Y-96179D01*
X154068Y-95986D01*
X154068Y-95777D01*
X154068Y-96895D01*
X152484Y-96895D01*
X152625Y-96754D01*
X152706Y-96561D01*
X152706Y-96352D01*
X152626Y-96159D01*
X152478Y-96011D01*
X152285Y-95931D01*
X152099Y-95931D01*
X152099Y-94596D01*
X152099Y-92596D01*
X152020Y-92403D01*
X151872Y-92255D01*
X151679Y-92175D01*
X151470Y-92175D01*
X151277Y-92255D01*
X151129Y-92403D01*
X151049Y-92595D01*
X151049Y-92804D01*
X151129Y-92997D01*
X151277Y-93145D01*
X151469Y-93225D01*
X151678Y-93225D01*
X151871Y-93146D01*
X152019Y-92998D01*
X152099Y-92805D01*
X152099Y-92596D01*
X152099Y-94596D01*
X152020Y-94403D01*
X151872Y-94255D01*
X151679Y-94175D01*
X151470Y-94175D01*
X151277Y-94255D01*
X151129Y-94403D01*
X151049Y-94595D01*
X151049Y-94804D01*
X151129Y-94997D01*
X151277Y-95145D01*
X151469Y-95225D01*
X151678Y-95225D01*
X151871Y-95146D01*
X152019Y-94998D01*
X152099Y-94805D01*
X152099Y-94596D01*
X152099Y-95931D01*
X152077Y-95931D01*
X151884Y-96011D01*
X151736Y-96158D01*
X151656Y-96351D01*
X151656Y-96560D01*
X151735Y-96753D01*
X151877Y-96895D01*
X150484Y-96895D01*
X150625Y-96754D01*
X150706Y-96561D01*
X150706Y-96352D01*
X150626Y-96159D01*
X150478Y-96011D01*
X150285Y-95931D01*
X150153Y-95931D01*
X149787Y-95566D01*
X149668Y-95486D01*
X149527Y-95458D01*
X149275Y-95458D01*
X149348Y-95261D01*
X149348Y-93135D01*
X149339Y-92879D01*
X149259Y-92687D01*
X149154Y-92648D01*
X149083Y-92719D01*
X149083Y-92577D01*
X149044Y-92472D01*
X148804Y-92383D01*
X148549Y-92393D01*
X148356Y-92472D01*
X148317Y-92577D01*
X148700Y-92960D01*
X149083Y-92577D01*
X149083Y-92719D01*
X148771Y-93031D01*
X149154Y-93414D01*
X149259Y-93375D01*
X149348Y-93135D01*
X149348Y-95261D01*
X149339Y-95005D01*
X149259Y-94813D01*
X149154Y-94774D01*
X149083Y-94845D01*
X149083Y-94703D01*
X149083Y-93485D01*
X148700Y-93102D01*
X148630Y-93172D01*
X148630Y-93031D01*
X148247Y-92648D01*
X148142Y-92687D01*
X148053Y-92927D01*
X148062Y-93183D01*
X148142Y-93375D01*
X148247Y-93414D01*
X148630Y-93031D01*
X148630Y-93172D01*
X148317Y-93485D01*
X148356Y-93590D01*
X148596Y-93679D01*
X148852Y-93669D01*
X149044Y-93590D01*
X149083Y-93485D01*
X149083Y-94703D01*
X149044Y-94598D01*
X148804Y-94509D01*
X148549Y-94519D01*
X148356Y-94598D01*
X148317Y-94703D01*
X148700Y-95086D01*
X149083Y-94703D01*
X149083Y-94845D01*
X148771Y-95157D01*
X148777Y-95163D01*
X148706Y-95233D01*
X148700Y-95228D01*
X148695Y-95233D01*
X148624Y-95163D01*
X148630Y-95157D01*
X148247Y-94774D01*
X148142Y-94813D01*
X148106Y-94908D01*
X148005Y-94808D01*
X148005Y-94636D01*
X148183Y-94459D01*
X148281Y-94223D01*
X148281Y-93967D01*
X148183Y-93730D01*
X148002Y-93549D01*
X147766Y-93451D01*
X147510Y-93450D01*
X147273Y-93548D01*
X147222Y-93599D01*
X147222Y-93135D01*
X147213Y-92879D01*
X147133Y-92687D01*
X147028Y-92648D01*
X146957Y-92719D01*
X146957Y-92577D01*
X146918Y-92472D01*
X146678Y-92383D01*
X146423Y-92393D01*
X146230Y-92472D01*
X146191Y-92577D01*
X146574Y-92960D01*
X146957Y-92577D01*
X146957Y-92719D01*
X146645Y-93031D01*
X147028Y-93414D01*
X147133Y-93375D01*
X147222Y-93135D01*
X147222Y-93599D01*
X147092Y-93729D01*
X146994Y-93965D01*
X146994Y-94221D01*
X147091Y-94458D01*
X147269Y-94636D01*
X147269Y-94960D01*
X147297Y-95101D01*
X147377Y-95220D01*
X148243Y-96087D01*
X148243Y-96087D01*
X148363Y-96166D01*
X148503Y-96194D01*
X148503Y-96194D01*
X148503Y-96194D01*
X149375Y-96194D01*
X149656Y-96475D01*
X149656Y-96560D01*
X149735Y-96753D01*
X149877Y-96895D01*
X147222Y-96895D01*
X147222Y-95261D01*
X147213Y-95005D01*
X147133Y-94813D01*
X147028Y-94774D01*
X146957Y-94845D01*
X146957Y-94703D01*
X146957Y-93485D01*
X146574Y-93102D01*
X146504Y-93172D01*
X146504Y-93031D01*
X146121Y-92648D01*
X146016Y-92687D01*
X145927Y-92927D01*
X145936Y-93183D01*
X146016Y-93375D01*
X146121Y-93414D01*
X146504Y-93031D01*
X146504Y-93172D01*
X146191Y-93485D01*
X146230Y-93590D01*
X146470Y-93679D01*
X146726Y-93669D01*
X146918Y-93590D01*
X146957Y-93485D01*
X146957Y-94703D01*
X146918Y-94598D01*
X146678Y-94509D01*
X146423Y-94519D01*
X146230Y-94598D01*
X146191Y-94703D01*
X146574Y-95086D01*
X146957Y-94703D01*
X146957Y-94845D01*
X146645Y-95157D01*
X147028Y-95540D01*
X147133Y-95501D01*
X147222Y-95261D01*
X147222Y-96895D01*
X146957Y-96895D01*
X146957Y-95611D01*
X146574Y-95228D01*
X146504Y-95298D01*
X146504Y-95157D01*
X146121Y-94774D01*
X146016Y-94813D01*
X145927Y-95053D01*
X145936Y-95309D01*
X146016Y-95501D01*
X146121Y-95540D01*
X146504Y-95157D01*
X146504Y-95298D01*
X146191Y-95611D01*
X146230Y-95716D01*
X146470Y-95805D01*
X146726Y-95795D01*
X146918Y-95716D01*
X146957Y-95611D01*
X146957Y-96895D01*
X145569Y-96895D01*
X145569Y-95826D01*
X145569Y-94626D01*
X145531Y-94534D01*
X145461Y-94463D01*
X145385Y-94432D01*
X145385Y-94325D01*
X145321Y-94169D01*
X145201Y-94049D01*
X145045Y-93984D01*
X144876Y-93984D01*
X144720Y-94048D01*
X144600Y-94168D01*
X144535Y-94324D01*
X144535Y-94460D01*
X144528Y-94463D01*
X144457Y-94533D01*
X144419Y-94625D01*
X144419Y-94725D01*
X144419Y-95925D01*
X144457Y-96017D01*
X144527Y-96087D01*
X144619Y-96125D01*
X144718Y-96125D01*
X145368Y-96125D01*
X145460Y-96087D01*
X145531Y-96017D01*
X145569Y-95925D01*
X145569Y-95826D01*
X145569Y-96895D01*
X132710Y-96895D01*
X132710Y-95713D01*
X132731Y-95734D01*
X132887Y-95798D01*
X132967Y-95799D01*
X132967Y-95866D01*
X132990Y-95980D01*
X133055Y-96078D01*
X133087Y-96109D01*
X133184Y-96174D01*
X133279Y-96193D01*
X133279Y-96193D01*
X133285Y-96208D01*
X133440Y-96363D01*
X133642Y-96447D01*
X133860Y-96447D01*
X134063Y-96364D01*
X134201Y-96225D01*
X134201Y-96247D01*
X134239Y-96339D01*
X134310Y-96409D01*
X134402Y-96447D01*
X134501Y-96447D01*
X135101Y-96447D01*
X135193Y-96409D01*
X135263Y-96339D01*
X135270Y-96324D01*
X135516Y-96570D01*
X135516Y-96570D01*
X135613Y-96635D01*
X135728Y-96658D01*
X135728Y-96658D01*
X138803Y-96658D01*
X138803Y-96658D01*
X138917Y-96635D01*
X138917Y-96635D01*
X139015Y-96570D01*
X139194Y-96391D01*
X139619Y-96391D01*
X139711Y-96353D01*
X139782Y-96282D01*
X139820Y-96191D01*
X139820Y-96166D01*
X140944Y-96166D01*
X140944Y-96166D01*
X141059Y-96143D01*
X141059Y-96143D01*
X141157Y-96078D01*
X141233Y-96001D01*
X141207Y-96064D01*
X141207Y-96273D01*
X141286Y-96466D01*
X141434Y-96614D01*
X141627Y-96694D01*
X141836Y-96694D01*
X142029Y-96614D01*
X142177Y-96467D01*
X142257Y-96274D01*
X142257Y-96065D01*
X142217Y-95969D01*
X142637Y-95969D01*
X142657Y-96017D01*
X142727Y-96087D01*
X142819Y-96125D01*
X142918Y-96125D01*
X143568Y-96125D01*
X143660Y-96087D01*
X143731Y-96017D01*
X143769Y-95925D01*
X143769Y-95826D01*
X143769Y-94626D01*
X143731Y-94534D01*
X143661Y-94463D01*
X143569Y-94425D01*
X143469Y-94425D01*
X143162Y-94425D01*
X142828Y-94091D01*
X142828Y-89498D01*
X142838Y-89494D01*
X142958Y-89374D01*
X143023Y-89218D01*
X143023Y-89049D01*
X142958Y-88893D01*
X142839Y-88773D01*
X142683Y-88708D01*
X142514Y-88708D01*
X142357Y-88773D01*
X142238Y-88892D01*
X142194Y-88998D01*
X142166Y-89017D01*
X142082Y-89142D01*
X142053Y-89291D01*
X142053Y-92282D01*
X141957Y-92282D01*
X141623Y-92282D01*
X141623Y-82902D01*
X141623Y-82352D01*
X141585Y-82260D01*
X141515Y-82190D01*
X141423Y-82152D01*
X141323Y-82152D01*
X140773Y-82152D01*
X140681Y-82190D01*
X140611Y-82260D01*
X140573Y-82352D01*
X140573Y-82451D01*
X140573Y-82451D01*
X140543Y-82380D01*
X140396Y-82232D01*
X140203Y-82152D01*
X139994Y-82152D01*
X139801Y-82231D01*
X139653Y-82379D01*
X139598Y-82512D01*
X139543Y-82380D01*
X139396Y-82232D01*
X139203Y-82152D01*
X138994Y-82152D01*
X138801Y-82231D01*
X138653Y-82379D01*
X138598Y-82512D01*
X138543Y-82380D01*
X138396Y-82232D01*
X138203Y-82152D01*
X137994Y-82152D01*
X137801Y-82231D01*
X137653Y-82379D01*
X137598Y-82512D01*
X137543Y-82380D01*
X137396Y-82232D01*
X137203Y-82152D01*
X136994Y-82152D01*
X136801Y-82231D01*
X136653Y-82379D01*
X136598Y-82512D01*
X136543Y-82380D01*
X136396Y-82232D01*
X136203Y-82152D01*
X135994Y-82152D01*
X135801Y-82231D01*
X135653Y-82379D01*
X135598Y-82512D01*
X135543Y-82380D01*
X135396Y-82232D01*
X135203Y-82152D01*
X134994Y-82152D01*
X134801Y-82231D01*
X134653Y-82379D01*
X134598Y-82512D01*
X134543Y-82380D01*
X134396Y-82232D01*
X134203Y-82152D01*
X133994Y-82152D01*
X133801Y-82231D01*
X133653Y-82379D01*
X133573Y-82572D01*
X133573Y-82781D01*
X133653Y-82974D01*
X133800Y-83121D01*
X133993Y-83202D01*
X134202Y-83202D01*
X134395Y-83122D01*
X134543Y-82974D01*
X134598Y-82841D01*
X134653Y-82974D01*
X134800Y-83121D01*
X134993Y-83202D01*
X135202Y-83202D01*
X135395Y-83122D01*
X135543Y-82974D01*
X135598Y-82841D01*
X135653Y-82974D01*
X135800Y-83121D01*
X135993Y-83202D01*
X136202Y-83202D01*
X136395Y-83122D01*
X136543Y-82974D01*
X136598Y-82841D01*
X136653Y-82974D01*
X136800Y-83121D01*
X136993Y-83202D01*
X137202Y-83202D01*
X137395Y-83122D01*
X137543Y-82974D01*
X137598Y-82841D01*
X137653Y-82974D01*
X137800Y-83121D01*
X137993Y-83202D01*
X138202Y-83202D01*
X138395Y-83122D01*
X138543Y-82974D01*
X138598Y-82841D01*
X138653Y-82974D01*
X138800Y-83121D01*
X138993Y-83202D01*
X139202Y-83202D01*
X139395Y-83122D01*
X139543Y-82974D01*
X139598Y-82841D01*
X139653Y-82974D01*
X139800Y-83121D01*
X139993Y-83202D01*
X140202Y-83202D01*
X140395Y-83122D01*
X140543Y-82974D01*
X140573Y-82902D01*
X140573Y-83001D01*
X140611Y-83093D01*
X140681Y-83163D01*
X140773Y-83202D01*
X140798Y-83202D01*
X140798Y-85019D01*
X140732Y-85063D01*
X140630Y-85165D01*
X140545Y-85165D01*
X140389Y-85230D01*
X140269Y-85349D01*
X140204Y-85505D01*
X140204Y-85674D01*
X140269Y-85830D01*
X140388Y-85950D01*
X140545Y-86015D01*
X140714Y-86015D01*
X140870Y-85951D01*
X140990Y-85831D01*
X141054Y-85675D01*
X141054Y-85589D01*
X141069Y-85575D01*
X141078Y-85575D01*
X141098Y-85579D01*
X141213Y-85556D01*
X141310Y-85491D01*
X141375Y-85394D01*
X141398Y-85279D01*
X141398Y-85275D01*
X141398Y-83202D01*
X141422Y-83202D01*
X141514Y-83164D01*
X141585Y-83093D01*
X141623Y-83002D01*
X141623Y-82902D01*
X141623Y-92282D01*
X141407Y-92282D01*
X141315Y-92320D01*
X141245Y-92390D01*
X141207Y-92482D01*
X141207Y-92581D01*
X141207Y-93131D01*
X141245Y-93223D01*
X141315Y-93293D01*
X141407Y-93332D01*
X141506Y-93332D01*
X141506Y-93332D01*
X141435Y-93361D01*
X141287Y-93509D01*
X141207Y-93702D01*
X141207Y-93911D01*
X141286Y-94104D01*
X141434Y-94251D01*
X141627Y-94331D01*
X141836Y-94332D01*
X142029Y-94252D01*
X142053Y-94228D01*
X142053Y-94251D01*
X142082Y-94400D01*
X142166Y-94526D01*
X142614Y-94973D01*
X142553Y-95034D01*
X142488Y-95190D01*
X142488Y-95359D01*
X142492Y-95369D01*
X142257Y-95369D01*
X142257Y-94844D01*
X142219Y-94752D01*
X142149Y-94682D01*
X142057Y-94644D01*
X141957Y-94644D01*
X141844Y-94644D01*
X141782Y-94706D01*
X141782Y-95119D01*
X142194Y-95119D01*
X142257Y-95056D01*
X142257Y-94844D01*
X142257Y-95369D01*
X142257Y-95369D01*
X142257Y-95281D01*
X142194Y-95219D01*
X141782Y-95219D01*
X141782Y-95227D01*
X141682Y-95227D01*
X141682Y-95219D01*
X141682Y-95119D01*
X141682Y-94706D01*
X141619Y-94644D01*
X141506Y-94644D01*
X141407Y-94644D01*
X141315Y-94682D01*
X141245Y-94752D01*
X141207Y-94844D01*
X141207Y-95056D01*
X141269Y-95119D01*
X141682Y-95119D01*
X141682Y-95219D01*
X141269Y-95219D01*
X141207Y-95281D01*
X141207Y-95369D01*
X141141Y-95369D01*
X141133Y-95370D01*
X141133Y-88183D01*
X141069Y-88027D01*
X140949Y-87907D01*
X140793Y-87842D01*
X140624Y-87842D01*
X140468Y-87907D01*
X140458Y-87916D01*
X140439Y-87869D01*
X140319Y-87750D01*
X140163Y-87685D01*
X140078Y-87685D01*
X139739Y-87346D01*
X139642Y-87281D01*
X139527Y-87259D01*
X137308Y-87259D01*
X137248Y-87198D01*
X137092Y-87134D01*
X136923Y-87133D01*
X136767Y-87198D01*
X136647Y-87317D01*
X136593Y-87448D01*
X136530Y-87448D01*
X136373Y-87513D01*
X136254Y-87632D01*
X136189Y-87789D01*
X136189Y-87958D01*
X136253Y-88114D01*
X136373Y-88234D01*
X136529Y-88298D01*
X136698Y-88299D01*
X136854Y-88234D01*
X136915Y-88174D01*
X136976Y-88174D01*
X136976Y-88273D01*
X137041Y-88429D01*
X137160Y-88549D01*
X137316Y-88613D01*
X137337Y-88613D01*
X137337Y-88818D01*
X137347Y-88865D01*
X137353Y-88913D01*
X137501Y-89360D01*
X137397Y-89403D01*
X137336Y-89463D01*
X136566Y-89463D01*
X136566Y-89443D01*
X136502Y-89287D01*
X136382Y-89167D01*
X136226Y-89102D01*
X136057Y-89102D01*
X135901Y-89167D01*
X135781Y-89286D01*
X135716Y-89442D01*
X135716Y-89527D01*
X135714Y-89523D01*
X135595Y-89403D01*
X135439Y-89338D01*
X135270Y-89338D01*
X135113Y-89403D01*
X134994Y-89522D01*
X134929Y-89678D01*
X134929Y-89847D01*
X134993Y-90004D01*
X135113Y-90123D01*
X135269Y-90188D01*
X135380Y-90188D01*
X135384Y-90190D01*
X135397Y-90198D01*
X135440Y-90206D01*
X135482Y-90219D01*
X135726Y-90244D01*
X135665Y-90269D01*
X135545Y-90388D01*
X135480Y-90545D01*
X135480Y-90714D01*
X135545Y-90870D01*
X135605Y-90930D01*
X135605Y-91929D01*
X135628Y-92043D01*
X135693Y-92141D01*
X137055Y-93503D01*
X137055Y-93588D01*
X137119Y-93744D01*
X137239Y-93864D01*
X137395Y-93928D01*
X137564Y-93929D01*
X137720Y-93864D01*
X137840Y-93744D01*
X137905Y-93588D01*
X137905Y-93419D01*
X137840Y-93263D01*
X137721Y-93143D01*
X137565Y-93079D01*
X137479Y-93078D01*
X136205Y-91804D01*
X136205Y-90930D01*
X136265Y-90870D01*
X136330Y-90714D01*
X136330Y-90545D01*
X136266Y-90389D01*
X136164Y-90287D01*
X136175Y-90288D01*
X136612Y-90663D01*
X136905Y-91205D01*
X137026Y-91605D01*
X136976Y-91726D01*
X136976Y-91895D01*
X137041Y-92051D01*
X137160Y-92171D01*
X137316Y-92235D01*
X137485Y-92236D01*
X137642Y-92171D01*
X137761Y-92052D01*
X137826Y-91895D01*
X137826Y-91726D01*
X137762Y-91570D01*
X137642Y-91450D01*
X137601Y-91433D01*
X137472Y-91005D01*
X137458Y-90980D01*
X137449Y-90948D01*
X137114Y-90329D01*
X137079Y-90288D01*
X137045Y-90244D01*
X136834Y-90063D01*
X137336Y-90063D01*
X137396Y-90123D01*
X137552Y-90188D01*
X137721Y-90188D01*
X137751Y-90176D01*
X137740Y-90556D01*
X137671Y-90625D01*
X137606Y-90781D01*
X137606Y-90950D01*
X137670Y-91106D01*
X137790Y-91226D01*
X137946Y-91291D01*
X138115Y-91291D01*
X138271Y-91226D01*
X138391Y-91107D01*
X138456Y-90951D01*
X138456Y-90781D01*
X138392Y-90625D01*
X138340Y-90573D01*
X138359Y-89931D01*
X138357Y-89922D01*
X138360Y-89907D01*
X138345Y-89849D01*
X138339Y-89815D01*
X138335Y-89808D01*
X138331Y-89793D01*
X138151Y-89412D01*
X137937Y-88770D01*
X137937Y-88663D01*
X137995Y-88702D01*
X138110Y-88725D01*
X138110Y-88725D01*
X140551Y-88725D01*
X140551Y-88725D01*
X140665Y-88702D01*
X140665Y-88702D01*
X140680Y-88692D01*
X140792Y-88692D01*
X140949Y-88628D01*
X141068Y-88508D01*
X141133Y-88352D01*
X141133Y-88183D01*
X141133Y-95370D01*
X141026Y-95392D01*
X140929Y-95457D01*
X140820Y-95566D01*
X140592Y-95566D01*
X140592Y-92907D01*
X140512Y-92714D01*
X140364Y-92566D01*
X140171Y-92486D01*
X139962Y-92486D01*
X139769Y-92566D01*
X139622Y-92714D01*
X139591Y-92786D01*
X139591Y-92687D01*
X139553Y-92595D01*
X139483Y-92524D01*
X139391Y-92486D01*
X139292Y-92486D01*
X138742Y-92486D01*
X138650Y-92524D01*
X138580Y-92595D01*
X138541Y-92686D01*
X138541Y-92786D01*
X138541Y-93336D01*
X138579Y-93428D01*
X138650Y-93498D01*
X138741Y-93536D01*
X138841Y-93536D01*
X139391Y-93536D01*
X139483Y-93498D01*
X139553Y-93428D01*
X139591Y-93336D01*
X139591Y-93237D01*
X139591Y-93237D01*
X139621Y-93308D01*
X139769Y-93456D01*
X139962Y-93536D01*
X140170Y-93536D01*
X140363Y-93457D01*
X140511Y-93309D01*
X140591Y-93116D01*
X140592Y-92907D01*
X140592Y-95566D01*
X139820Y-95566D01*
X139820Y-95541D01*
X139820Y-94910D01*
X139820Y-94360D01*
X139782Y-94268D01*
X139712Y-94198D01*
X139620Y-94160D01*
X139520Y-94159D01*
X138970Y-94159D01*
X138878Y-94197D01*
X138808Y-94268D01*
X138770Y-94360D01*
X138770Y-94447D01*
X138755Y-94412D01*
X138663Y-94387D01*
X138592Y-94458D01*
X138592Y-94317D01*
X138568Y-94224D01*
X138371Y-94155D01*
X138162Y-94166D01*
X138022Y-94224D01*
X137998Y-94317D01*
X138295Y-94614D01*
X138592Y-94317D01*
X138592Y-94458D01*
X138365Y-94685D01*
X138663Y-94982D01*
X138755Y-94957D01*
X138770Y-94916D01*
X138770Y-95009D01*
X138808Y-95101D01*
X138878Y-95171D01*
X138970Y-95209D01*
X139069Y-95210D01*
X139619Y-95210D01*
X139711Y-95172D01*
X139782Y-95101D01*
X139820Y-95009D01*
X139820Y-94910D01*
X139820Y-95541D01*
X139782Y-95449D01*
X139712Y-95379D01*
X139620Y-95341D01*
X139520Y-95341D01*
X138970Y-95341D01*
X138878Y-95379D01*
X138808Y-95449D01*
X138770Y-95541D01*
X138770Y-95628D01*
X138755Y-95593D01*
X138663Y-95569D01*
X138592Y-95639D01*
X138592Y-95498D01*
X138592Y-95052D01*
X138295Y-94755D01*
X138224Y-94826D01*
X138224Y-94685D01*
X137927Y-94387D01*
X137834Y-94412D01*
X137796Y-94522D01*
X137740Y-94388D01*
X137593Y-94240D01*
X137400Y-94160D01*
X137191Y-94159D01*
X136998Y-94239D01*
X136850Y-94387D01*
X136795Y-94520D01*
X136740Y-94388D01*
X136593Y-94240D01*
X136400Y-94160D01*
X136191Y-94159D01*
X135998Y-94239D01*
X135850Y-94387D01*
X135770Y-94580D01*
X135770Y-94789D01*
X135849Y-94982D01*
X135997Y-95129D01*
X136190Y-95209D01*
X136399Y-95210D01*
X136592Y-95130D01*
X136740Y-94982D01*
X136795Y-94849D01*
X136849Y-94982D01*
X136997Y-95129D01*
X137190Y-95209D01*
X137399Y-95210D01*
X137592Y-95130D01*
X137740Y-94982D01*
X137792Y-94856D01*
X137834Y-94957D01*
X137927Y-94982D01*
X138224Y-94685D01*
X138224Y-94826D01*
X137998Y-95052D01*
X138022Y-95145D01*
X138219Y-95214D01*
X138428Y-95203D01*
X138568Y-95145D01*
X138592Y-95052D01*
X138592Y-95498D01*
X138568Y-95405D01*
X138371Y-95336D01*
X138162Y-95347D01*
X138022Y-95405D01*
X137998Y-95498D01*
X138295Y-95795D01*
X138592Y-95498D01*
X138592Y-95639D01*
X138365Y-95866D01*
X138371Y-95871D01*
X138300Y-95942D01*
X138295Y-95936D01*
X138289Y-95942D01*
X138218Y-95871D01*
X138224Y-95866D01*
X137927Y-95569D01*
X137834Y-95593D01*
X137796Y-95703D01*
X137740Y-95569D01*
X137593Y-95421D01*
X137400Y-95341D01*
X137191Y-95341D01*
X136998Y-95420D01*
X136850Y-95568D01*
X136795Y-95701D01*
X136740Y-95569D01*
X136593Y-95421D01*
X136400Y-95341D01*
X136191Y-95341D01*
X135998Y-95420D01*
X135850Y-95568D01*
X135770Y-95761D01*
X135770Y-95970D01*
X135774Y-95979D01*
X135479Y-95685D01*
X135382Y-95620D01*
X135306Y-95605D01*
X135306Y-94979D01*
X135306Y-93979D01*
X135295Y-93760D01*
X135233Y-93609D01*
X135137Y-93582D01*
X134822Y-93897D01*
X135137Y-94212D01*
X135233Y-94185D01*
X135306Y-93979D01*
X135306Y-94979D01*
X135295Y-94760D01*
X135233Y-94609D01*
X135137Y-94582D01*
X135067Y-94653D01*
X135067Y-94511D01*
X135039Y-94416D01*
X134991Y-94399D01*
X135039Y-94378D01*
X135067Y-94283D01*
X134751Y-93968D01*
X134436Y-94283D01*
X134464Y-94378D01*
X134512Y-94396D01*
X134464Y-94416D01*
X134436Y-94511D01*
X134751Y-94826D01*
X135067Y-94511D01*
X135067Y-94653D01*
X134822Y-94897D01*
X135137Y-95212D01*
X135233Y-95185D01*
X135306Y-94979D01*
X135306Y-95605D01*
X135302Y-95604D01*
X135302Y-95548D01*
X135264Y-95456D01*
X135193Y-95385D01*
X135101Y-95347D01*
X135048Y-95347D01*
X135067Y-95283D01*
X134751Y-94968D01*
X134436Y-95283D01*
X134455Y-95347D01*
X134402Y-95347D01*
X134310Y-95385D01*
X134240Y-95455D01*
X134202Y-95547D01*
X134201Y-95569D01*
X134063Y-95431D01*
X133982Y-95397D01*
X134063Y-95364D01*
X134217Y-95209D01*
X134249Y-95133D01*
X134270Y-95185D01*
X134366Y-95212D01*
X134681Y-94897D01*
X134366Y-94582D01*
X134270Y-94609D01*
X134250Y-94665D01*
X134218Y-94586D01*
X134063Y-94431D01*
X133982Y-94397D01*
X134063Y-94364D01*
X134217Y-94209D01*
X134249Y-94133D01*
X134270Y-94185D01*
X134366Y-94212D01*
X134681Y-93897D01*
X134366Y-93582D01*
X134270Y-93609D01*
X134250Y-93665D01*
X134218Y-93586D01*
X134063Y-93431D01*
X133982Y-93397D01*
X134063Y-93364D01*
X134217Y-93209D01*
X134251Y-93127D01*
X134285Y-93208D01*
X134440Y-93363D01*
X134515Y-93395D01*
X134464Y-93416D01*
X134436Y-93511D01*
X134751Y-93826D01*
X135067Y-93511D01*
X135039Y-93416D01*
X134984Y-93396D01*
X135063Y-93364D01*
X135217Y-93209D01*
X135301Y-93007D01*
X135302Y-92788D01*
X135218Y-92586D01*
X135063Y-92431D01*
X134982Y-92397D01*
X135063Y-92364D01*
X135217Y-92209D01*
X135301Y-92007D01*
X135302Y-91788D01*
X135218Y-91586D01*
X135063Y-91431D01*
X134861Y-91347D01*
X134643Y-91347D01*
X134440Y-91431D01*
X134285Y-91585D01*
X134251Y-91667D01*
X134218Y-91586D01*
X134063Y-91431D01*
X133861Y-91347D01*
X133643Y-91347D01*
X133567Y-91378D01*
X133567Y-88903D01*
X133660Y-88810D01*
X133745Y-88810D01*
X133901Y-88746D01*
X134021Y-88626D01*
X134086Y-88470D01*
X134086Y-88301D01*
X134021Y-88145D01*
X133902Y-88025D01*
X133746Y-87960D01*
X133577Y-87960D01*
X133420Y-88025D01*
X133370Y-88075D01*
X133370Y-87624D01*
X133873Y-87121D01*
X133873Y-87121D01*
X133938Y-87024D01*
X133961Y-86909D01*
X133961Y-86909D01*
X133961Y-85852D01*
X134152Y-85661D01*
X134237Y-85661D01*
X134393Y-85596D01*
X134513Y-85477D01*
X134578Y-85321D01*
X134578Y-85152D01*
X134514Y-84995D01*
X134394Y-84876D01*
X134238Y-84811D01*
X134069Y-84811D01*
X133913Y-84875D01*
X133793Y-84995D01*
X133728Y-85151D01*
X133728Y-85236D01*
X133449Y-85516D01*
X133384Y-85613D01*
X133361Y-85728D01*
X133361Y-86785D01*
X132858Y-87287D01*
X132793Y-87385D01*
X132770Y-87500D01*
X132770Y-94997D01*
X132732Y-95013D01*
X132710Y-95034D01*
X132710Y-82001D01*
X154454Y-82001D01*
X154454Y-96895D01*
M02*
