M48
;DRILL file {Pcbnew (2013-may-18)-stable} date Mon 02 Feb 2015 06:39:51 PM EST
;FORMAT={-:-/ absolute / inch / decimal}
FMAT,2
INCH,TZ
T1C0.025
T2C0.032
T3C0.039
T4C0.040
%
G90
G05
M72
T1
X13.2972Y-9.5374
X13.3661Y-8.8386
X13.3661Y-9.0256
X13.4154Y-8.5236
X13.5354Y-8.9764
X13.5906Y-9.063
X13.6142Y-8.8189
X13.6142Y-8.9528
X13.6417Y-9.0551
X13.6614Y-8.7874
X13.7008Y-8.7559
X13.7402Y-8.8189
X13.7402Y-9.1811
X13.748Y-9.3504
X13.7638Y-8.9764
X13.8031Y-9.0866
X14.0079Y-8.811
X14.063Y-8.5591
X14.0709Y-8.8268
X14.2598Y-8.9134
X14.2913Y-9.5276
X14.4961Y-9.4409
X14.8898Y-8.5354
X15.2657Y-8.3465
X15.2756Y-8.5984
X15.3228Y-8.9528
X15.3307Y-9.1969
T2
X13.4098Y-8.2677
X13.5098Y-8.2677
X13.6098Y-8.2677
X13.6295Y-9.4685
X13.6295Y-9.5866
X13.7098Y-8.2677
X13.7295Y-9.4685
X13.7295Y-9.5866
X13.8098Y-8.2677
X13.8295Y-9.4685
X13.8295Y-9.5866
X13.9067Y-9.3012
X13.9098Y-8.2677
X13.9295Y-9.4685
X13.9295Y-9.5866
X14.0067Y-9.3012
X14.0098Y-8.2677
X14.1098Y-8.2677
X14.1732Y-9.2807
X14.1732Y-9.3807
X14.1732Y-9.5169
X14.1732Y-9.6169
X14.7531Y-8.2677
X14.8531Y-8.2677
X14.9894Y-8.2677
X15.0181Y-9.6457
X15.0894Y-8.2677
X15.1575Y-9.2701
X15.1575Y-9.4701
X15.2181Y-9.6457
X15.2256Y-8.2677
X15.3256Y-8.2677
X15.3543Y-9.3882
X15.3543Y-9.5882
T3
X14.6575Y-9.3031
X14.6575Y-9.5157
X14.7638Y-9.4094
X14.8701Y-9.3031
X14.8701Y-9.5157
T4
X13.3752Y-9.1898
X13.3752Y-9.2898
X13.3752Y-9.3898
X13.3752Y-9.4898
X13.3752Y-9.5898
X13.4752Y-9.1898
X13.4752Y-9.2898
X13.4752Y-9.3898
X13.4752Y-9.4898
X13.4752Y-9.5898
T0
M30
