G04 (created by PCBNEW (2013-may-18)-stable) date Mon 02 Feb 2015 06:39:45 PM EST*
%MOIN*%
G04 Gerber Fmt 3.4, Leading zero omitted, Abs format*
%FSLAX34Y34*%
G01*
G70*
G90*
G04 APERTURE LIST*
%ADD10C,0.00590551*%
%ADD11C,0.0787*%
%ADD12R,0.055X0.055*%
%ADD13C,0.055*%
%ADD14R,0.06X0.06*%
%ADD15C,0.06*%
%ADD16R,0.065X0.12*%
%ADD17R,0.24X0.24*%
G04 APERTURE END LIST*
G54D10*
G54D11*
X147637Y-94094D03*
X146574Y-93031D03*
X146574Y-95157D03*
X148700Y-95157D03*
X148700Y-93031D03*
G54D12*
X141098Y-82677D03*
G54D13*
X140098Y-82677D03*
X139098Y-82677D03*
X138098Y-82677D03*
X137098Y-82677D03*
X136098Y-82677D03*
X135098Y-82677D03*
X134098Y-82677D03*
G54D12*
X139295Y-94685D03*
G54D13*
X138295Y-94685D03*
X137295Y-94685D03*
X136295Y-94685D03*
G54D12*
X139295Y-95866D03*
G54D13*
X138295Y-95866D03*
X137295Y-95866D03*
X136295Y-95866D03*
G54D12*
X148531Y-82677D03*
G54D13*
X147531Y-82677D03*
G54D12*
X139066Y-93011D03*
G54D13*
X140066Y-93011D03*
G54D12*
X149893Y-82677D03*
G54D13*
X150893Y-82677D03*
G54D12*
X141732Y-92807D03*
G54D13*
X141732Y-93807D03*
G54D12*
X141732Y-95169D03*
G54D13*
X141732Y-96169D03*
G54D14*
X134751Y-95897D03*
G54D15*
X133751Y-95897D03*
X134751Y-94897D03*
X133751Y-94897D03*
X134751Y-93897D03*
X133751Y-93897D03*
X134751Y-92897D03*
X133751Y-92897D03*
X134751Y-91897D03*
X133751Y-91897D03*
G54D16*
X144994Y-95275D03*
G54D17*
X144094Y-92775D03*
G54D16*
X143194Y-95275D03*
G54D13*
X151574Y-92700D03*
X151574Y-94700D03*
X153543Y-93881D03*
X153543Y-95881D03*
X152181Y-96456D03*
X150181Y-96456D03*
X152255Y-82677D03*
X153255Y-82677D03*
M02*
