G04 (created by PCBNEW (2013-may-18)-stable) date Mon 02 Feb 2015 06:47:34 PM EST*
%MOIN*%
G04 Gerber Fmt 3.4, Leading zero omitted, Abs format*
%FSLAX34Y34*%
G01*
G70*
G90*
G04 APERTURE LIST*
%ADD10C,0.00590551*%
%ADD11C,0.015*%
%ADD12C,0.006*%
%ADD13C,0.0039*%
%ADD14C,0.012*%
%ADD15C,0.0026*%
%ADD16C,0.004*%
%ADD17C,0.002*%
%ADD18C,0.008*%
%ADD19C,0.0043*%
%ADD20C,0.0107*%
%ADD21C,0.01*%
%ADD22C,0.005*%
G04 APERTURE END LIST*
G54D10*
G54D11*
X146397Y-95334D02*
X146397Y-92854D01*
X146397Y-92854D02*
X148877Y-92854D01*
X148877Y-92854D02*
X148877Y-95334D01*
X148877Y-95334D02*
X146397Y-95334D01*
G54D12*
X137310Y-85027D02*
X137310Y-85477D01*
X135130Y-85027D02*
X135130Y-85467D01*
X137310Y-85027D02*
X135130Y-85027D01*
X137780Y-85907D02*
X138210Y-85907D01*
X137790Y-88117D02*
X138210Y-88117D01*
X138210Y-88127D02*
X138220Y-85907D01*
X134240Y-88107D02*
X134230Y-85937D01*
X134930Y-88537D02*
X137760Y-88537D01*
X134240Y-85927D02*
X134650Y-85927D01*
X134690Y-88287D02*
X134690Y-85507D01*
X137770Y-85487D02*
X134730Y-85487D01*
X137770Y-88537D02*
X137770Y-85537D01*
X135100Y-88987D02*
X137320Y-88987D01*
X137320Y-88987D02*
X137320Y-88537D01*
X134920Y-88533D02*
X134690Y-88303D01*
X135100Y-88985D02*
X135100Y-88533D01*
X134690Y-88107D02*
X134238Y-88107D01*
X135283Y-88125D02*
G75*
G03X135283Y-88125I-188J0D01*
G74*
G01*
G54D13*
X150143Y-93050D02*
G75*
G03X150143Y-93050I-50J0D01*
G74*
G01*
X150093Y-93500D02*
X150093Y-93100D01*
X150093Y-93100D02*
X150693Y-93100D01*
X150693Y-93100D02*
X150693Y-93500D01*
X150693Y-93900D02*
X150693Y-94300D01*
X150693Y-94300D02*
X150093Y-94300D01*
X150093Y-94300D02*
X150093Y-93900D01*
X133455Y-91048D02*
G75*
G03X133455Y-91048I-50J0D01*
G74*
G01*
X133855Y-91048D02*
X133455Y-91048D01*
X133455Y-91048D02*
X133455Y-90448D01*
X133455Y-90448D02*
X133855Y-90448D01*
X134255Y-90448D02*
X134655Y-90448D01*
X134655Y-90448D02*
X134655Y-91048D01*
X134655Y-91048D02*
X134255Y-91048D01*
X133455Y-90063D02*
G75*
G03X133455Y-90063I-50J0D01*
G74*
G01*
X133855Y-90063D02*
X133455Y-90063D01*
X133455Y-90063D02*
X133455Y-89463D01*
X133455Y-89463D02*
X133855Y-89463D01*
X134255Y-89463D02*
X134655Y-89463D01*
X134655Y-89463D02*
X134655Y-90063D01*
X134655Y-90063D02*
X134255Y-90063D01*
X137230Y-89979D02*
G75*
G03X137230Y-89979I-50J0D01*
G74*
G01*
X137180Y-90429D02*
X137180Y-90029D01*
X137180Y-90029D02*
X137780Y-90029D01*
X137780Y-90029D02*
X137780Y-90429D01*
X137780Y-90829D02*
X137780Y-91229D01*
X137780Y-91229D02*
X137180Y-91229D01*
X137180Y-91229D02*
X137180Y-90829D01*
X143494Y-95575D02*
G75*
G03X143494Y-95575I-50J0D01*
G74*
G01*
X143894Y-95575D02*
X143494Y-95575D01*
X143494Y-95575D02*
X143494Y-94975D01*
X143494Y-94975D02*
X143894Y-94975D01*
X144294Y-94975D02*
X144694Y-94975D01*
X144694Y-94975D02*
X144694Y-95575D01*
X144694Y-95575D02*
X144294Y-95575D01*
X140301Y-93838D02*
G75*
G03X140301Y-93838I-50J0D01*
G74*
G01*
X140251Y-94288D02*
X140251Y-93888D01*
X140251Y-93888D02*
X140851Y-93888D01*
X140851Y-93888D02*
X140851Y-94288D01*
X140851Y-94688D02*
X140851Y-95088D01*
X140851Y-95088D02*
X140251Y-95088D01*
X140251Y-95088D02*
X140251Y-94688D01*
X149518Y-96156D02*
G75*
G03X149518Y-96156I-50J0D01*
G74*
G01*
X149018Y-96156D02*
X149418Y-96156D01*
X149418Y-96156D02*
X149418Y-96756D01*
X149418Y-96756D02*
X149018Y-96756D01*
X148618Y-96756D02*
X148218Y-96756D01*
X148218Y-96756D02*
X148218Y-96156D01*
X148218Y-96156D02*
X148618Y-96156D01*
X151093Y-94975D02*
G75*
G03X151093Y-94975I-50J0D01*
G74*
G01*
X150593Y-94975D02*
X150993Y-94975D01*
X150993Y-94975D02*
X150993Y-95575D01*
X150993Y-95575D02*
X150593Y-95575D01*
X150193Y-95575D02*
X149793Y-95575D01*
X149793Y-95575D02*
X149793Y-94975D01*
X149793Y-94975D02*
X150193Y-94975D01*
X154601Y-93957D02*
G75*
G03X154601Y-93957I-50J0D01*
G74*
G01*
X154551Y-93507D02*
X154551Y-93907D01*
X154551Y-93907D02*
X153951Y-93907D01*
X153951Y-93907D02*
X153951Y-93507D01*
X153951Y-93107D02*
X153951Y-92707D01*
X153951Y-92707D02*
X154551Y-92707D01*
X154551Y-92707D02*
X154551Y-93107D01*
X152549Y-92819D02*
G75*
G03X152549Y-92819I-50J0D01*
G74*
G01*
X152949Y-92819D02*
X152549Y-92819D01*
X152549Y-92819D02*
X152549Y-92219D01*
X152549Y-92219D02*
X152949Y-92219D01*
X153349Y-92219D02*
X153749Y-92219D01*
X153749Y-92219D02*
X153749Y-92819D01*
X153749Y-92819D02*
X153349Y-92819D01*
X135620Y-90260D02*
G75*
G03X135620Y-90260I-50J0D01*
G74*
G01*
X136020Y-90260D02*
X135620Y-90260D01*
X135620Y-90260D02*
X135620Y-89660D01*
X135620Y-89660D02*
X136020Y-89660D01*
X136420Y-89660D02*
X136820Y-89660D01*
X136820Y-89660D02*
X136820Y-90260D01*
X136820Y-90260D02*
X136420Y-90260D01*
X144597Y-82377D02*
G75*
G03X144597Y-82377I-50J0D01*
G74*
G01*
X144097Y-82377D02*
X144497Y-82377D01*
X144497Y-82377D02*
X144497Y-82977D01*
X144497Y-82977D02*
X144097Y-82977D01*
X143697Y-82977D02*
X143297Y-82977D01*
X143297Y-82977D02*
X143297Y-82377D01*
X143297Y-82377D02*
X143697Y-82377D01*
X138332Y-88916D02*
G75*
G03X138332Y-88916I-50J0D01*
G74*
G01*
X138282Y-89366D02*
X138282Y-88966D01*
X138282Y-88966D02*
X138882Y-88966D01*
X138882Y-88966D02*
X138882Y-89366D01*
X138882Y-89766D02*
X138882Y-90166D01*
X138882Y-90166D02*
X138282Y-90166D01*
X138282Y-90166D02*
X138282Y-89766D01*
X137982Y-91638D02*
G75*
G03X137982Y-91638I-50J0D01*
G74*
G01*
X138382Y-91638D02*
X137982Y-91638D01*
X137982Y-91638D02*
X137982Y-91038D01*
X137982Y-91038D02*
X138382Y-91038D01*
X138782Y-91038D02*
X139182Y-91038D01*
X139182Y-91038D02*
X139182Y-91638D01*
X139182Y-91638D02*
X138782Y-91638D01*
G54D14*
X141598Y-83177D02*
X133598Y-83177D01*
X133598Y-83177D02*
X133598Y-82177D01*
X133598Y-82177D02*
X141598Y-82177D01*
X141598Y-82177D02*
X141598Y-83177D01*
X140598Y-82177D02*
X140598Y-83177D01*
X139795Y-95185D02*
X139795Y-95185D01*
X139795Y-94185D02*
X139795Y-95185D01*
X139795Y-95185D02*
X139795Y-95185D01*
X139795Y-95185D02*
X135795Y-95185D01*
X135795Y-95185D02*
X135795Y-94185D01*
X135795Y-94185D02*
X139795Y-94185D01*
X138795Y-94185D02*
X138795Y-95185D01*
X139795Y-96366D02*
X139795Y-96366D01*
X139795Y-95366D02*
X139795Y-96366D01*
X139795Y-96366D02*
X139795Y-96366D01*
X139795Y-96366D02*
X135795Y-96366D01*
X135795Y-96366D02*
X135795Y-95366D01*
X135795Y-95366D02*
X139795Y-95366D01*
X138795Y-95366D02*
X138795Y-96366D01*
X149031Y-82177D02*
X149031Y-83177D01*
X149031Y-83177D02*
X147031Y-83177D01*
X147031Y-83177D02*
X147031Y-82177D01*
X147031Y-82177D02*
X149031Y-82177D01*
X138566Y-93511D02*
X138566Y-92511D01*
X138566Y-92511D02*
X140566Y-92511D01*
X140566Y-92511D02*
X140566Y-93511D01*
X140566Y-93511D02*
X138566Y-93511D01*
X149393Y-83177D02*
X149393Y-82177D01*
X149393Y-82177D02*
X151393Y-82177D01*
X151393Y-82177D02*
X151393Y-83177D01*
X151393Y-83177D02*
X149393Y-83177D01*
X141232Y-92307D02*
X142232Y-92307D01*
X142232Y-92307D02*
X142232Y-94307D01*
X142232Y-94307D02*
X141232Y-94307D01*
X141232Y-94307D02*
X141232Y-92307D01*
X141232Y-94669D02*
X142232Y-94669D01*
X142232Y-94669D02*
X142232Y-96669D01*
X142232Y-96669D02*
X141232Y-96669D01*
X141232Y-96669D02*
X141232Y-94669D01*
X133251Y-96397D02*
X133251Y-91397D01*
X133251Y-91397D02*
X135251Y-91397D01*
X135251Y-91397D02*
X135251Y-96397D01*
X135251Y-96397D02*
X133251Y-96397D01*
G54D15*
X136221Y-91417D02*
X136221Y-91289D01*
X136221Y-91289D02*
X136024Y-91289D01*
X136024Y-91417D02*
X136024Y-91289D01*
X136221Y-91417D02*
X136024Y-91417D01*
X136221Y-91662D02*
X136221Y-91603D01*
X136221Y-91603D02*
X136122Y-91603D01*
X136122Y-91662D02*
X136122Y-91603D01*
X136221Y-91662D02*
X136122Y-91662D01*
X136221Y-91467D02*
X136221Y-91408D01*
X136221Y-91408D02*
X136122Y-91408D01*
X136122Y-91467D02*
X136122Y-91408D01*
X136221Y-91467D02*
X136122Y-91467D01*
X136221Y-91613D02*
X136221Y-91457D01*
X136221Y-91457D02*
X136152Y-91457D01*
X136152Y-91613D02*
X136152Y-91457D01*
X136221Y-91613D02*
X136152Y-91613D01*
X136810Y-91417D02*
X136810Y-91289D01*
X136810Y-91289D02*
X136613Y-91289D01*
X136613Y-91417D02*
X136613Y-91289D01*
X136810Y-91417D02*
X136613Y-91417D01*
X136810Y-91781D02*
X136810Y-91653D01*
X136810Y-91653D02*
X136613Y-91653D01*
X136613Y-91781D02*
X136613Y-91653D01*
X136810Y-91781D02*
X136613Y-91781D01*
X136712Y-91467D02*
X136712Y-91408D01*
X136712Y-91408D02*
X136613Y-91408D01*
X136613Y-91467D02*
X136613Y-91408D01*
X136712Y-91467D02*
X136613Y-91467D01*
X136712Y-91662D02*
X136712Y-91603D01*
X136712Y-91603D02*
X136613Y-91603D01*
X136613Y-91662D02*
X136613Y-91603D01*
X136712Y-91662D02*
X136613Y-91662D01*
X136682Y-91613D02*
X136682Y-91457D01*
X136682Y-91457D02*
X136613Y-91457D01*
X136613Y-91613D02*
X136613Y-91457D01*
X136682Y-91613D02*
X136613Y-91613D01*
X136417Y-91574D02*
X136417Y-91496D01*
X136417Y-91496D02*
X136339Y-91496D01*
X136339Y-91574D02*
X136339Y-91496D01*
X136417Y-91574D02*
X136339Y-91574D01*
X136221Y-91771D02*
X136221Y-91653D01*
X136221Y-91653D02*
X136103Y-91653D01*
X136103Y-91771D02*
X136103Y-91653D01*
X136221Y-91771D02*
X136103Y-91771D01*
X136053Y-91781D02*
X136053Y-91692D01*
X136053Y-91692D02*
X136024Y-91692D01*
X136024Y-91781D02*
X136024Y-91692D01*
X136053Y-91781D02*
X136024Y-91781D01*
G54D16*
X136211Y-91309D02*
X136623Y-91309D01*
X136613Y-91761D02*
X136053Y-91761D01*
G54D17*
X136111Y-91712D02*
G75*
G03X136111Y-91712I-28J0D01*
G74*
G01*
G54D16*
X136024Y-91672D02*
G75*
G03X136024Y-91398I0J137D01*
G74*
G01*
X136810Y-91398D02*
G75*
G03X136810Y-91672I0J-137D01*
G74*
G01*
G54D15*
X136221Y-93385D02*
X136221Y-93257D01*
X136221Y-93257D02*
X136024Y-93257D01*
X136024Y-93385D02*
X136024Y-93257D01*
X136221Y-93385D02*
X136024Y-93385D01*
X136221Y-93630D02*
X136221Y-93571D01*
X136221Y-93571D02*
X136122Y-93571D01*
X136122Y-93630D02*
X136122Y-93571D01*
X136221Y-93630D02*
X136122Y-93630D01*
X136221Y-93435D02*
X136221Y-93376D01*
X136221Y-93376D02*
X136122Y-93376D01*
X136122Y-93435D02*
X136122Y-93376D01*
X136221Y-93435D02*
X136122Y-93435D01*
X136221Y-93581D02*
X136221Y-93425D01*
X136221Y-93425D02*
X136152Y-93425D01*
X136152Y-93581D02*
X136152Y-93425D01*
X136221Y-93581D02*
X136152Y-93581D01*
X136810Y-93385D02*
X136810Y-93257D01*
X136810Y-93257D02*
X136613Y-93257D01*
X136613Y-93385D02*
X136613Y-93257D01*
X136810Y-93385D02*
X136613Y-93385D01*
X136810Y-93749D02*
X136810Y-93621D01*
X136810Y-93621D02*
X136613Y-93621D01*
X136613Y-93749D02*
X136613Y-93621D01*
X136810Y-93749D02*
X136613Y-93749D01*
X136712Y-93435D02*
X136712Y-93376D01*
X136712Y-93376D02*
X136613Y-93376D01*
X136613Y-93435D02*
X136613Y-93376D01*
X136712Y-93435D02*
X136613Y-93435D01*
X136712Y-93630D02*
X136712Y-93571D01*
X136712Y-93571D02*
X136613Y-93571D01*
X136613Y-93630D02*
X136613Y-93571D01*
X136712Y-93630D02*
X136613Y-93630D01*
X136682Y-93581D02*
X136682Y-93425D01*
X136682Y-93425D02*
X136613Y-93425D01*
X136613Y-93581D02*
X136613Y-93425D01*
X136682Y-93581D02*
X136613Y-93581D01*
X136417Y-93542D02*
X136417Y-93464D01*
X136417Y-93464D02*
X136339Y-93464D01*
X136339Y-93542D02*
X136339Y-93464D01*
X136417Y-93542D02*
X136339Y-93542D01*
X136221Y-93739D02*
X136221Y-93621D01*
X136221Y-93621D02*
X136103Y-93621D01*
X136103Y-93739D02*
X136103Y-93621D01*
X136221Y-93739D02*
X136103Y-93739D01*
X136053Y-93749D02*
X136053Y-93660D01*
X136053Y-93660D02*
X136024Y-93660D01*
X136024Y-93749D02*
X136024Y-93660D01*
X136053Y-93749D02*
X136024Y-93749D01*
G54D16*
X136211Y-93277D02*
X136623Y-93277D01*
X136613Y-93729D02*
X136053Y-93729D01*
G54D17*
X136111Y-93680D02*
G75*
G03X136111Y-93680I-28J0D01*
G74*
G01*
G54D16*
X136024Y-93640D02*
G75*
G03X136024Y-93366I0J137D01*
G74*
G01*
X136810Y-93366D02*
G75*
G03X136810Y-93640I0J-137D01*
G74*
G01*
G54D15*
X136221Y-92401D02*
X136221Y-92273D01*
X136221Y-92273D02*
X136024Y-92273D01*
X136024Y-92401D02*
X136024Y-92273D01*
X136221Y-92401D02*
X136024Y-92401D01*
X136221Y-92646D02*
X136221Y-92587D01*
X136221Y-92587D02*
X136122Y-92587D01*
X136122Y-92646D02*
X136122Y-92587D01*
X136221Y-92646D02*
X136122Y-92646D01*
X136221Y-92451D02*
X136221Y-92392D01*
X136221Y-92392D02*
X136122Y-92392D01*
X136122Y-92451D02*
X136122Y-92392D01*
X136221Y-92451D02*
X136122Y-92451D01*
X136221Y-92597D02*
X136221Y-92441D01*
X136221Y-92441D02*
X136152Y-92441D01*
X136152Y-92597D02*
X136152Y-92441D01*
X136221Y-92597D02*
X136152Y-92597D01*
X136810Y-92401D02*
X136810Y-92273D01*
X136810Y-92273D02*
X136613Y-92273D01*
X136613Y-92401D02*
X136613Y-92273D01*
X136810Y-92401D02*
X136613Y-92401D01*
X136810Y-92765D02*
X136810Y-92637D01*
X136810Y-92637D02*
X136613Y-92637D01*
X136613Y-92765D02*
X136613Y-92637D01*
X136810Y-92765D02*
X136613Y-92765D01*
X136712Y-92451D02*
X136712Y-92392D01*
X136712Y-92392D02*
X136613Y-92392D01*
X136613Y-92451D02*
X136613Y-92392D01*
X136712Y-92451D02*
X136613Y-92451D01*
X136712Y-92646D02*
X136712Y-92587D01*
X136712Y-92587D02*
X136613Y-92587D01*
X136613Y-92646D02*
X136613Y-92587D01*
X136712Y-92646D02*
X136613Y-92646D01*
X136682Y-92597D02*
X136682Y-92441D01*
X136682Y-92441D02*
X136613Y-92441D01*
X136613Y-92597D02*
X136613Y-92441D01*
X136682Y-92597D02*
X136613Y-92597D01*
X136417Y-92558D02*
X136417Y-92480D01*
X136417Y-92480D02*
X136339Y-92480D01*
X136339Y-92558D02*
X136339Y-92480D01*
X136417Y-92558D02*
X136339Y-92558D01*
X136221Y-92755D02*
X136221Y-92637D01*
X136221Y-92637D02*
X136103Y-92637D01*
X136103Y-92755D02*
X136103Y-92637D01*
X136221Y-92755D02*
X136103Y-92755D01*
X136053Y-92765D02*
X136053Y-92676D01*
X136053Y-92676D02*
X136024Y-92676D01*
X136024Y-92765D02*
X136024Y-92676D01*
X136053Y-92765D02*
X136024Y-92765D01*
G54D16*
X136211Y-92293D02*
X136623Y-92293D01*
X136613Y-92745D02*
X136053Y-92745D01*
G54D17*
X136111Y-92696D02*
G75*
G03X136111Y-92696I-28J0D01*
G74*
G01*
G54D16*
X136024Y-92656D02*
G75*
G03X136024Y-92382I0J137D01*
G74*
G01*
X136810Y-92382D02*
G75*
G03X136810Y-92656I0J-137D01*
G74*
G01*
G54D14*
X151974Y-92300D02*
X151974Y-95100D01*
X151974Y-95100D02*
X151174Y-95100D01*
X151174Y-95100D02*
X151174Y-92300D01*
X151174Y-92300D02*
X151974Y-92300D01*
X151774Y-92300D02*
X151974Y-92500D01*
X153943Y-93481D02*
X153943Y-96281D01*
X153943Y-96281D02*
X153143Y-96281D01*
X153143Y-96281D02*
X153143Y-93481D01*
X153143Y-93481D02*
X153943Y-93481D01*
X153743Y-93481D02*
X153943Y-93681D01*
X152581Y-96856D02*
X149781Y-96856D01*
X149781Y-96856D02*
X149781Y-96056D01*
X149781Y-96056D02*
X152581Y-96056D01*
X152581Y-96056D02*
X152581Y-96856D01*
X152581Y-96656D02*
X152381Y-96856D01*
X151775Y-82177D02*
X153755Y-82177D01*
X153755Y-82177D02*
X153755Y-83177D01*
X153755Y-83177D02*
X151755Y-83177D01*
X151755Y-83177D02*
X151755Y-82177D01*
X151755Y-82427D02*
X152005Y-82177D01*
G54D10*
X139370Y-91437D02*
X139370Y-83956D01*
X139370Y-83956D02*
X153385Y-83956D01*
X153385Y-83956D02*
X153385Y-91437D01*
X153385Y-91437D02*
X139370Y-91437D01*
G54D14*
X149280Y-94294D02*
X149709Y-94294D01*
X149794Y-94323D01*
X149852Y-94380D01*
X149880Y-94465D01*
X149880Y-94523D01*
X149880Y-93694D02*
X149880Y-94037D01*
X149880Y-93865D02*
X149280Y-93865D01*
X149366Y-93923D01*
X149423Y-93980D01*
X149452Y-94037D01*
X150852Y-94365D02*
X150880Y-94280D01*
X150880Y-94137D01*
X150852Y-94080D01*
X150823Y-94051D01*
X150766Y-94023D01*
X150709Y-94023D01*
X150652Y-94051D01*
X150623Y-94080D01*
X150594Y-94137D01*
X150566Y-94251D01*
X150537Y-94308D01*
X150509Y-94337D01*
X150452Y-94365D01*
X150394Y-94365D01*
X150337Y-94337D01*
X150309Y-94308D01*
X150280Y-94251D01*
X150280Y-94108D01*
X150309Y-94023D01*
X150880Y-93765D02*
X150280Y-93765D01*
X150709Y-93565D01*
X150280Y-93365D01*
X150880Y-93365D01*
X150709Y-93108D02*
X150709Y-92823D01*
X150880Y-93165D02*
X150280Y-92965D01*
X150880Y-92765D01*
G54D18*
X135422Y-87312D02*
X135827Y-87312D01*
X135875Y-87293D01*
X135899Y-87274D01*
X135922Y-87236D01*
X135922Y-87160D01*
X135899Y-87122D01*
X135875Y-87103D01*
X135827Y-87084D01*
X135422Y-87084D01*
X135470Y-86912D02*
X135446Y-86893D01*
X135422Y-86855D01*
X135422Y-86760D01*
X135446Y-86722D01*
X135470Y-86703D01*
X135518Y-86684D01*
X135565Y-86684D01*
X135637Y-86703D01*
X135922Y-86931D01*
X135922Y-86684D01*
X137172Y-87655D02*
X136672Y-87655D01*
X137172Y-87426D02*
X136887Y-87598D01*
X136672Y-87426D02*
X136958Y-87655D01*
X137172Y-87065D02*
X137172Y-87255D01*
X136672Y-87255D01*
X136672Y-86855D02*
X136672Y-86817D01*
X136696Y-86779D01*
X136720Y-86760D01*
X136768Y-86741D01*
X136863Y-86722D01*
X136982Y-86722D01*
X137077Y-86741D01*
X137125Y-86760D01*
X137149Y-86779D01*
X137172Y-86817D01*
X137172Y-86855D01*
X137149Y-86893D01*
X137125Y-86912D01*
X137077Y-86931D01*
X136982Y-86950D01*
X136863Y-86950D01*
X136768Y-86931D01*
X136720Y-86912D01*
X136696Y-86893D01*
X136672Y-86855D01*
X136672Y-86360D02*
X136672Y-86550D01*
X136910Y-86569D01*
X136887Y-86550D01*
X136863Y-86512D01*
X136863Y-86417D01*
X136887Y-86379D01*
X136910Y-86360D01*
X136958Y-86341D01*
X137077Y-86341D01*
X137125Y-86360D01*
X137149Y-86379D01*
X137172Y-86417D01*
X137172Y-86512D01*
X137149Y-86550D01*
X137125Y-86569D01*
G54D19*
X150579Y-93733D02*
X150589Y-93743D01*
X150598Y-93771D01*
X150598Y-93789D01*
X150589Y-93818D01*
X150570Y-93836D01*
X150551Y-93846D01*
X150514Y-93855D01*
X150485Y-93855D01*
X150448Y-93846D01*
X150429Y-93836D01*
X150410Y-93818D01*
X150401Y-93789D01*
X150401Y-93771D01*
X150410Y-93743D01*
X150420Y-93733D01*
X150598Y-93639D02*
X150598Y-93602D01*
X150589Y-93583D01*
X150579Y-93574D01*
X150551Y-93555D01*
X150514Y-93546D01*
X150438Y-93546D01*
X150420Y-93555D01*
X150410Y-93564D01*
X150401Y-93583D01*
X150401Y-93621D01*
X150410Y-93639D01*
X150420Y-93649D01*
X150438Y-93658D01*
X150485Y-93658D01*
X150504Y-93649D01*
X150514Y-93639D01*
X150523Y-93621D01*
X150523Y-93583D01*
X150514Y-93564D01*
X150504Y-93555D01*
X150485Y-93546D01*
X150126Y-93743D02*
X150126Y-93836D01*
X150220Y-93846D01*
X150210Y-93836D01*
X150201Y-93818D01*
X150201Y-93771D01*
X150210Y-93752D01*
X150220Y-93743D01*
X150239Y-93733D01*
X150285Y-93733D01*
X150304Y-93743D01*
X150314Y-93752D01*
X150323Y-93771D01*
X150323Y-93818D01*
X150314Y-93836D01*
X150304Y-93846D01*
X150192Y-93649D02*
X150389Y-93649D01*
X150201Y-93649D02*
X150192Y-93630D01*
X150192Y-93592D01*
X150201Y-93574D01*
X150210Y-93564D01*
X150229Y-93555D01*
X150285Y-93555D01*
X150304Y-93564D01*
X150314Y-93574D01*
X150323Y-93592D01*
X150323Y-93630D01*
X150314Y-93649D01*
X134022Y-90702D02*
X133956Y-90608D01*
X133909Y-90702D02*
X133909Y-90505D01*
X133984Y-90505D01*
X134003Y-90515D01*
X134012Y-90524D01*
X134022Y-90543D01*
X134022Y-90571D01*
X134012Y-90590D01*
X134003Y-90599D01*
X133984Y-90608D01*
X133909Y-90608D01*
X134209Y-90702D02*
X134097Y-90702D01*
X134153Y-90702D02*
X134153Y-90505D01*
X134134Y-90533D01*
X134116Y-90552D01*
X134097Y-90562D01*
X134116Y-90977D02*
X134050Y-90883D01*
X134003Y-90977D02*
X134003Y-90780D01*
X134078Y-90780D01*
X134097Y-90790D01*
X134106Y-90799D01*
X134116Y-90818D01*
X134116Y-90846D01*
X134106Y-90865D01*
X134097Y-90874D01*
X134078Y-90883D01*
X134003Y-90883D01*
X134022Y-89718D02*
X133956Y-89624D01*
X133909Y-89718D02*
X133909Y-89521D01*
X133984Y-89521D01*
X134003Y-89530D01*
X134012Y-89540D01*
X134022Y-89559D01*
X134022Y-89587D01*
X134012Y-89605D01*
X134003Y-89615D01*
X133984Y-89624D01*
X133909Y-89624D01*
X134097Y-89540D02*
X134106Y-89530D01*
X134125Y-89521D01*
X134172Y-89521D01*
X134191Y-89530D01*
X134200Y-89540D01*
X134209Y-89559D01*
X134209Y-89577D01*
X134200Y-89605D01*
X134087Y-89718D01*
X134209Y-89718D01*
X134116Y-89993D02*
X134050Y-89899D01*
X134003Y-89993D02*
X134003Y-89796D01*
X134078Y-89796D01*
X134097Y-89805D01*
X134106Y-89815D01*
X134116Y-89834D01*
X134116Y-89862D01*
X134106Y-89880D01*
X134097Y-89890D01*
X134078Y-89899D01*
X134003Y-89899D01*
X137685Y-90662D02*
X137591Y-90728D01*
X137685Y-90775D02*
X137488Y-90775D01*
X137488Y-90700D01*
X137497Y-90681D01*
X137506Y-90672D01*
X137525Y-90662D01*
X137553Y-90662D01*
X137572Y-90672D01*
X137581Y-90681D01*
X137591Y-90700D01*
X137591Y-90775D01*
X137488Y-90597D02*
X137488Y-90475D01*
X137563Y-90540D01*
X137563Y-90512D01*
X137572Y-90493D01*
X137581Y-90484D01*
X137600Y-90475D01*
X137647Y-90475D01*
X137666Y-90484D01*
X137675Y-90493D01*
X137685Y-90512D01*
X137685Y-90568D01*
X137675Y-90587D01*
X137666Y-90597D01*
X137410Y-90568D02*
X137316Y-90634D01*
X137410Y-90681D02*
X137213Y-90681D01*
X137213Y-90606D01*
X137222Y-90587D01*
X137231Y-90578D01*
X137250Y-90568D01*
X137278Y-90568D01*
X137297Y-90578D01*
X137306Y-90587D01*
X137316Y-90606D01*
X137316Y-90681D01*
X144061Y-95211D02*
X144052Y-95220D01*
X144024Y-95230D01*
X144005Y-95230D01*
X143977Y-95220D01*
X143958Y-95202D01*
X143949Y-95183D01*
X143939Y-95145D01*
X143939Y-95117D01*
X143949Y-95080D01*
X143958Y-95061D01*
X143977Y-95042D01*
X144005Y-95033D01*
X144024Y-95033D01*
X144052Y-95042D01*
X144061Y-95052D01*
X144230Y-95098D02*
X144230Y-95230D01*
X144183Y-95023D02*
X144136Y-95164D01*
X144258Y-95164D01*
X144155Y-95486D02*
X144146Y-95495D01*
X144117Y-95505D01*
X144099Y-95505D01*
X144071Y-95495D01*
X144052Y-95477D01*
X144042Y-95458D01*
X144033Y-95420D01*
X144033Y-95392D01*
X144042Y-95355D01*
X144052Y-95336D01*
X144071Y-95317D01*
X144099Y-95308D01*
X144117Y-95308D01*
X144146Y-95317D01*
X144155Y-95327D01*
X140737Y-94521D02*
X140746Y-94530D01*
X140755Y-94558D01*
X140755Y-94577D01*
X140746Y-94605D01*
X140727Y-94624D01*
X140709Y-94633D01*
X140671Y-94642D01*
X140643Y-94642D01*
X140605Y-94633D01*
X140587Y-94624D01*
X140568Y-94605D01*
X140558Y-94577D01*
X140558Y-94558D01*
X140568Y-94530D01*
X140577Y-94521D01*
X140558Y-94455D02*
X140558Y-94333D01*
X140633Y-94399D01*
X140633Y-94370D01*
X140643Y-94352D01*
X140652Y-94342D01*
X140671Y-94333D01*
X140718Y-94333D01*
X140737Y-94342D01*
X140746Y-94352D01*
X140755Y-94370D01*
X140755Y-94427D01*
X140746Y-94445D01*
X140737Y-94455D01*
X140480Y-94614D02*
X140480Y-94727D01*
X140480Y-94671D02*
X140283Y-94671D01*
X140312Y-94689D01*
X140330Y-94708D01*
X140340Y-94727D01*
X140283Y-94492D02*
X140283Y-94474D01*
X140293Y-94455D01*
X140302Y-94445D01*
X140321Y-94436D01*
X140358Y-94427D01*
X140405Y-94427D01*
X140443Y-94436D01*
X140462Y-94445D01*
X140471Y-94455D01*
X140480Y-94474D01*
X140480Y-94492D01*
X140471Y-94511D01*
X140462Y-94521D01*
X140443Y-94530D01*
X140405Y-94539D01*
X140358Y-94539D01*
X140321Y-94530D01*
X140302Y-94521D01*
X140293Y-94511D01*
X140283Y-94492D01*
X140349Y-94258D02*
X140480Y-94258D01*
X140349Y-94342D02*
X140452Y-94342D01*
X140471Y-94333D01*
X140480Y-94314D01*
X140480Y-94286D01*
X140471Y-94267D01*
X140462Y-94258D01*
X148692Y-96642D02*
X148682Y-96652D01*
X148654Y-96661D01*
X148635Y-96661D01*
X148607Y-96652D01*
X148589Y-96633D01*
X148579Y-96614D01*
X148570Y-96577D01*
X148570Y-96548D01*
X148579Y-96511D01*
X148589Y-96492D01*
X148607Y-96473D01*
X148635Y-96464D01*
X148654Y-96464D01*
X148682Y-96473D01*
X148692Y-96483D01*
X148879Y-96661D02*
X148767Y-96661D01*
X148823Y-96661D02*
X148823Y-96464D01*
X148804Y-96492D01*
X148786Y-96511D01*
X148767Y-96520D01*
X148954Y-96483D02*
X148964Y-96473D01*
X148983Y-96464D01*
X149029Y-96464D01*
X149048Y-96473D01*
X149058Y-96483D01*
X149067Y-96501D01*
X149067Y-96520D01*
X149058Y-96548D01*
X148945Y-96661D01*
X149067Y-96661D01*
X148692Y-96386D02*
X148579Y-96386D01*
X148635Y-96386D02*
X148635Y-96189D01*
X148617Y-96217D01*
X148598Y-96236D01*
X148579Y-96245D01*
X148814Y-96189D02*
X148832Y-96189D01*
X148851Y-96198D01*
X148861Y-96208D01*
X148870Y-96226D01*
X148879Y-96264D01*
X148879Y-96311D01*
X148870Y-96348D01*
X148861Y-96367D01*
X148851Y-96377D01*
X148832Y-96386D01*
X148814Y-96386D01*
X148795Y-96377D01*
X148786Y-96367D01*
X148776Y-96348D01*
X148767Y-96311D01*
X148767Y-96264D01*
X148776Y-96226D01*
X148786Y-96208D01*
X148795Y-96198D01*
X148814Y-96189D01*
X148964Y-96255D02*
X148964Y-96452D01*
X148964Y-96264D02*
X148983Y-96255D01*
X149020Y-96255D01*
X149039Y-96264D01*
X149048Y-96273D01*
X149058Y-96292D01*
X149058Y-96348D01*
X149048Y-96367D01*
X149039Y-96377D01*
X149020Y-96386D01*
X148983Y-96386D01*
X148964Y-96377D01*
X150267Y-95461D02*
X150257Y-95470D01*
X150229Y-95480D01*
X150210Y-95480D01*
X150182Y-95470D01*
X150163Y-95452D01*
X150154Y-95433D01*
X150145Y-95395D01*
X150145Y-95367D01*
X150154Y-95330D01*
X150163Y-95311D01*
X150182Y-95292D01*
X150210Y-95283D01*
X150229Y-95283D01*
X150257Y-95292D01*
X150267Y-95302D01*
X150454Y-95480D02*
X150342Y-95480D01*
X150398Y-95480D02*
X150398Y-95283D01*
X150379Y-95311D01*
X150360Y-95330D01*
X150342Y-95339D01*
X150642Y-95480D02*
X150529Y-95480D01*
X150586Y-95480D02*
X150586Y-95283D01*
X150567Y-95311D01*
X150548Y-95330D01*
X150529Y-95339D01*
X150154Y-95027D02*
X150163Y-95017D01*
X150182Y-95008D01*
X150229Y-95008D01*
X150248Y-95017D01*
X150257Y-95027D01*
X150267Y-95045D01*
X150267Y-95064D01*
X150257Y-95092D01*
X150145Y-95205D01*
X150267Y-95205D01*
X150342Y-95027D02*
X150351Y-95017D01*
X150370Y-95008D01*
X150417Y-95008D01*
X150435Y-95017D01*
X150445Y-95027D01*
X150454Y-95045D01*
X150454Y-95064D01*
X150445Y-95092D01*
X150332Y-95205D01*
X150454Y-95205D01*
X150539Y-95073D02*
X150539Y-95270D01*
X150539Y-95083D02*
X150557Y-95073D01*
X150595Y-95073D01*
X150614Y-95083D01*
X150623Y-95092D01*
X150632Y-95111D01*
X150632Y-95167D01*
X150623Y-95186D01*
X150614Y-95195D01*
X150595Y-95205D01*
X150557Y-95205D01*
X150539Y-95195D01*
X154187Y-93433D02*
X154197Y-93443D01*
X154206Y-93471D01*
X154206Y-93490D01*
X154197Y-93518D01*
X154178Y-93536D01*
X154159Y-93546D01*
X154122Y-93555D01*
X154094Y-93555D01*
X154056Y-93546D01*
X154037Y-93536D01*
X154019Y-93518D01*
X154009Y-93490D01*
X154009Y-93471D01*
X154019Y-93443D01*
X154028Y-93433D01*
X154206Y-93246D02*
X154206Y-93358D01*
X154206Y-93302D02*
X154009Y-93302D01*
X154037Y-93321D01*
X154056Y-93339D01*
X154065Y-93358D01*
X154009Y-93124D02*
X154009Y-93105D01*
X154019Y-93086D01*
X154028Y-93077D01*
X154047Y-93067D01*
X154084Y-93058D01*
X154131Y-93058D01*
X154169Y-93067D01*
X154187Y-93077D01*
X154197Y-93086D01*
X154206Y-93105D01*
X154206Y-93124D01*
X154197Y-93142D01*
X154187Y-93152D01*
X154169Y-93161D01*
X154131Y-93171D01*
X154084Y-93171D01*
X154047Y-93161D01*
X154028Y-93152D01*
X154019Y-93142D01*
X154009Y-93124D01*
X154303Y-93546D02*
X154294Y-93536D01*
X154284Y-93518D01*
X154284Y-93471D01*
X154294Y-93452D01*
X154303Y-93443D01*
X154322Y-93433D01*
X154340Y-93433D01*
X154369Y-93443D01*
X154481Y-93555D01*
X154481Y-93433D01*
X154303Y-93358D02*
X154294Y-93349D01*
X154284Y-93330D01*
X154284Y-93283D01*
X154294Y-93264D01*
X154303Y-93255D01*
X154322Y-93246D01*
X154340Y-93246D01*
X154369Y-93255D01*
X154481Y-93368D01*
X154481Y-93246D01*
X154350Y-93161D02*
X154547Y-93161D01*
X154359Y-93161D02*
X154350Y-93142D01*
X154350Y-93105D01*
X154359Y-93086D01*
X154369Y-93077D01*
X154387Y-93067D01*
X154444Y-93067D01*
X154462Y-93077D01*
X154472Y-93086D01*
X154481Y-93105D01*
X154481Y-93142D01*
X154472Y-93161D01*
X153116Y-92455D02*
X153107Y-92465D01*
X153079Y-92474D01*
X153060Y-92474D01*
X153032Y-92465D01*
X153013Y-92446D01*
X153004Y-92427D01*
X152994Y-92389D01*
X152994Y-92361D01*
X153004Y-92324D01*
X153013Y-92305D01*
X153032Y-92286D01*
X153060Y-92277D01*
X153079Y-92277D01*
X153107Y-92286D01*
X153116Y-92296D01*
X153182Y-92277D02*
X153313Y-92277D01*
X153229Y-92474D01*
X153022Y-92749D02*
X152910Y-92749D01*
X152966Y-92749D02*
X152966Y-92552D01*
X152947Y-92580D01*
X152929Y-92599D01*
X152910Y-92608D01*
X153144Y-92552D02*
X153163Y-92552D01*
X153182Y-92561D01*
X153191Y-92571D01*
X153201Y-92589D01*
X153210Y-92627D01*
X153210Y-92674D01*
X153201Y-92711D01*
X153191Y-92730D01*
X153182Y-92740D01*
X153163Y-92749D01*
X153144Y-92749D01*
X153126Y-92740D01*
X153116Y-92730D01*
X153107Y-92711D01*
X153098Y-92674D01*
X153098Y-92627D01*
X153107Y-92589D01*
X153116Y-92571D01*
X153126Y-92561D01*
X153144Y-92552D01*
X153295Y-92618D02*
X153295Y-92815D01*
X153295Y-92627D02*
X153313Y-92618D01*
X153351Y-92618D01*
X153370Y-92627D01*
X153379Y-92636D01*
X153388Y-92655D01*
X153388Y-92711D01*
X153379Y-92730D01*
X153370Y-92740D01*
X153351Y-92749D01*
X153313Y-92749D01*
X153295Y-92740D01*
X136187Y-89896D02*
X136178Y-89905D01*
X136150Y-89915D01*
X136131Y-89915D01*
X136103Y-89905D01*
X136084Y-89887D01*
X136075Y-89868D01*
X136065Y-89830D01*
X136065Y-89802D01*
X136075Y-89765D01*
X136084Y-89746D01*
X136103Y-89727D01*
X136131Y-89718D01*
X136150Y-89718D01*
X136178Y-89727D01*
X136187Y-89737D01*
X136375Y-89915D02*
X136262Y-89915D01*
X136318Y-89915D02*
X136318Y-89718D01*
X136300Y-89746D01*
X136281Y-89765D01*
X136262Y-89774D01*
X136000Y-90190D02*
X135887Y-90190D01*
X135943Y-90190D02*
X135943Y-89993D01*
X135924Y-90021D01*
X135906Y-90040D01*
X135887Y-90049D01*
X136121Y-89993D02*
X136140Y-89993D01*
X136159Y-90002D01*
X136168Y-90012D01*
X136178Y-90030D01*
X136187Y-90068D01*
X136187Y-90115D01*
X136178Y-90152D01*
X136168Y-90171D01*
X136159Y-90180D01*
X136140Y-90190D01*
X136121Y-90190D01*
X136103Y-90180D01*
X136093Y-90171D01*
X136084Y-90152D01*
X136075Y-90115D01*
X136075Y-90068D01*
X136084Y-90030D01*
X136093Y-90012D01*
X136103Y-90002D01*
X136121Y-89993D01*
X136309Y-89993D02*
X136328Y-89993D01*
X136347Y-90002D01*
X136356Y-90012D01*
X136365Y-90030D01*
X136375Y-90068D01*
X136375Y-90115D01*
X136365Y-90152D01*
X136356Y-90171D01*
X136347Y-90180D01*
X136328Y-90190D01*
X136309Y-90190D01*
X136290Y-90180D01*
X136281Y-90171D01*
X136272Y-90152D01*
X136262Y-90115D01*
X136262Y-90068D01*
X136272Y-90030D01*
X136281Y-90012D01*
X136290Y-90002D01*
X136309Y-89993D01*
X136459Y-90059D02*
X136459Y-90190D01*
X136459Y-90077D02*
X136469Y-90068D01*
X136487Y-90059D01*
X136515Y-90059D01*
X136534Y-90068D01*
X136544Y-90087D01*
X136544Y-90190D01*
X143864Y-82863D02*
X143855Y-82872D01*
X143827Y-82881D01*
X143808Y-82881D01*
X143780Y-82872D01*
X143761Y-82853D01*
X143752Y-82834D01*
X143742Y-82797D01*
X143742Y-82769D01*
X143752Y-82731D01*
X143761Y-82713D01*
X143780Y-82694D01*
X143808Y-82684D01*
X143827Y-82684D01*
X143855Y-82694D01*
X143864Y-82703D01*
X143977Y-82769D02*
X143958Y-82759D01*
X143949Y-82750D01*
X143939Y-82731D01*
X143939Y-82722D01*
X143949Y-82703D01*
X143958Y-82694D01*
X143977Y-82684D01*
X144014Y-82684D01*
X144033Y-82694D01*
X144043Y-82703D01*
X144052Y-82722D01*
X144052Y-82731D01*
X144043Y-82750D01*
X144033Y-82759D01*
X144014Y-82769D01*
X143977Y-82769D01*
X143958Y-82778D01*
X143949Y-82788D01*
X143939Y-82806D01*
X143939Y-82844D01*
X143949Y-82863D01*
X143958Y-82872D01*
X143977Y-82881D01*
X144014Y-82881D01*
X144033Y-82872D01*
X144043Y-82863D01*
X144052Y-82844D01*
X144052Y-82806D01*
X144043Y-82788D01*
X144033Y-82778D01*
X144014Y-82769D01*
X143958Y-82588D02*
X143949Y-82597D01*
X143921Y-82606D01*
X143902Y-82606D01*
X143874Y-82597D01*
X143855Y-82578D01*
X143846Y-82559D01*
X143836Y-82522D01*
X143836Y-82494D01*
X143846Y-82456D01*
X143855Y-82438D01*
X143874Y-82419D01*
X143902Y-82409D01*
X143921Y-82409D01*
X143949Y-82419D01*
X143958Y-82428D01*
X138768Y-89599D02*
X138778Y-89609D01*
X138787Y-89637D01*
X138787Y-89656D01*
X138778Y-89684D01*
X138759Y-89702D01*
X138740Y-89712D01*
X138702Y-89721D01*
X138674Y-89721D01*
X138637Y-89712D01*
X138618Y-89702D01*
X138599Y-89684D01*
X138590Y-89656D01*
X138590Y-89637D01*
X138599Y-89609D01*
X138609Y-89599D01*
X138609Y-89524D02*
X138599Y-89515D01*
X138590Y-89496D01*
X138590Y-89449D01*
X138599Y-89430D01*
X138609Y-89421D01*
X138627Y-89412D01*
X138646Y-89412D01*
X138674Y-89421D01*
X138787Y-89534D01*
X138787Y-89412D01*
X138512Y-89787D02*
X138512Y-89899D01*
X138512Y-89843D02*
X138315Y-89843D01*
X138343Y-89862D01*
X138362Y-89881D01*
X138371Y-89899D01*
X138315Y-89665D02*
X138315Y-89646D01*
X138324Y-89627D01*
X138334Y-89618D01*
X138352Y-89609D01*
X138390Y-89599D01*
X138437Y-89599D01*
X138474Y-89609D01*
X138493Y-89618D01*
X138503Y-89627D01*
X138512Y-89646D01*
X138512Y-89665D01*
X138503Y-89684D01*
X138493Y-89693D01*
X138474Y-89702D01*
X138437Y-89712D01*
X138390Y-89712D01*
X138352Y-89702D01*
X138334Y-89693D01*
X138324Y-89684D01*
X138315Y-89665D01*
X138315Y-89477D02*
X138315Y-89459D01*
X138324Y-89440D01*
X138334Y-89430D01*
X138352Y-89421D01*
X138390Y-89412D01*
X138437Y-89412D01*
X138474Y-89421D01*
X138493Y-89430D01*
X138503Y-89440D01*
X138512Y-89459D01*
X138512Y-89477D01*
X138503Y-89496D01*
X138493Y-89505D01*
X138474Y-89515D01*
X138437Y-89524D01*
X138390Y-89524D01*
X138352Y-89515D01*
X138334Y-89505D01*
X138324Y-89496D01*
X138315Y-89477D01*
X138381Y-89327D02*
X138512Y-89327D01*
X138399Y-89327D02*
X138390Y-89318D01*
X138381Y-89299D01*
X138381Y-89271D01*
X138390Y-89252D01*
X138409Y-89243D01*
X138512Y-89243D01*
X138549Y-91274D02*
X138540Y-91283D01*
X138512Y-91293D01*
X138493Y-91293D01*
X138465Y-91283D01*
X138446Y-91265D01*
X138437Y-91246D01*
X138427Y-91208D01*
X138427Y-91180D01*
X138437Y-91143D01*
X138446Y-91124D01*
X138465Y-91105D01*
X138493Y-91096D01*
X138512Y-91096D01*
X138540Y-91105D01*
X138549Y-91115D01*
X138728Y-91096D02*
X138634Y-91096D01*
X138624Y-91190D01*
X138634Y-91180D01*
X138653Y-91171D01*
X138699Y-91171D01*
X138718Y-91180D01*
X138728Y-91190D01*
X138737Y-91208D01*
X138737Y-91255D01*
X138728Y-91274D01*
X138718Y-91283D01*
X138699Y-91293D01*
X138653Y-91293D01*
X138634Y-91283D01*
X138624Y-91274D01*
X138362Y-91568D02*
X138249Y-91568D01*
X138305Y-91568D02*
X138305Y-91371D01*
X138287Y-91399D01*
X138268Y-91418D01*
X138249Y-91427D01*
X138484Y-91371D02*
X138502Y-91371D01*
X138521Y-91380D01*
X138531Y-91390D01*
X138540Y-91408D01*
X138549Y-91446D01*
X138549Y-91493D01*
X138540Y-91530D01*
X138531Y-91549D01*
X138521Y-91558D01*
X138502Y-91568D01*
X138484Y-91568D01*
X138465Y-91558D01*
X138456Y-91549D01*
X138446Y-91530D01*
X138437Y-91493D01*
X138437Y-91446D01*
X138446Y-91408D01*
X138456Y-91390D01*
X138465Y-91380D01*
X138484Y-91371D01*
X138671Y-91371D02*
X138690Y-91371D01*
X138709Y-91380D01*
X138718Y-91390D01*
X138728Y-91408D01*
X138737Y-91446D01*
X138737Y-91493D01*
X138728Y-91530D01*
X138718Y-91549D01*
X138709Y-91558D01*
X138690Y-91568D01*
X138671Y-91568D01*
X138653Y-91558D01*
X138643Y-91549D01*
X138634Y-91530D01*
X138624Y-91493D01*
X138624Y-91446D01*
X138634Y-91408D01*
X138643Y-91390D01*
X138653Y-91380D01*
X138671Y-91371D01*
X138906Y-91436D02*
X138906Y-91568D01*
X138821Y-91436D02*
X138821Y-91540D01*
X138831Y-91558D01*
X138850Y-91568D01*
X138878Y-91568D01*
X138896Y-91558D01*
X138906Y-91549D01*
G54D20*
X139782Y-83952D02*
X139782Y-83271D01*
X139945Y-83271D01*
X139986Y-83304D01*
X140006Y-83336D01*
X140027Y-83401D01*
X140027Y-83498D01*
X140006Y-83563D01*
X139986Y-83596D01*
X139945Y-83628D01*
X139782Y-83628D01*
X140393Y-83498D02*
X140393Y-83952D01*
X140292Y-83239D02*
X140190Y-83725D01*
X140455Y-83725D01*
G54D14*
G54D21*
X134750Y-83862D02*
X134731Y-83891D01*
X134674Y-83920D01*
X134636Y-83920D01*
X134579Y-83891D01*
X134541Y-83834D01*
X134522Y-83777D01*
X134503Y-83662D01*
X134503Y-83577D01*
X134522Y-83462D01*
X134541Y-83405D01*
X134579Y-83348D01*
X134636Y-83320D01*
X134674Y-83320D01*
X134731Y-83348D01*
X134750Y-83377D01*
X134998Y-83320D02*
X135074Y-83320D01*
X135112Y-83348D01*
X135150Y-83405D01*
X135169Y-83520D01*
X135169Y-83720D01*
X135150Y-83834D01*
X135112Y-83891D01*
X135074Y-83920D01*
X134998Y-83920D01*
X134960Y-83891D01*
X134922Y-83834D01*
X134903Y-83720D01*
X134903Y-83520D01*
X134922Y-83405D01*
X134960Y-83348D01*
X134998Y-83320D01*
X135341Y-83920D02*
X135341Y-83320D01*
X135569Y-83920D01*
X135569Y-83320D01*
X135760Y-83920D02*
X135760Y-83320D01*
X135988Y-83920D01*
X135988Y-83320D01*
X136084Y-83977D02*
X136388Y-83977D01*
X136541Y-83577D02*
X136503Y-83548D01*
X136484Y-83520D01*
X136465Y-83462D01*
X136465Y-83434D01*
X136484Y-83377D01*
X136503Y-83348D01*
X136541Y-83320D01*
X136617Y-83320D01*
X136655Y-83348D01*
X136674Y-83377D01*
X136693Y-83434D01*
X136693Y-83462D01*
X136674Y-83520D01*
X136655Y-83548D01*
X136617Y-83577D01*
X136541Y-83577D01*
X136503Y-83605D01*
X136484Y-83634D01*
X136465Y-83691D01*
X136465Y-83805D01*
X136484Y-83862D01*
X136503Y-83891D01*
X136541Y-83920D01*
X136617Y-83920D01*
X136655Y-83891D01*
X136674Y-83862D01*
X136693Y-83805D01*
X136693Y-83691D01*
X136674Y-83634D01*
X136655Y-83605D01*
X136617Y-83577D01*
G54D14*
G54D20*
X137479Y-95961D02*
X137479Y-95278D01*
X137642Y-95278D01*
X137683Y-95311D01*
X137703Y-95343D01*
X137723Y-95408D01*
X137723Y-95506D01*
X137703Y-95571D01*
X137683Y-95603D01*
X137642Y-95636D01*
X137479Y-95636D01*
X137866Y-95278D02*
X138131Y-95278D01*
X137988Y-95538D01*
X138050Y-95538D01*
X138090Y-95571D01*
X138111Y-95603D01*
X138131Y-95668D01*
X138131Y-95831D01*
X138111Y-95896D01*
X138090Y-95928D01*
X138050Y-95961D01*
X137927Y-95961D01*
X137886Y-95928D01*
X137866Y-95896D01*
G54D14*
G54D20*
X137479Y-97142D02*
X137479Y-96459D01*
X137642Y-96459D01*
X137683Y-96492D01*
X137703Y-96524D01*
X137723Y-96589D01*
X137723Y-96687D01*
X137703Y-96752D01*
X137683Y-96784D01*
X137642Y-96817D01*
X137479Y-96817D01*
X137886Y-96524D02*
X137907Y-96492D01*
X137948Y-96459D01*
X138050Y-96459D01*
X138090Y-96492D01*
X138111Y-96524D01*
X138131Y-96589D01*
X138131Y-96654D01*
X138111Y-96752D01*
X137866Y-97142D01*
X138131Y-97142D01*
G54D14*
G54D20*
X146961Y-83952D02*
X146961Y-83271D01*
X146961Y-83596D02*
X147206Y-83596D01*
X147206Y-83952D02*
X147206Y-83271D01*
X147613Y-83952D02*
X147409Y-83952D01*
X147409Y-83271D01*
X147735Y-83920D02*
X147797Y-83952D01*
X147899Y-83952D01*
X147939Y-83920D01*
X147960Y-83887D01*
X147980Y-83823D01*
X147980Y-83758D01*
X147960Y-83693D01*
X147939Y-83660D01*
X147899Y-83628D01*
X147817Y-83596D01*
X147776Y-83563D01*
X147756Y-83531D01*
X147735Y-83466D01*
X147735Y-83401D01*
X147756Y-83336D01*
X147776Y-83304D01*
X147817Y-83271D01*
X147919Y-83271D01*
X147980Y-83304D01*
X148163Y-83596D02*
X148306Y-83596D01*
X148367Y-83952D02*
X148163Y-83952D01*
X148163Y-83271D01*
X148367Y-83271D01*
X148755Y-83952D02*
X148551Y-83952D01*
X148551Y-83271D01*
X149121Y-83952D02*
X148877Y-83952D01*
X148999Y-83952D02*
X148999Y-83271D01*
X148958Y-83369D01*
X148918Y-83433D01*
X148877Y-83466D01*
G54D14*
G54D20*
X138435Y-92287D02*
X138435Y-91606D01*
X138537Y-91606D01*
X138598Y-91638D01*
X138639Y-91703D01*
X138659Y-91768D01*
X138680Y-91898D01*
X138680Y-91995D01*
X138659Y-92125D01*
X138639Y-92190D01*
X138598Y-92255D01*
X138537Y-92287D01*
X138435Y-92287D01*
X138843Y-92092D02*
X139047Y-92092D01*
X138802Y-92287D02*
X138945Y-91606D01*
X139087Y-92287D01*
X139475Y-92222D02*
X139454Y-92255D01*
X139393Y-92287D01*
X139352Y-92287D01*
X139291Y-92255D01*
X139251Y-92190D01*
X139230Y-92125D01*
X139210Y-91995D01*
X139210Y-91898D01*
X139230Y-91768D01*
X139251Y-91703D01*
X139291Y-91638D01*
X139352Y-91606D01*
X139393Y-91606D01*
X139454Y-91638D01*
X139475Y-91671D01*
X139658Y-91930D02*
X139801Y-91930D01*
X139862Y-92287D02*
X139658Y-92287D01*
X139658Y-91606D01*
X139862Y-91606D01*
X140045Y-92287D02*
X140045Y-91606D01*
X140290Y-92287D01*
X140290Y-91606D01*
X140718Y-92287D02*
X140473Y-92287D01*
X140596Y-92287D02*
X140596Y-91606D01*
X140555Y-91703D01*
X140514Y-91768D01*
X140473Y-91801D01*
G54D14*
G54D20*
X148997Y-81952D02*
X148997Y-81271D01*
X149099Y-81271D01*
X149160Y-81304D01*
X149201Y-81369D01*
X149221Y-81433D01*
X149242Y-81563D01*
X149242Y-81660D01*
X149221Y-81790D01*
X149201Y-81855D01*
X149160Y-81920D01*
X149099Y-81952D01*
X148997Y-81952D01*
X149670Y-81952D02*
X149527Y-81628D01*
X149425Y-81952D02*
X149425Y-81271D01*
X149588Y-81271D01*
X149629Y-81304D01*
X149649Y-81336D01*
X149670Y-81401D01*
X149670Y-81498D01*
X149649Y-81563D01*
X149629Y-81596D01*
X149588Y-81628D01*
X149425Y-81628D01*
X149833Y-81758D02*
X150037Y-81758D01*
X149792Y-81952D02*
X149935Y-81271D01*
X150077Y-81952D01*
X150220Y-81952D02*
X150220Y-81271D01*
X150383Y-81271D01*
X150424Y-81304D01*
X150444Y-81336D01*
X150465Y-81401D01*
X150465Y-81498D01*
X150444Y-81563D01*
X150424Y-81596D01*
X150383Y-81628D01*
X150220Y-81628D01*
X150729Y-81271D02*
X150811Y-81271D01*
X150852Y-81304D01*
X150893Y-81369D01*
X150913Y-81498D01*
X150913Y-81725D01*
X150893Y-81855D01*
X150852Y-81920D01*
X150811Y-81952D01*
X150729Y-81952D01*
X150689Y-81920D01*
X150648Y-81855D01*
X150628Y-81725D01*
X150628Y-81498D01*
X150648Y-81369D01*
X150689Y-81304D01*
X150729Y-81271D01*
X151056Y-81271D02*
X151157Y-81952D01*
X151239Y-81466D01*
X151321Y-81952D01*
X151422Y-81271D01*
X151810Y-81952D02*
X151565Y-81952D01*
X151687Y-81952D02*
X151687Y-81271D01*
X151647Y-81369D01*
X151606Y-81433D01*
X151565Y-81466D01*
G54D14*
G54D20*
X143007Y-93622D02*
X142326Y-93622D01*
X142326Y-93521D01*
X142359Y-93459D01*
X142424Y-93419D01*
X142489Y-93398D01*
X142618Y-93378D01*
X142716Y-93378D01*
X142845Y-93398D01*
X142910Y-93419D01*
X142975Y-93459D01*
X143007Y-93521D01*
X143007Y-93622D01*
X142391Y-93215D02*
X142359Y-93194D01*
X142326Y-93154D01*
X142326Y-93052D01*
X142359Y-93011D01*
X142391Y-92991D01*
X142456Y-92970D01*
X142521Y-92970D01*
X142618Y-92991D01*
X143007Y-93235D01*
X143007Y-92970D01*
G54D14*
G54D20*
X143007Y-95985D02*
X142326Y-95985D01*
X142326Y-95822D01*
X142359Y-95781D01*
X142391Y-95761D01*
X142456Y-95740D01*
X142553Y-95740D01*
X142618Y-95761D01*
X142651Y-95781D01*
X142683Y-95822D01*
X142683Y-95985D01*
X143007Y-95333D02*
X143007Y-95577D01*
X143007Y-95455D02*
X142326Y-95455D01*
X142424Y-95496D01*
X142489Y-95536D01*
X142521Y-95577D01*
G54D14*
G54D18*
X132913Y-93942D02*
X132513Y-93942D01*
X132513Y-93790D01*
X132532Y-93752D01*
X132551Y-93733D01*
X132590Y-93714D01*
X132647Y-93714D01*
X132685Y-93733D01*
X132704Y-93752D01*
X132723Y-93790D01*
X132723Y-93942D01*
X132513Y-93352D02*
X132513Y-93542D01*
X132704Y-93561D01*
X132685Y-93542D01*
X132666Y-93504D01*
X132666Y-93409D01*
X132685Y-93371D01*
X132704Y-93352D01*
X132742Y-93333D01*
X132837Y-93333D01*
X132875Y-93352D01*
X132894Y-93371D01*
X132913Y-93409D01*
X132913Y-93504D01*
X132894Y-93542D01*
X132875Y-93561D01*
G54D22*
X135831Y-92142D02*
X135874Y-92156D01*
X135945Y-92156D01*
X135974Y-92142D01*
X135988Y-92128D01*
X136003Y-92099D01*
X136003Y-92071D01*
X135988Y-92042D01*
X135974Y-92028D01*
X135945Y-92014D01*
X135888Y-91999D01*
X135860Y-91985D01*
X135845Y-91971D01*
X135831Y-91942D01*
X135831Y-91914D01*
X135845Y-91885D01*
X135860Y-91871D01*
X135888Y-91856D01*
X135960Y-91856D01*
X136003Y-91871D01*
X136088Y-91856D02*
X136260Y-91856D01*
X136174Y-92156D02*
X136174Y-91856D01*
X136345Y-92071D02*
X136488Y-92071D01*
X136317Y-92156D02*
X136417Y-91856D01*
X136517Y-92156D01*
X136574Y-91856D02*
X136745Y-91856D01*
X136660Y-92156D02*
X136660Y-91856D01*
X137003Y-92156D02*
X136831Y-92156D01*
X136917Y-92156D02*
X136917Y-91856D01*
X136888Y-91899D01*
X136860Y-91928D01*
X136831Y-91942D01*
X136224Y-91156D02*
X136081Y-91156D01*
X136081Y-90856D01*
X136324Y-90999D02*
X136424Y-90999D01*
X136467Y-91156D02*
X136324Y-91156D01*
X136324Y-90856D01*
X136467Y-90856D01*
X136595Y-91156D02*
X136595Y-90856D01*
X136667Y-90856D01*
X136710Y-90871D01*
X136738Y-90899D01*
X136753Y-90928D01*
X136767Y-90985D01*
X136767Y-91028D01*
X136753Y-91085D01*
X136738Y-91114D01*
X136710Y-91142D01*
X136667Y-91156D01*
X136595Y-91156D01*
X136195Y-94125D02*
X136195Y-93825D01*
X136267Y-93825D01*
X136310Y-93839D01*
X136338Y-93868D01*
X136353Y-93896D01*
X136367Y-93953D01*
X136367Y-93996D01*
X136353Y-94053D01*
X136338Y-94082D01*
X136310Y-94111D01*
X136267Y-94125D01*
X136195Y-94125D01*
X136653Y-94125D02*
X136481Y-94125D01*
X136567Y-94125D02*
X136567Y-93825D01*
X136538Y-93868D01*
X136510Y-93896D01*
X136481Y-93911D01*
X135517Y-93125D02*
X135517Y-92825D01*
X135631Y-92825D01*
X135660Y-92839D01*
X135674Y-92853D01*
X135688Y-92882D01*
X135688Y-92925D01*
X135674Y-92953D01*
X135660Y-92968D01*
X135631Y-92982D01*
X135517Y-92982D01*
X135788Y-92825D02*
X135860Y-93125D01*
X135917Y-92911D01*
X135974Y-93125D01*
X136045Y-92825D01*
X136331Y-93125D02*
X136231Y-92982D01*
X136160Y-93125D02*
X136160Y-92825D01*
X136274Y-92825D01*
X136303Y-92839D01*
X136317Y-92853D01*
X136331Y-92882D01*
X136331Y-92925D01*
X136317Y-92953D01*
X136303Y-92968D01*
X136274Y-92982D01*
X136160Y-92982D01*
X136445Y-93111D02*
X136488Y-93125D01*
X136560Y-93125D01*
X136588Y-93111D01*
X136603Y-93096D01*
X136617Y-93068D01*
X136617Y-93039D01*
X136603Y-93011D01*
X136588Y-92996D01*
X136560Y-92982D01*
X136503Y-92968D01*
X136474Y-92953D01*
X136460Y-92939D01*
X136445Y-92911D01*
X136445Y-92882D01*
X136460Y-92853D01*
X136474Y-92839D01*
X136503Y-92825D01*
X136574Y-92825D01*
X136617Y-92839D01*
X136703Y-92825D02*
X136874Y-92825D01*
X136788Y-93125D02*
X136788Y-92825D01*
X136960Y-93039D02*
X137103Y-93039D01*
X136931Y-93125D02*
X137031Y-92825D01*
X137131Y-93125D01*
X137188Y-92825D02*
X137360Y-92825D01*
X137274Y-93125D02*
X137274Y-92825D01*
X135831Y-93126D02*
X135874Y-93141D01*
X135945Y-93141D01*
X135974Y-93126D01*
X135988Y-93112D01*
X136003Y-93083D01*
X136003Y-93055D01*
X135988Y-93026D01*
X135974Y-93012D01*
X135945Y-92998D01*
X135888Y-92983D01*
X135860Y-92969D01*
X135845Y-92955D01*
X135831Y-92926D01*
X135831Y-92898D01*
X135845Y-92869D01*
X135860Y-92855D01*
X135888Y-92841D01*
X135960Y-92841D01*
X136003Y-92855D01*
X136088Y-92841D02*
X136260Y-92841D01*
X136174Y-93141D02*
X136174Y-92841D01*
X136345Y-93055D02*
X136488Y-93055D01*
X136317Y-93141D02*
X136417Y-92841D01*
X136517Y-93141D01*
X136574Y-92841D02*
X136745Y-92841D01*
X136660Y-93141D02*
X136660Y-92841D01*
X136903Y-92841D02*
X136931Y-92841D01*
X136960Y-92855D01*
X136974Y-92869D01*
X136988Y-92898D01*
X137003Y-92955D01*
X137003Y-93026D01*
X136988Y-93083D01*
X136974Y-93112D01*
X136960Y-93126D01*
X136931Y-93141D01*
X136903Y-93141D01*
X136874Y-93126D01*
X136860Y-93112D01*
X136845Y-93083D01*
X136831Y-93026D01*
X136831Y-92955D01*
X136845Y-92898D01*
X136860Y-92869D01*
X136874Y-92855D01*
X136903Y-92841D01*
X136224Y-92141D02*
X136081Y-92141D01*
X136081Y-91841D01*
X136324Y-91983D02*
X136424Y-91983D01*
X136467Y-92141D02*
X136324Y-92141D01*
X136324Y-91841D01*
X136467Y-91841D01*
X136595Y-92141D02*
X136595Y-91841D01*
X136667Y-91841D01*
X136710Y-91855D01*
X136738Y-91883D01*
X136753Y-91912D01*
X136767Y-91969D01*
X136767Y-92012D01*
X136753Y-92069D01*
X136738Y-92098D01*
X136710Y-92126D01*
X136667Y-92141D01*
X136595Y-92141D01*
G54D18*
X151736Y-93767D02*
X151736Y-93957D01*
X151336Y-93957D01*
X151736Y-93424D02*
X151736Y-93653D01*
X151736Y-93538D02*
X151336Y-93538D01*
X151393Y-93576D01*
X151431Y-93615D01*
X151450Y-93653D01*
X153705Y-94948D02*
X153705Y-95139D01*
X153305Y-95139D01*
X153343Y-94834D02*
X153324Y-94815D01*
X153305Y-94777D01*
X153305Y-94681D01*
X153324Y-94643D01*
X153343Y-94624D01*
X153381Y-94605D01*
X153419Y-94605D01*
X153476Y-94624D01*
X153705Y-94853D01*
X153705Y-94605D01*
X151114Y-96618D02*
X150923Y-96618D01*
X150923Y-96218D01*
X151209Y-96218D02*
X151457Y-96218D01*
X151323Y-96370D01*
X151381Y-96370D01*
X151419Y-96390D01*
X151438Y-96409D01*
X151457Y-96447D01*
X151457Y-96542D01*
X151438Y-96580D01*
X151419Y-96599D01*
X151381Y-96618D01*
X151266Y-96618D01*
X151228Y-96599D01*
X151209Y-96580D01*
X151989Y-81939D02*
X151989Y-81539D01*
X152084Y-81539D01*
X152141Y-81558D01*
X152179Y-81596D01*
X152198Y-81634D01*
X152217Y-81710D01*
X152217Y-81767D01*
X152198Y-81843D01*
X152179Y-81881D01*
X152141Y-81920D01*
X152084Y-81939D01*
X151989Y-81939D01*
X152617Y-81939D02*
X152484Y-81748D01*
X152389Y-81939D02*
X152389Y-81539D01*
X152541Y-81539D01*
X152579Y-81558D01*
X152598Y-81577D01*
X152617Y-81615D01*
X152617Y-81672D01*
X152598Y-81710D01*
X152579Y-81729D01*
X152541Y-81748D01*
X152389Y-81748D01*
X152770Y-81824D02*
X152960Y-81824D01*
X152732Y-81939D02*
X152865Y-81539D01*
X152998Y-81939D01*
X153360Y-81900D02*
X153341Y-81920D01*
X153284Y-81939D01*
X153246Y-81939D01*
X153189Y-81920D01*
X153151Y-81881D01*
X153132Y-81843D01*
X153113Y-81767D01*
X153113Y-81710D01*
X153132Y-81634D01*
X153151Y-81596D01*
X153189Y-81558D01*
X153246Y-81539D01*
X153284Y-81539D01*
X153341Y-81558D01*
X153360Y-81577D01*
X153741Y-81939D02*
X153513Y-81939D01*
X153627Y-81939D02*
X153627Y-81539D01*
X153589Y-81596D01*
X153551Y-81634D01*
X153513Y-81653D01*
G54D10*
X145284Y-89391D02*
X145284Y-88997D01*
X145697Y-89354D02*
X145678Y-89372D01*
X145622Y-89391D01*
X145584Y-89391D01*
X145528Y-89372D01*
X145491Y-89335D01*
X145472Y-89297D01*
X145453Y-89222D01*
X145453Y-89166D01*
X145472Y-89091D01*
X145491Y-89054D01*
X145528Y-89016D01*
X145584Y-88997D01*
X145622Y-88997D01*
X145678Y-89016D01*
X145697Y-89035D01*
X146072Y-89391D02*
X145847Y-89391D01*
X145959Y-89391D02*
X145959Y-88997D01*
X145922Y-89054D01*
X145884Y-89091D01*
X145847Y-89110D01*
X144874Y-87816D02*
X144874Y-87423D01*
X144968Y-87423D01*
X145024Y-87441D01*
X145061Y-87479D01*
X145080Y-87516D01*
X145099Y-87591D01*
X145099Y-87648D01*
X145080Y-87723D01*
X145061Y-87760D01*
X145024Y-87798D01*
X144968Y-87816D01*
X144874Y-87816D01*
X145493Y-87816D02*
X145361Y-87629D01*
X145268Y-87816D02*
X145268Y-87423D01*
X145418Y-87423D01*
X145455Y-87441D01*
X145474Y-87460D01*
X145493Y-87498D01*
X145493Y-87554D01*
X145474Y-87591D01*
X145455Y-87610D01*
X145418Y-87629D01*
X145268Y-87629D01*
X145643Y-87704D02*
X145830Y-87704D01*
X145605Y-87816D02*
X145736Y-87423D01*
X145868Y-87816D01*
X146055Y-87591D02*
X146017Y-87573D01*
X145999Y-87554D01*
X145980Y-87516D01*
X145980Y-87498D01*
X145999Y-87460D01*
X146017Y-87441D01*
X146055Y-87423D01*
X146130Y-87423D01*
X146167Y-87441D01*
X146186Y-87460D01*
X146205Y-87498D01*
X146205Y-87516D01*
X146186Y-87554D01*
X146167Y-87573D01*
X146130Y-87591D01*
X146055Y-87591D01*
X146017Y-87610D01*
X145999Y-87629D01*
X145980Y-87666D01*
X145980Y-87741D01*
X145999Y-87779D01*
X146017Y-87798D01*
X146055Y-87816D01*
X146130Y-87816D01*
X146167Y-87798D01*
X146186Y-87779D01*
X146205Y-87741D01*
X146205Y-87666D01*
X146186Y-87629D01*
X146167Y-87610D01*
X146130Y-87591D01*
X146580Y-87816D02*
X146355Y-87816D01*
X146467Y-87816D02*
X146467Y-87423D01*
X146430Y-87479D01*
X146392Y-87516D01*
X146355Y-87535D01*
X146805Y-87591D02*
X146767Y-87573D01*
X146749Y-87554D01*
X146730Y-87516D01*
X146730Y-87498D01*
X146749Y-87460D01*
X146767Y-87441D01*
X146805Y-87423D01*
X146880Y-87423D01*
X146917Y-87441D01*
X146936Y-87460D01*
X146955Y-87498D01*
X146955Y-87516D01*
X146936Y-87554D01*
X146917Y-87573D01*
X146880Y-87591D01*
X146805Y-87591D01*
X146767Y-87610D01*
X146749Y-87629D01*
X146730Y-87666D01*
X146730Y-87741D01*
X146749Y-87779D01*
X146767Y-87798D01*
X146805Y-87816D01*
X146880Y-87816D01*
X146917Y-87798D01*
X146936Y-87779D01*
X146955Y-87741D01*
X146955Y-87666D01*
X146936Y-87629D01*
X146917Y-87610D01*
X146880Y-87591D01*
M02*
