G04 (created by PCBNEW (2013-may-18)-stable) date Tue Feb  3 23:11:06 2015*
%MOIN*%
G04 Gerber Fmt 3.4, Leading zero omitted, Abs format*
%FSLAX34Y34*%
G01*
G70*
G90*
G04 APERTURE LIST*
%ADD10C,0.005*%
%ADD11C,0.00393701*%
%ADD12C,0.00787402*%
%ADD13C,0.011811*%
G04 APERTURE END LIST*
G54D10*
G54D11*
X132913Y-97165D02*
X132913Y-81968D01*
X154488Y-97165D02*
X132913Y-97165D01*
X154488Y-97007D02*
X154488Y-97165D01*
X154488Y-81968D02*
X154488Y-97007D01*
X132913Y-81968D02*
X154488Y-81968D01*
G54D12*
X133103Y-83260D02*
X133353Y-83510D01*
X133353Y-83260D02*
X133103Y-83510D01*
X133260Y-86804D02*
X133510Y-87054D01*
X133510Y-86804D02*
X133260Y-87054D01*
X134520Y-84914D02*
X134770Y-85164D01*
X134770Y-84914D02*
X134520Y-85164D01*
X135544Y-87906D02*
X135794Y-88156D01*
X135794Y-87906D02*
X135544Y-88156D01*
X135780Y-86961D02*
X136030Y-87211D01*
X136030Y-86961D02*
X135780Y-87211D01*
X136252Y-91528D02*
X136502Y-91778D01*
X136502Y-91528D02*
X136252Y-91778D01*
X136804Y-87119D02*
X137054Y-87369D01*
X137054Y-87119D02*
X136804Y-87369D01*
X136882Y-86410D02*
X137132Y-86660D01*
X137132Y-86410D02*
X136882Y-86660D01*
X136882Y-91922D02*
X137132Y-92172D01*
X137132Y-91922D02*
X136882Y-92172D01*
X137512Y-95544D02*
X137762Y-95794D01*
X137762Y-95544D02*
X137512Y-95794D01*
X137906Y-88693D02*
X138156Y-88943D01*
X138156Y-88693D02*
X137906Y-88943D01*
X138142Y-89875D02*
X138392Y-90125D01*
X138392Y-89875D02*
X138142Y-90125D01*
X140189Y-87119D02*
X140439Y-87369D01*
X140439Y-87119D02*
X140189Y-87369D01*
X140504Y-88930D02*
X140754Y-89180D01*
X140754Y-88930D02*
X140504Y-89180D01*
X140504Y-89796D02*
X140754Y-90046D01*
X140754Y-89796D02*
X140504Y-90046D01*
X141528Y-84363D02*
X141778Y-84613D01*
X141778Y-84363D02*
X141528Y-84613D01*
X141764Y-87197D02*
X142014Y-87447D01*
X142014Y-87197D02*
X141764Y-87447D01*
X141922Y-89717D02*
X142172Y-89967D01*
X142172Y-89717D02*
X141922Y-89967D01*
X142158Y-82394D02*
X142408Y-82644D01*
X142408Y-82394D02*
X142158Y-82644D01*
X143418Y-86174D02*
X143668Y-86424D01*
X143668Y-86174D02*
X143418Y-86424D01*
X143418Y-92237D02*
X143668Y-92487D01*
X143668Y-92237D02*
X143418Y-92487D01*
X143575Y-89166D02*
X143825Y-89416D01*
X143825Y-89166D02*
X143575Y-89416D01*
X144835Y-86174D02*
X145085Y-86424D01*
X145085Y-86174D02*
X144835Y-86424D01*
X145386Y-87827D02*
X145636Y-88077D01*
X145636Y-87827D02*
X145386Y-88077D01*
X145701Y-82630D02*
X145951Y-82880D01*
X145951Y-82630D02*
X145701Y-82880D01*
X146489Y-92315D02*
X146739Y-92565D01*
X146739Y-92315D02*
X146489Y-92565D01*
X146646Y-89323D02*
X146896Y-89573D01*
X146896Y-89323D02*
X146646Y-89573D01*
X147434Y-85465D02*
X147684Y-85715D01*
X147684Y-85465D02*
X147434Y-85715D01*
X148221Y-95544D02*
X148471Y-95794D01*
X148471Y-95544D02*
X148221Y-95794D01*
X148300Y-88930D02*
X148550Y-89180D01*
X148550Y-88930D02*
X148300Y-89180D01*
X148300Y-93437D02*
X148550Y-93687D01*
X148550Y-93437D02*
X148300Y-93687D01*
X148457Y-87670D02*
X148707Y-87920D01*
X148707Y-87670D02*
X148457Y-87920D01*
X148615Y-84205D02*
X148865Y-84455D01*
X148865Y-84205D02*
X148615Y-84455D01*
X149796Y-95623D02*
X150046Y-95873D01*
X150046Y-95623D02*
X149796Y-95873D01*
X150189Y-82552D02*
X150439Y-82802D01*
X150439Y-82552D02*
X150189Y-82802D01*
X151764Y-95780D02*
X152014Y-96030D01*
X152014Y-95780D02*
X151764Y-96030D01*
X152079Y-85937D02*
X152329Y-86187D01*
X152329Y-85937D02*
X152079Y-86187D01*
X153260Y-85780D02*
X153510Y-86030D01*
X153510Y-85780D02*
X153260Y-86030D01*
X153812Y-95623D02*
X154062Y-95873D01*
X154062Y-95623D02*
X153812Y-95873D01*
X153890Y-83890D02*
X154140Y-84140D01*
X154140Y-83890D02*
X153890Y-84140D01*
X154048Y-87591D02*
X154298Y-87841D01*
X154298Y-87591D02*
X154048Y-87841D01*
X134258Y-82677D02*
G75*
G03X134258Y-82677I-160J0D01*
G74*
G01*
X135258Y-82677D02*
G75*
G03X135258Y-82677I-160J0D01*
G74*
G01*
X136258Y-82677D02*
G75*
G03X136258Y-82677I-160J0D01*
G74*
G01*
X137258Y-82677D02*
G75*
G03X137258Y-82677I-160J0D01*
G74*
G01*
X138258Y-82677D02*
G75*
G03X138258Y-82677I-160J0D01*
G74*
G01*
X139258Y-82677D02*
G75*
G03X139258Y-82677I-160J0D01*
G74*
G01*
X140258Y-82677D02*
G75*
G03X140258Y-82677I-160J0D01*
G74*
G01*
X140785Y-94488D02*
G75*
G03X140785Y-94488I-160J0D01*
G74*
G01*
X140785Y-95669D02*
G75*
G03X140785Y-95669I-160J0D01*
G74*
G01*
X141258Y-82677D02*
G75*
G03X141258Y-82677I-160J0D01*
G74*
G01*
X141785Y-92913D02*
G75*
G03X141785Y-92913I-160J0D01*
G74*
G01*
X141785Y-94488D02*
G75*
G03X141785Y-94488I-160J0D01*
G74*
G01*
X141785Y-95669D02*
G75*
G03X141785Y-95669I-160J0D01*
G74*
G01*
X142785Y-92913D02*
G75*
G03X142785Y-92913I-160J0D01*
G74*
G01*
X142785Y-94488D02*
G75*
G03X142785Y-94488I-160J0D01*
G74*
G01*
X142785Y-95669D02*
G75*
G03X142785Y-95669I-160J0D01*
G74*
G01*
X143785Y-94488D02*
G75*
G03X143785Y-94488I-160J0D01*
G74*
G01*
X143785Y-95669D02*
G75*
G03X143785Y-95669I-160J0D01*
G74*
G01*
X145329Y-93700D02*
G75*
G03X145329Y-93700I-160J0D01*
G74*
G01*
X145329Y-95669D02*
G75*
G03X145329Y-95669I-160J0D01*
G74*
G01*
X146329Y-93700D02*
G75*
G03X146329Y-93700I-160J0D01*
G74*
G01*
X146329Y-95669D02*
G75*
G03X146329Y-95669I-160J0D01*
G74*
G01*
X147691Y-82677D02*
G75*
G03X147691Y-82677I-160J0D01*
G74*
G01*
X148691Y-82677D02*
G75*
G03X148691Y-82677I-160J0D01*
G74*
G01*
X152494Y-82598D02*
G75*
G03X152494Y-82598I-160J0D01*
G74*
G01*
X153494Y-82598D02*
G75*
G03X153494Y-82598I-160J0D01*
G74*
G01*
X150669Y-92362D02*
X150669Y-92756D01*
X150472Y-92559D02*
X150866Y-92559D01*
X150669Y-94488D02*
X150669Y-94882D01*
X150472Y-94685D02*
X150866Y-94685D01*
X151732Y-93425D02*
X151732Y-93819D01*
X151535Y-93622D02*
X151929Y-93622D01*
X152795Y-92362D02*
X152795Y-92756D01*
X152598Y-92559D02*
X152992Y-92559D01*
X152795Y-94488D02*
X152795Y-94882D01*
X152598Y-94685D02*
X152992Y-94685D01*
X133893Y-92039D02*
X133893Y-91756D01*
X133610Y-91756D01*
X133610Y-92039D01*
X133893Y-92039D01*
X133893Y-93039D02*
X133893Y-92756D01*
X133610Y-92756D01*
X133610Y-93039D01*
X133893Y-93039D01*
X133893Y-94039D02*
X133893Y-93756D01*
X133610Y-93756D01*
X133610Y-94039D01*
X133893Y-94039D01*
X133893Y-95039D02*
X133893Y-94756D01*
X133610Y-94756D01*
X133610Y-95039D01*
X133893Y-95039D01*
X133893Y-96039D02*
X133893Y-95756D01*
X133610Y-95756D01*
X133610Y-96039D01*
X133893Y-96039D01*
X134893Y-92039D02*
X134893Y-91756D01*
X134610Y-91756D01*
X134610Y-92039D01*
X134893Y-92039D01*
X134893Y-93039D02*
X134893Y-92756D01*
X134610Y-92756D01*
X134610Y-93039D01*
X134893Y-93039D01*
X134893Y-94039D02*
X134893Y-93756D01*
X134610Y-93756D01*
X134610Y-94039D01*
X134893Y-94039D01*
X134893Y-95039D02*
X134893Y-94756D01*
X134610Y-94756D01*
X134610Y-95039D01*
X134893Y-95039D01*
X134893Y-96039D02*
X134893Y-95756D01*
X134610Y-95756D01*
X134610Y-96039D01*
X134893Y-96039D01*
G54D13*
X133962Y-98962D02*
X133962Y-97781D01*
X134243Y-97781D01*
X134412Y-97837D01*
X134524Y-97949D01*
X134580Y-98062D01*
X134637Y-98287D01*
X134637Y-98456D01*
X134580Y-98681D01*
X134524Y-98793D01*
X134412Y-98906D01*
X134243Y-98962D01*
X133962Y-98962D01*
X135143Y-98962D02*
X135143Y-98174D01*
X135143Y-98399D02*
X135199Y-98287D01*
X135255Y-98231D01*
X135368Y-98174D01*
X135480Y-98174D01*
X135874Y-98962D02*
X135874Y-98174D01*
X135874Y-97781D02*
X135818Y-97837D01*
X135874Y-97893D01*
X135930Y-97837D01*
X135874Y-97781D01*
X135874Y-97893D01*
X136605Y-98962D02*
X136493Y-98906D01*
X136437Y-98793D01*
X136437Y-97781D01*
X137224Y-98962D02*
X137111Y-98906D01*
X137055Y-98793D01*
X137055Y-97781D01*
X138574Y-98962D02*
X138574Y-97781D01*
X138967Y-98624D01*
X139361Y-97781D01*
X139361Y-98962D01*
X140430Y-98962D02*
X140430Y-98343D01*
X140374Y-98231D01*
X140261Y-98174D01*
X140036Y-98174D01*
X139924Y-98231D01*
X140430Y-98906D02*
X140317Y-98962D01*
X140036Y-98962D01*
X139924Y-98906D01*
X139867Y-98793D01*
X139867Y-98681D01*
X139924Y-98568D01*
X140036Y-98512D01*
X140317Y-98512D01*
X140430Y-98456D01*
X140992Y-98174D02*
X140992Y-99356D01*
X140992Y-98231D02*
X141105Y-98174D01*
X141330Y-98174D01*
X141442Y-98231D01*
X141498Y-98287D01*
X141555Y-98399D01*
X141555Y-98737D01*
X141498Y-98849D01*
X141442Y-98906D01*
X141330Y-98962D01*
X141105Y-98962D01*
X140992Y-98906D01*
X142061Y-98849D02*
X142117Y-98906D01*
X142061Y-98962D01*
X142005Y-98906D01*
X142061Y-98849D01*
X142061Y-98962D01*
X142061Y-98231D02*
X142117Y-98287D01*
X142061Y-98343D01*
X142005Y-98287D01*
X142061Y-98231D01*
X142061Y-98343D01*
X132643Y-100839D02*
X132893Y-101089D01*
X132893Y-100839D02*
X132643Y-101089D01*
X134187Y-100261D02*
X134299Y-100261D01*
X134412Y-100317D01*
X134468Y-100374D01*
X134524Y-100486D01*
X134580Y-100711D01*
X134580Y-100992D01*
X134524Y-101217D01*
X134468Y-101330D01*
X134412Y-101386D01*
X134299Y-101442D01*
X134187Y-101442D01*
X134074Y-101386D01*
X134018Y-101330D01*
X133962Y-101217D01*
X133906Y-100992D01*
X133906Y-100711D01*
X133962Y-100486D01*
X134018Y-100374D01*
X134074Y-100317D01*
X134187Y-100261D01*
X135087Y-101330D02*
X135143Y-101386D01*
X135087Y-101442D01*
X135030Y-101386D01*
X135087Y-101330D01*
X135087Y-101442D01*
X136155Y-100261D02*
X135930Y-100261D01*
X135818Y-100317D01*
X135762Y-100374D01*
X135649Y-100542D01*
X135593Y-100767D01*
X135593Y-101217D01*
X135649Y-101330D01*
X135705Y-101386D01*
X135818Y-101442D01*
X136043Y-101442D01*
X136155Y-101386D01*
X136212Y-101330D01*
X136268Y-101217D01*
X136268Y-100936D01*
X136212Y-100823D01*
X136155Y-100767D01*
X136043Y-100711D01*
X135818Y-100711D01*
X135705Y-100767D01*
X135649Y-100823D01*
X135593Y-100936D01*
X137280Y-100655D02*
X137280Y-101442D01*
X136999Y-100205D02*
X136718Y-101048D01*
X137449Y-101048D01*
X137899Y-101442D02*
X137899Y-100655D01*
X137899Y-100767D02*
X137955Y-100711D01*
X138068Y-100655D01*
X138236Y-100655D01*
X138349Y-100711D01*
X138405Y-100823D01*
X138405Y-101442D01*
X138405Y-100823D02*
X138461Y-100711D01*
X138574Y-100655D01*
X138742Y-100655D01*
X138855Y-100711D01*
X138911Y-100823D01*
X138911Y-101442D01*
X139474Y-101442D02*
X139474Y-100655D01*
X139474Y-100767D02*
X139530Y-100711D01*
X139642Y-100655D01*
X139811Y-100655D01*
X139924Y-100711D01*
X139980Y-100823D01*
X139980Y-101442D01*
X139980Y-100823D02*
X140036Y-100711D01*
X140149Y-100655D01*
X140317Y-100655D01*
X140430Y-100711D01*
X140486Y-100823D01*
X140486Y-101442D01*
X142792Y-100205D02*
X141780Y-101723D01*
X144311Y-100261D02*
X144423Y-100261D01*
X144535Y-100317D01*
X144592Y-100374D01*
X144648Y-100486D01*
X144704Y-100711D01*
X144704Y-100992D01*
X144648Y-101217D01*
X144592Y-101330D01*
X144535Y-101386D01*
X144423Y-101442D01*
X144311Y-101442D01*
X144198Y-101386D01*
X144142Y-101330D01*
X144086Y-101217D01*
X144029Y-100992D01*
X144029Y-100711D01*
X144086Y-100486D01*
X144142Y-100374D01*
X144198Y-100317D01*
X144311Y-100261D01*
X145210Y-101330D02*
X145267Y-101386D01*
X145210Y-101442D01*
X145154Y-101386D01*
X145210Y-101330D01*
X145210Y-101442D01*
X145998Y-100261D02*
X146110Y-100261D01*
X146223Y-100317D01*
X146279Y-100374D01*
X146335Y-100486D01*
X146392Y-100711D01*
X146392Y-100992D01*
X146335Y-101217D01*
X146279Y-101330D01*
X146223Y-101386D01*
X146110Y-101442D01*
X145998Y-101442D01*
X145885Y-101386D01*
X145829Y-101330D01*
X145773Y-101217D01*
X145717Y-100992D01*
X145717Y-100711D01*
X145773Y-100486D01*
X145829Y-100374D01*
X145885Y-100317D01*
X145998Y-100261D01*
X146841Y-100374D02*
X146898Y-100317D01*
X147010Y-100261D01*
X147291Y-100261D01*
X147404Y-100317D01*
X147460Y-100374D01*
X147516Y-100486D01*
X147516Y-100598D01*
X147460Y-100767D01*
X146785Y-101442D01*
X147516Y-101442D01*
X148585Y-100261D02*
X148023Y-100261D01*
X147966Y-100823D01*
X148023Y-100767D01*
X148135Y-100711D01*
X148416Y-100711D01*
X148529Y-100767D01*
X148585Y-100823D01*
X148641Y-100936D01*
X148641Y-101217D01*
X148585Y-101330D01*
X148529Y-101386D01*
X148416Y-101442D01*
X148135Y-101442D01*
X148023Y-101386D01*
X147966Y-101330D01*
X149091Y-100261D02*
X149091Y-100486D01*
X149541Y-100261D02*
X149541Y-100486D01*
X151285Y-101892D02*
X151228Y-101836D01*
X151116Y-101667D01*
X151060Y-101555D01*
X151003Y-101386D01*
X150947Y-101105D01*
X150947Y-100880D01*
X151003Y-100598D01*
X151060Y-100430D01*
X151116Y-100317D01*
X151228Y-100149D01*
X151285Y-100092D01*
X152241Y-100655D02*
X152241Y-101442D01*
X151960Y-100205D02*
X151678Y-101048D01*
X152410Y-101048D01*
X153478Y-101442D02*
X152803Y-101442D01*
X153141Y-101442D02*
X153141Y-100261D01*
X153028Y-100430D01*
X152916Y-100542D01*
X152803Y-100598D01*
X154884Y-101442D02*
X154884Y-100261D01*
X155390Y-101442D02*
X155390Y-100823D01*
X155334Y-100711D01*
X155222Y-100655D01*
X155053Y-100655D01*
X154940Y-100711D01*
X154884Y-100767D01*
X156122Y-101442D02*
X156009Y-101386D01*
X155953Y-101330D01*
X155897Y-101217D01*
X155897Y-100880D01*
X155953Y-100767D01*
X156009Y-100711D01*
X156122Y-100655D01*
X156290Y-100655D01*
X156403Y-100711D01*
X156459Y-100767D01*
X156515Y-100880D01*
X156515Y-101217D01*
X156459Y-101330D01*
X156403Y-101386D01*
X156290Y-101442D01*
X156122Y-101442D01*
X157190Y-101442D02*
X157078Y-101386D01*
X157021Y-101273D01*
X157021Y-100261D01*
X158090Y-101386D02*
X157978Y-101442D01*
X157753Y-101442D01*
X157640Y-101386D01*
X157584Y-101273D01*
X157584Y-100823D01*
X157640Y-100711D01*
X157753Y-100655D01*
X157978Y-100655D01*
X158090Y-100711D01*
X158146Y-100823D01*
X158146Y-100936D01*
X157584Y-101048D01*
X158596Y-101386D02*
X158709Y-101442D01*
X158934Y-101442D01*
X159046Y-101386D01*
X159102Y-101273D01*
X159102Y-101217D01*
X159046Y-101105D01*
X158934Y-101048D01*
X158765Y-101048D01*
X158652Y-100992D01*
X158596Y-100880D01*
X158596Y-100823D01*
X158652Y-100711D01*
X158765Y-100655D01*
X158934Y-100655D01*
X159046Y-100711D01*
X159496Y-101892D02*
X159552Y-101836D01*
X159665Y-101667D01*
X159721Y-101555D01*
X159777Y-101386D01*
X159834Y-101105D01*
X159834Y-100880D01*
X159777Y-100598D01*
X159721Y-100430D01*
X159665Y-100317D01*
X159552Y-100149D01*
X159496Y-100092D01*
G54D12*
X132893Y-102523D02*
G75*
G03X132893Y-102523I-160J0D01*
G74*
G01*
G54D13*
X134187Y-101820D02*
X134299Y-101820D01*
X134412Y-101876D01*
X134468Y-101933D01*
X134524Y-102045D01*
X134580Y-102270D01*
X134580Y-102551D01*
X134524Y-102776D01*
X134468Y-102889D01*
X134412Y-102945D01*
X134299Y-103001D01*
X134187Y-103001D01*
X134074Y-102945D01*
X134018Y-102889D01*
X133962Y-102776D01*
X133906Y-102551D01*
X133906Y-102270D01*
X133962Y-102045D01*
X134018Y-101933D01*
X134074Y-101876D01*
X134187Y-101820D01*
X135087Y-102889D02*
X135143Y-102945D01*
X135087Y-103001D01*
X135030Y-102945D01*
X135087Y-102889D01*
X135087Y-103001D01*
X135818Y-102326D02*
X135705Y-102270D01*
X135649Y-102214D01*
X135593Y-102101D01*
X135593Y-102045D01*
X135649Y-101933D01*
X135705Y-101876D01*
X135818Y-101820D01*
X136043Y-101820D01*
X136155Y-101876D01*
X136212Y-101933D01*
X136268Y-102045D01*
X136268Y-102101D01*
X136212Y-102214D01*
X136155Y-102270D01*
X136043Y-102326D01*
X135818Y-102326D01*
X135705Y-102383D01*
X135649Y-102439D01*
X135593Y-102551D01*
X135593Y-102776D01*
X135649Y-102889D01*
X135705Y-102945D01*
X135818Y-103001D01*
X136043Y-103001D01*
X136155Y-102945D01*
X136212Y-102889D01*
X136268Y-102776D01*
X136268Y-102551D01*
X136212Y-102439D01*
X136155Y-102383D01*
X136043Y-102326D01*
X137393Y-103001D02*
X136718Y-103001D01*
X137055Y-103001D02*
X137055Y-101820D01*
X136943Y-101989D01*
X136830Y-102101D01*
X136718Y-102158D01*
X137899Y-103001D02*
X137899Y-102214D01*
X137899Y-102326D02*
X137955Y-102270D01*
X138068Y-102214D01*
X138236Y-102214D01*
X138349Y-102270D01*
X138405Y-102383D01*
X138405Y-103001D01*
X138405Y-102383D02*
X138461Y-102270D01*
X138574Y-102214D01*
X138742Y-102214D01*
X138855Y-102270D01*
X138911Y-102383D01*
X138911Y-103001D01*
X139474Y-103001D02*
X139474Y-102214D01*
X139474Y-102326D02*
X139530Y-102270D01*
X139642Y-102214D01*
X139811Y-102214D01*
X139924Y-102270D01*
X139980Y-102383D01*
X139980Y-103001D01*
X139980Y-102383D02*
X140036Y-102270D01*
X140149Y-102214D01*
X140317Y-102214D01*
X140430Y-102270D01*
X140486Y-102383D01*
X140486Y-103001D01*
X142792Y-101764D02*
X141780Y-103282D01*
X144311Y-101820D02*
X144423Y-101820D01*
X144535Y-101876D01*
X144592Y-101933D01*
X144648Y-102045D01*
X144704Y-102270D01*
X144704Y-102551D01*
X144648Y-102776D01*
X144592Y-102889D01*
X144535Y-102945D01*
X144423Y-103001D01*
X144311Y-103001D01*
X144198Y-102945D01*
X144142Y-102889D01*
X144086Y-102776D01*
X144029Y-102551D01*
X144029Y-102270D01*
X144086Y-102045D01*
X144142Y-101933D01*
X144198Y-101876D01*
X144311Y-101820D01*
X145210Y-102889D02*
X145267Y-102945D01*
X145210Y-103001D01*
X145154Y-102945D01*
X145210Y-102889D01*
X145210Y-103001D01*
X145998Y-101820D02*
X146110Y-101820D01*
X146223Y-101876D01*
X146279Y-101933D01*
X146335Y-102045D01*
X146392Y-102270D01*
X146392Y-102551D01*
X146335Y-102776D01*
X146279Y-102889D01*
X146223Y-102945D01*
X146110Y-103001D01*
X145998Y-103001D01*
X145885Y-102945D01*
X145829Y-102889D01*
X145773Y-102776D01*
X145717Y-102551D01*
X145717Y-102270D01*
X145773Y-102045D01*
X145829Y-101933D01*
X145885Y-101876D01*
X145998Y-101820D01*
X146785Y-101820D02*
X147516Y-101820D01*
X147123Y-102270D01*
X147291Y-102270D01*
X147404Y-102326D01*
X147460Y-102383D01*
X147516Y-102495D01*
X147516Y-102776D01*
X147460Y-102889D01*
X147404Y-102945D01*
X147291Y-103001D01*
X146954Y-103001D01*
X146841Y-102945D01*
X146785Y-102889D01*
X147966Y-101933D02*
X148023Y-101876D01*
X148135Y-101820D01*
X148416Y-101820D01*
X148529Y-101876D01*
X148585Y-101933D01*
X148641Y-102045D01*
X148641Y-102158D01*
X148585Y-102326D01*
X147910Y-103001D01*
X148641Y-103001D01*
X149091Y-101820D02*
X149091Y-102045D01*
X149541Y-101820D02*
X149541Y-102045D01*
X151285Y-103451D02*
X151228Y-103395D01*
X151116Y-103226D01*
X151060Y-103114D01*
X151003Y-102945D01*
X150947Y-102664D01*
X150947Y-102439D01*
X151003Y-102158D01*
X151060Y-101989D01*
X151116Y-101876D01*
X151228Y-101708D01*
X151285Y-101651D01*
X151678Y-101933D02*
X151735Y-101876D01*
X151847Y-101820D01*
X152128Y-101820D01*
X152241Y-101876D01*
X152297Y-101933D01*
X152353Y-102045D01*
X152353Y-102158D01*
X152297Y-102326D01*
X151622Y-103001D01*
X152353Y-103001D01*
X153366Y-101820D02*
X153141Y-101820D01*
X153028Y-101876D01*
X152972Y-101933D01*
X152859Y-102101D01*
X152803Y-102326D01*
X152803Y-102776D01*
X152859Y-102889D01*
X152916Y-102945D01*
X153028Y-103001D01*
X153253Y-103001D01*
X153366Y-102945D01*
X153422Y-102889D01*
X153478Y-102776D01*
X153478Y-102495D01*
X153422Y-102383D01*
X153366Y-102326D01*
X153253Y-102270D01*
X153028Y-102270D01*
X152916Y-102326D01*
X152859Y-102383D01*
X152803Y-102495D01*
X154884Y-103001D02*
X154884Y-101820D01*
X155390Y-103001D02*
X155390Y-102383D01*
X155334Y-102270D01*
X155222Y-102214D01*
X155053Y-102214D01*
X154940Y-102270D01*
X154884Y-102326D01*
X156122Y-103001D02*
X156009Y-102945D01*
X155953Y-102889D01*
X155897Y-102776D01*
X155897Y-102439D01*
X155953Y-102326D01*
X156009Y-102270D01*
X156122Y-102214D01*
X156290Y-102214D01*
X156403Y-102270D01*
X156459Y-102326D01*
X156515Y-102439D01*
X156515Y-102776D01*
X156459Y-102889D01*
X156403Y-102945D01*
X156290Y-103001D01*
X156122Y-103001D01*
X157190Y-103001D02*
X157078Y-102945D01*
X157021Y-102832D01*
X157021Y-101820D01*
X158090Y-102945D02*
X157978Y-103001D01*
X157753Y-103001D01*
X157640Y-102945D01*
X157584Y-102832D01*
X157584Y-102383D01*
X157640Y-102270D01*
X157753Y-102214D01*
X157978Y-102214D01*
X158090Y-102270D01*
X158146Y-102383D01*
X158146Y-102495D01*
X157584Y-102607D01*
X158596Y-102945D02*
X158709Y-103001D01*
X158934Y-103001D01*
X159046Y-102945D01*
X159102Y-102832D01*
X159102Y-102776D01*
X159046Y-102664D01*
X158934Y-102607D01*
X158765Y-102607D01*
X158652Y-102551D01*
X158596Y-102439D01*
X158596Y-102383D01*
X158652Y-102270D01*
X158765Y-102214D01*
X158934Y-102214D01*
X159046Y-102270D01*
X159496Y-103451D02*
X159552Y-103395D01*
X159665Y-103226D01*
X159721Y-103114D01*
X159777Y-102945D01*
X159834Y-102664D01*
X159834Y-102439D01*
X159777Y-102158D01*
X159721Y-101989D01*
X159665Y-101876D01*
X159552Y-101708D01*
X159496Y-101651D01*
X132696Y-103885D02*
X132696Y-104279D01*
X132499Y-104082D02*
X132893Y-104082D01*
X134580Y-104560D02*
X133906Y-104560D01*
X134243Y-104560D02*
X134243Y-103379D01*
X134131Y-103548D01*
X134018Y-103660D01*
X133906Y-103717D01*
X135087Y-104448D02*
X135143Y-104504D01*
X135087Y-104560D01*
X135030Y-104504D01*
X135087Y-104448D01*
X135087Y-104560D01*
X135874Y-103379D02*
X135987Y-103379D01*
X136099Y-103435D01*
X136155Y-103492D01*
X136212Y-103604D01*
X136268Y-103829D01*
X136268Y-104110D01*
X136212Y-104335D01*
X136155Y-104448D01*
X136099Y-104504D01*
X135987Y-104560D01*
X135874Y-104560D01*
X135762Y-104504D01*
X135705Y-104448D01*
X135649Y-104335D01*
X135593Y-104110D01*
X135593Y-103829D01*
X135649Y-103604D01*
X135705Y-103492D01*
X135762Y-103435D01*
X135874Y-103379D01*
X136999Y-103379D02*
X137111Y-103379D01*
X137224Y-103435D01*
X137280Y-103492D01*
X137336Y-103604D01*
X137393Y-103829D01*
X137393Y-104110D01*
X137336Y-104335D01*
X137280Y-104448D01*
X137224Y-104504D01*
X137111Y-104560D01*
X136999Y-104560D01*
X136886Y-104504D01*
X136830Y-104448D01*
X136774Y-104335D01*
X136718Y-104110D01*
X136718Y-103829D01*
X136774Y-103604D01*
X136830Y-103492D01*
X136886Y-103435D01*
X136999Y-103379D01*
X137899Y-104560D02*
X137899Y-103773D01*
X137899Y-103885D02*
X137955Y-103829D01*
X138068Y-103773D01*
X138236Y-103773D01*
X138349Y-103829D01*
X138405Y-103942D01*
X138405Y-104560D01*
X138405Y-103942D02*
X138461Y-103829D01*
X138574Y-103773D01*
X138742Y-103773D01*
X138855Y-103829D01*
X138911Y-103942D01*
X138911Y-104560D01*
X139474Y-104560D02*
X139474Y-103773D01*
X139474Y-103885D02*
X139530Y-103829D01*
X139642Y-103773D01*
X139811Y-103773D01*
X139924Y-103829D01*
X139980Y-103942D01*
X139980Y-104560D01*
X139980Y-103942D02*
X140036Y-103829D01*
X140149Y-103773D01*
X140317Y-103773D01*
X140430Y-103829D01*
X140486Y-103942D01*
X140486Y-104560D01*
X142792Y-103323D02*
X141780Y-104841D01*
X144311Y-103379D02*
X144423Y-103379D01*
X144535Y-103435D01*
X144592Y-103492D01*
X144648Y-103604D01*
X144704Y-103829D01*
X144704Y-104110D01*
X144648Y-104335D01*
X144592Y-104448D01*
X144535Y-104504D01*
X144423Y-104560D01*
X144311Y-104560D01*
X144198Y-104504D01*
X144142Y-104448D01*
X144086Y-104335D01*
X144029Y-104110D01*
X144029Y-103829D01*
X144086Y-103604D01*
X144142Y-103492D01*
X144198Y-103435D01*
X144311Y-103379D01*
X145210Y-104448D02*
X145267Y-104504D01*
X145210Y-104560D01*
X145154Y-104504D01*
X145210Y-104448D01*
X145210Y-104560D01*
X145998Y-103379D02*
X146110Y-103379D01*
X146223Y-103435D01*
X146279Y-103492D01*
X146335Y-103604D01*
X146392Y-103829D01*
X146392Y-104110D01*
X146335Y-104335D01*
X146279Y-104448D01*
X146223Y-104504D01*
X146110Y-104560D01*
X145998Y-104560D01*
X145885Y-104504D01*
X145829Y-104448D01*
X145773Y-104335D01*
X145717Y-104110D01*
X145717Y-103829D01*
X145773Y-103604D01*
X145829Y-103492D01*
X145885Y-103435D01*
X145998Y-103379D01*
X146785Y-103379D02*
X147516Y-103379D01*
X147123Y-103829D01*
X147291Y-103829D01*
X147404Y-103885D01*
X147460Y-103942D01*
X147516Y-104054D01*
X147516Y-104335D01*
X147460Y-104448D01*
X147404Y-104504D01*
X147291Y-104560D01*
X146954Y-104560D01*
X146841Y-104504D01*
X146785Y-104448D01*
X148079Y-104560D02*
X148304Y-104560D01*
X148416Y-104504D01*
X148473Y-104448D01*
X148585Y-104279D01*
X148641Y-104054D01*
X148641Y-103604D01*
X148585Y-103492D01*
X148529Y-103435D01*
X148416Y-103379D01*
X148191Y-103379D01*
X148079Y-103435D01*
X148023Y-103492D01*
X147966Y-103604D01*
X147966Y-103885D01*
X148023Y-103998D01*
X148079Y-104054D01*
X148191Y-104110D01*
X148416Y-104110D01*
X148529Y-104054D01*
X148585Y-103998D01*
X148641Y-103885D01*
X149091Y-103379D02*
X149091Y-103604D01*
X149541Y-103379D02*
X149541Y-103604D01*
X151285Y-105010D02*
X151228Y-104954D01*
X151116Y-104785D01*
X151060Y-104673D01*
X151003Y-104504D01*
X150947Y-104223D01*
X150947Y-103998D01*
X151003Y-103717D01*
X151060Y-103548D01*
X151116Y-103435D01*
X151228Y-103267D01*
X151285Y-103210D01*
X152297Y-103379D02*
X151735Y-103379D01*
X151678Y-103942D01*
X151735Y-103885D01*
X151847Y-103829D01*
X152128Y-103829D01*
X152241Y-103885D01*
X152297Y-103942D01*
X152353Y-104054D01*
X152353Y-104335D01*
X152297Y-104448D01*
X152241Y-104504D01*
X152128Y-104560D01*
X151847Y-104560D01*
X151735Y-104504D01*
X151678Y-104448D01*
X153759Y-104560D02*
X153759Y-103379D01*
X154266Y-104560D02*
X154266Y-103942D01*
X154209Y-103829D01*
X154097Y-103773D01*
X153928Y-103773D01*
X153816Y-103829D01*
X153759Y-103885D01*
X154997Y-104560D02*
X154884Y-104504D01*
X154828Y-104448D01*
X154772Y-104335D01*
X154772Y-103998D01*
X154828Y-103885D01*
X154884Y-103829D01*
X154997Y-103773D01*
X155165Y-103773D01*
X155278Y-103829D01*
X155334Y-103885D01*
X155390Y-103998D01*
X155390Y-104335D01*
X155334Y-104448D01*
X155278Y-104504D01*
X155165Y-104560D01*
X154997Y-104560D01*
X156065Y-104560D02*
X155953Y-104504D01*
X155897Y-104392D01*
X155897Y-103379D01*
X156965Y-104504D02*
X156853Y-104560D01*
X156628Y-104560D01*
X156515Y-104504D01*
X156459Y-104392D01*
X156459Y-103942D01*
X156515Y-103829D01*
X156628Y-103773D01*
X156853Y-103773D01*
X156965Y-103829D01*
X157021Y-103942D01*
X157021Y-104054D01*
X156459Y-104167D01*
X157471Y-104504D02*
X157584Y-104560D01*
X157809Y-104560D01*
X157921Y-104504D01*
X157978Y-104392D01*
X157978Y-104335D01*
X157921Y-104223D01*
X157809Y-104167D01*
X157640Y-104167D01*
X157528Y-104110D01*
X157471Y-103998D01*
X157471Y-103942D01*
X157528Y-103829D01*
X157640Y-103773D01*
X157809Y-103773D01*
X157921Y-103829D01*
X158371Y-105010D02*
X158428Y-104954D01*
X158540Y-104785D01*
X158596Y-104673D01*
X158652Y-104504D01*
X158709Y-104223D01*
X158709Y-103998D01*
X158652Y-103717D01*
X158596Y-103548D01*
X158540Y-103435D01*
X158428Y-103267D01*
X158371Y-103210D01*
G54D12*
X132835Y-105783D02*
X132835Y-105500D01*
X132552Y-105500D01*
X132552Y-105783D01*
X132835Y-105783D01*
G54D13*
X134580Y-106119D02*
X133906Y-106119D01*
X134243Y-106119D02*
X134243Y-104938D01*
X134131Y-105107D01*
X134018Y-105219D01*
X133906Y-105276D01*
X135087Y-106007D02*
X135143Y-106063D01*
X135087Y-106119D01*
X135030Y-106063D01*
X135087Y-106007D01*
X135087Y-106119D01*
X135874Y-104938D02*
X135987Y-104938D01*
X136099Y-104994D01*
X136155Y-105051D01*
X136212Y-105163D01*
X136268Y-105388D01*
X136268Y-105669D01*
X136212Y-105894D01*
X136155Y-106007D01*
X136099Y-106063D01*
X135987Y-106119D01*
X135874Y-106119D01*
X135762Y-106063D01*
X135705Y-106007D01*
X135649Y-105894D01*
X135593Y-105669D01*
X135593Y-105388D01*
X135649Y-105163D01*
X135705Y-105051D01*
X135762Y-104994D01*
X135874Y-104938D01*
X136718Y-105051D02*
X136774Y-104994D01*
X136886Y-104938D01*
X137168Y-104938D01*
X137280Y-104994D01*
X137336Y-105051D01*
X137393Y-105163D01*
X137393Y-105276D01*
X137336Y-105444D01*
X136661Y-106119D01*
X137393Y-106119D01*
X137899Y-106119D02*
X137899Y-105332D01*
X137899Y-105444D02*
X137955Y-105388D01*
X138068Y-105332D01*
X138236Y-105332D01*
X138349Y-105388D01*
X138405Y-105501D01*
X138405Y-106119D01*
X138405Y-105501D02*
X138461Y-105388D01*
X138574Y-105332D01*
X138742Y-105332D01*
X138855Y-105388D01*
X138911Y-105501D01*
X138911Y-106119D01*
X139474Y-106119D02*
X139474Y-105332D01*
X139474Y-105444D02*
X139530Y-105388D01*
X139642Y-105332D01*
X139811Y-105332D01*
X139924Y-105388D01*
X139980Y-105501D01*
X139980Y-106119D01*
X139980Y-105501D02*
X140036Y-105388D01*
X140149Y-105332D01*
X140317Y-105332D01*
X140430Y-105388D01*
X140486Y-105501D01*
X140486Y-106119D01*
X142792Y-104882D02*
X141780Y-106401D01*
X144311Y-104938D02*
X144423Y-104938D01*
X144535Y-104994D01*
X144592Y-105051D01*
X144648Y-105163D01*
X144704Y-105388D01*
X144704Y-105669D01*
X144648Y-105894D01*
X144592Y-106007D01*
X144535Y-106063D01*
X144423Y-106119D01*
X144311Y-106119D01*
X144198Y-106063D01*
X144142Y-106007D01*
X144086Y-105894D01*
X144029Y-105669D01*
X144029Y-105388D01*
X144086Y-105163D01*
X144142Y-105051D01*
X144198Y-104994D01*
X144311Y-104938D01*
X145210Y-106007D02*
X145267Y-106063D01*
X145210Y-106119D01*
X145154Y-106063D01*
X145210Y-106007D01*
X145210Y-106119D01*
X145998Y-104938D02*
X146110Y-104938D01*
X146223Y-104994D01*
X146279Y-105051D01*
X146335Y-105163D01*
X146392Y-105388D01*
X146392Y-105669D01*
X146335Y-105894D01*
X146279Y-106007D01*
X146223Y-106063D01*
X146110Y-106119D01*
X145998Y-106119D01*
X145885Y-106063D01*
X145829Y-106007D01*
X145773Y-105894D01*
X145717Y-105669D01*
X145717Y-105388D01*
X145773Y-105163D01*
X145829Y-105051D01*
X145885Y-104994D01*
X145998Y-104938D01*
X147404Y-105332D02*
X147404Y-106119D01*
X147123Y-104882D02*
X146841Y-105726D01*
X147573Y-105726D01*
X148248Y-104938D02*
X148360Y-104938D01*
X148473Y-104994D01*
X148529Y-105051D01*
X148585Y-105163D01*
X148641Y-105388D01*
X148641Y-105669D01*
X148585Y-105894D01*
X148529Y-106007D01*
X148473Y-106063D01*
X148360Y-106119D01*
X148248Y-106119D01*
X148135Y-106063D01*
X148079Y-106007D01*
X148023Y-105894D01*
X147966Y-105669D01*
X147966Y-105388D01*
X148023Y-105163D01*
X148079Y-105051D01*
X148135Y-104994D01*
X148248Y-104938D01*
X149091Y-104938D02*
X149091Y-105163D01*
X149541Y-104938D02*
X149541Y-105163D01*
X151285Y-106569D02*
X151228Y-106513D01*
X151116Y-106344D01*
X151060Y-106232D01*
X151003Y-106063D01*
X150947Y-105782D01*
X150947Y-105557D01*
X151003Y-105276D01*
X151060Y-105107D01*
X151116Y-104994D01*
X151228Y-104826D01*
X151285Y-104769D01*
X152353Y-106119D02*
X151678Y-106119D01*
X152016Y-106119D02*
X152016Y-104938D01*
X151903Y-105107D01*
X151791Y-105219D01*
X151678Y-105276D01*
X153084Y-104938D02*
X153197Y-104938D01*
X153309Y-104994D01*
X153366Y-105051D01*
X153422Y-105163D01*
X153478Y-105388D01*
X153478Y-105669D01*
X153422Y-105894D01*
X153366Y-106007D01*
X153309Y-106063D01*
X153197Y-106119D01*
X153084Y-106119D01*
X152972Y-106063D01*
X152916Y-106007D01*
X152859Y-105894D01*
X152803Y-105669D01*
X152803Y-105388D01*
X152859Y-105163D01*
X152916Y-105051D01*
X152972Y-104994D01*
X153084Y-104938D01*
X154884Y-106119D02*
X154884Y-104938D01*
X155390Y-106119D02*
X155390Y-105501D01*
X155334Y-105388D01*
X155222Y-105332D01*
X155053Y-105332D01*
X154940Y-105388D01*
X154884Y-105444D01*
X156122Y-106119D02*
X156009Y-106063D01*
X155953Y-106007D01*
X155897Y-105894D01*
X155897Y-105557D01*
X155953Y-105444D01*
X156009Y-105388D01*
X156122Y-105332D01*
X156290Y-105332D01*
X156403Y-105388D01*
X156459Y-105444D01*
X156515Y-105557D01*
X156515Y-105894D01*
X156459Y-106007D01*
X156403Y-106063D01*
X156290Y-106119D01*
X156122Y-106119D01*
X157190Y-106119D02*
X157078Y-106063D01*
X157021Y-105951D01*
X157021Y-104938D01*
X158090Y-106063D02*
X157978Y-106119D01*
X157753Y-106119D01*
X157640Y-106063D01*
X157584Y-105951D01*
X157584Y-105501D01*
X157640Y-105388D01*
X157753Y-105332D01*
X157978Y-105332D01*
X158090Y-105388D01*
X158146Y-105501D01*
X158146Y-105613D01*
X157584Y-105726D01*
X158596Y-106063D02*
X158709Y-106119D01*
X158934Y-106119D01*
X159046Y-106063D01*
X159102Y-105951D01*
X159102Y-105894D01*
X159046Y-105782D01*
X158934Y-105726D01*
X158765Y-105726D01*
X158652Y-105669D01*
X158596Y-105557D01*
X158596Y-105501D01*
X158652Y-105388D01*
X158765Y-105332D01*
X158934Y-105332D01*
X159046Y-105388D01*
X159496Y-106569D02*
X159552Y-106513D01*
X159665Y-106344D01*
X159721Y-106232D01*
X159777Y-106063D01*
X159834Y-105782D01*
X159834Y-105557D01*
X159777Y-105276D01*
X159721Y-105107D01*
X159665Y-104994D01*
X159552Y-104826D01*
X159496Y-104769D01*
M02*
