G04 (created by PCBNEW (2013-may-18)-stable) date Tue Feb  3 23:34:43 2015*
%MOIN*%
G04 Gerber Fmt 3.4, Leading zero omitted, Abs format*
%FSLAX34Y34*%
G01*
G70*
G90*
G04 APERTURE LIST*
%ADD10C,0.00590551*%
%ADD11C,0.0787*%
%ADD12R,0.0177X0.0787*%
%ADD13R,0.0787X0.0177*%
%ADD14R,0.055X0.035*%
%ADD15R,0.035X0.055*%
%ADD16R,0.055X0.055*%
%ADD17C,0.055*%
%ADD18R,0.06X0.06*%
%ADD19C,0.06*%
%ADD20R,0.0472X0.0472*%
%ADD21R,0.0708661X0.259843*%
%ADD22R,0.0708661X0.11811*%
%ADD23R,0.11811X0.0708661*%
%ADD24R,0.251968X0.251968*%
%ADD25C,0.035*%
%ADD26C,0.0275591*%
%ADD27C,0.015748*%
%ADD28C,0.01*%
%ADD29C,0.023622*%
G04 APERTURE END LIST*
G54D10*
G54D11*
X151732Y-93622D03*
X150669Y-92559D03*
X150669Y-94685D03*
X152795Y-94685D03*
X152795Y-92559D03*
G54D12*
X137313Y-88903D03*
X136998Y-88903D03*
X136683Y-88903D03*
X136368Y-88903D03*
X136053Y-88903D03*
X135738Y-88903D03*
X135423Y-88903D03*
X135108Y-88903D03*
X135110Y-85137D03*
X137320Y-85137D03*
X137000Y-85137D03*
X136680Y-85137D03*
X136370Y-85137D03*
X136050Y-85137D03*
X135740Y-85137D03*
X135420Y-85137D03*
G54D13*
X134320Y-88119D03*
X134320Y-87805D03*
X134320Y-87489D03*
X134320Y-87175D03*
X134320Y-86859D03*
X134320Y-86545D03*
X134320Y-86229D03*
X134320Y-85915D03*
X138100Y-88117D03*
X138100Y-87807D03*
X138100Y-87487D03*
X138100Y-87177D03*
X138100Y-86867D03*
X138100Y-86547D03*
X138100Y-86227D03*
X138100Y-85907D03*
G54D14*
X139370Y-95650D03*
X139370Y-94900D03*
X138188Y-95650D03*
X138188Y-94900D03*
X137007Y-95650D03*
X137007Y-94900D03*
X147637Y-95099D03*
X147637Y-94349D03*
X149055Y-95099D03*
X149055Y-94349D03*
G54D15*
X135845Y-89960D03*
X136595Y-89960D03*
X144272Y-82677D03*
X143522Y-82677D03*
X136239Y-90944D03*
X136989Y-90944D03*
G54D14*
X138346Y-90963D03*
X138346Y-91713D03*
G54D16*
X141098Y-82677D03*
G54D17*
X140098Y-82677D03*
X139098Y-82677D03*
X138098Y-82677D03*
X137098Y-82677D03*
X136098Y-82677D03*
X135098Y-82677D03*
X134098Y-82677D03*
G54D16*
X143625Y-94488D03*
G54D17*
X142625Y-94488D03*
X141625Y-94488D03*
X140625Y-94488D03*
G54D16*
X143625Y-95669D03*
G54D17*
X142625Y-95669D03*
X141625Y-95669D03*
X140625Y-95669D03*
G54D16*
X153334Y-82598D03*
G54D17*
X152334Y-82598D03*
G54D16*
X141625Y-92913D03*
G54D17*
X142625Y-92913D03*
G54D16*
X147531Y-82677D03*
G54D17*
X148531Y-82677D03*
G54D16*
X145169Y-93700D03*
G54D17*
X146169Y-93700D03*
G54D16*
X146169Y-95669D03*
G54D17*
X145169Y-95669D03*
G54D18*
X134751Y-95897D03*
G54D19*
X133751Y-95897D03*
X134751Y-94897D03*
X133751Y-94897D03*
X134751Y-93897D03*
X133751Y-93897D03*
X134751Y-92897D03*
X133751Y-92897D03*
X134751Y-91897D03*
X133751Y-91897D03*
G54D20*
X137007Y-93287D03*
X137007Y-94113D03*
X139370Y-93287D03*
X139370Y-94113D03*
X138188Y-93287D03*
X138188Y-94113D03*
G54D21*
X139448Y-90078D03*
G54D22*
X140807Y-91062D03*
X142559Y-91062D03*
X144330Y-91062D03*
X146102Y-91062D03*
X147874Y-91062D03*
X149645Y-91062D03*
X151417Y-91062D03*
G54D23*
X153031Y-90393D03*
X153031Y-86771D03*
X153031Y-88582D03*
X153031Y-84960D03*
G54D22*
X151417Y-84291D03*
X149645Y-84291D03*
X147874Y-84291D03*
X146102Y-84291D03*
X144330Y-84291D03*
X142559Y-84291D03*
X140807Y-84291D03*
G54D21*
X139448Y-85275D03*
G54D24*
X150629Y-87716D03*
G54D14*
X154015Y-85451D03*
X154015Y-86201D03*
G54D25*
X145511Y-87952D03*
X148346Y-95669D03*
X136377Y-91653D03*
X138267Y-90000D03*
X138031Y-88818D03*
X142047Y-89842D03*
X137007Y-86535D03*
X135669Y-88031D03*
X140629Y-89055D03*
X136929Y-87244D03*
X140314Y-87244D03*
X147559Y-85590D03*
X148740Y-84330D03*
X142283Y-82519D03*
X141889Y-87322D03*
X141653Y-84488D03*
X143700Y-89291D03*
X146771Y-89448D03*
X140629Y-89921D03*
X133385Y-86929D03*
X135905Y-87086D03*
X154015Y-84015D03*
X152204Y-86062D03*
X154173Y-87716D03*
X150314Y-82677D03*
X145826Y-82755D03*
X148582Y-87795D03*
X148425Y-89055D03*
X153937Y-95748D03*
X151889Y-95905D03*
X146614Y-92440D03*
X143543Y-92362D03*
X133228Y-83385D03*
X134645Y-85039D03*
X144960Y-86299D03*
X143543Y-86299D03*
X153385Y-85905D03*
X148425Y-93562D03*
X137637Y-95669D03*
X137007Y-92047D03*
X149921Y-95748D03*
G54D26*
X147531Y-82677D02*
X147531Y-82862D01*
X146850Y-86614D02*
X145511Y-87952D01*
X146850Y-83543D02*
X146850Y-86614D01*
X147531Y-82862D02*
X146850Y-83543D01*
X147776Y-95099D02*
X147637Y-95099D01*
X148346Y-95669D02*
X147776Y-95099D01*
G54D27*
X139370Y-93287D02*
X139370Y-93307D01*
X140472Y-95196D02*
X143625Y-95196D01*
X140000Y-94724D02*
X140472Y-95196D01*
X140000Y-93937D02*
X140000Y-94724D01*
X139370Y-93307D02*
X140000Y-93937D01*
X136053Y-88903D02*
X135952Y-88903D01*
X135952Y-88903D02*
X135845Y-89010D01*
X135845Y-89960D02*
X135845Y-89010D01*
X135845Y-89010D02*
X135738Y-88903D01*
X136239Y-90944D02*
X136239Y-90806D01*
X135845Y-90412D02*
X135845Y-89960D01*
X136239Y-90806D02*
X135845Y-90412D01*
X136239Y-91514D02*
X136239Y-90944D01*
X136377Y-91653D02*
X136239Y-91514D01*
G54D26*
X143625Y-94488D02*
X143625Y-95196D01*
X143625Y-95196D02*
X143625Y-95669D01*
G54D28*
X138100Y-85907D02*
X138100Y-84419D01*
X142735Y-83464D02*
X143522Y-82677D01*
X139055Y-83464D02*
X142735Y-83464D01*
X138100Y-84419D02*
X139055Y-83464D01*
X137320Y-85137D02*
X137320Y-88107D01*
X138346Y-90078D02*
X138346Y-90963D01*
X138267Y-90000D02*
X138346Y-90078D01*
X137320Y-88107D02*
X138031Y-88818D01*
X138346Y-90963D02*
X138170Y-90963D01*
X140625Y-93854D02*
X140625Y-94488D01*
X139606Y-92834D02*
X140625Y-93854D01*
X138661Y-92834D02*
X139606Y-92834D01*
X137716Y-91889D02*
X138661Y-92834D01*
X137716Y-91417D02*
X137716Y-91889D01*
X138170Y-90963D02*
X137716Y-91417D01*
X137000Y-85137D02*
X137000Y-86528D01*
X142874Y-90669D02*
X142874Y-91082D01*
X142047Y-89842D02*
X142874Y-90669D01*
X137000Y-86528D02*
X137007Y-86535D01*
X135110Y-87472D02*
X135110Y-85137D01*
X135669Y-88031D02*
X135110Y-87472D01*
X135420Y-85137D02*
X135420Y-85735D01*
X143011Y-89448D02*
X144645Y-91082D01*
X141023Y-89448D02*
X143011Y-89448D01*
X140629Y-89055D02*
X141023Y-89448D01*
X135420Y-85735D02*
X136929Y-87244D01*
X149960Y-84311D02*
X149960Y-85000D01*
X136998Y-89360D02*
X136998Y-88903D01*
X137322Y-89606D02*
X136998Y-89360D01*
X138031Y-89606D02*
X137322Y-89606D01*
X139055Y-88582D02*
X138031Y-89606D01*
X146377Y-88582D02*
X139055Y-88582D01*
X149960Y-85000D02*
X146377Y-88582D01*
X148188Y-84311D02*
X148188Y-86209D01*
X137874Y-89370D02*
X137313Y-88903D01*
X137952Y-89370D02*
X137874Y-89370D01*
X138976Y-88346D02*
X137952Y-89370D01*
X146062Y-88346D02*
X138976Y-88346D01*
X146051Y-88357D02*
X146062Y-88346D01*
X146051Y-88346D02*
X146051Y-88357D01*
X148188Y-86209D02*
X146051Y-88346D01*
X136050Y-85137D02*
X136050Y-83725D01*
X136050Y-83725D02*
X137098Y-82677D01*
X135740Y-85137D02*
X135740Y-83035D01*
X135740Y-83035D02*
X136098Y-82677D01*
X135098Y-82677D02*
X135098Y-83169D01*
X133946Y-86229D02*
X134320Y-86229D01*
X133622Y-85905D02*
X133946Y-86229D01*
X133622Y-84645D02*
X133622Y-85905D01*
X135098Y-83169D02*
X133622Y-84645D01*
X134098Y-82677D02*
X134098Y-83696D01*
X133868Y-86545D02*
X134320Y-86545D01*
X133385Y-86062D02*
X133868Y-86545D01*
X133385Y-84409D02*
X133385Y-86062D01*
X134098Y-83696D02*
X133385Y-84409D01*
X138100Y-87807D02*
X139751Y-87807D01*
X139751Y-87807D02*
X140314Y-87244D01*
X138100Y-86227D02*
X137723Y-86227D01*
X139625Y-83149D02*
X140098Y-82677D01*
X138976Y-83149D02*
X139625Y-83149D01*
X137559Y-84566D02*
X138976Y-83149D01*
X137559Y-86062D02*
X137559Y-84566D01*
X137723Y-86227D02*
X137559Y-86062D01*
X136680Y-85137D02*
X136680Y-84658D01*
X138547Y-83228D02*
X139098Y-82677D01*
X138110Y-83228D02*
X138547Y-83228D01*
X136680Y-84658D02*
X138110Y-83228D01*
X136370Y-85137D02*
X136370Y-84405D01*
X136370Y-84405D02*
X138098Y-82677D01*
X138100Y-88117D02*
X140307Y-88117D01*
X141122Y-87303D02*
X141122Y-84311D01*
X140307Y-88117D02*
X141122Y-87303D01*
X133751Y-94897D02*
X133751Y-94830D01*
X133769Y-87489D02*
X134320Y-87489D01*
X133307Y-87952D02*
X133769Y-87489D01*
X133307Y-94385D02*
X133307Y-87952D01*
X133751Y-94830D02*
X133307Y-94385D01*
X134320Y-88119D02*
X134320Y-95329D01*
X134320Y-95329D02*
X133751Y-95897D01*
X133751Y-91897D02*
X133751Y-87901D01*
X133847Y-87805D02*
X134320Y-87805D01*
X133751Y-87901D02*
X133847Y-87805D01*
G54D26*
X152795Y-92559D02*
X152795Y-91850D01*
X152125Y-89921D02*
X151968Y-89763D01*
X152125Y-91181D02*
X152125Y-89921D01*
X152795Y-91850D02*
X152125Y-91181D01*
X148425Y-93562D02*
X148425Y-92125D01*
X149212Y-89842D02*
X150669Y-89842D01*
X148740Y-90314D02*
X149212Y-89842D01*
X148740Y-91811D02*
X148740Y-90314D01*
X148425Y-92125D02*
X148740Y-91811D01*
X153031Y-88582D02*
X153031Y-88700D01*
X152440Y-89291D02*
X151968Y-89763D01*
X153031Y-88700D02*
X152440Y-89291D01*
X153031Y-86771D02*
X153031Y-88582D01*
X153700Y-86201D02*
X153601Y-86201D01*
X153601Y-86201D02*
X153031Y-86771D01*
X153682Y-86201D02*
X153700Y-86201D01*
X153700Y-86201D02*
X154015Y-86201D01*
X153385Y-85905D02*
X153682Y-86201D01*
X148425Y-93562D02*
X148425Y-94349D01*
X148425Y-94349D02*
X148425Y-94409D01*
X148425Y-94409D02*
X148425Y-94349D01*
X136989Y-90944D02*
X136989Y-92028D01*
X136989Y-92028D02*
X137007Y-92047D01*
X137637Y-95669D02*
X137637Y-95650D01*
X137637Y-95650D02*
X137637Y-95669D01*
X137637Y-95669D02*
X137637Y-95650D01*
X134751Y-93897D02*
X134751Y-94897D01*
X147637Y-94349D02*
X147489Y-94349D01*
X147489Y-94349D02*
X146169Y-95669D01*
X149055Y-94349D02*
X150333Y-94349D01*
X150333Y-94349D02*
X150669Y-94685D01*
X149055Y-94349D02*
X148425Y-94349D01*
X148425Y-94349D02*
X147637Y-94349D01*
G54D27*
X139370Y-95650D02*
X139666Y-95650D01*
G54D26*
X141759Y-96535D02*
X142625Y-95669D01*
X140551Y-96535D02*
X141759Y-96535D01*
X139666Y-95650D02*
X140551Y-96535D01*
X138188Y-95650D02*
X139370Y-95650D01*
X137007Y-95650D02*
X137637Y-95650D01*
X137637Y-95650D02*
X138188Y-95650D01*
X134751Y-94897D02*
X135370Y-94897D01*
X136123Y-95650D02*
X137007Y-95650D01*
X135370Y-94897D02*
X136123Y-95650D01*
G54D27*
X136595Y-89960D02*
X136595Y-90551D01*
X136595Y-90551D02*
X136989Y-90944D01*
X136683Y-88903D02*
X136368Y-88903D01*
X136595Y-89960D02*
X136595Y-88991D01*
X136595Y-88991D02*
X136683Y-88903D01*
G54D26*
X150669Y-92559D02*
X150669Y-89842D01*
X150669Y-89842D02*
X150669Y-89763D01*
X150669Y-89763D02*
X150708Y-89803D01*
X150708Y-89803D02*
X150708Y-89842D01*
X150708Y-89842D02*
X150708Y-89763D01*
X151968Y-89763D02*
X150708Y-89763D01*
X150669Y-92559D02*
X150669Y-94685D01*
X150669Y-94685D02*
X152795Y-94685D01*
X152795Y-94685D02*
X152795Y-92559D01*
X142625Y-95669D02*
X142625Y-95972D01*
X145381Y-96456D02*
X146169Y-95669D01*
X143110Y-96456D02*
X145381Y-96456D01*
X142625Y-95972D02*
X143110Y-96456D01*
X145169Y-93700D02*
X145169Y-95669D01*
G54D28*
X152334Y-82598D02*
X152334Y-83708D01*
X152334Y-83708D02*
X151732Y-84311D01*
G54D26*
X149055Y-95099D02*
X149587Y-95099D01*
X149921Y-95433D02*
X149921Y-95748D01*
X149587Y-95099D02*
X149921Y-95433D01*
G54D28*
X139370Y-94113D02*
X139370Y-94900D01*
X138188Y-94113D02*
X138188Y-94900D01*
G54D29*
X151417Y-91062D02*
X151417Y-92047D01*
X151732Y-92362D02*
X151732Y-93622D01*
X151417Y-92047D02*
X151732Y-92362D01*
G54D26*
X154015Y-85451D02*
X153522Y-85451D01*
X153522Y-85451D02*
X153031Y-84960D01*
X153346Y-84980D02*
X152736Y-84980D01*
X149318Y-83464D02*
X148531Y-82677D01*
X150393Y-83464D02*
X150078Y-83464D01*
X150078Y-83464D02*
X149318Y-83464D01*
X150629Y-83700D02*
X150393Y-83464D01*
X150629Y-84803D02*
X150629Y-83700D01*
X151259Y-85433D02*
X150629Y-84803D01*
X152283Y-85433D02*
X151259Y-85433D01*
X152736Y-84980D02*
X152283Y-85433D01*
G54D28*
X144645Y-84311D02*
X144645Y-83050D01*
X144645Y-83050D02*
X144272Y-82677D01*
X135108Y-88903D02*
X135108Y-90935D01*
X137657Y-92755D02*
X138188Y-93287D01*
X136929Y-92755D02*
X137657Y-92755D01*
X135108Y-90935D02*
X136929Y-92755D01*
X137007Y-94113D02*
X137007Y-94900D01*
X134320Y-85915D02*
X134892Y-85915D01*
X135354Y-91634D02*
X137007Y-93287D01*
X135354Y-91496D02*
X135354Y-91634D01*
X134881Y-91023D02*
X135354Y-91496D01*
X134881Y-85926D02*
X134881Y-91023D01*
X134892Y-85915D02*
X134881Y-85926D01*
X141122Y-91082D02*
X141122Y-91409D01*
X141122Y-91409D02*
X142625Y-92913D01*
X141625Y-92913D02*
X140000Y-92913D01*
X138800Y-91713D02*
X138346Y-91713D01*
X140000Y-92913D02*
X138800Y-91713D01*
G54D10*
G36*
X137365Y-88391D02*
X137201Y-88391D01*
X137157Y-88409D01*
X137155Y-88411D01*
X137154Y-88409D01*
X137110Y-88391D01*
X137063Y-88391D01*
X136993Y-88391D01*
X136984Y-88368D01*
X136913Y-88298D01*
X136821Y-88260D01*
X136790Y-88260D01*
X136727Y-88322D01*
X136727Y-88853D01*
X136741Y-88853D01*
X136741Y-88953D01*
X136727Y-88953D01*
X136727Y-88961D01*
X136707Y-88961D01*
X136707Y-88460D01*
X136669Y-88368D01*
X136639Y-88339D01*
X136639Y-88322D01*
X136576Y-88260D01*
X136545Y-88260D01*
X136525Y-88268D01*
X136506Y-88260D01*
X136475Y-88260D01*
X136412Y-88322D01*
X136412Y-88339D01*
X136382Y-88368D01*
X136344Y-88460D01*
X136344Y-88791D01*
X136407Y-88853D01*
X136412Y-88853D01*
X136639Y-88853D01*
X136644Y-88853D01*
X136706Y-88791D01*
X136707Y-88460D01*
X136707Y-88961D01*
X136652Y-88961D01*
X136644Y-88953D01*
X136639Y-88953D01*
X136412Y-88953D01*
X136407Y-88953D01*
X136399Y-88961D01*
X136324Y-88961D01*
X136324Y-88953D01*
X136310Y-88953D01*
X136310Y-88853D01*
X136324Y-88853D01*
X136324Y-88322D01*
X136261Y-88260D01*
X136230Y-88260D01*
X136138Y-88298D01*
X136067Y-88368D01*
X136058Y-88391D01*
X135941Y-88391D01*
X135897Y-88409D01*
X135895Y-88411D01*
X135894Y-88409D01*
X135850Y-88391D01*
X135803Y-88391D01*
X135626Y-88391D01*
X135582Y-88409D01*
X135580Y-88411D01*
X135579Y-88409D01*
X135535Y-88391D01*
X135488Y-88391D01*
X135311Y-88391D01*
X135267Y-88409D01*
X135265Y-88411D01*
X135264Y-88409D01*
X135220Y-88391D01*
X135173Y-88391D01*
X135050Y-88391D01*
X135050Y-87651D01*
X135375Y-87976D01*
X135375Y-88089D01*
X135419Y-88197D01*
X135502Y-88280D01*
X135610Y-88325D01*
X135727Y-88325D01*
X135835Y-88280D01*
X135918Y-88198D01*
X135963Y-88090D01*
X135963Y-87973D01*
X135918Y-87865D01*
X135835Y-87782D01*
X135728Y-87737D01*
X135614Y-87737D01*
X135279Y-87402D01*
X135279Y-85822D01*
X135301Y-85854D01*
X136635Y-87189D01*
X136635Y-87302D01*
X136679Y-87410D01*
X136762Y-87493D01*
X136870Y-87537D01*
X136987Y-87538D01*
X137095Y-87493D01*
X137151Y-87437D01*
X137151Y-88107D01*
X137164Y-88172D01*
X137201Y-88227D01*
X137365Y-88391D01*
X137365Y-88391D01*
G37*
G54D28*
X137365Y-88391D02*
X137201Y-88391D01*
X137157Y-88409D01*
X137155Y-88411D01*
X137154Y-88409D01*
X137110Y-88391D01*
X137063Y-88391D01*
X136993Y-88391D01*
X136984Y-88368D01*
X136913Y-88298D01*
X136821Y-88260D01*
X136790Y-88260D01*
X136727Y-88322D01*
X136727Y-88853D01*
X136741Y-88853D01*
X136741Y-88953D01*
X136727Y-88953D01*
X136727Y-88961D01*
X136707Y-88961D01*
X136707Y-88460D01*
X136669Y-88368D01*
X136639Y-88339D01*
X136639Y-88322D01*
X136576Y-88260D01*
X136545Y-88260D01*
X136525Y-88268D01*
X136506Y-88260D01*
X136475Y-88260D01*
X136412Y-88322D01*
X136412Y-88339D01*
X136382Y-88368D01*
X136344Y-88460D01*
X136344Y-88791D01*
X136407Y-88853D01*
X136412Y-88853D01*
X136639Y-88853D01*
X136644Y-88853D01*
X136706Y-88791D01*
X136707Y-88460D01*
X136707Y-88961D01*
X136652Y-88961D01*
X136644Y-88953D01*
X136639Y-88953D01*
X136412Y-88953D01*
X136407Y-88953D01*
X136399Y-88961D01*
X136324Y-88961D01*
X136324Y-88953D01*
X136310Y-88953D01*
X136310Y-88853D01*
X136324Y-88853D01*
X136324Y-88322D01*
X136261Y-88260D01*
X136230Y-88260D01*
X136138Y-88298D01*
X136067Y-88368D01*
X136058Y-88391D01*
X135941Y-88391D01*
X135897Y-88409D01*
X135895Y-88411D01*
X135894Y-88409D01*
X135850Y-88391D01*
X135803Y-88391D01*
X135626Y-88391D01*
X135582Y-88409D01*
X135580Y-88411D01*
X135579Y-88409D01*
X135535Y-88391D01*
X135488Y-88391D01*
X135311Y-88391D01*
X135267Y-88409D01*
X135265Y-88411D01*
X135264Y-88409D01*
X135220Y-88391D01*
X135173Y-88391D01*
X135050Y-88391D01*
X135050Y-87651D01*
X135375Y-87976D01*
X135375Y-88089D01*
X135419Y-88197D01*
X135502Y-88280D01*
X135610Y-88325D01*
X135727Y-88325D01*
X135835Y-88280D01*
X135918Y-88198D01*
X135963Y-88090D01*
X135963Y-87973D01*
X135918Y-87865D01*
X135835Y-87782D01*
X135728Y-87737D01*
X135614Y-87737D01*
X135279Y-87402D01*
X135279Y-85822D01*
X135301Y-85854D01*
X136635Y-87189D01*
X136635Y-87302D01*
X136679Y-87410D01*
X136762Y-87493D01*
X136870Y-87537D01*
X136987Y-87538D01*
X137095Y-87493D01*
X137151Y-87437D01*
X137151Y-88107D01*
X137164Y-88172D01*
X137201Y-88227D01*
X137365Y-88391D01*
G54D10*
G36*
X154438Y-96957D02*
X153965Y-96957D01*
X153965Y-86564D01*
X153965Y-86251D01*
X153965Y-86151D01*
X153965Y-85839D01*
X153903Y-85776D01*
X153790Y-85776D01*
X153690Y-85776D01*
X153598Y-85814D01*
X153528Y-85885D01*
X153490Y-85977D01*
X153490Y-86089D01*
X153553Y-86151D01*
X153965Y-86151D01*
X153965Y-86251D01*
X153553Y-86251D01*
X153490Y-86314D01*
X153490Y-86426D01*
X153528Y-86518D01*
X153598Y-86588D01*
X153690Y-86626D01*
X153790Y-86626D01*
X153903Y-86626D01*
X153965Y-86564D01*
X153965Y-96957D01*
X153740Y-96957D01*
X153740Y-90724D01*
X153740Y-90015D01*
X153722Y-89972D01*
X153689Y-89938D01*
X153645Y-89920D01*
X153598Y-89920D01*
X152417Y-89920D01*
X152373Y-89938D01*
X152340Y-89971D01*
X152322Y-90015D01*
X152322Y-90062D01*
X152322Y-90771D01*
X152340Y-90815D01*
X152373Y-90848D01*
X152417Y-90866D01*
X152464Y-90866D01*
X153645Y-90866D01*
X153689Y-90848D01*
X153722Y-90815D01*
X153740Y-90771D01*
X153740Y-90724D01*
X153740Y-96957D01*
X152254Y-96957D01*
X152254Y-93518D01*
X152175Y-93326D01*
X152028Y-93179D01*
X152008Y-93171D01*
X152008Y-88952D01*
X152008Y-86433D01*
X151990Y-86389D01*
X151957Y-86355D01*
X151913Y-86337D01*
X151866Y-86337D01*
X149346Y-86337D01*
X149302Y-86355D01*
X149269Y-86389D01*
X149251Y-86432D01*
X149251Y-86480D01*
X149251Y-88999D01*
X149269Y-89043D01*
X149302Y-89077D01*
X149346Y-89095D01*
X149393Y-89095D01*
X151913Y-89095D01*
X151957Y-89077D01*
X151990Y-89043D01*
X152008Y-89000D01*
X152008Y-88952D01*
X152008Y-93171D01*
X151979Y-93159D01*
X151979Y-92362D01*
X151979Y-92362D01*
X151960Y-92267D01*
X151960Y-92267D01*
X151906Y-92187D01*
X151906Y-92187D01*
X151664Y-91944D01*
X151664Y-91782D01*
X151797Y-91782D01*
X151844Y-91762D01*
X151880Y-91726D01*
X151900Y-91679D01*
X151900Y-91628D01*
X151900Y-90446D01*
X151880Y-90399D01*
X151844Y-90363D01*
X151797Y-90343D01*
X151746Y-90343D01*
X151037Y-90343D01*
X150990Y-90363D01*
X150953Y-90399D01*
X150934Y-90446D01*
X150934Y-90497D01*
X150934Y-91679D01*
X150953Y-91726D01*
X150989Y-91762D01*
X151037Y-91782D01*
X151088Y-91782D01*
X151170Y-91782D01*
X151170Y-92047D01*
X151189Y-92141D01*
X151242Y-92221D01*
X151485Y-92464D01*
X151485Y-93158D01*
X151436Y-93179D01*
X151289Y-93325D01*
X151210Y-93517D01*
X151209Y-93725D01*
X151289Y-93917D01*
X151436Y-94064D01*
X151627Y-94144D01*
X151835Y-94144D01*
X152027Y-94065D01*
X152174Y-93918D01*
X152254Y-93726D01*
X152254Y-93518D01*
X152254Y-96957D01*
X150215Y-96957D01*
X150215Y-95689D01*
X150177Y-95599D01*
X150177Y-95433D01*
X150177Y-95433D01*
X150177Y-95433D01*
X150158Y-95334D01*
X150118Y-95275D01*
X150118Y-91629D01*
X150118Y-90448D01*
X150100Y-90405D01*
X150067Y-90371D01*
X150023Y-90353D01*
X149976Y-90353D01*
X149267Y-90353D01*
X149224Y-90371D01*
X149190Y-90405D01*
X149172Y-90448D01*
X149172Y-90495D01*
X149172Y-91677D01*
X149190Y-91720D01*
X149223Y-91754D01*
X149267Y-91772D01*
X149314Y-91772D01*
X150023Y-91772D01*
X150067Y-91754D01*
X150100Y-91720D01*
X150118Y-91677D01*
X150118Y-91629D01*
X150118Y-95275D01*
X150102Y-95251D01*
X150102Y-95251D01*
X149769Y-94917D01*
X149685Y-94862D01*
X149669Y-94859D01*
X149587Y-94842D01*
X149587Y-94842D01*
X149580Y-94842D01*
X149580Y-94573D01*
X149580Y-94124D01*
X149542Y-94032D01*
X149471Y-93962D01*
X149380Y-93924D01*
X149280Y-93924D01*
X149167Y-93924D01*
X149105Y-93986D01*
X149105Y-94299D01*
X149517Y-94299D01*
X149580Y-94236D01*
X149580Y-94124D01*
X149580Y-94573D01*
X149580Y-94461D01*
X149517Y-94399D01*
X149105Y-94399D01*
X149105Y-94711D01*
X149167Y-94774D01*
X149280Y-94774D01*
X149380Y-94774D01*
X149471Y-94736D01*
X149542Y-94665D01*
X149580Y-94573D01*
X149580Y-94842D01*
X149416Y-94842D01*
X149397Y-94823D01*
X149353Y-94805D01*
X149306Y-94805D01*
X149005Y-94805D01*
X149005Y-94711D01*
X149005Y-94399D01*
X149005Y-94299D01*
X149005Y-93986D01*
X148942Y-93924D01*
X148829Y-93924D01*
X148730Y-93924D01*
X148638Y-93962D01*
X148568Y-94032D01*
X148530Y-94124D01*
X148530Y-94236D01*
X148592Y-94299D01*
X149005Y-94299D01*
X149005Y-94399D01*
X148592Y-94399D01*
X148530Y-94461D01*
X148530Y-94573D01*
X148568Y-94665D01*
X148638Y-94736D01*
X148730Y-94774D01*
X148829Y-94774D01*
X148942Y-94774D01*
X149005Y-94711D01*
X149005Y-94805D01*
X148756Y-94805D01*
X148712Y-94823D01*
X148679Y-94856D01*
X148661Y-94900D01*
X148661Y-94947D01*
X148661Y-95297D01*
X148679Y-95341D01*
X148712Y-95375D01*
X148756Y-95393D01*
X148803Y-95393D01*
X149353Y-95393D01*
X149397Y-95375D01*
X149416Y-95356D01*
X149481Y-95356D01*
X149664Y-95539D01*
X149664Y-95599D01*
X149627Y-95689D01*
X149627Y-95806D01*
X149671Y-95914D01*
X149754Y-95997D01*
X149862Y-96041D01*
X149979Y-96041D01*
X150087Y-95997D01*
X150170Y-95914D01*
X150215Y-95806D01*
X150215Y-95689D01*
X150215Y-96957D01*
X148640Y-96957D01*
X148640Y-95611D01*
X148595Y-95503D01*
X148513Y-95420D01*
X148423Y-95382D01*
X148347Y-95307D01*
X148347Y-91629D01*
X148347Y-90448D01*
X148329Y-90405D01*
X148295Y-90371D01*
X148252Y-90353D01*
X148204Y-90353D01*
X147496Y-90353D01*
X147452Y-90371D01*
X147418Y-90405D01*
X147400Y-90448D01*
X147400Y-90495D01*
X147400Y-91677D01*
X147418Y-91720D01*
X147452Y-91754D01*
X147495Y-91772D01*
X147543Y-91772D01*
X148251Y-91772D01*
X148295Y-91754D01*
X148329Y-91720D01*
X148347Y-91677D01*
X148347Y-91629D01*
X148347Y-95307D01*
X148162Y-95122D01*
X148162Y-94573D01*
X148162Y-94124D01*
X148124Y-94032D01*
X148054Y-93962D01*
X147962Y-93924D01*
X147863Y-93924D01*
X147750Y-93924D01*
X147687Y-93986D01*
X147687Y-94299D01*
X148100Y-94299D01*
X148162Y-94236D01*
X148162Y-94124D01*
X148162Y-94573D01*
X148162Y-94461D01*
X148100Y-94399D01*
X147687Y-94399D01*
X147687Y-94711D01*
X147750Y-94774D01*
X147863Y-94774D01*
X147962Y-94774D01*
X148054Y-94736D01*
X148124Y-94665D01*
X148162Y-94573D01*
X148162Y-95122D01*
X148031Y-94991D01*
X148031Y-94900D01*
X148013Y-94857D01*
X147980Y-94823D01*
X147936Y-94805D01*
X147889Y-94805D01*
X147587Y-94805D01*
X147587Y-94711D01*
X147587Y-94399D01*
X147587Y-94299D01*
X147587Y-93986D01*
X147525Y-93924D01*
X147412Y-93924D01*
X147312Y-93924D01*
X147220Y-93962D01*
X147150Y-94032D01*
X147112Y-94124D01*
X147112Y-94236D01*
X147175Y-94299D01*
X147587Y-94299D01*
X147587Y-94399D01*
X147175Y-94399D01*
X147112Y-94461D01*
X147112Y-94573D01*
X147150Y-94665D01*
X147220Y-94736D01*
X147312Y-94774D01*
X147412Y-94774D01*
X147525Y-94774D01*
X147587Y-94711D01*
X147587Y-94805D01*
X147339Y-94805D01*
X147295Y-94823D01*
X147262Y-94856D01*
X147243Y-94900D01*
X147243Y-94947D01*
X147243Y-95297D01*
X147261Y-95341D01*
X147295Y-95375D01*
X147339Y-95393D01*
X147386Y-95393D01*
X147707Y-95393D01*
X148060Y-95746D01*
X148097Y-95835D01*
X148179Y-95918D01*
X148287Y-95963D01*
X148404Y-95963D01*
X148512Y-95918D01*
X148595Y-95835D01*
X148640Y-95728D01*
X148640Y-95611D01*
X148640Y-96957D01*
X146694Y-96957D01*
X146694Y-95894D01*
X146694Y-95443D01*
X146694Y-95344D01*
X146656Y-95252D01*
X146585Y-95182D01*
X146575Y-95178D01*
X146575Y-91629D01*
X146575Y-90448D01*
X146557Y-90405D01*
X146524Y-90371D01*
X146480Y-90353D01*
X146433Y-90353D01*
X145724Y-90353D01*
X145680Y-90371D01*
X145647Y-90405D01*
X145629Y-90448D01*
X145629Y-90495D01*
X145629Y-91677D01*
X145647Y-91720D01*
X145680Y-91754D01*
X145724Y-91772D01*
X145771Y-91772D01*
X146480Y-91772D01*
X146523Y-91754D01*
X146557Y-91720D01*
X146575Y-91677D01*
X146575Y-91629D01*
X146575Y-95178D01*
X146563Y-95172D01*
X146563Y-93622D01*
X146503Y-93477D01*
X146392Y-93367D01*
X146247Y-93306D01*
X146091Y-93306D01*
X145946Y-93366D01*
X145835Y-93477D01*
X145775Y-93622D01*
X145775Y-93778D01*
X145835Y-93923D01*
X145945Y-94034D01*
X146090Y-94094D01*
X146247Y-94094D01*
X146392Y-94034D01*
X146503Y-93924D01*
X146563Y-93779D01*
X146563Y-93622D01*
X146563Y-95172D01*
X146493Y-95144D01*
X146281Y-95144D01*
X146219Y-95206D01*
X146219Y-95619D01*
X146631Y-95619D01*
X146694Y-95556D01*
X146694Y-95443D01*
X146694Y-95894D01*
X146694Y-95781D01*
X146631Y-95719D01*
X146219Y-95719D01*
X146219Y-96131D01*
X146281Y-96194D01*
X146493Y-96194D01*
X146585Y-96156D01*
X146656Y-96086D01*
X146694Y-95994D01*
X146694Y-95894D01*
X146694Y-96957D01*
X146119Y-96957D01*
X146119Y-96131D01*
X146119Y-95719D01*
X146119Y-95619D01*
X146119Y-95206D01*
X146056Y-95144D01*
X145844Y-95144D01*
X145752Y-95182D01*
X145682Y-95252D01*
X145644Y-95344D01*
X145644Y-95443D01*
X145644Y-95556D01*
X145706Y-95619D01*
X146119Y-95619D01*
X146119Y-95719D01*
X145706Y-95719D01*
X145644Y-95781D01*
X145644Y-95894D01*
X145644Y-95994D01*
X145682Y-96086D01*
X145752Y-96156D01*
X145844Y-96194D01*
X146056Y-96194D01*
X146119Y-96131D01*
X146119Y-96957D01*
X145563Y-96957D01*
X145563Y-95591D01*
X145503Y-95446D01*
X145425Y-95368D01*
X145425Y-94094D01*
X145467Y-94094D01*
X145511Y-94076D01*
X145545Y-94043D01*
X145563Y-93999D01*
X145563Y-93952D01*
X145563Y-93402D01*
X145545Y-93358D01*
X145511Y-93325D01*
X145468Y-93306D01*
X145420Y-93306D01*
X144870Y-93306D01*
X144827Y-93324D01*
X144814Y-93337D01*
X144814Y-91082D01*
X144803Y-91029D01*
X144803Y-90448D01*
X144785Y-90405D01*
X144752Y-90371D01*
X144708Y-90353D01*
X144661Y-90353D01*
X144155Y-90353D01*
X143131Y-89329D01*
X143076Y-89292D01*
X143011Y-89279D01*
X141093Y-89279D01*
X140923Y-89110D01*
X140923Y-88996D01*
X140879Y-88888D01*
X140796Y-88806D01*
X140688Y-88761D01*
X140571Y-88761D01*
X140463Y-88805D01*
X140380Y-88888D01*
X140336Y-88996D01*
X140335Y-89113D01*
X140380Y-89221D01*
X140463Y-89304D01*
X140571Y-89348D01*
X140685Y-89349D01*
X140904Y-89568D01*
X140904Y-89568D01*
X140937Y-89590D01*
X140958Y-89604D01*
X140958Y-89604D01*
X141023Y-89617D01*
X141856Y-89617D01*
X141798Y-89675D01*
X141753Y-89783D01*
X141753Y-89900D01*
X141797Y-90008D01*
X141880Y-90091D01*
X141988Y-90136D01*
X142102Y-90136D01*
X142319Y-90353D01*
X142181Y-90353D01*
X142137Y-90371D01*
X142103Y-90405D01*
X142085Y-90448D01*
X142085Y-90495D01*
X142085Y-91677D01*
X142103Y-91720D01*
X142137Y-91754D01*
X142180Y-91772D01*
X142228Y-91772D01*
X142936Y-91772D01*
X142980Y-91754D01*
X143014Y-91720D01*
X143032Y-91677D01*
X143032Y-91629D01*
X143032Y-91136D01*
X143042Y-91082D01*
X143042Y-90669D01*
X143032Y-90615D01*
X143032Y-90448D01*
X143014Y-90405D01*
X142980Y-90371D01*
X142937Y-90353D01*
X142889Y-90353D01*
X142797Y-90353D01*
X142341Y-89897D01*
X142341Y-89784D01*
X142296Y-89676D01*
X142238Y-89617D01*
X142941Y-89617D01*
X143857Y-90533D01*
X143857Y-91677D01*
X143875Y-91720D01*
X143908Y-91754D01*
X143952Y-91772D01*
X143999Y-91772D01*
X144708Y-91772D01*
X144752Y-91754D01*
X144785Y-91720D01*
X144803Y-91677D01*
X144803Y-91629D01*
X144803Y-91136D01*
X144814Y-91082D01*
X144814Y-93337D01*
X144793Y-93358D01*
X144775Y-93402D01*
X144775Y-93449D01*
X144775Y-93999D01*
X144793Y-94043D01*
X144826Y-94076D01*
X144870Y-94094D01*
X144912Y-94094D01*
X144912Y-95368D01*
X144835Y-95445D01*
X144775Y-95590D01*
X144775Y-95747D01*
X144835Y-95892D01*
X144945Y-96003D01*
X145090Y-96063D01*
X145247Y-96063D01*
X145392Y-96003D01*
X145503Y-95892D01*
X145563Y-95747D01*
X145563Y-95591D01*
X145563Y-96957D01*
X142923Y-96957D01*
X142923Y-96037D01*
X142625Y-95740D01*
X142328Y-96037D01*
X142353Y-96129D01*
X142550Y-96199D01*
X142758Y-96187D01*
X142898Y-96129D01*
X142923Y-96037D01*
X142923Y-96957D01*
X139895Y-96957D01*
X139895Y-95875D01*
X139895Y-95426D01*
X139857Y-95334D01*
X139786Y-95263D01*
X139695Y-95225D01*
X139595Y-95225D01*
X139482Y-95225D01*
X139420Y-95288D01*
X139420Y-95600D01*
X139832Y-95600D01*
X139895Y-95538D01*
X139895Y-95426D01*
X139895Y-95875D01*
X139895Y-95763D01*
X139832Y-95700D01*
X139420Y-95700D01*
X139420Y-96013D01*
X139482Y-96075D01*
X139595Y-96075D01*
X139695Y-96075D01*
X139786Y-96037D01*
X139857Y-95967D01*
X139895Y-95875D01*
X139895Y-96957D01*
X139320Y-96957D01*
X139320Y-96013D01*
X139320Y-95700D01*
X139320Y-95600D01*
X139320Y-95288D01*
X139257Y-95225D01*
X139144Y-95225D01*
X139045Y-95225D01*
X138953Y-95263D01*
X138883Y-95334D01*
X138845Y-95426D01*
X138845Y-95538D01*
X138907Y-95600D01*
X139320Y-95600D01*
X139320Y-95700D01*
X138907Y-95700D01*
X138845Y-95763D01*
X138845Y-95875D01*
X138883Y-95967D01*
X138953Y-96037D01*
X139045Y-96075D01*
X139144Y-96075D01*
X139257Y-96075D01*
X139320Y-96013D01*
X139320Y-96957D01*
X138714Y-96957D01*
X138714Y-95875D01*
X138714Y-95426D01*
X138676Y-95334D01*
X138605Y-95263D01*
X138582Y-95254D01*
X138582Y-95052D01*
X138582Y-94702D01*
X138564Y-94658D01*
X138531Y-94624D01*
X138487Y-94606D01*
X138440Y-94606D01*
X138357Y-94606D01*
X138357Y-94468D01*
X138448Y-94468D01*
X138492Y-94450D01*
X138525Y-94417D01*
X138543Y-94373D01*
X138543Y-94326D01*
X138543Y-93854D01*
X138525Y-93810D01*
X138492Y-93777D01*
X138448Y-93758D01*
X138401Y-93758D01*
X137929Y-93758D01*
X137885Y-93776D01*
X137852Y-93810D01*
X137834Y-93854D01*
X137834Y-93901D01*
X137834Y-94373D01*
X137852Y-94417D01*
X137885Y-94450D01*
X137929Y-94468D01*
X137976Y-94468D01*
X138020Y-94468D01*
X138020Y-94606D01*
X137890Y-94606D01*
X137846Y-94624D01*
X137813Y-94658D01*
X137795Y-94701D01*
X137795Y-94749D01*
X137795Y-95099D01*
X137813Y-95142D01*
X137846Y-95176D01*
X137890Y-95194D01*
X137937Y-95194D01*
X138487Y-95194D01*
X138531Y-95176D01*
X138564Y-95143D01*
X138582Y-95099D01*
X138582Y-95052D01*
X138582Y-95254D01*
X138513Y-95225D01*
X138414Y-95225D01*
X138301Y-95225D01*
X138238Y-95288D01*
X138238Y-95600D01*
X138651Y-95600D01*
X138713Y-95538D01*
X138714Y-95426D01*
X138714Y-95875D01*
X138713Y-95763D01*
X138651Y-95700D01*
X138238Y-95700D01*
X138238Y-96013D01*
X138301Y-96075D01*
X138414Y-96075D01*
X138513Y-96075D01*
X138605Y-96037D01*
X138676Y-95967D01*
X138714Y-95875D01*
X138714Y-96957D01*
X138138Y-96957D01*
X138138Y-96013D01*
X138138Y-95700D01*
X138138Y-95600D01*
X138138Y-95288D01*
X138076Y-95225D01*
X137963Y-95225D01*
X137864Y-95225D01*
X137772Y-95263D01*
X137701Y-95334D01*
X137663Y-95426D01*
X137663Y-95538D01*
X137726Y-95600D01*
X138138Y-95600D01*
X138138Y-95700D01*
X137726Y-95700D01*
X137663Y-95763D01*
X137663Y-95875D01*
X137701Y-95967D01*
X137772Y-96037D01*
X137864Y-96075D01*
X137963Y-96075D01*
X138076Y-96075D01*
X138138Y-96013D01*
X138138Y-96957D01*
X137532Y-96957D01*
X137532Y-95875D01*
X137532Y-95426D01*
X137494Y-95334D01*
X137424Y-95263D01*
X137401Y-95254D01*
X137401Y-95052D01*
X137401Y-94702D01*
X137383Y-94658D01*
X137350Y-94624D01*
X137306Y-94606D01*
X137259Y-94606D01*
X137176Y-94606D01*
X137176Y-94468D01*
X137267Y-94468D01*
X137311Y-94450D01*
X137344Y-94417D01*
X137362Y-94373D01*
X137362Y-94326D01*
X137362Y-93854D01*
X137344Y-93810D01*
X137311Y-93777D01*
X137267Y-93758D01*
X137220Y-93758D01*
X136748Y-93758D01*
X136704Y-93776D01*
X136671Y-93810D01*
X136652Y-93854D01*
X136652Y-93901D01*
X136652Y-94373D01*
X136671Y-94417D01*
X136704Y-94450D01*
X136748Y-94468D01*
X136795Y-94468D01*
X136838Y-94468D01*
X136838Y-94606D01*
X136709Y-94606D01*
X136665Y-94624D01*
X136632Y-94658D01*
X136613Y-94701D01*
X136613Y-94749D01*
X136613Y-95099D01*
X136632Y-95142D01*
X136665Y-95176D01*
X136709Y-95194D01*
X136756Y-95194D01*
X137306Y-95194D01*
X137350Y-95176D01*
X137383Y-95143D01*
X137401Y-95099D01*
X137401Y-95052D01*
X137401Y-95254D01*
X137332Y-95225D01*
X137233Y-95225D01*
X137120Y-95225D01*
X137057Y-95288D01*
X137057Y-95600D01*
X137470Y-95600D01*
X137532Y-95538D01*
X137532Y-95426D01*
X137532Y-95875D01*
X137532Y-95763D01*
X137470Y-95700D01*
X137057Y-95700D01*
X137057Y-96013D01*
X137120Y-96075D01*
X137233Y-96075D01*
X137332Y-96075D01*
X137424Y-96037D01*
X137494Y-95967D01*
X137532Y-95875D01*
X137532Y-96957D01*
X136957Y-96957D01*
X136957Y-96013D01*
X136957Y-95700D01*
X136957Y-95600D01*
X136957Y-95288D01*
X136895Y-95225D01*
X136782Y-95225D01*
X136682Y-95225D01*
X136591Y-95263D01*
X136520Y-95334D01*
X136482Y-95426D01*
X136482Y-95538D01*
X136545Y-95600D01*
X136957Y-95600D01*
X136957Y-95700D01*
X136545Y-95700D01*
X136482Y-95763D01*
X136482Y-95875D01*
X136520Y-95967D01*
X136591Y-96037D01*
X136682Y-96075D01*
X136782Y-96075D01*
X136895Y-96075D01*
X136957Y-96013D01*
X136957Y-96957D01*
X135306Y-96957D01*
X135306Y-94979D01*
X135306Y-93979D01*
X135295Y-93760D01*
X135233Y-93609D01*
X135137Y-93582D01*
X134822Y-93897D01*
X135137Y-94212D01*
X135233Y-94185D01*
X135306Y-93979D01*
X135306Y-94979D01*
X135295Y-94760D01*
X135233Y-94609D01*
X135137Y-94582D01*
X134822Y-94897D01*
X135137Y-95212D01*
X135233Y-95185D01*
X135306Y-94979D01*
X135306Y-96957D01*
X132963Y-96957D01*
X132963Y-82018D01*
X154438Y-82018D01*
X154438Y-85820D01*
X154432Y-85814D01*
X154409Y-85805D01*
X154409Y-85603D01*
X154409Y-85253D01*
X154391Y-85209D01*
X154358Y-85176D01*
X154314Y-85157D01*
X154267Y-85157D01*
X153859Y-85157D01*
X153859Y-82823D01*
X153859Y-82372D01*
X153859Y-82273D01*
X153821Y-82181D01*
X153751Y-82111D01*
X153659Y-82073D01*
X153447Y-82073D01*
X153384Y-82135D01*
X153384Y-82548D01*
X153797Y-82548D01*
X153859Y-82485D01*
X153859Y-82372D01*
X153859Y-82823D01*
X153859Y-82710D01*
X153797Y-82648D01*
X153384Y-82648D01*
X153384Y-83060D01*
X153447Y-83123D01*
X153659Y-83123D01*
X153751Y-83085D01*
X153821Y-83015D01*
X153859Y-82923D01*
X153859Y-82823D01*
X153859Y-85157D01*
X153740Y-85157D01*
X153740Y-84582D01*
X153722Y-84539D01*
X153689Y-84505D01*
X153645Y-84487D01*
X153598Y-84487D01*
X153284Y-84487D01*
X153284Y-83060D01*
X153284Y-82648D01*
X153284Y-82548D01*
X153284Y-82135D01*
X153222Y-82073D01*
X153010Y-82073D01*
X152918Y-82111D01*
X152847Y-82181D01*
X152809Y-82273D01*
X152809Y-82372D01*
X152809Y-82485D01*
X152872Y-82548D01*
X153284Y-82548D01*
X153284Y-82648D01*
X152872Y-82648D01*
X152809Y-82710D01*
X152809Y-82823D01*
X152809Y-82923D01*
X152847Y-83015D01*
X152918Y-83085D01*
X153010Y-83123D01*
X153222Y-83123D01*
X153284Y-83060D01*
X153284Y-84487D01*
X152417Y-84487D01*
X152373Y-84505D01*
X152340Y-84538D01*
X152322Y-84582D01*
X152322Y-84629D01*
X152322Y-85031D01*
X152177Y-85176D01*
X151366Y-85176D01*
X151190Y-85000D01*
X151795Y-85000D01*
X151838Y-84982D01*
X151872Y-84949D01*
X151890Y-84905D01*
X151890Y-84858D01*
X151890Y-84391D01*
X152454Y-83828D01*
X152454Y-83828D01*
X152454Y-83828D01*
X152490Y-83773D01*
X152490Y-83773D01*
X152500Y-83721D01*
X152503Y-83708D01*
X152503Y-83708D01*
X152503Y-83708D01*
X152503Y-82954D01*
X152557Y-82932D01*
X152668Y-82821D01*
X152728Y-82677D01*
X152728Y-82520D01*
X152668Y-82375D01*
X152558Y-82264D01*
X152413Y-82204D01*
X152256Y-82204D01*
X152111Y-82264D01*
X152000Y-82375D01*
X151940Y-82519D01*
X151940Y-82676D01*
X152000Y-82821D01*
X152111Y-82932D01*
X152165Y-82954D01*
X152165Y-83638D01*
X151890Y-83913D01*
X151890Y-83677D01*
X151872Y-83633D01*
X151839Y-83600D01*
X151795Y-83581D01*
X151748Y-83581D01*
X151039Y-83581D01*
X150995Y-83599D01*
X150962Y-83633D01*
X150944Y-83677D01*
X150944Y-83724D01*
X150944Y-84754D01*
X150886Y-84696D01*
X150886Y-83700D01*
X150867Y-83602D01*
X150867Y-83602D01*
X150811Y-83519D01*
X150575Y-83283D01*
X150491Y-83227D01*
X150475Y-83224D01*
X150393Y-83207D01*
X150393Y-83207D01*
X150078Y-83207D01*
X149425Y-83207D01*
X148925Y-82708D01*
X148925Y-82599D01*
X148865Y-82454D01*
X148754Y-82343D01*
X148610Y-82283D01*
X148453Y-82283D01*
X148308Y-82343D01*
X148197Y-82453D01*
X148137Y-82598D01*
X148137Y-82755D01*
X148197Y-82899D01*
X148308Y-83010D01*
X148452Y-83070D01*
X148562Y-83071D01*
X149137Y-83646D01*
X149174Y-83671D01*
X149172Y-83677D01*
X149172Y-83724D01*
X149172Y-84905D01*
X149190Y-84949D01*
X149223Y-84982D01*
X149267Y-85000D01*
X149314Y-85000D01*
X149720Y-85000D01*
X146307Y-88413D01*
X146223Y-88413D01*
X148308Y-86328D01*
X148345Y-86273D01*
X148357Y-86209D01*
X148357Y-84311D01*
X148347Y-84257D01*
X148347Y-83677D01*
X148329Y-83633D01*
X148295Y-83600D01*
X148252Y-83581D01*
X148204Y-83581D01*
X147496Y-83581D01*
X147452Y-83599D01*
X147418Y-83633D01*
X147400Y-83677D01*
X147400Y-83724D01*
X147400Y-84905D01*
X147418Y-84949D01*
X147452Y-84982D01*
X147495Y-85000D01*
X147543Y-85000D01*
X148020Y-85000D01*
X148020Y-86139D01*
X145981Y-88177D01*
X145702Y-88177D01*
X145760Y-88119D01*
X145798Y-88029D01*
X147031Y-86795D01*
X147087Y-86712D01*
X147087Y-86712D01*
X147107Y-86614D01*
X147107Y-83649D01*
X147685Y-83071D01*
X147830Y-83071D01*
X147873Y-83053D01*
X147907Y-83019D01*
X147925Y-82975D01*
X147925Y-82928D01*
X147925Y-82378D01*
X147907Y-82334D01*
X147873Y-82301D01*
X147830Y-82283D01*
X147782Y-82283D01*
X147232Y-82283D01*
X147189Y-82301D01*
X147155Y-82334D01*
X147137Y-82378D01*
X147137Y-82425D01*
X147137Y-82893D01*
X146668Y-83361D01*
X146613Y-83445D01*
X146609Y-83461D01*
X146593Y-83543D01*
X146593Y-83543D01*
X146593Y-86507D01*
X146575Y-86525D01*
X146575Y-84858D01*
X146575Y-83677D01*
X146557Y-83633D01*
X146524Y-83600D01*
X146480Y-83581D01*
X146433Y-83581D01*
X145724Y-83581D01*
X145680Y-83599D01*
X145647Y-83633D01*
X145629Y-83677D01*
X145629Y-83724D01*
X145629Y-84905D01*
X145647Y-84949D01*
X145680Y-84982D01*
X145724Y-85000D01*
X145771Y-85000D01*
X146480Y-85000D01*
X146523Y-84982D01*
X146557Y-84949D01*
X146575Y-84905D01*
X146575Y-84858D01*
X146575Y-86525D01*
X145435Y-87666D01*
X145345Y-87703D01*
X145262Y-87786D01*
X145217Y-87894D01*
X145217Y-88010D01*
X145262Y-88119D01*
X145320Y-88177D01*
X144814Y-88177D01*
X144814Y-84311D01*
X144814Y-83050D01*
X144801Y-82985D01*
X144765Y-82930D01*
X144566Y-82732D01*
X144566Y-82378D01*
X144548Y-82334D01*
X144515Y-82301D01*
X144471Y-82283D01*
X144424Y-82283D01*
X144074Y-82283D01*
X144030Y-82301D01*
X143996Y-82334D01*
X143978Y-82378D01*
X143978Y-82425D01*
X143978Y-82975D01*
X143996Y-83019D01*
X144030Y-83052D01*
X144073Y-83071D01*
X144121Y-83071D01*
X144427Y-83071D01*
X144476Y-83120D01*
X144476Y-83581D01*
X143952Y-83581D01*
X143909Y-83599D01*
X143875Y-83633D01*
X143857Y-83677D01*
X143857Y-83724D01*
X143857Y-84905D01*
X143875Y-84949D01*
X143908Y-84982D01*
X143952Y-85000D01*
X143999Y-85000D01*
X144708Y-85000D01*
X144752Y-84982D01*
X144785Y-84949D01*
X144803Y-84905D01*
X144803Y-84858D01*
X144803Y-84364D01*
X144814Y-84311D01*
X144814Y-88177D01*
X140486Y-88177D01*
X141241Y-87422D01*
X141241Y-87422D01*
X141241Y-87422D01*
X141278Y-87367D01*
X141290Y-87303D01*
X141290Y-84311D01*
X141280Y-84257D01*
X141280Y-83677D01*
X141262Y-83633D01*
X141262Y-83633D01*
X142103Y-83633D01*
X142085Y-83677D01*
X142085Y-83724D01*
X142085Y-84905D01*
X142103Y-84949D01*
X142137Y-84982D01*
X142180Y-85000D01*
X142228Y-85000D01*
X142936Y-85000D01*
X142980Y-84982D01*
X143014Y-84949D01*
X143032Y-84905D01*
X143032Y-84858D01*
X143032Y-83677D01*
X143014Y-83633D01*
X142980Y-83600D01*
X142937Y-83581D01*
X142889Y-83581D01*
X142856Y-83581D01*
X143367Y-83071D01*
X143371Y-83071D01*
X143721Y-83071D01*
X143764Y-83053D01*
X143798Y-83019D01*
X143816Y-82975D01*
X143816Y-82928D01*
X143816Y-82378D01*
X143798Y-82334D01*
X143765Y-82301D01*
X143721Y-82283D01*
X143674Y-82283D01*
X143324Y-82283D01*
X143280Y-82301D01*
X143246Y-82334D01*
X143228Y-82378D01*
X143228Y-82425D01*
X143228Y-82732D01*
X142665Y-83295D01*
X141492Y-83295D01*
X141492Y-82928D01*
X141492Y-82378D01*
X141474Y-82334D01*
X141440Y-82301D01*
X141397Y-82283D01*
X141349Y-82283D01*
X140799Y-82283D01*
X140756Y-82301D01*
X140722Y-82334D01*
X140704Y-82378D01*
X140704Y-82425D01*
X140704Y-82975D01*
X140722Y-83019D01*
X140755Y-83052D01*
X140799Y-83071D01*
X140846Y-83071D01*
X141396Y-83071D01*
X141440Y-83053D01*
X141474Y-83019D01*
X141492Y-82975D01*
X141492Y-82928D01*
X141492Y-83295D01*
X139705Y-83295D01*
X139745Y-83269D01*
X139965Y-83048D01*
X140019Y-83070D01*
X140176Y-83071D01*
X140321Y-83011D01*
X140432Y-82900D01*
X140492Y-82755D01*
X140492Y-82599D01*
X140432Y-82454D01*
X140321Y-82343D01*
X140177Y-82283D01*
X140020Y-82283D01*
X139875Y-82343D01*
X139764Y-82453D01*
X139704Y-82598D01*
X139704Y-82755D01*
X139727Y-82809D01*
X139556Y-82980D01*
X139351Y-82980D01*
X139432Y-82900D01*
X139492Y-82755D01*
X139492Y-82599D01*
X139432Y-82454D01*
X139321Y-82343D01*
X139177Y-82283D01*
X139020Y-82283D01*
X138875Y-82343D01*
X138764Y-82453D01*
X138704Y-82598D01*
X138704Y-82755D01*
X138727Y-82809D01*
X138477Y-83059D01*
X138204Y-83059D01*
X138321Y-83011D01*
X138432Y-82900D01*
X138492Y-82755D01*
X138492Y-82599D01*
X138432Y-82454D01*
X138321Y-82343D01*
X138177Y-82283D01*
X138020Y-82283D01*
X137875Y-82343D01*
X137764Y-82453D01*
X137704Y-82598D01*
X137704Y-82755D01*
X137727Y-82809D01*
X136251Y-84285D01*
X136219Y-84333D01*
X136219Y-83795D01*
X136965Y-83048D01*
X137019Y-83070D01*
X137176Y-83071D01*
X137321Y-83011D01*
X137432Y-82900D01*
X137492Y-82755D01*
X137492Y-82599D01*
X137432Y-82454D01*
X137321Y-82343D01*
X137177Y-82283D01*
X137020Y-82283D01*
X136875Y-82343D01*
X136764Y-82453D01*
X136704Y-82598D01*
X136704Y-82755D01*
X136727Y-82809D01*
X135931Y-83605D01*
X135909Y-83638D01*
X135909Y-83105D01*
X135965Y-83048D01*
X136019Y-83070D01*
X136176Y-83071D01*
X136321Y-83011D01*
X136432Y-82900D01*
X136492Y-82755D01*
X136492Y-82599D01*
X136432Y-82454D01*
X136321Y-82343D01*
X136177Y-82283D01*
X136020Y-82283D01*
X135875Y-82343D01*
X135764Y-82453D01*
X135704Y-82598D01*
X135704Y-82755D01*
X135727Y-82809D01*
X135621Y-82915D01*
X135584Y-82970D01*
X135571Y-83035D01*
X135571Y-84641D01*
X135532Y-84625D01*
X135485Y-84625D01*
X135308Y-84625D01*
X135265Y-84643D01*
X135222Y-84625D01*
X135175Y-84625D01*
X134998Y-84625D01*
X134954Y-84643D01*
X134921Y-84676D01*
X134903Y-84720D01*
X134903Y-84767D01*
X134903Y-85554D01*
X134921Y-85598D01*
X134941Y-85619D01*
X134941Y-85756D01*
X134892Y-85746D01*
X134801Y-85746D01*
X134781Y-85726D01*
X134737Y-85708D01*
X134690Y-85708D01*
X133903Y-85708D01*
X133859Y-85726D01*
X133826Y-85759D01*
X133808Y-85803D01*
X133808Y-85850D01*
X133808Y-85852D01*
X133790Y-85835D01*
X133790Y-84715D01*
X135217Y-83288D01*
X135217Y-83288D01*
X135217Y-83288D01*
X135254Y-83233D01*
X135254Y-83233D01*
X135264Y-83182D01*
X135267Y-83169D01*
X135267Y-83169D01*
X135267Y-83169D01*
X135267Y-83033D01*
X135321Y-83011D01*
X135432Y-82900D01*
X135492Y-82755D01*
X135492Y-82599D01*
X135432Y-82454D01*
X135321Y-82343D01*
X135177Y-82283D01*
X135020Y-82283D01*
X134875Y-82343D01*
X134764Y-82453D01*
X134704Y-82598D01*
X134704Y-82755D01*
X134764Y-82899D01*
X134875Y-83010D01*
X134929Y-83033D01*
X134929Y-83099D01*
X134228Y-83800D01*
X134254Y-83761D01*
X134267Y-83696D01*
X134267Y-83033D01*
X134321Y-83011D01*
X134432Y-82900D01*
X134492Y-82755D01*
X134492Y-82599D01*
X134432Y-82454D01*
X134321Y-82343D01*
X134177Y-82283D01*
X134020Y-82283D01*
X133875Y-82343D01*
X133764Y-82453D01*
X133704Y-82598D01*
X133704Y-82755D01*
X133764Y-82899D01*
X133875Y-83010D01*
X133929Y-83033D01*
X133929Y-83626D01*
X133266Y-84290D01*
X133229Y-84344D01*
X133216Y-84409D01*
X133216Y-86062D01*
X133229Y-86127D01*
X133266Y-86182D01*
X133749Y-86665D01*
X133804Y-86701D01*
X133825Y-86706D01*
X133808Y-86747D01*
X133808Y-86794D01*
X133808Y-86971D01*
X133826Y-87015D01*
X133828Y-87017D01*
X133826Y-87019D01*
X133808Y-87063D01*
X133808Y-87110D01*
X133808Y-87287D01*
X133821Y-87320D01*
X133769Y-87320D01*
X133705Y-87333D01*
X133650Y-87370D01*
X133187Y-87833D01*
X133151Y-87888D01*
X133138Y-87952D01*
X133138Y-94385D01*
X133151Y-94450D01*
X133187Y-94505D01*
X133381Y-94698D01*
X133333Y-94813D01*
X133332Y-94980D01*
X133396Y-95134D01*
X133514Y-95252D01*
X133668Y-95316D01*
X133834Y-95316D01*
X133988Y-95252D01*
X134106Y-95135D01*
X134151Y-95027D01*
X134151Y-95259D01*
X133903Y-95507D01*
X133835Y-95478D01*
X133669Y-95478D01*
X133514Y-95542D01*
X133397Y-95660D01*
X133333Y-95813D01*
X133332Y-95980D01*
X133396Y-96134D01*
X133514Y-96252D01*
X133668Y-96316D01*
X133834Y-96316D01*
X133988Y-96252D01*
X134106Y-96135D01*
X134170Y-95981D01*
X134170Y-95814D01*
X134142Y-95745D01*
X134346Y-95542D01*
X134333Y-95573D01*
X134333Y-95621D01*
X134333Y-96221D01*
X134351Y-96264D01*
X134384Y-96298D01*
X134428Y-96316D01*
X134475Y-96316D01*
X135075Y-96316D01*
X135119Y-96298D01*
X135152Y-96265D01*
X135170Y-96221D01*
X135170Y-96174D01*
X135170Y-95574D01*
X135152Y-95530D01*
X135119Y-95496D01*
X135075Y-95478D01*
X135028Y-95478D01*
X134428Y-95478D01*
X134396Y-95491D01*
X134439Y-95448D01*
X134476Y-95393D01*
X134478Y-95384D01*
X134670Y-95452D01*
X134888Y-95441D01*
X135039Y-95378D01*
X135067Y-95283D01*
X134751Y-94968D01*
X134746Y-94973D01*
X134675Y-94903D01*
X134681Y-94897D01*
X134675Y-94892D01*
X134746Y-94821D01*
X134751Y-94826D01*
X135067Y-94511D01*
X135039Y-94416D01*
X134991Y-94399D01*
X135039Y-94378D01*
X135067Y-94283D01*
X134751Y-93968D01*
X134746Y-93973D01*
X134675Y-93903D01*
X134681Y-93897D01*
X134675Y-93892D01*
X134746Y-93821D01*
X134751Y-93826D01*
X135067Y-93511D01*
X135039Y-93416D01*
X134833Y-93342D01*
X134615Y-93353D01*
X134489Y-93405D01*
X134489Y-93227D01*
X134514Y-93252D01*
X134668Y-93316D01*
X134834Y-93316D01*
X134988Y-93252D01*
X135106Y-93135D01*
X135170Y-92981D01*
X135170Y-92814D01*
X135107Y-92660D01*
X134989Y-92542D01*
X134835Y-92478D01*
X134669Y-92478D01*
X134514Y-92542D01*
X134489Y-92567D01*
X134489Y-92227D01*
X134514Y-92252D01*
X134668Y-92316D01*
X134834Y-92316D01*
X134988Y-92252D01*
X135106Y-92135D01*
X135170Y-91981D01*
X135170Y-91814D01*
X135107Y-91660D01*
X134989Y-91542D01*
X134835Y-91478D01*
X134669Y-91478D01*
X134514Y-91542D01*
X134489Y-91567D01*
X134489Y-88327D01*
X134712Y-88327D01*
X134712Y-91023D01*
X134725Y-91088D01*
X134762Y-91143D01*
X135185Y-91566D01*
X135185Y-91634D01*
X135198Y-91698D01*
X135234Y-91753D01*
X136652Y-93171D01*
X136652Y-93547D01*
X136671Y-93591D01*
X136704Y-93624D01*
X136748Y-93642D01*
X136795Y-93642D01*
X137267Y-93642D01*
X137311Y-93624D01*
X137344Y-93591D01*
X137362Y-93547D01*
X137362Y-93500D01*
X137362Y-93028D01*
X137344Y-92984D01*
X137311Y-92951D01*
X137267Y-92932D01*
X137220Y-92932D01*
X136891Y-92932D01*
X136872Y-92913D01*
X136929Y-92924D01*
X137587Y-92924D01*
X137834Y-93171D01*
X137834Y-93547D01*
X137852Y-93591D01*
X137885Y-93624D01*
X137929Y-93642D01*
X137976Y-93642D01*
X138448Y-93642D01*
X138492Y-93624D01*
X138525Y-93591D01*
X138543Y-93547D01*
X138543Y-93500D01*
X138543Y-93028D01*
X138525Y-92984D01*
X138492Y-92951D01*
X138448Y-92932D01*
X138401Y-92932D01*
X138072Y-92932D01*
X137776Y-92636D01*
X137721Y-92599D01*
X137657Y-92587D01*
X137414Y-92587D01*
X137414Y-91170D01*
X137414Y-90719D01*
X137414Y-90619D01*
X137375Y-90528D01*
X137305Y-90457D01*
X137213Y-90419D01*
X137101Y-90419D01*
X137039Y-90482D01*
X137039Y-90894D01*
X137351Y-90894D01*
X137414Y-90832D01*
X137414Y-90719D01*
X137414Y-91170D01*
X137414Y-91057D01*
X137351Y-90994D01*
X137039Y-90994D01*
X137039Y-91407D01*
X137101Y-91469D01*
X137213Y-91469D01*
X137305Y-91431D01*
X137375Y-91361D01*
X137414Y-91269D01*
X137414Y-91170D01*
X137414Y-92587D01*
X137020Y-92587D01*
X137020Y-90186D01*
X137020Y-90073D01*
X136957Y-90010D01*
X136645Y-90010D01*
X136645Y-90423D01*
X136677Y-90455D01*
X136672Y-90457D01*
X136602Y-90528D01*
X136564Y-90619D01*
X136564Y-90719D01*
X136564Y-90832D01*
X136626Y-90894D01*
X136939Y-90894D01*
X136939Y-90482D01*
X136906Y-90449D01*
X136911Y-90447D01*
X136982Y-90377D01*
X137020Y-90285D01*
X137020Y-90186D01*
X137020Y-92587D01*
X136999Y-92587D01*
X136939Y-92527D01*
X136939Y-91407D01*
X136939Y-90994D01*
X136626Y-90994D01*
X136564Y-91057D01*
X136564Y-91170D01*
X136564Y-91269D01*
X136602Y-91361D01*
X136672Y-91431D01*
X136764Y-91469D01*
X136876Y-91469D01*
X136939Y-91407D01*
X136939Y-92527D01*
X136359Y-91947D01*
X136436Y-91947D01*
X136544Y-91902D01*
X136626Y-91820D01*
X136671Y-91712D01*
X136671Y-91595D01*
X136627Y-91487D01*
X136545Y-91405D01*
X136545Y-90423D01*
X136545Y-90010D01*
X136232Y-90010D01*
X136170Y-90073D01*
X136170Y-90186D01*
X136170Y-90285D01*
X136208Y-90377D01*
X136279Y-90447D01*
X136370Y-90485D01*
X136482Y-90485D01*
X136545Y-90423D01*
X136545Y-91405D01*
X136544Y-91404D01*
X136436Y-91359D01*
X136436Y-91338D01*
X136437Y-91338D01*
X136481Y-91320D01*
X136514Y-91287D01*
X136533Y-91243D01*
X136533Y-91196D01*
X136533Y-90646D01*
X136515Y-90602D01*
X136481Y-90569D01*
X136437Y-90551D01*
X136390Y-90550D01*
X136263Y-90550D01*
X136060Y-90347D01*
X136087Y-90336D01*
X136121Y-90303D01*
X136139Y-90259D01*
X136139Y-90212D01*
X136139Y-89662D01*
X136121Y-89618D01*
X136087Y-89584D01*
X136044Y-89566D01*
X136043Y-89566D01*
X136043Y-89416D01*
X136058Y-89416D01*
X136067Y-89438D01*
X136138Y-89509D01*
X136212Y-89540D01*
X136208Y-89543D01*
X136170Y-89635D01*
X136170Y-89735D01*
X136170Y-89848D01*
X136232Y-89910D01*
X136545Y-89910D01*
X136545Y-89902D01*
X136645Y-89902D01*
X136645Y-89910D01*
X136957Y-89910D01*
X137020Y-89848D01*
X137020Y-89735D01*
X137020Y-89635D01*
X136992Y-89567D01*
X137221Y-89740D01*
X137238Y-89749D01*
X137258Y-89762D01*
X137270Y-89764D01*
X137280Y-89769D01*
X137300Y-89770D01*
X137322Y-89775D01*
X138031Y-89775D01*
X138088Y-89763D01*
X138018Y-89833D01*
X137973Y-89941D01*
X137973Y-90058D01*
X138018Y-90166D01*
X138101Y-90249D01*
X138177Y-90280D01*
X138177Y-90669D01*
X138047Y-90669D01*
X138004Y-90687D01*
X137970Y-90721D01*
X137952Y-90764D01*
X137952Y-90812D01*
X137952Y-90942D01*
X137597Y-91297D01*
X137560Y-91352D01*
X137547Y-91417D01*
X137547Y-91889D01*
X137560Y-91954D01*
X137597Y-92009D01*
X138541Y-92954D01*
X138541Y-92954D01*
X138596Y-92990D01*
X138661Y-93003D01*
X139025Y-93003D01*
X139015Y-93028D01*
X139015Y-93075D01*
X139015Y-93547D01*
X139033Y-93591D01*
X139066Y-93624D01*
X139110Y-93642D01*
X139157Y-93642D01*
X139426Y-93642D01*
X139542Y-93758D01*
X139110Y-93758D01*
X139066Y-93776D01*
X139033Y-93810D01*
X139015Y-93854D01*
X139015Y-93901D01*
X139015Y-94373D01*
X139033Y-94417D01*
X139066Y-94450D01*
X139110Y-94468D01*
X139157Y-94468D01*
X139201Y-94468D01*
X139201Y-94606D01*
X139071Y-94606D01*
X139027Y-94624D01*
X138994Y-94658D01*
X138976Y-94701D01*
X138976Y-94749D01*
X138976Y-95099D01*
X138994Y-95142D01*
X139027Y-95176D01*
X139071Y-95194D01*
X139118Y-95194D01*
X139668Y-95194D01*
X139712Y-95176D01*
X139745Y-95143D01*
X139763Y-95099D01*
X139763Y-95052D01*
X139763Y-94702D01*
X139745Y-94658D01*
X139712Y-94624D01*
X139668Y-94606D01*
X139621Y-94606D01*
X139538Y-94606D01*
X139538Y-94468D01*
X139629Y-94468D01*
X139673Y-94450D01*
X139706Y-94417D01*
X139724Y-94373D01*
X139724Y-94326D01*
X139724Y-93941D01*
X139802Y-94018D01*
X139802Y-94724D01*
X139802Y-94724D01*
X139817Y-94800D01*
X139860Y-94864D01*
X140332Y-95336D01*
X140332Y-95336D01*
X140371Y-95362D01*
X140374Y-95364D01*
X140292Y-95445D01*
X140232Y-95590D01*
X140232Y-95747D01*
X140291Y-95892D01*
X140402Y-96003D01*
X140547Y-96063D01*
X140703Y-96063D01*
X140848Y-96003D01*
X140959Y-95892D01*
X141019Y-95747D01*
X141019Y-95591D01*
X140960Y-95446D01*
X140908Y-95394D01*
X141343Y-95394D01*
X141292Y-95445D01*
X141232Y-95590D01*
X141232Y-95747D01*
X141291Y-95892D01*
X141402Y-96003D01*
X141547Y-96063D01*
X141703Y-96063D01*
X141848Y-96003D01*
X141959Y-95892D01*
X142019Y-95747D01*
X142019Y-95591D01*
X141960Y-95446D01*
X141908Y-95394D01*
X142173Y-95394D01*
X142165Y-95396D01*
X142096Y-95593D01*
X142107Y-95802D01*
X142165Y-95942D01*
X142258Y-95966D01*
X142555Y-95669D01*
X142549Y-95663D01*
X142620Y-95593D01*
X142625Y-95598D01*
X142631Y-95593D01*
X142702Y-95663D01*
X142696Y-95669D01*
X142993Y-95966D01*
X143086Y-95942D01*
X143155Y-95745D01*
X143144Y-95536D01*
X143086Y-95396D01*
X143078Y-95394D01*
X143232Y-95394D01*
X143232Y-95417D01*
X143232Y-95967D01*
X143250Y-96011D01*
X143283Y-96045D01*
X143327Y-96063D01*
X143374Y-96063D01*
X143924Y-96063D01*
X143968Y-96045D01*
X144001Y-96011D01*
X144019Y-95968D01*
X144019Y-95920D01*
X144019Y-95370D01*
X144001Y-95327D01*
X143968Y-95293D01*
X143924Y-95275D01*
X143882Y-95275D01*
X143882Y-95196D01*
X143882Y-94882D01*
X143924Y-94882D01*
X143968Y-94864D01*
X144001Y-94830D01*
X144019Y-94786D01*
X144019Y-94739D01*
X144019Y-94189D01*
X144001Y-94145D01*
X143968Y-94112D01*
X143924Y-94094D01*
X143877Y-94094D01*
X143327Y-94094D01*
X143283Y-94112D01*
X143250Y-94145D01*
X143232Y-94189D01*
X143232Y-94236D01*
X143232Y-94786D01*
X143250Y-94830D01*
X143283Y-94863D01*
X143327Y-94882D01*
X143369Y-94882D01*
X143369Y-94999D01*
X143155Y-94999D01*
X143155Y-94563D01*
X143144Y-94355D01*
X143086Y-94215D01*
X143019Y-94197D01*
X143019Y-92835D01*
X142960Y-92690D01*
X142849Y-92579D01*
X142704Y-92519D01*
X142547Y-92519D01*
X142493Y-92541D01*
X141290Y-91339D01*
X141290Y-91082D01*
X141280Y-91029D01*
X141280Y-90448D01*
X141262Y-90405D01*
X141228Y-90371D01*
X141185Y-90353D01*
X141137Y-90353D01*
X140429Y-90353D01*
X140385Y-90371D01*
X140352Y-90405D01*
X140333Y-90448D01*
X140333Y-90495D01*
X140333Y-91677D01*
X140351Y-91720D01*
X140385Y-91754D01*
X140429Y-91772D01*
X140476Y-91772D01*
X141184Y-91772D01*
X141228Y-91754D01*
X142254Y-92780D01*
X142232Y-92834D01*
X142232Y-92991D01*
X142291Y-93136D01*
X142402Y-93247D01*
X142547Y-93307D01*
X142703Y-93307D01*
X142848Y-93247D01*
X142959Y-93136D01*
X143019Y-92992D01*
X143019Y-92835D01*
X143019Y-94197D01*
X142993Y-94191D01*
X142923Y-94261D01*
X142923Y-94120D01*
X142898Y-94027D01*
X142701Y-93958D01*
X142493Y-93969D01*
X142353Y-94027D01*
X142328Y-94120D01*
X142625Y-94417D01*
X142923Y-94120D01*
X142923Y-94261D01*
X142696Y-94488D01*
X142993Y-94785D01*
X143086Y-94760D01*
X143155Y-94563D01*
X143155Y-94999D01*
X142776Y-94999D01*
X142898Y-94948D01*
X142923Y-94855D01*
X142625Y-94558D01*
X142555Y-94629D01*
X142555Y-94488D01*
X142258Y-94191D01*
X142165Y-94215D01*
X142096Y-94412D01*
X142107Y-94620D01*
X142165Y-94760D01*
X142258Y-94785D01*
X142555Y-94488D01*
X142555Y-94629D01*
X142328Y-94855D01*
X142353Y-94948D01*
X142496Y-94999D01*
X142019Y-94999D01*
X142019Y-94410D01*
X141960Y-94265D01*
X141849Y-94154D01*
X141704Y-94094D01*
X141547Y-94094D01*
X141403Y-94154D01*
X141292Y-94264D01*
X141232Y-94409D01*
X141232Y-94566D01*
X141291Y-94711D01*
X141402Y-94821D01*
X141547Y-94882D01*
X141703Y-94882D01*
X141848Y-94822D01*
X141959Y-94711D01*
X142019Y-94566D01*
X142019Y-94410D01*
X142019Y-94999D01*
X140554Y-94999D01*
X140197Y-94642D01*
X140197Y-93937D01*
X140182Y-93861D01*
X140182Y-93861D01*
X140139Y-93797D01*
X140139Y-93797D01*
X139724Y-93382D01*
X139724Y-93192D01*
X140457Y-93924D01*
X140457Y-94131D01*
X140403Y-94154D01*
X140292Y-94264D01*
X140232Y-94409D01*
X140232Y-94566D01*
X140291Y-94711D01*
X140402Y-94821D01*
X140547Y-94882D01*
X140703Y-94882D01*
X140848Y-94822D01*
X140959Y-94711D01*
X141019Y-94566D01*
X141019Y-94410D01*
X140960Y-94265D01*
X140849Y-94154D01*
X140794Y-94131D01*
X140794Y-93854D01*
X140782Y-93789D01*
X140745Y-93734D01*
X140092Y-93082D01*
X141232Y-93082D01*
X141232Y-93211D01*
X141250Y-93255D01*
X141283Y-93289D01*
X141327Y-93307D01*
X141374Y-93307D01*
X141924Y-93307D01*
X141968Y-93289D01*
X142001Y-93255D01*
X142019Y-93212D01*
X142019Y-93164D01*
X142019Y-92614D01*
X142001Y-92571D01*
X141968Y-92537D01*
X141924Y-92519D01*
X141877Y-92519D01*
X141327Y-92519D01*
X141283Y-92537D01*
X141250Y-92570D01*
X141232Y-92614D01*
X141232Y-92661D01*
X141232Y-92744D01*
X140069Y-92744D01*
X138919Y-91594D01*
X138864Y-91557D01*
X138800Y-91544D01*
X138740Y-91544D01*
X138740Y-91515D01*
X138722Y-91471D01*
X138688Y-91437D01*
X138645Y-91419D01*
X138597Y-91419D01*
X138047Y-91419D01*
X138004Y-91437D01*
X137970Y-91471D01*
X137952Y-91514D01*
X137952Y-91562D01*
X137952Y-91886D01*
X137885Y-91819D01*
X137885Y-91487D01*
X138115Y-91257D01*
X138645Y-91257D01*
X138688Y-91239D01*
X138722Y-91206D01*
X138740Y-91162D01*
X138740Y-91115D01*
X138740Y-90765D01*
X138722Y-90721D01*
X138688Y-90687D01*
X138645Y-90669D01*
X138597Y-90669D01*
X138515Y-90669D01*
X138515Y-90168D01*
X138516Y-90166D01*
X138561Y-90058D01*
X138561Y-89941D01*
X138517Y-89833D01*
X138434Y-89750D01*
X138326Y-89706D01*
X138209Y-89706D01*
X138133Y-89737D01*
X138150Y-89725D01*
X138975Y-88901D01*
X138975Y-91401D01*
X138993Y-91445D01*
X139027Y-91478D01*
X139070Y-91496D01*
X139118Y-91496D01*
X139826Y-91496D01*
X139870Y-91478D01*
X139903Y-91445D01*
X139922Y-91401D01*
X139922Y-91354D01*
X139922Y-88755D01*
X139920Y-88751D01*
X146377Y-88751D01*
X146442Y-88738D01*
X146497Y-88702D01*
X150080Y-85119D01*
X150116Y-85064D01*
X150129Y-85000D01*
X150129Y-84311D01*
X150118Y-84257D01*
X150118Y-83721D01*
X150287Y-83721D01*
X150373Y-83807D01*
X150373Y-84803D01*
X150373Y-84803D01*
X150389Y-84885D01*
X150392Y-84901D01*
X150448Y-84984D01*
X151078Y-85614D01*
X151078Y-85614D01*
X151161Y-85670D01*
X151161Y-85670D01*
X151259Y-85689D01*
X152283Y-85689D01*
X152283Y-85689D01*
X152283Y-85689D01*
X152365Y-85673D01*
X152381Y-85670D01*
X152381Y-85670D01*
X152464Y-85614D01*
X152645Y-85433D01*
X153141Y-85433D01*
X153341Y-85633D01*
X153341Y-85633D01*
X153424Y-85688D01*
X153424Y-85688D01*
X153522Y-85708D01*
X153654Y-85708D01*
X153673Y-85727D01*
X153716Y-85745D01*
X153764Y-85745D01*
X154314Y-85745D01*
X154358Y-85727D01*
X154391Y-85694D01*
X154409Y-85650D01*
X154409Y-85603D01*
X154409Y-85805D01*
X154340Y-85776D01*
X154241Y-85776D01*
X154128Y-85776D01*
X154065Y-85839D01*
X154065Y-86151D01*
X154073Y-86151D01*
X154073Y-86251D01*
X154065Y-86251D01*
X154065Y-86564D01*
X154128Y-86626D01*
X154241Y-86626D01*
X154340Y-86626D01*
X154432Y-86588D01*
X154438Y-86582D01*
X154438Y-96957D01*
X154438Y-96957D01*
G37*
G54D28*
X154438Y-96957D02*
X153965Y-96957D01*
X153965Y-86564D01*
X153965Y-86251D01*
X153965Y-86151D01*
X153965Y-85839D01*
X153903Y-85776D01*
X153790Y-85776D01*
X153690Y-85776D01*
X153598Y-85814D01*
X153528Y-85885D01*
X153490Y-85977D01*
X153490Y-86089D01*
X153553Y-86151D01*
X153965Y-86151D01*
X153965Y-86251D01*
X153553Y-86251D01*
X153490Y-86314D01*
X153490Y-86426D01*
X153528Y-86518D01*
X153598Y-86588D01*
X153690Y-86626D01*
X153790Y-86626D01*
X153903Y-86626D01*
X153965Y-86564D01*
X153965Y-96957D01*
X153740Y-96957D01*
X153740Y-90724D01*
X153740Y-90015D01*
X153722Y-89972D01*
X153689Y-89938D01*
X153645Y-89920D01*
X153598Y-89920D01*
X152417Y-89920D01*
X152373Y-89938D01*
X152340Y-89971D01*
X152322Y-90015D01*
X152322Y-90062D01*
X152322Y-90771D01*
X152340Y-90815D01*
X152373Y-90848D01*
X152417Y-90866D01*
X152464Y-90866D01*
X153645Y-90866D01*
X153689Y-90848D01*
X153722Y-90815D01*
X153740Y-90771D01*
X153740Y-90724D01*
X153740Y-96957D01*
X152254Y-96957D01*
X152254Y-93518D01*
X152175Y-93326D01*
X152028Y-93179D01*
X152008Y-93171D01*
X152008Y-88952D01*
X152008Y-86433D01*
X151990Y-86389D01*
X151957Y-86355D01*
X151913Y-86337D01*
X151866Y-86337D01*
X149346Y-86337D01*
X149302Y-86355D01*
X149269Y-86389D01*
X149251Y-86432D01*
X149251Y-86480D01*
X149251Y-88999D01*
X149269Y-89043D01*
X149302Y-89077D01*
X149346Y-89095D01*
X149393Y-89095D01*
X151913Y-89095D01*
X151957Y-89077D01*
X151990Y-89043D01*
X152008Y-89000D01*
X152008Y-88952D01*
X152008Y-93171D01*
X151979Y-93159D01*
X151979Y-92362D01*
X151979Y-92362D01*
X151960Y-92267D01*
X151960Y-92267D01*
X151906Y-92187D01*
X151906Y-92187D01*
X151664Y-91944D01*
X151664Y-91782D01*
X151797Y-91782D01*
X151844Y-91762D01*
X151880Y-91726D01*
X151900Y-91679D01*
X151900Y-91628D01*
X151900Y-90446D01*
X151880Y-90399D01*
X151844Y-90363D01*
X151797Y-90343D01*
X151746Y-90343D01*
X151037Y-90343D01*
X150990Y-90363D01*
X150953Y-90399D01*
X150934Y-90446D01*
X150934Y-90497D01*
X150934Y-91679D01*
X150953Y-91726D01*
X150989Y-91762D01*
X151037Y-91782D01*
X151088Y-91782D01*
X151170Y-91782D01*
X151170Y-92047D01*
X151189Y-92141D01*
X151242Y-92221D01*
X151485Y-92464D01*
X151485Y-93158D01*
X151436Y-93179D01*
X151289Y-93325D01*
X151210Y-93517D01*
X151209Y-93725D01*
X151289Y-93917D01*
X151436Y-94064D01*
X151627Y-94144D01*
X151835Y-94144D01*
X152027Y-94065D01*
X152174Y-93918D01*
X152254Y-93726D01*
X152254Y-93518D01*
X152254Y-96957D01*
X150215Y-96957D01*
X150215Y-95689D01*
X150177Y-95599D01*
X150177Y-95433D01*
X150177Y-95433D01*
X150177Y-95433D01*
X150158Y-95334D01*
X150118Y-95275D01*
X150118Y-91629D01*
X150118Y-90448D01*
X150100Y-90405D01*
X150067Y-90371D01*
X150023Y-90353D01*
X149976Y-90353D01*
X149267Y-90353D01*
X149224Y-90371D01*
X149190Y-90405D01*
X149172Y-90448D01*
X149172Y-90495D01*
X149172Y-91677D01*
X149190Y-91720D01*
X149223Y-91754D01*
X149267Y-91772D01*
X149314Y-91772D01*
X150023Y-91772D01*
X150067Y-91754D01*
X150100Y-91720D01*
X150118Y-91677D01*
X150118Y-91629D01*
X150118Y-95275D01*
X150102Y-95251D01*
X150102Y-95251D01*
X149769Y-94917D01*
X149685Y-94862D01*
X149669Y-94859D01*
X149587Y-94842D01*
X149587Y-94842D01*
X149580Y-94842D01*
X149580Y-94573D01*
X149580Y-94124D01*
X149542Y-94032D01*
X149471Y-93962D01*
X149380Y-93924D01*
X149280Y-93924D01*
X149167Y-93924D01*
X149105Y-93986D01*
X149105Y-94299D01*
X149517Y-94299D01*
X149580Y-94236D01*
X149580Y-94124D01*
X149580Y-94573D01*
X149580Y-94461D01*
X149517Y-94399D01*
X149105Y-94399D01*
X149105Y-94711D01*
X149167Y-94774D01*
X149280Y-94774D01*
X149380Y-94774D01*
X149471Y-94736D01*
X149542Y-94665D01*
X149580Y-94573D01*
X149580Y-94842D01*
X149416Y-94842D01*
X149397Y-94823D01*
X149353Y-94805D01*
X149306Y-94805D01*
X149005Y-94805D01*
X149005Y-94711D01*
X149005Y-94399D01*
X149005Y-94299D01*
X149005Y-93986D01*
X148942Y-93924D01*
X148829Y-93924D01*
X148730Y-93924D01*
X148638Y-93962D01*
X148568Y-94032D01*
X148530Y-94124D01*
X148530Y-94236D01*
X148592Y-94299D01*
X149005Y-94299D01*
X149005Y-94399D01*
X148592Y-94399D01*
X148530Y-94461D01*
X148530Y-94573D01*
X148568Y-94665D01*
X148638Y-94736D01*
X148730Y-94774D01*
X148829Y-94774D01*
X148942Y-94774D01*
X149005Y-94711D01*
X149005Y-94805D01*
X148756Y-94805D01*
X148712Y-94823D01*
X148679Y-94856D01*
X148661Y-94900D01*
X148661Y-94947D01*
X148661Y-95297D01*
X148679Y-95341D01*
X148712Y-95375D01*
X148756Y-95393D01*
X148803Y-95393D01*
X149353Y-95393D01*
X149397Y-95375D01*
X149416Y-95356D01*
X149481Y-95356D01*
X149664Y-95539D01*
X149664Y-95599D01*
X149627Y-95689D01*
X149627Y-95806D01*
X149671Y-95914D01*
X149754Y-95997D01*
X149862Y-96041D01*
X149979Y-96041D01*
X150087Y-95997D01*
X150170Y-95914D01*
X150215Y-95806D01*
X150215Y-95689D01*
X150215Y-96957D01*
X148640Y-96957D01*
X148640Y-95611D01*
X148595Y-95503D01*
X148513Y-95420D01*
X148423Y-95382D01*
X148347Y-95307D01*
X148347Y-91629D01*
X148347Y-90448D01*
X148329Y-90405D01*
X148295Y-90371D01*
X148252Y-90353D01*
X148204Y-90353D01*
X147496Y-90353D01*
X147452Y-90371D01*
X147418Y-90405D01*
X147400Y-90448D01*
X147400Y-90495D01*
X147400Y-91677D01*
X147418Y-91720D01*
X147452Y-91754D01*
X147495Y-91772D01*
X147543Y-91772D01*
X148251Y-91772D01*
X148295Y-91754D01*
X148329Y-91720D01*
X148347Y-91677D01*
X148347Y-91629D01*
X148347Y-95307D01*
X148162Y-95122D01*
X148162Y-94573D01*
X148162Y-94124D01*
X148124Y-94032D01*
X148054Y-93962D01*
X147962Y-93924D01*
X147863Y-93924D01*
X147750Y-93924D01*
X147687Y-93986D01*
X147687Y-94299D01*
X148100Y-94299D01*
X148162Y-94236D01*
X148162Y-94124D01*
X148162Y-94573D01*
X148162Y-94461D01*
X148100Y-94399D01*
X147687Y-94399D01*
X147687Y-94711D01*
X147750Y-94774D01*
X147863Y-94774D01*
X147962Y-94774D01*
X148054Y-94736D01*
X148124Y-94665D01*
X148162Y-94573D01*
X148162Y-95122D01*
X148031Y-94991D01*
X148031Y-94900D01*
X148013Y-94857D01*
X147980Y-94823D01*
X147936Y-94805D01*
X147889Y-94805D01*
X147587Y-94805D01*
X147587Y-94711D01*
X147587Y-94399D01*
X147587Y-94299D01*
X147587Y-93986D01*
X147525Y-93924D01*
X147412Y-93924D01*
X147312Y-93924D01*
X147220Y-93962D01*
X147150Y-94032D01*
X147112Y-94124D01*
X147112Y-94236D01*
X147175Y-94299D01*
X147587Y-94299D01*
X147587Y-94399D01*
X147175Y-94399D01*
X147112Y-94461D01*
X147112Y-94573D01*
X147150Y-94665D01*
X147220Y-94736D01*
X147312Y-94774D01*
X147412Y-94774D01*
X147525Y-94774D01*
X147587Y-94711D01*
X147587Y-94805D01*
X147339Y-94805D01*
X147295Y-94823D01*
X147262Y-94856D01*
X147243Y-94900D01*
X147243Y-94947D01*
X147243Y-95297D01*
X147261Y-95341D01*
X147295Y-95375D01*
X147339Y-95393D01*
X147386Y-95393D01*
X147707Y-95393D01*
X148060Y-95746D01*
X148097Y-95835D01*
X148179Y-95918D01*
X148287Y-95963D01*
X148404Y-95963D01*
X148512Y-95918D01*
X148595Y-95835D01*
X148640Y-95728D01*
X148640Y-95611D01*
X148640Y-96957D01*
X146694Y-96957D01*
X146694Y-95894D01*
X146694Y-95443D01*
X146694Y-95344D01*
X146656Y-95252D01*
X146585Y-95182D01*
X146575Y-95178D01*
X146575Y-91629D01*
X146575Y-90448D01*
X146557Y-90405D01*
X146524Y-90371D01*
X146480Y-90353D01*
X146433Y-90353D01*
X145724Y-90353D01*
X145680Y-90371D01*
X145647Y-90405D01*
X145629Y-90448D01*
X145629Y-90495D01*
X145629Y-91677D01*
X145647Y-91720D01*
X145680Y-91754D01*
X145724Y-91772D01*
X145771Y-91772D01*
X146480Y-91772D01*
X146523Y-91754D01*
X146557Y-91720D01*
X146575Y-91677D01*
X146575Y-91629D01*
X146575Y-95178D01*
X146563Y-95172D01*
X146563Y-93622D01*
X146503Y-93477D01*
X146392Y-93367D01*
X146247Y-93306D01*
X146091Y-93306D01*
X145946Y-93366D01*
X145835Y-93477D01*
X145775Y-93622D01*
X145775Y-93778D01*
X145835Y-93923D01*
X145945Y-94034D01*
X146090Y-94094D01*
X146247Y-94094D01*
X146392Y-94034D01*
X146503Y-93924D01*
X146563Y-93779D01*
X146563Y-93622D01*
X146563Y-95172D01*
X146493Y-95144D01*
X146281Y-95144D01*
X146219Y-95206D01*
X146219Y-95619D01*
X146631Y-95619D01*
X146694Y-95556D01*
X146694Y-95443D01*
X146694Y-95894D01*
X146694Y-95781D01*
X146631Y-95719D01*
X146219Y-95719D01*
X146219Y-96131D01*
X146281Y-96194D01*
X146493Y-96194D01*
X146585Y-96156D01*
X146656Y-96086D01*
X146694Y-95994D01*
X146694Y-95894D01*
X146694Y-96957D01*
X146119Y-96957D01*
X146119Y-96131D01*
X146119Y-95719D01*
X146119Y-95619D01*
X146119Y-95206D01*
X146056Y-95144D01*
X145844Y-95144D01*
X145752Y-95182D01*
X145682Y-95252D01*
X145644Y-95344D01*
X145644Y-95443D01*
X145644Y-95556D01*
X145706Y-95619D01*
X146119Y-95619D01*
X146119Y-95719D01*
X145706Y-95719D01*
X145644Y-95781D01*
X145644Y-95894D01*
X145644Y-95994D01*
X145682Y-96086D01*
X145752Y-96156D01*
X145844Y-96194D01*
X146056Y-96194D01*
X146119Y-96131D01*
X146119Y-96957D01*
X145563Y-96957D01*
X145563Y-95591D01*
X145503Y-95446D01*
X145425Y-95368D01*
X145425Y-94094D01*
X145467Y-94094D01*
X145511Y-94076D01*
X145545Y-94043D01*
X145563Y-93999D01*
X145563Y-93952D01*
X145563Y-93402D01*
X145545Y-93358D01*
X145511Y-93325D01*
X145468Y-93306D01*
X145420Y-93306D01*
X144870Y-93306D01*
X144827Y-93324D01*
X144814Y-93337D01*
X144814Y-91082D01*
X144803Y-91029D01*
X144803Y-90448D01*
X144785Y-90405D01*
X144752Y-90371D01*
X144708Y-90353D01*
X144661Y-90353D01*
X144155Y-90353D01*
X143131Y-89329D01*
X143076Y-89292D01*
X143011Y-89279D01*
X141093Y-89279D01*
X140923Y-89110D01*
X140923Y-88996D01*
X140879Y-88888D01*
X140796Y-88806D01*
X140688Y-88761D01*
X140571Y-88761D01*
X140463Y-88805D01*
X140380Y-88888D01*
X140336Y-88996D01*
X140335Y-89113D01*
X140380Y-89221D01*
X140463Y-89304D01*
X140571Y-89348D01*
X140685Y-89349D01*
X140904Y-89568D01*
X140904Y-89568D01*
X140937Y-89590D01*
X140958Y-89604D01*
X140958Y-89604D01*
X141023Y-89617D01*
X141856Y-89617D01*
X141798Y-89675D01*
X141753Y-89783D01*
X141753Y-89900D01*
X141797Y-90008D01*
X141880Y-90091D01*
X141988Y-90136D01*
X142102Y-90136D01*
X142319Y-90353D01*
X142181Y-90353D01*
X142137Y-90371D01*
X142103Y-90405D01*
X142085Y-90448D01*
X142085Y-90495D01*
X142085Y-91677D01*
X142103Y-91720D01*
X142137Y-91754D01*
X142180Y-91772D01*
X142228Y-91772D01*
X142936Y-91772D01*
X142980Y-91754D01*
X143014Y-91720D01*
X143032Y-91677D01*
X143032Y-91629D01*
X143032Y-91136D01*
X143042Y-91082D01*
X143042Y-90669D01*
X143032Y-90615D01*
X143032Y-90448D01*
X143014Y-90405D01*
X142980Y-90371D01*
X142937Y-90353D01*
X142889Y-90353D01*
X142797Y-90353D01*
X142341Y-89897D01*
X142341Y-89784D01*
X142296Y-89676D01*
X142238Y-89617D01*
X142941Y-89617D01*
X143857Y-90533D01*
X143857Y-91677D01*
X143875Y-91720D01*
X143908Y-91754D01*
X143952Y-91772D01*
X143999Y-91772D01*
X144708Y-91772D01*
X144752Y-91754D01*
X144785Y-91720D01*
X144803Y-91677D01*
X144803Y-91629D01*
X144803Y-91136D01*
X144814Y-91082D01*
X144814Y-93337D01*
X144793Y-93358D01*
X144775Y-93402D01*
X144775Y-93449D01*
X144775Y-93999D01*
X144793Y-94043D01*
X144826Y-94076D01*
X144870Y-94094D01*
X144912Y-94094D01*
X144912Y-95368D01*
X144835Y-95445D01*
X144775Y-95590D01*
X144775Y-95747D01*
X144835Y-95892D01*
X144945Y-96003D01*
X145090Y-96063D01*
X145247Y-96063D01*
X145392Y-96003D01*
X145503Y-95892D01*
X145563Y-95747D01*
X145563Y-95591D01*
X145563Y-96957D01*
X142923Y-96957D01*
X142923Y-96037D01*
X142625Y-95740D01*
X142328Y-96037D01*
X142353Y-96129D01*
X142550Y-96199D01*
X142758Y-96187D01*
X142898Y-96129D01*
X142923Y-96037D01*
X142923Y-96957D01*
X139895Y-96957D01*
X139895Y-95875D01*
X139895Y-95426D01*
X139857Y-95334D01*
X139786Y-95263D01*
X139695Y-95225D01*
X139595Y-95225D01*
X139482Y-95225D01*
X139420Y-95288D01*
X139420Y-95600D01*
X139832Y-95600D01*
X139895Y-95538D01*
X139895Y-95426D01*
X139895Y-95875D01*
X139895Y-95763D01*
X139832Y-95700D01*
X139420Y-95700D01*
X139420Y-96013D01*
X139482Y-96075D01*
X139595Y-96075D01*
X139695Y-96075D01*
X139786Y-96037D01*
X139857Y-95967D01*
X139895Y-95875D01*
X139895Y-96957D01*
X139320Y-96957D01*
X139320Y-96013D01*
X139320Y-95700D01*
X139320Y-95600D01*
X139320Y-95288D01*
X139257Y-95225D01*
X139144Y-95225D01*
X139045Y-95225D01*
X138953Y-95263D01*
X138883Y-95334D01*
X138845Y-95426D01*
X138845Y-95538D01*
X138907Y-95600D01*
X139320Y-95600D01*
X139320Y-95700D01*
X138907Y-95700D01*
X138845Y-95763D01*
X138845Y-95875D01*
X138883Y-95967D01*
X138953Y-96037D01*
X139045Y-96075D01*
X139144Y-96075D01*
X139257Y-96075D01*
X139320Y-96013D01*
X139320Y-96957D01*
X138714Y-96957D01*
X138714Y-95875D01*
X138714Y-95426D01*
X138676Y-95334D01*
X138605Y-95263D01*
X138582Y-95254D01*
X138582Y-95052D01*
X138582Y-94702D01*
X138564Y-94658D01*
X138531Y-94624D01*
X138487Y-94606D01*
X138440Y-94606D01*
X138357Y-94606D01*
X138357Y-94468D01*
X138448Y-94468D01*
X138492Y-94450D01*
X138525Y-94417D01*
X138543Y-94373D01*
X138543Y-94326D01*
X138543Y-93854D01*
X138525Y-93810D01*
X138492Y-93777D01*
X138448Y-93758D01*
X138401Y-93758D01*
X137929Y-93758D01*
X137885Y-93776D01*
X137852Y-93810D01*
X137834Y-93854D01*
X137834Y-93901D01*
X137834Y-94373D01*
X137852Y-94417D01*
X137885Y-94450D01*
X137929Y-94468D01*
X137976Y-94468D01*
X138020Y-94468D01*
X138020Y-94606D01*
X137890Y-94606D01*
X137846Y-94624D01*
X137813Y-94658D01*
X137795Y-94701D01*
X137795Y-94749D01*
X137795Y-95099D01*
X137813Y-95142D01*
X137846Y-95176D01*
X137890Y-95194D01*
X137937Y-95194D01*
X138487Y-95194D01*
X138531Y-95176D01*
X138564Y-95143D01*
X138582Y-95099D01*
X138582Y-95052D01*
X138582Y-95254D01*
X138513Y-95225D01*
X138414Y-95225D01*
X138301Y-95225D01*
X138238Y-95288D01*
X138238Y-95600D01*
X138651Y-95600D01*
X138713Y-95538D01*
X138714Y-95426D01*
X138714Y-95875D01*
X138713Y-95763D01*
X138651Y-95700D01*
X138238Y-95700D01*
X138238Y-96013D01*
X138301Y-96075D01*
X138414Y-96075D01*
X138513Y-96075D01*
X138605Y-96037D01*
X138676Y-95967D01*
X138714Y-95875D01*
X138714Y-96957D01*
X138138Y-96957D01*
X138138Y-96013D01*
X138138Y-95700D01*
X138138Y-95600D01*
X138138Y-95288D01*
X138076Y-95225D01*
X137963Y-95225D01*
X137864Y-95225D01*
X137772Y-95263D01*
X137701Y-95334D01*
X137663Y-95426D01*
X137663Y-95538D01*
X137726Y-95600D01*
X138138Y-95600D01*
X138138Y-95700D01*
X137726Y-95700D01*
X137663Y-95763D01*
X137663Y-95875D01*
X137701Y-95967D01*
X137772Y-96037D01*
X137864Y-96075D01*
X137963Y-96075D01*
X138076Y-96075D01*
X138138Y-96013D01*
X138138Y-96957D01*
X137532Y-96957D01*
X137532Y-95875D01*
X137532Y-95426D01*
X137494Y-95334D01*
X137424Y-95263D01*
X137401Y-95254D01*
X137401Y-95052D01*
X137401Y-94702D01*
X137383Y-94658D01*
X137350Y-94624D01*
X137306Y-94606D01*
X137259Y-94606D01*
X137176Y-94606D01*
X137176Y-94468D01*
X137267Y-94468D01*
X137311Y-94450D01*
X137344Y-94417D01*
X137362Y-94373D01*
X137362Y-94326D01*
X137362Y-93854D01*
X137344Y-93810D01*
X137311Y-93777D01*
X137267Y-93758D01*
X137220Y-93758D01*
X136748Y-93758D01*
X136704Y-93776D01*
X136671Y-93810D01*
X136652Y-93854D01*
X136652Y-93901D01*
X136652Y-94373D01*
X136671Y-94417D01*
X136704Y-94450D01*
X136748Y-94468D01*
X136795Y-94468D01*
X136838Y-94468D01*
X136838Y-94606D01*
X136709Y-94606D01*
X136665Y-94624D01*
X136632Y-94658D01*
X136613Y-94701D01*
X136613Y-94749D01*
X136613Y-95099D01*
X136632Y-95142D01*
X136665Y-95176D01*
X136709Y-95194D01*
X136756Y-95194D01*
X137306Y-95194D01*
X137350Y-95176D01*
X137383Y-95143D01*
X137401Y-95099D01*
X137401Y-95052D01*
X137401Y-95254D01*
X137332Y-95225D01*
X137233Y-95225D01*
X137120Y-95225D01*
X137057Y-95288D01*
X137057Y-95600D01*
X137470Y-95600D01*
X137532Y-95538D01*
X137532Y-95426D01*
X137532Y-95875D01*
X137532Y-95763D01*
X137470Y-95700D01*
X137057Y-95700D01*
X137057Y-96013D01*
X137120Y-96075D01*
X137233Y-96075D01*
X137332Y-96075D01*
X137424Y-96037D01*
X137494Y-95967D01*
X137532Y-95875D01*
X137532Y-96957D01*
X136957Y-96957D01*
X136957Y-96013D01*
X136957Y-95700D01*
X136957Y-95600D01*
X136957Y-95288D01*
X136895Y-95225D01*
X136782Y-95225D01*
X136682Y-95225D01*
X136591Y-95263D01*
X136520Y-95334D01*
X136482Y-95426D01*
X136482Y-95538D01*
X136545Y-95600D01*
X136957Y-95600D01*
X136957Y-95700D01*
X136545Y-95700D01*
X136482Y-95763D01*
X136482Y-95875D01*
X136520Y-95967D01*
X136591Y-96037D01*
X136682Y-96075D01*
X136782Y-96075D01*
X136895Y-96075D01*
X136957Y-96013D01*
X136957Y-96957D01*
X135306Y-96957D01*
X135306Y-94979D01*
X135306Y-93979D01*
X135295Y-93760D01*
X135233Y-93609D01*
X135137Y-93582D01*
X134822Y-93897D01*
X135137Y-94212D01*
X135233Y-94185D01*
X135306Y-93979D01*
X135306Y-94979D01*
X135295Y-94760D01*
X135233Y-94609D01*
X135137Y-94582D01*
X134822Y-94897D01*
X135137Y-95212D01*
X135233Y-95185D01*
X135306Y-94979D01*
X135306Y-96957D01*
X132963Y-96957D01*
X132963Y-82018D01*
X154438Y-82018D01*
X154438Y-85820D01*
X154432Y-85814D01*
X154409Y-85805D01*
X154409Y-85603D01*
X154409Y-85253D01*
X154391Y-85209D01*
X154358Y-85176D01*
X154314Y-85157D01*
X154267Y-85157D01*
X153859Y-85157D01*
X153859Y-82823D01*
X153859Y-82372D01*
X153859Y-82273D01*
X153821Y-82181D01*
X153751Y-82111D01*
X153659Y-82073D01*
X153447Y-82073D01*
X153384Y-82135D01*
X153384Y-82548D01*
X153797Y-82548D01*
X153859Y-82485D01*
X153859Y-82372D01*
X153859Y-82823D01*
X153859Y-82710D01*
X153797Y-82648D01*
X153384Y-82648D01*
X153384Y-83060D01*
X153447Y-83123D01*
X153659Y-83123D01*
X153751Y-83085D01*
X153821Y-83015D01*
X153859Y-82923D01*
X153859Y-82823D01*
X153859Y-85157D01*
X153740Y-85157D01*
X153740Y-84582D01*
X153722Y-84539D01*
X153689Y-84505D01*
X153645Y-84487D01*
X153598Y-84487D01*
X153284Y-84487D01*
X153284Y-83060D01*
X153284Y-82648D01*
X153284Y-82548D01*
X153284Y-82135D01*
X153222Y-82073D01*
X153010Y-82073D01*
X152918Y-82111D01*
X152847Y-82181D01*
X152809Y-82273D01*
X152809Y-82372D01*
X152809Y-82485D01*
X152872Y-82548D01*
X153284Y-82548D01*
X153284Y-82648D01*
X152872Y-82648D01*
X152809Y-82710D01*
X152809Y-82823D01*
X152809Y-82923D01*
X152847Y-83015D01*
X152918Y-83085D01*
X153010Y-83123D01*
X153222Y-83123D01*
X153284Y-83060D01*
X153284Y-84487D01*
X152417Y-84487D01*
X152373Y-84505D01*
X152340Y-84538D01*
X152322Y-84582D01*
X152322Y-84629D01*
X152322Y-85031D01*
X152177Y-85176D01*
X151366Y-85176D01*
X151190Y-85000D01*
X151795Y-85000D01*
X151838Y-84982D01*
X151872Y-84949D01*
X151890Y-84905D01*
X151890Y-84858D01*
X151890Y-84391D01*
X152454Y-83828D01*
X152454Y-83828D01*
X152454Y-83828D01*
X152490Y-83773D01*
X152490Y-83773D01*
X152500Y-83721D01*
X152503Y-83708D01*
X152503Y-83708D01*
X152503Y-83708D01*
X152503Y-82954D01*
X152557Y-82932D01*
X152668Y-82821D01*
X152728Y-82677D01*
X152728Y-82520D01*
X152668Y-82375D01*
X152558Y-82264D01*
X152413Y-82204D01*
X152256Y-82204D01*
X152111Y-82264D01*
X152000Y-82375D01*
X151940Y-82519D01*
X151940Y-82676D01*
X152000Y-82821D01*
X152111Y-82932D01*
X152165Y-82954D01*
X152165Y-83638D01*
X151890Y-83913D01*
X151890Y-83677D01*
X151872Y-83633D01*
X151839Y-83600D01*
X151795Y-83581D01*
X151748Y-83581D01*
X151039Y-83581D01*
X150995Y-83599D01*
X150962Y-83633D01*
X150944Y-83677D01*
X150944Y-83724D01*
X150944Y-84754D01*
X150886Y-84696D01*
X150886Y-83700D01*
X150867Y-83602D01*
X150867Y-83602D01*
X150811Y-83519D01*
X150575Y-83283D01*
X150491Y-83227D01*
X150475Y-83224D01*
X150393Y-83207D01*
X150393Y-83207D01*
X150078Y-83207D01*
X149425Y-83207D01*
X148925Y-82708D01*
X148925Y-82599D01*
X148865Y-82454D01*
X148754Y-82343D01*
X148610Y-82283D01*
X148453Y-82283D01*
X148308Y-82343D01*
X148197Y-82453D01*
X148137Y-82598D01*
X148137Y-82755D01*
X148197Y-82899D01*
X148308Y-83010D01*
X148452Y-83070D01*
X148562Y-83071D01*
X149137Y-83646D01*
X149174Y-83671D01*
X149172Y-83677D01*
X149172Y-83724D01*
X149172Y-84905D01*
X149190Y-84949D01*
X149223Y-84982D01*
X149267Y-85000D01*
X149314Y-85000D01*
X149720Y-85000D01*
X146307Y-88413D01*
X146223Y-88413D01*
X148308Y-86328D01*
X148345Y-86273D01*
X148357Y-86209D01*
X148357Y-84311D01*
X148347Y-84257D01*
X148347Y-83677D01*
X148329Y-83633D01*
X148295Y-83600D01*
X148252Y-83581D01*
X148204Y-83581D01*
X147496Y-83581D01*
X147452Y-83599D01*
X147418Y-83633D01*
X147400Y-83677D01*
X147400Y-83724D01*
X147400Y-84905D01*
X147418Y-84949D01*
X147452Y-84982D01*
X147495Y-85000D01*
X147543Y-85000D01*
X148020Y-85000D01*
X148020Y-86139D01*
X145981Y-88177D01*
X145702Y-88177D01*
X145760Y-88119D01*
X145798Y-88029D01*
X147031Y-86795D01*
X147087Y-86712D01*
X147087Y-86712D01*
X147107Y-86614D01*
X147107Y-83649D01*
X147685Y-83071D01*
X147830Y-83071D01*
X147873Y-83053D01*
X147907Y-83019D01*
X147925Y-82975D01*
X147925Y-82928D01*
X147925Y-82378D01*
X147907Y-82334D01*
X147873Y-82301D01*
X147830Y-82283D01*
X147782Y-82283D01*
X147232Y-82283D01*
X147189Y-82301D01*
X147155Y-82334D01*
X147137Y-82378D01*
X147137Y-82425D01*
X147137Y-82893D01*
X146668Y-83361D01*
X146613Y-83445D01*
X146609Y-83461D01*
X146593Y-83543D01*
X146593Y-83543D01*
X146593Y-86507D01*
X146575Y-86525D01*
X146575Y-84858D01*
X146575Y-83677D01*
X146557Y-83633D01*
X146524Y-83600D01*
X146480Y-83581D01*
X146433Y-83581D01*
X145724Y-83581D01*
X145680Y-83599D01*
X145647Y-83633D01*
X145629Y-83677D01*
X145629Y-83724D01*
X145629Y-84905D01*
X145647Y-84949D01*
X145680Y-84982D01*
X145724Y-85000D01*
X145771Y-85000D01*
X146480Y-85000D01*
X146523Y-84982D01*
X146557Y-84949D01*
X146575Y-84905D01*
X146575Y-84858D01*
X146575Y-86525D01*
X145435Y-87666D01*
X145345Y-87703D01*
X145262Y-87786D01*
X145217Y-87894D01*
X145217Y-88010D01*
X145262Y-88119D01*
X145320Y-88177D01*
X144814Y-88177D01*
X144814Y-84311D01*
X144814Y-83050D01*
X144801Y-82985D01*
X144765Y-82930D01*
X144566Y-82732D01*
X144566Y-82378D01*
X144548Y-82334D01*
X144515Y-82301D01*
X144471Y-82283D01*
X144424Y-82283D01*
X144074Y-82283D01*
X144030Y-82301D01*
X143996Y-82334D01*
X143978Y-82378D01*
X143978Y-82425D01*
X143978Y-82975D01*
X143996Y-83019D01*
X144030Y-83052D01*
X144073Y-83071D01*
X144121Y-83071D01*
X144427Y-83071D01*
X144476Y-83120D01*
X144476Y-83581D01*
X143952Y-83581D01*
X143909Y-83599D01*
X143875Y-83633D01*
X143857Y-83677D01*
X143857Y-83724D01*
X143857Y-84905D01*
X143875Y-84949D01*
X143908Y-84982D01*
X143952Y-85000D01*
X143999Y-85000D01*
X144708Y-85000D01*
X144752Y-84982D01*
X144785Y-84949D01*
X144803Y-84905D01*
X144803Y-84858D01*
X144803Y-84364D01*
X144814Y-84311D01*
X144814Y-88177D01*
X140486Y-88177D01*
X141241Y-87422D01*
X141241Y-87422D01*
X141241Y-87422D01*
X141278Y-87367D01*
X141290Y-87303D01*
X141290Y-84311D01*
X141280Y-84257D01*
X141280Y-83677D01*
X141262Y-83633D01*
X141262Y-83633D01*
X142103Y-83633D01*
X142085Y-83677D01*
X142085Y-83724D01*
X142085Y-84905D01*
X142103Y-84949D01*
X142137Y-84982D01*
X142180Y-85000D01*
X142228Y-85000D01*
X142936Y-85000D01*
X142980Y-84982D01*
X143014Y-84949D01*
X143032Y-84905D01*
X143032Y-84858D01*
X143032Y-83677D01*
X143014Y-83633D01*
X142980Y-83600D01*
X142937Y-83581D01*
X142889Y-83581D01*
X142856Y-83581D01*
X143367Y-83071D01*
X143371Y-83071D01*
X143721Y-83071D01*
X143764Y-83053D01*
X143798Y-83019D01*
X143816Y-82975D01*
X143816Y-82928D01*
X143816Y-82378D01*
X143798Y-82334D01*
X143765Y-82301D01*
X143721Y-82283D01*
X143674Y-82283D01*
X143324Y-82283D01*
X143280Y-82301D01*
X143246Y-82334D01*
X143228Y-82378D01*
X143228Y-82425D01*
X143228Y-82732D01*
X142665Y-83295D01*
X141492Y-83295D01*
X141492Y-82928D01*
X141492Y-82378D01*
X141474Y-82334D01*
X141440Y-82301D01*
X141397Y-82283D01*
X141349Y-82283D01*
X140799Y-82283D01*
X140756Y-82301D01*
X140722Y-82334D01*
X140704Y-82378D01*
X140704Y-82425D01*
X140704Y-82975D01*
X140722Y-83019D01*
X140755Y-83052D01*
X140799Y-83071D01*
X140846Y-83071D01*
X141396Y-83071D01*
X141440Y-83053D01*
X141474Y-83019D01*
X141492Y-82975D01*
X141492Y-82928D01*
X141492Y-83295D01*
X139705Y-83295D01*
X139745Y-83269D01*
X139965Y-83048D01*
X140019Y-83070D01*
X140176Y-83071D01*
X140321Y-83011D01*
X140432Y-82900D01*
X140492Y-82755D01*
X140492Y-82599D01*
X140432Y-82454D01*
X140321Y-82343D01*
X140177Y-82283D01*
X140020Y-82283D01*
X139875Y-82343D01*
X139764Y-82453D01*
X139704Y-82598D01*
X139704Y-82755D01*
X139727Y-82809D01*
X139556Y-82980D01*
X139351Y-82980D01*
X139432Y-82900D01*
X139492Y-82755D01*
X139492Y-82599D01*
X139432Y-82454D01*
X139321Y-82343D01*
X139177Y-82283D01*
X139020Y-82283D01*
X138875Y-82343D01*
X138764Y-82453D01*
X138704Y-82598D01*
X138704Y-82755D01*
X138727Y-82809D01*
X138477Y-83059D01*
X138204Y-83059D01*
X138321Y-83011D01*
X138432Y-82900D01*
X138492Y-82755D01*
X138492Y-82599D01*
X138432Y-82454D01*
X138321Y-82343D01*
X138177Y-82283D01*
X138020Y-82283D01*
X137875Y-82343D01*
X137764Y-82453D01*
X137704Y-82598D01*
X137704Y-82755D01*
X137727Y-82809D01*
X136251Y-84285D01*
X136219Y-84333D01*
X136219Y-83795D01*
X136965Y-83048D01*
X137019Y-83070D01*
X137176Y-83071D01*
X137321Y-83011D01*
X137432Y-82900D01*
X137492Y-82755D01*
X137492Y-82599D01*
X137432Y-82454D01*
X137321Y-82343D01*
X137177Y-82283D01*
X137020Y-82283D01*
X136875Y-82343D01*
X136764Y-82453D01*
X136704Y-82598D01*
X136704Y-82755D01*
X136727Y-82809D01*
X135931Y-83605D01*
X135909Y-83638D01*
X135909Y-83105D01*
X135965Y-83048D01*
X136019Y-83070D01*
X136176Y-83071D01*
X136321Y-83011D01*
X136432Y-82900D01*
X136492Y-82755D01*
X136492Y-82599D01*
X136432Y-82454D01*
X136321Y-82343D01*
X136177Y-82283D01*
X136020Y-82283D01*
X135875Y-82343D01*
X135764Y-82453D01*
X135704Y-82598D01*
X135704Y-82755D01*
X135727Y-82809D01*
X135621Y-82915D01*
X135584Y-82970D01*
X135571Y-83035D01*
X135571Y-84641D01*
X135532Y-84625D01*
X135485Y-84625D01*
X135308Y-84625D01*
X135265Y-84643D01*
X135222Y-84625D01*
X135175Y-84625D01*
X134998Y-84625D01*
X134954Y-84643D01*
X134921Y-84676D01*
X134903Y-84720D01*
X134903Y-84767D01*
X134903Y-85554D01*
X134921Y-85598D01*
X134941Y-85619D01*
X134941Y-85756D01*
X134892Y-85746D01*
X134801Y-85746D01*
X134781Y-85726D01*
X134737Y-85708D01*
X134690Y-85708D01*
X133903Y-85708D01*
X133859Y-85726D01*
X133826Y-85759D01*
X133808Y-85803D01*
X133808Y-85850D01*
X133808Y-85852D01*
X133790Y-85835D01*
X133790Y-84715D01*
X135217Y-83288D01*
X135217Y-83288D01*
X135217Y-83288D01*
X135254Y-83233D01*
X135254Y-83233D01*
X135264Y-83182D01*
X135267Y-83169D01*
X135267Y-83169D01*
X135267Y-83169D01*
X135267Y-83033D01*
X135321Y-83011D01*
X135432Y-82900D01*
X135492Y-82755D01*
X135492Y-82599D01*
X135432Y-82454D01*
X135321Y-82343D01*
X135177Y-82283D01*
X135020Y-82283D01*
X134875Y-82343D01*
X134764Y-82453D01*
X134704Y-82598D01*
X134704Y-82755D01*
X134764Y-82899D01*
X134875Y-83010D01*
X134929Y-83033D01*
X134929Y-83099D01*
X134228Y-83800D01*
X134254Y-83761D01*
X134267Y-83696D01*
X134267Y-83033D01*
X134321Y-83011D01*
X134432Y-82900D01*
X134492Y-82755D01*
X134492Y-82599D01*
X134432Y-82454D01*
X134321Y-82343D01*
X134177Y-82283D01*
X134020Y-82283D01*
X133875Y-82343D01*
X133764Y-82453D01*
X133704Y-82598D01*
X133704Y-82755D01*
X133764Y-82899D01*
X133875Y-83010D01*
X133929Y-83033D01*
X133929Y-83626D01*
X133266Y-84290D01*
X133229Y-84344D01*
X133216Y-84409D01*
X133216Y-86062D01*
X133229Y-86127D01*
X133266Y-86182D01*
X133749Y-86665D01*
X133804Y-86701D01*
X133825Y-86706D01*
X133808Y-86747D01*
X133808Y-86794D01*
X133808Y-86971D01*
X133826Y-87015D01*
X133828Y-87017D01*
X133826Y-87019D01*
X133808Y-87063D01*
X133808Y-87110D01*
X133808Y-87287D01*
X133821Y-87320D01*
X133769Y-87320D01*
X133705Y-87333D01*
X133650Y-87370D01*
X133187Y-87833D01*
X133151Y-87888D01*
X133138Y-87952D01*
X133138Y-94385D01*
X133151Y-94450D01*
X133187Y-94505D01*
X133381Y-94698D01*
X133333Y-94813D01*
X133332Y-94980D01*
X133396Y-95134D01*
X133514Y-95252D01*
X133668Y-95316D01*
X133834Y-95316D01*
X133988Y-95252D01*
X134106Y-95135D01*
X134151Y-95027D01*
X134151Y-95259D01*
X133903Y-95507D01*
X133835Y-95478D01*
X133669Y-95478D01*
X133514Y-95542D01*
X133397Y-95660D01*
X133333Y-95813D01*
X133332Y-95980D01*
X133396Y-96134D01*
X133514Y-96252D01*
X133668Y-96316D01*
X133834Y-96316D01*
X133988Y-96252D01*
X134106Y-96135D01*
X134170Y-95981D01*
X134170Y-95814D01*
X134142Y-95745D01*
X134346Y-95542D01*
X134333Y-95573D01*
X134333Y-95621D01*
X134333Y-96221D01*
X134351Y-96264D01*
X134384Y-96298D01*
X134428Y-96316D01*
X134475Y-96316D01*
X135075Y-96316D01*
X135119Y-96298D01*
X135152Y-96265D01*
X135170Y-96221D01*
X135170Y-96174D01*
X135170Y-95574D01*
X135152Y-95530D01*
X135119Y-95496D01*
X135075Y-95478D01*
X135028Y-95478D01*
X134428Y-95478D01*
X134396Y-95491D01*
X134439Y-95448D01*
X134476Y-95393D01*
X134478Y-95384D01*
X134670Y-95452D01*
X134888Y-95441D01*
X135039Y-95378D01*
X135067Y-95283D01*
X134751Y-94968D01*
X134746Y-94973D01*
X134675Y-94903D01*
X134681Y-94897D01*
X134675Y-94892D01*
X134746Y-94821D01*
X134751Y-94826D01*
X135067Y-94511D01*
X135039Y-94416D01*
X134991Y-94399D01*
X135039Y-94378D01*
X135067Y-94283D01*
X134751Y-93968D01*
X134746Y-93973D01*
X134675Y-93903D01*
X134681Y-93897D01*
X134675Y-93892D01*
X134746Y-93821D01*
X134751Y-93826D01*
X135067Y-93511D01*
X135039Y-93416D01*
X134833Y-93342D01*
X134615Y-93353D01*
X134489Y-93405D01*
X134489Y-93227D01*
X134514Y-93252D01*
X134668Y-93316D01*
X134834Y-93316D01*
X134988Y-93252D01*
X135106Y-93135D01*
X135170Y-92981D01*
X135170Y-92814D01*
X135107Y-92660D01*
X134989Y-92542D01*
X134835Y-92478D01*
X134669Y-92478D01*
X134514Y-92542D01*
X134489Y-92567D01*
X134489Y-92227D01*
X134514Y-92252D01*
X134668Y-92316D01*
X134834Y-92316D01*
X134988Y-92252D01*
X135106Y-92135D01*
X135170Y-91981D01*
X135170Y-91814D01*
X135107Y-91660D01*
X134989Y-91542D01*
X134835Y-91478D01*
X134669Y-91478D01*
X134514Y-91542D01*
X134489Y-91567D01*
X134489Y-88327D01*
X134712Y-88327D01*
X134712Y-91023D01*
X134725Y-91088D01*
X134762Y-91143D01*
X135185Y-91566D01*
X135185Y-91634D01*
X135198Y-91698D01*
X135234Y-91753D01*
X136652Y-93171D01*
X136652Y-93547D01*
X136671Y-93591D01*
X136704Y-93624D01*
X136748Y-93642D01*
X136795Y-93642D01*
X137267Y-93642D01*
X137311Y-93624D01*
X137344Y-93591D01*
X137362Y-93547D01*
X137362Y-93500D01*
X137362Y-93028D01*
X137344Y-92984D01*
X137311Y-92951D01*
X137267Y-92932D01*
X137220Y-92932D01*
X136891Y-92932D01*
X136872Y-92913D01*
X136929Y-92924D01*
X137587Y-92924D01*
X137834Y-93171D01*
X137834Y-93547D01*
X137852Y-93591D01*
X137885Y-93624D01*
X137929Y-93642D01*
X137976Y-93642D01*
X138448Y-93642D01*
X138492Y-93624D01*
X138525Y-93591D01*
X138543Y-93547D01*
X138543Y-93500D01*
X138543Y-93028D01*
X138525Y-92984D01*
X138492Y-92951D01*
X138448Y-92932D01*
X138401Y-92932D01*
X138072Y-92932D01*
X137776Y-92636D01*
X137721Y-92599D01*
X137657Y-92587D01*
X137414Y-92587D01*
X137414Y-91170D01*
X137414Y-90719D01*
X137414Y-90619D01*
X137375Y-90528D01*
X137305Y-90457D01*
X137213Y-90419D01*
X137101Y-90419D01*
X137039Y-90482D01*
X137039Y-90894D01*
X137351Y-90894D01*
X137414Y-90832D01*
X137414Y-90719D01*
X137414Y-91170D01*
X137414Y-91057D01*
X137351Y-90994D01*
X137039Y-90994D01*
X137039Y-91407D01*
X137101Y-91469D01*
X137213Y-91469D01*
X137305Y-91431D01*
X137375Y-91361D01*
X137414Y-91269D01*
X137414Y-91170D01*
X137414Y-92587D01*
X137020Y-92587D01*
X137020Y-90186D01*
X137020Y-90073D01*
X136957Y-90010D01*
X136645Y-90010D01*
X136645Y-90423D01*
X136677Y-90455D01*
X136672Y-90457D01*
X136602Y-90528D01*
X136564Y-90619D01*
X136564Y-90719D01*
X136564Y-90832D01*
X136626Y-90894D01*
X136939Y-90894D01*
X136939Y-90482D01*
X136906Y-90449D01*
X136911Y-90447D01*
X136982Y-90377D01*
X137020Y-90285D01*
X137020Y-90186D01*
X137020Y-92587D01*
X136999Y-92587D01*
X136939Y-92527D01*
X136939Y-91407D01*
X136939Y-90994D01*
X136626Y-90994D01*
X136564Y-91057D01*
X136564Y-91170D01*
X136564Y-91269D01*
X136602Y-91361D01*
X136672Y-91431D01*
X136764Y-91469D01*
X136876Y-91469D01*
X136939Y-91407D01*
X136939Y-92527D01*
X136359Y-91947D01*
X136436Y-91947D01*
X136544Y-91902D01*
X136626Y-91820D01*
X136671Y-91712D01*
X136671Y-91595D01*
X136627Y-91487D01*
X136545Y-91405D01*
X136545Y-90423D01*
X136545Y-90010D01*
X136232Y-90010D01*
X136170Y-90073D01*
X136170Y-90186D01*
X136170Y-90285D01*
X136208Y-90377D01*
X136279Y-90447D01*
X136370Y-90485D01*
X136482Y-90485D01*
X136545Y-90423D01*
X136545Y-91405D01*
X136544Y-91404D01*
X136436Y-91359D01*
X136436Y-91338D01*
X136437Y-91338D01*
X136481Y-91320D01*
X136514Y-91287D01*
X136533Y-91243D01*
X136533Y-91196D01*
X136533Y-90646D01*
X136515Y-90602D01*
X136481Y-90569D01*
X136437Y-90551D01*
X136390Y-90550D01*
X136263Y-90550D01*
X136060Y-90347D01*
X136087Y-90336D01*
X136121Y-90303D01*
X136139Y-90259D01*
X136139Y-90212D01*
X136139Y-89662D01*
X136121Y-89618D01*
X136087Y-89584D01*
X136044Y-89566D01*
X136043Y-89566D01*
X136043Y-89416D01*
X136058Y-89416D01*
X136067Y-89438D01*
X136138Y-89509D01*
X136212Y-89540D01*
X136208Y-89543D01*
X136170Y-89635D01*
X136170Y-89735D01*
X136170Y-89848D01*
X136232Y-89910D01*
X136545Y-89910D01*
X136545Y-89902D01*
X136645Y-89902D01*
X136645Y-89910D01*
X136957Y-89910D01*
X137020Y-89848D01*
X137020Y-89735D01*
X137020Y-89635D01*
X136992Y-89567D01*
X137221Y-89740D01*
X137238Y-89749D01*
X137258Y-89762D01*
X137270Y-89764D01*
X137280Y-89769D01*
X137300Y-89770D01*
X137322Y-89775D01*
X138031Y-89775D01*
X138088Y-89763D01*
X138018Y-89833D01*
X137973Y-89941D01*
X137973Y-90058D01*
X138018Y-90166D01*
X138101Y-90249D01*
X138177Y-90280D01*
X138177Y-90669D01*
X138047Y-90669D01*
X138004Y-90687D01*
X137970Y-90721D01*
X137952Y-90764D01*
X137952Y-90812D01*
X137952Y-90942D01*
X137597Y-91297D01*
X137560Y-91352D01*
X137547Y-91417D01*
X137547Y-91889D01*
X137560Y-91954D01*
X137597Y-92009D01*
X138541Y-92954D01*
X138541Y-92954D01*
X138596Y-92990D01*
X138661Y-93003D01*
X139025Y-93003D01*
X139015Y-93028D01*
X139015Y-93075D01*
X139015Y-93547D01*
X139033Y-93591D01*
X139066Y-93624D01*
X139110Y-93642D01*
X139157Y-93642D01*
X139426Y-93642D01*
X139542Y-93758D01*
X139110Y-93758D01*
X139066Y-93776D01*
X139033Y-93810D01*
X139015Y-93854D01*
X139015Y-93901D01*
X139015Y-94373D01*
X139033Y-94417D01*
X139066Y-94450D01*
X139110Y-94468D01*
X139157Y-94468D01*
X139201Y-94468D01*
X139201Y-94606D01*
X139071Y-94606D01*
X139027Y-94624D01*
X138994Y-94658D01*
X138976Y-94701D01*
X138976Y-94749D01*
X138976Y-95099D01*
X138994Y-95142D01*
X139027Y-95176D01*
X139071Y-95194D01*
X139118Y-95194D01*
X139668Y-95194D01*
X139712Y-95176D01*
X139745Y-95143D01*
X139763Y-95099D01*
X139763Y-95052D01*
X139763Y-94702D01*
X139745Y-94658D01*
X139712Y-94624D01*
X139668Y-94606D01*
X139621Y-94606D01*
X139538Y-94606D01*
X139538Y-94468D01*
X139629Y-94468D01*
X139673Y-94450D01*
X139706Y-94417D01*
X139724Y-94373D01*
X139724Y-94326D01*
X139724Y-93941D01*
X139802Y-94018D01*
X139802Y-94724D01*
X139802Y-94724D01*
X139817Y-94800D01*
X139860Y-94864D01*
X140332Y-95336D01*
X140332Y-95336D01*
X140371Y-95362D01*
X140374Y-95364D01*
X140292Y-95445D01*
X140232Y-95590D01*
X140232Y-95747D01*
X140291Y-95892D01*
X140402Y-96003D01*
X140547Y-96063D01*
X140703Y-96063D01*
X140848Y-96003D01*
X140959Y-95892D01*
X141019Y-95747D01*
X141019Y-95591D01*
X140960Y-95446D01*
X140908Y-95394D01*
X141343Y-95394D01*
X141292Y-95445D01*
X141232Y-95590D01*
X141232Y-95747D01*
X141291Y-95892D01*
X141402Y-96003D01*
X141547Y-96063D01*
X141703Y-96063D01*
X141848Y-96003D01*
X141959Y-95892D01*
X142019Y-95747D01*
X142019Y-95591D01*
X141960Y-95446D01*
X141908Y-95394D01*
X142173Y-95394D01*
X142165Y-95396D01*
X142096Y-95593D01*
X142107Y-95802D01*
X142165Y-95942D01*
X142258Y-95966D01*
X142555Y-95669D01*
X142549Y-95663D01*
X142620Y-95593D01*
X142625Y-95598D01*
X142631Y-95593D01*
X142702Y-95663D01*
X142696Y-95669D01*
X142993Y-95966D01*
X143086Y-95942D01*
X143155Y-95745D01*
X143144Y-95536D01*
X143086Y-95396D01*
X143078Y-95394D01*
X143232Y-95394D01*
X143232Y-95417D01*
X143232Y-95967D01*
X143250Y-96011D01*
X143283Y-96045D01*
X143327Y-96063D01*
X143374Y-96063D01*
X143924Y-96063D01*
X143968Y-96045D01*
X144001Y-96011D01*
X144019Y-95968D01*
X144019Y-95920D01*
X144019Y-95370D01*
X144001Y-95327D01*
X143968Y-95293D01*
X143924Y-95275D01*
X143882Y-95275D01*
X143882Y-95196D01*
X143882Y-94882D01*
X143924Y-94882D01*
X143968Y-94864D01*
X144001Y-94830D01*
X144019Y-94786D01*
X144019Y-94739D01*
X144019Y-94189D01*
X144001Y-94145D01*
X143968Y-94112D01*
X143924Y-94094D01*
X143877Y-94094D01*
X143327Y-94094D01*
X143283Y-94112D01*
X143250Y-94145D01*
X143232Y-94189D01*
X143232Y-94236D01*
X143232Y-94786D01*
X143250Y-94830D01*
X143283Y-94863D01*
X143327Y-94882D01*
X143369Y-94882D01*
X143369Y-94999D01*
X143155Y-94999D01*
X143155Y-94563D01*
X143144Y-94355D01*
X143086Y-94215D01*
X143019Y-94197D01*
X143019Y-92835D01*
X142960Y-92690D01*
X142849Y-92579D01*
X142704Y-92519D01*
X142547Y-92519D01*
X142493Y-92541D01*
X141290Y-91339D01*
X141290Y-91082D01*
X141280Y-91029D01*
X141280Y-90448D01*
X141262Y-90405D01*
X141228Y-90371D01*
X141185Y-90353D01*
X141137Y-90353D01*
X140429Y-90353D01*
X140385Y-90371D01*
X140352Y-90405D01*
X140333Y-90448D01*
X140333Y-90495D01*
X140333Y-91677D01*
X140351Y-91720D01*
X140385Y-91754D01*
X140429Y-91772D01*
X140476Y-91772D01*
X141184Y-91772D01*
X141228Y-91754D01*
X142254Y-92780D01*
X142232Y-92834D01*
X142232Y-92991D01*
X142291Y-93136D01*
X142402Y-93247D01*
X142547Y-93307D01*
X142703Y-93307D01*
X142848Y-93247D01*
X142959Y-93136D01*
X143019Y-92992D01*
X143019Y-92835D01*
X143019Y-94197D01*
X142993Y-94191D01*
X142923Y-94261D01*
X142923Y-94120D01*
X142898Y-94027D01*
X142701Y-93958D01*
X142493Y-93969D01*
X142353Y-94027D01*
X142328Y-94120D01*
X142625Y-94417D01*
X142923Y-94120D01*
X142923Y-94261D01*
X142696Y-94488D01*
X142993Y-94785D01*
X143086Y-94760D01*
X143155Y-94563D01*
X143155Y-94999D01*
X142776Y-94999D01*
X142898Y-94948D01*
X142923Y-94855D01*
X142625Y-94558D01*
X142555Y-94629D01*
X142555Y-94488D01*
X142258Y-94191D01*
X142165Y-94215D01*
X142096Y-94412D01*
X142107Y-94620D01*
X142165Y-94760D01*
X142258Y-94785D01*
X142555Y-94488D01*
X142555Y-94629D01*
X142328Y-94855D01*
X142353Y-94948D01*
X142496Y-94999D01*
X142019Y-94999D01*
X142019Y-94410D01*
X141960Y-94265D01*
X141849Y-94154D01*
X141704Y-94094D01*
X141547Y-94094D01*
X141403Y-94154D01*
X141292Y-94264D01*
X141232Y-94409D01*
X141232Y-94566D01*
X141291Y-94711D01*
X141402Y-94821D01*
X141547Y-94882D01*
X141703Y-94882D01*
X141848Y-94822D01*
X141959Y-94711D01*
X142019Y-94566D01*
X142019Y-94410D01*
X142019Y-94999D01*
X140554Y-94999D01*
X140197Y-94642D01*
X140197Y-93937D01*
X140182Y-93861D01*
X140182Y-93861D01*
X140139Y-93797D01*
X140139Y-93797D01*
X139724Y-93382D01*
X139724Y-93192D01*
X140457Y-93924D01*
X140457Y-94131D01*
X140403Y-94154D01*
X140292Y-94264D01*
X140232Y-94409D01*
X140232Y-94566D01*
X140291Y-94711D01*
X140402Y-94821D01*
X140547Y-94882D01*
X140703Y-94882D01*
X140848Y-94822D01*
X140959Y-94711D01*
X141019Y-94566D01*
X141019Y-94410D01*
X140960Y-94265D01*
X140849Y-94154D01*
X140794Y-94131D01*
X140794Y-93854D01*
X140782Y-93789D01*
X140745Y-93734D01*
X140092Y-93082D01*
X141232Y-93082D01*
X141232Y-93211D01*
X141250Y-93255D01*
X141283Y-93289D01*
X141327Y-93307D01*
X141374Y-93307D01*
X141924Y-93307D01*
X141968Y-93289D01*
X142001Y-93255D01*
X142019Y-93212D01*
X142019Y-93164D01*
X142019Y-92614D01*
X142001Y-92571D01*
X141968Y-92537D01*
X141924Y-92519D01*
X141877Y-92519D01*
X141327Y-92519D01*
X141283Y-92537D01*
X141250Y-92570D01*
X141232Y-92614D01*
X141232Y-92661D01*
X141232Y-92744D01*
X140069Y-92744D01*
X138919Y-91594D01*
X138864Y-91557D01*
X138800Y-91544D01*
X138740Y-91544D01*
X138740Y-91515D01*
X138722Y-91471D01*
X138688Y-91437D01*
X138645Y-91419D01*
X138597Y-91419D01*
X138047Y-91419D01*
X138004Y-91437D01*
X137970Y-91471D01*
X137952Y-91514D01*
X137952Y-91562D01*
X137952Y-91886D01*
X137885Y-91819D01*
X137885Y-91487D01*
X138115Y-91257D01*
X138645Y-91257D01*
X138688Y-91239D01*
X138722Y-91206D01*
X138740Y-91162D01*
X138740Y-91115D01*
X138740Y-90765D01*
X138722Y-90721D01*
X138688Y-90687D01*
X138645Y-90669D01*
X138597Y-90669D01*
X138515Y-90669D01*
X138515Y-90168D01*
X138516Y-90166D01*
X138561Y-90058D01*
X138561Y-89941D01*
X138517Y-89833D01*
X138434Y-89750D01*
X138326Y-89706D01*
X138209Y-89706D01*
X138133Y-89737D01*
X138150Y-89725D01*
X138975Y-88901D01*
X138975Y-91401D01*
X138993Y-91445D01*
X139027Y-91478D01*
X139070Y-91496D01*
X139118Y-91496D01*
X139826Y-91496D01*
X139870Y-91478D01*
X139903Y-91445D01*
X139922Y-91401D01*
X139922Y-91354D01*
X139922Y-88755D01*
X139920Y-88751D01*
X146377Y-88751D01*
X146442Y-88738D01*
X146497Y-88702D01*
X150080Y-85119D01*
X150116Y-85064D01*
X150129Y-85000D01*
X150129Y-84311D01*
X150118Y-84257D01*
X150118Y-83721D01*
X150287Y-83721D01*
X150373Y-83807D01*
X150373Y-84803D01*
X150373Y-84803D01*
X150389Y-84885D01*
X150392Y-84901D01*
X150448Y-84984D01*
X151078Y-85614D01*
X151078Y-85614D01*
X151161Y-85670D01*
X151161Y-85670D01*
X151259Y-85689D01*
X152283Y-85689D01*
X152283Y-85689D01*
X152283Y-85689D01*
X152365Y-85673D01*
X152381Y-85670D01*
X152381Y-85670D01*
X152464Y-85614D01*
X152645Y-85433D01*
X153141Y-85433D01*
X153341Y-85633D01*
X153341Y-85633D01*
X153424Y-85688D01*
X153424Y-85688D01*
X153522Y-85708D01*
X153654Y-85708D01*
X153673Y-85727D01*
X153716Y-85745D01*
X153764Y-85745D01*
X154314Y-85745D01*
X154358Y-85727D01*
X154391Y-85694D01*
X154409Y-85650D01*
X154409Y-85603D01*
X154409Y-85805D01*
X154340Y-85776D01*
X154241Y-85776D01*
X154128Y-85776D01*
X154065Y-85839D01*
X154065Y-86151D01*
X154073Y-86151D01*
X154073Y-86251D01*
X154065Y-86251D01*
X154065Y-86564D01*
X154128Y-86626D01*
X154241Y-86626D01*
X154340Y-86626D01*
X154432Y-86588D01*
X154438Y-86582D01*
X154438Y-96957D01*
M02*
