G04 (created by PCBNEW (2013-may-18)-stable) date Mon 02 Feb 2015 06:47:34 PM EST*
%MOIN*%
G04 Gerber Fmt 3.4, Leading zero omitted, Abs format*
%FSLAX34Y34*%
G01*
G70*
G90*
G04 APERTURE LIST*
%ADD10C,0.00590551*%
%ADD11C,0.0787*%
%ADD12R,0.0177X0.0787*%
%ADD13R,0.0787X0.0177*%
%ADD14R,0.055X0.035*%
%ADD15R,0.035X0.055*%
%ADD16R,0.055X0.055*%
%ADD17C,0.055*%
%ADD18R,0.06X0.06*%
%ADD19C,0.06*%
%ADD20R,0.0472X0.0472*%
%ADD21R,0.0708661X0.259843*%
%ADD22R,0.0708661X0.11811*%
%ADD23R,0.11811X0.0708661*%
%ADD24R,0.251968X0.251968*%
G04 APERTURE END LIST*
G54D10*
G54D11*
X147637Y-94094D03*
X146574Y-93031D03*
X146574Y-95157D03*
X148700Y-95157D03*
X148700Y-93031D03*
G54D12*
X137313Y-88903D03*
X136998Y-88903D03*
X136683Y-88903D03*
X136368Y-88903D03*
X136053Y-88903D03*
X135738Y-88903D03*
X135423Y-88903D03*
X135108Y-88903D03*
X135110Y-85137D03*
X137320Y-85137D03*
X137000Y-85137D03*
X136680Y-85137D03*
X136370Y-85137D03*
X136050Y-85137D03*
X135740Y-85137D03*
X135420Y-85137D03*
G54D13*
X134320Y-88119D03*
X134320Y-87805D03*
X134320Y-87489D03*
X134320Y-87175D03*
X134320Y-86859D03*
X134320Y-86545D03*
X134320Y-86229D03*
X134320Y-85915D03*
X138100Y-88117D03*
X138100Y-87807D03*
X138100Y-87487D03*
X138100Y-87177D03*
X138100Y-86867D03*
X138100Y-86547D03*
X138100Y-86227D03*
X138100Y-85907D03*
G54D14*
X150393Y-93325D03*
X150393Y-94075D03*
G54D15*
X133680Y-90748D03*
X134430Y-90748D03*
X133680Y-89763D03*
X134430Y-89763D03*
G54D14*
X137480Y-90254D03*
X137480Y-91004D03*
G54D15*
X143719Y-95275D03*
X144469Y-95275D03*
G54D14*
X140551Y-94113D03*
X140551Y-94863D03*
G54D15*
X149193Y-96456D03*
X148443Y-96456D03*
X150768Y-95275D03*
X150018Y-95275D03*
G54D14*
X154251Y-93682D03*
X154251Y-92932D03*
G54D15*
X152774Y-92519D03*
X153524Y-92519D03*
X135845Y-89960D03*
X136595Y-89960D03*
X144272Y-82677D03*
X143522Y-82677D03*
G54D14*
X138582Y-89191D03*
X138582Y-89941D03*
G54D15*
X138207Y-91338D03*
X138957Y-91338D03*
G54D16*
X141098Y-82677D03*
G54D17*
X140098Y-82677D03*
X139098Y-82677D03*
X138098Y-82677D03*
X137098Y-82677D03*
X136098Y-82677D03*
X135098Y-82677D03*
X134098Y-82677D03*
G54D16*
X139295Y-94685D03*
G54D17*
X138295Y-94685D03*
X137295Y-94685D03*
X136295Y-94685D03*
G54D16*
X139295Y-95866D03*
G54D17*
X138295Y-95866D03*
X137295Y-95866D03*
X136295Y-95866D03*
G54D16*
X148531Y-82677D03*
G54D17*
X147531Y-82677D03*
G54D16*
X139066Y-93011D03*
G54D17*
X140066Y-93011D03*
G54D16*
X149893Y-82677D03*
G54D17*
X150893Y-82677D03*
G54D16*
X141732Y-92807D03*
G54D17*
X141732Y-93807D03*
G54D16*
X141732Y-95169D03*
G54D17*
X141732Y-96169D03*
G54D18*
X134751Y-95897D03*
G54D19*
X133751Y-95897D03*
X134751Y-94897D03*
X133751Y-94897D03*
X134751Y-93897D03*
X133751Y-93897D03*
X134751Y-92897D03*
X133751Y-92897D03*
X134751Y-91897D03*
X133751Y-91897D03*
G54D20*
X136830Y-91535D03*
X136004Y-91535D03*
X136830Y-93503D03*
X136004Y-93503D03*
X136830Y-92519D03*
X136004Y-92519D03*
G54D17*
X151574Y-92700D03*
X151574Y-94700D03*
X153543Y-93881D03*
X153543Y-95881D03*
X152181Y-96456D03*
X150181Y-96456D03*
X152255Y-82677D03*
X153255Y-82677D03*
G54D21*
X139763Y-90098D03*
G54D22*
X141122Y-91082D03*
X142874Y-91082D03*
X144645Y-91082D03*
X146417Y-91082D03*
X148188Y-91082D03*
X149960Y-91082D03*
X151732Y-91082D03*
G54D23*
X153346Y-90413D03*
X153346Y-86791D03*
X153346Y-88602D03*
X153346Y-84980D03*
G54D22*
X151732Y-84311D03*
X149960Y-84311D03*
X148188Y-84311D03*
X146417Y-84311D03*
X144645Y-84311D03*
X142874Y-84311D03*
X141122Y-84311D03*
G54D21*
X139763Y-85295D03*
G54D24*
X150944Y-87736D03*
M02*
