G04 #@! TF.FileFunction,Copper,L1,Top,Signal*
%FSLAX46Y46*%
G04 Gerber Fmt 4.6, Leading zero omitted, Abs format (unit mm)*
G04 Created by KiCad (PCBNEW (after 2015-may-01 BZR unknown)-product) date Sun 10 May 2015 22:33:08 EDT*
%MOMM*%
G01*
G04 APERTURE LIST*
%ADD10C,0.100000*%
%ADD11R,1.700000X3.600000*%
%ADD12R,0.750000X0.800000*%
%ADD13R,0.800000X0.750000*%
%ADD14R,1.198880X1.198880*%
%ADD15C,1.998980*%
%ADD16R,1.998980X1.998980*%
%ADD17R,1.397000X1.397000*%
%ADD18C,1.397000*%
%ADD19R,0.760000X2.400000*%
%ADD20C,0.900000*%
%ADD21R,0.900000X0.500000*%
%ADD22R,0.500000X0.900000*%
%ADD23R,6.600000X1.800000*%
%ADD24R,3.000000X1.800000*%
%ADD25R,1.800000X3.000000*%
%ADD26R,6.400000X6.400000*%
%ADD27R,1.699260X0.398780*%
%ADD28R,2.301240X1.300480*%
%ADD29R,2.202180X1.300480*%
%ADD30R,2.499360X1.800860*%
%ADD31R,1.300480X1.600200*%
%ADD32C,2.900000*%
%ADD33C,2.500000*%
%ADD34R,0.800000X1.200000*%
%ADD35R,0.600000X0.900000*%
%ADD36R,1.524000X0.762000*%
%ADD37R,1.400000X1.400000*%
%ADD38C,1.400000*%
%ADD39C,0.600000*%
%ADD40C,0.200000*%
%ADD41C,1.056000*%
%ADD42C,1.350000*%
%ADD43C,0.400000*%
%ADD44C,0.152400*%
%ADD45C,0.800000*%
G04 APERTURE END LIST*
D10*
D11*
X149400000Y-80975000D03*
X142400000Y-80975000D03*
D12*
X154900000Y-69450000D03*
X154900000Y-67950000D03*
D10*
G36*
X160828338Y-68498008D02*
X160298008Y-69028338D01*
X159732322Y-68462652D01*
X160262652Y-67932322D01*
X160828338Y-68498008D01*
X160828338Y-68498008D01*
G37*
G36*
X159767678Y-67437348D02*
X159237348Y-67967678D01*
X158671662Y-67401992D01*
X159201992Y-66871662D01*
X159767678Y-67437348D01*
X159767678Y-67437348D01*
G37*
D12*
X177350000Y-60650000D03*
X177350000Y-59150000D03*
D13*
X173350000Y-55950000D03*
X174850000Y-55950000D03*
X184250000Y-82050000D03*
X185750000Y-82050000D03*
X191450000Y-47200000D03*
X192950000Y-47200000D03*
X191800000Y-44900000D03*
X193300000Y-44900000D03*
X184050000Y-69500000D03*
X185550000Y-69500000D03*
D14*
X152050000Y-48100980D03*
X152050000Y-50199020D03*
X153850000Y-48100980D03*
X153850000Y-50199020D03*
X155550000Y-48100980D03*
X155550000Y-50199020D03*
X157350000Y-48200980D03*
X157350000Y-50299020D03*
D15*
X180260000Y-46100000D03*
D16*
X176450000Y-46100000D03*
D10*
G36*
X155993395Y-65808580D02*
X156891420Y-66706605D01*
X156442407Y-67155618D01*
X155544382Y-66257593D01*
X155993395Y-65808580D01*
X155993395Y-65808580D01*
G37*
G36*
X155357593Y-66444382D02*
X156255618Y-67342407D01*
X155806605Y-67791420D01*
X154908580Y-66893395D01*
X155357593Y-66444382D01*
X155357593Y-66444382D01*
G37*
D17*
X188390000Y-44089040D03*
D18*
X185850000Y-44210960D03*
X183310000Y-44089040D03*
D17*
X148940000Y-41539040D03*
D18*
X146400000Y-41660960D03*
X143860000Y-41539040D03*
X148920000Y-44439040D03*
X146380000Y-44560960D03*
D17*
X151460000Y-44560960D03*
D18*
X143840000Y-44439040D03*
X188370000Y-41139040D03*
X185830000Y-41260960D03*
D17*
X190910000Y-41260960D03*
D18*
X183290000Y-41139040D03*
D17*
X143289040Y-72780000D03*
D18*
X143410960Y-70240000D03*
X143289040Y-67700000D03*
X143410960Y-65160000D03*
X143289040Y-62620000D03*
X146410960Y-61170000D03*
X146289040Y-63710000D03*
X146410960Y-66250000D03*
X146289040Y-68790000D03*
X146410960Y-71330000D03*
D17*
X146289040Y-58630000D03*
D18*
X146289040Y-73870000D03*
D19*
X161730000Y-49620000D03*
X161730000Y-45810000D03*
X163000000Y-49620000D03*
X163000000Y-45810000D03*
X164270000Y-49620000D03*
X164270000Y-45810000D03*
X165540000Y-49620000D03*
X165540000Y-45810000D03*
X166810000Y-49620000D03*
X166810000Y-45810000D03*
D20*
X166920000Y-40730000D03*
X168190000Y-40730000D03*
X169460000Y-40730000D03*
X170730000Y-40730000D03*
X172000000Y-40730000D03*
X173270000Y-40730000D03*
X174540000Y-40730000D03*
X175810000Y-40730000D03*
X177080000Y-40730000D03*
X178350000Y-40730000D03*
X179620000Y-40730000D03*
X179620000Y-42000000D03*
X178350000Y-42000000D03*
X177080000Y-42000000D03*
X175810000Y-42000000D03*
X174540000Y-42000000D03*
X173270000Y-42000000D03*
X172000000Y-42000000D03*
X170730000Y-42000000D03*
X169460000Y-42000000D03*
X168190000Y-42000000D03*
X166920000Y-42000000D03*
D21*
X174400000Y-48550000D03*
X174400000Y-47050000D03*
X172150000Y-48550000D03*
X172150000Y-47050000D03*
X152100000Y-51900000D03*
X152100000Y-53400000D03*
X154000000Y-51900000D03*
X154000000Y-53400000D03*
X155600000Y-51900000D03*
X155600000Y-53400000D03*
X157550000Y-51900000D03*
X157550000Y-53400000D03*
D22*
X171600000Y-64450000D03*
X173100000Y-64450000D03*
X184200000Y-79950000D03*
X185700000Y-79950000D03*
X185950000Y-84400000D03*
X184450000Y-84400000D03*
X183950000Y-73750000D03*
X185450000Y-73750000D03*
X184000000Y-71600000D03*
X185500000Y-71600000D03*
D23*
X203200000Y-86100000D03*
D24*
X205700000Y-82650000D03*
X205700000Y-78200000D03*
X205700000Y-73700000D03*
X205700000Y-69200000D03*
X205700000Y-64700000D03*
X205700000Y-60200000D03*
X205700000Y-55700000D03*
D25*
X204000000Y-51600000D03*
X194800000Y-51600000D03*
X199400000Y-51600000D03*
X190200000Y-51600000D03*
D24*
X188500000Y-55700000D03*
X188500000Y-60200000D03*
X188500000Y-64700000D03*
X188500000Y-69200000D03*
X188500000Y-73700000D03*
X188500000Y-78200000D03*
X188500000Y-82650000D03*
D23*
X191000000Y-86100000D03*
D26*
X197200000Y-57700000D03*
D27*
X145475680Y-52175000D03*
X145475680Y-51524760D03*
X145475680Y-53475480D03*
D28*
X142575000Y-48075440D03*
D29*
X145574740Y-49774700D03*
D28*
X142575000Y-56274560D03*
D29*
X145574740Y-54575300D03*
D27*
X145475680Y-52825240D03*
D30*
X142374340Y-50775460D03*
X142374340Y-53574540D03*
D27*
X145475680Y-50874520D03*
D31*
X172899380Y-61999920D03*
X172899380Y-58200080D03*
X175200620Y-58200080D03*
X175200620Y-61999920D03*
D32*
X200000000Y-43650000D03*
D33*
X202700020Y-40949980D03*
D32*
X197299980Y-40949980D03*
X197299980Y-46350020D03*
D33*
X202700020Y-46350020D03*
D22*
X172000000Y-44300000D03*
X170500000Y-44300000D03*
D34*
X153800000Y-85400000D03*
D35*
X153800000Y-84350000D03*
D34*
X154900000Y-85400000D03*
D35*
X154900000Y-84350000D03*
D34*
X156000000Y-85400000D03*
D35*
X156000000Y-84350000D03*
D34*
X157100000Y-85400000D03*
D35*
X157100000Y-84350000D03*
D34*
X158200000Y-85400000D03*
D35*
X158200000Y-84350000D03*
D34*
X161200000Y-85400000D03*
D35*
X161200000Y-84350000D03*
D34*
X162300000Y-85400000D03*
D35*
X162300000Y-84350000D03*
D34*
X163400000Y-85400000D03*
D35*
X163400000Y-84350000D03*
D34*
X164500000Y-85400000D03*
D35*
X164500000Y-84350000D03*
D34*
X165600000Y-85400000D03*
D35*
X165600000Y-84350000D03*
D34*
X166700000Y-85400000D03*
D35*
X166700000Y-84350000D03*
D34*
X167800000Y-85400000D03*
D35*
X167800000Y-84350000D03*
D34*
X153800000Y-72000000D03*
D35*
X153800000Y-73000000D03*
D34*
X154900000Y-72000000D03*
D35*
X154900000Y-73000000D03*
D34*
X156000000Y-72000000D03*
D35*
X156000000Y-73000000D03*
D34*
X157100000Y-72000000D03*
D35*
X157100000Y-73000000D03*
D34*
X158200000Y-72000000D03*
D35*
X158200000Y-73000000D03*
D34*
X161200000Y-72000000D03*
D35*
X161200000Y-73000000D03*
D34*
X162300000Y-72000000D03*
D35*
X162300000Y-73000000D03*
D34*
X163400000Y-72000000D03*
D35*
X163400000Y-73000000D03*
D34*
X164500000Y-72000000D03*
D35*
X164500000Y-73000000D03*
D34*
X165600000Y-72000000D03*
D35*
X165600000Y-73000000D03*
D34*
X166700000Y-72000000D03*
D35*
X166700000Y-73000000D03*
D34*
X167800000Y-72000000D03*
D35*
X167800000Y-73000000D03*
D36*
X152755000Y-65060000D03*
X152755000Y-70140000D03*
X148945000Y-65060000D03*
X148945000Y-70140000D03*
D12*
X168650000Y-51650000D03*
X168650000Y-53150000D03*
D10*
G36*
X152996662Y-60751992D02*
X153526992Y-60221662D01*
X154092678Y-60787348D01*
X153562348Y-61317678D01*
X152996662Y-60751992D01*
X152996662Y-60751992D01*
G37*
G36*
X154057322Y-61812652D02*
X154587652Y-61282322D01*
X155153338Y-61848008D01*
X154623008Y-62378338D01*
X154057322Y-61812652D01*
X154057322Y-61812652D01*
G37*
G36*
X157165977Y-63068075D02*
X158085555Y-62148497D01*
X158318901Y-62381843D01*
X157399323Y-63301421D01*
X157165977Y-63068075D01*
X157165977Y-63068075D01*
G37*
G36*
X157519799Y-63421897D02*
X158439377Y-62502319D01*
X158672723Y-62735665D01*
X157753145Y-63655243D01*
X157519799Y-63421897D01*
X157519799Y-63421897D01*
G37*
G36*
X157873621Y-63775719D02*
X158793199Y-62856141D01*
X159026545Y-63089487D01*
X158106967Y-64009065D01*
X157873621Y-63775719D01*
X157873621Y-63775719D01*
G37*
G36*
X158227443Y-64129541D02*
X159147021Y-63209963D01*
X159380367Y-63443309D01*
X158460789Y-64362887D01*
X158227443Y-64129541D01*
X158227443Y-64129541D01*
G37*
G36*
X158581265Y-64483363D02*
X159500843Y-63563785D01*
X159734189Y-63797131D01*
X158814611Y-64716709D01*
X158581265Y-64483363D01*
X158581265Y-64483363D01*
G37*
G36*
X156106306Y-62008404D02*
X157025884Y-61088826D01*
X157259230Y-61322172D01*
X156339652Y-62241750D01*
X156106306Y-62008404D01*
X156106306Y-62008404D01*
G37*
G36*
X156458332Y-62360430D02*
X157377910Y-61440852D01*
X157611256Y-61674198D01*
X156691678Y-62593776D01*
X156458332Y-62360430D01*
X156458332Y-62360430D01*
G37*
G36*
X156812155Y-62714252D02*
X157731733Y-61794674D01*
X157965079Y-62028020D01*
X157045501Y-62947598D01*
X156812155Y-62714252D01*
X156812155Y-62714252D01*
G37*
G36*
X164238826Y-66624116D02*
X164472172Y-66390770D01*
X165391750Y-67310348D01*
X165158404Y-67543694D01*
X164238826Y-66624116D01*
X164238826Y-66624116D01*
G37*
G36*
X164590852Y-66272090D02*
X164824198Y-66038744D01*
X165743776Y-66958322D01*
X165510430Y-67191668D01*
X164590852Y-66272090D01*
X164590852Y-66272090D01*
G37*
G36*
X164944674Y-65918267D02*
X165178020Y-65684921D01*
X166097598Y-66604499D01*
X165864252Y-66837845D01*
X164944674Y-65918267D01*
X164944674Y-65918267D01*
G37*
G36*
X165298497Y-65564445D02*
X165531843Y-65331099D01*
X166451421Y-66250677D01*
X166218075Y-66484023D01*
X165298497Y-65564445D01*
X165298497Y-65564445D01*
G37*
G36*
X165652319Y-65210623D02*
X165885665Y-64977277D01*
X166805243Y-65896855D01*
X166571897Y-66130201D01*
X165652319Y-65210623D01*
X165652319Y-65210623D01*
G37*
G36*
X166006141Y-64856801D02*
X166239487Y-64623455D01*
X167159065Y-65543033D01*
X166925719Y-65776379D01*
X166006141Y-64856801D01*
X166006141Y-64856801D01*
G37*
G36*
X166359963Y-64502979D02*
X166593309Y-64269633D01*
X167512887Y-65189211D01*
X167279541Y-65422557D01*
X166359963Y-64502979D01*
X166359963Y-64502979D01*
G37*
G36*
X166713785Y-64149157D02*
X166947131Y-63915811D01*
X167866709Y-64835389D01*
X167633363Y-65068735D01*
X166713785Y-64149157D01*
X166713785Y-64149157D01*
G37*
G36*
X169540770Y-59177828D02*
X170460348Y-58258250D01*
X170693694Y-58491596D01*
X169774116Y-59411174D01*
X169540770Y-59177828D01*
X169540770Y-59177828D01*
G37*
G36*
X169188744Y-58825802D02*
X170108322Y-57906224D01*
X170341668Y-58139570D01*
X169422090Y-59059148D01*
X169188744Y-58825802D01*
X169188744Y-58825802D01*
G37*
G36*
X168834921Y-58471980D02*
X169754499Y-57552402D01*
X169987845Y-57785748D01*
X169068267Y-58705326D01*
X168834921Y-58471980D01*
X168834921Y-58471980D01*
G37*
G36*
X168481099Y-58118157D02*
X169400677Y-57198579D01*
X169634023Y-57431925D01*
X168714445Y-58351503D01*
X168481099Y-58118157D01*
X168481099Y-58118157D01*
G37*
G36*
X168127277Y-57764335D02*
X169046855Y-56844757D01*
X169280201Y-57078103D01*
X168360623Y-57997681D01*
X168127277Y-57764335D01*
X168127277Y-57764335D01*
G37*
G36*
X167773455Y-57410513D02*
X168693033Y-56490935D01*
X168926379Y-56724281D01*
X168006801Y-57643859D01*
X167773455Y-57410513D01*
X167773455Y-57410513D01*
G37*
G36*
X167419633Y-57056691D02*
X168339211Y-56137113D01*
X168572557Y-56370459D01*
X167652979Y-57290037D01*
X167419633Y-57056691D01*
X167419633Y-57056691D01*
G37*
G36*
X167065811Y-56702869D02*
X167985389Y-55783291D01*
X168218735Y-56016637D01*
X167299157Y-56936215D01*
X167065811Y-56702869D01*
X167065811Y-56702869D01*
G37*
G36*
X161408250Y-53189652D02*
X161641596Y-52956306D01*
X162561174Y-53875884D01*
X162327828Y-54109230D01*
X161408250Y-53189652D01*
X161408250Y-53189652D01*
G37*
G36*
X161056224Y-53541678D02*
X161289570Y-53308332D01*
X162209148Y-54227910D01*
X161975802Y-54461256D01*
X161056224Y-53541678D01*
X161056224Y-53541678D01*
G37*
G36*
X160702402Y-53895501D02*
X160935748Y-53662155D01*
X161855326Y-54581733D01*
X161621980Y-54815079D01*
X160702402Y-53895501D01*
X160702402Y-53895501D01*
G37*
G36*
X160348579Y-54249323D02*
X160581925Y-54015977D01*
X161501503Y-54935555D01*
X161268157Y-55168901D01*
X160348579Y-54249323D01*
X160348579Y-54249323D01*
G37*
G36*
X159994757Y-54603145D02*
X160228103Y-54369799D01*
X161147681Y-55289377D01*
X160914335Y-55522723D01*
X159994757Y-54603145D01*
X159994757Y-54603145D01*
G37*
G36*
X159640935Y-54956967D02*
X159874281Y-54723621D01*
X160793859Y-55643199D01*
X160560513Y-55876545D01*
X159640935Y-54956967D01*
X159640935Y-54956967D01*
G37*
G36*
X159287113Y-55310789D02*
X159520459Y-55077443D01*
X160440037Y-55997021D01*
X160206691Y-56230367D01*
X159287113Y-55310789D01*
X159287113Y-55310789D01*
G37*
G36*
X158933291Y-55664611D02*
X159166637Y-55431265D01*
X160086215Y-56350843D01*
X159852869Y-56584189D01*
X158933291Y-55664611D01*
X158933291Y-55664611D01*
G37*
G36*
X158933291Y-64835389D02*
X159852869Y-63915811D01*
X160086215Y-64149157D01*
X159166637Y-65068735D01*
X158933291Y-64835389D01*
X158933291Y-64835389D01*
G37*
G36*
X159287113Y-65189211D02*
X160206691Y-64269633D01*
X160440037Y-64502979D01*
X159520459Y-65422557D01*
X159287113Y-65189211D01*
X159287113Y-65189211D01*
G37*
G36*
X159640935Y-65543033D02*
X160560513Y-64623455D01*
X160793859Y-64856801D01*
X159874281Y-65776379D01*
X159640935Y-65543033D01*
X159640935Y-65543033D01*
G37*
G36*
X167065811Y-63797131D02*
X167299157Y-63563785D01*
X168218735Y-64483363D01*
X167985389Y-64716709D01*
X167065811Y-63797131D01*
X167065811Y-63797131D01*
G37*
G36*
X167419633Y-63443309D02*
X167652979Y-63209963D01*
X168572557Y-64129541D01*
X168339211Y-64362887D01*
X167419633Y-63443309D01*
X167419633Y-63443309D01*
G37*
G36*
X167773455Y-63089487D02*
X168006801Y-62856141D01*
X168926379Y-63775719D01*
X168693033Y-64009065D01*
X167773455Y-63089487D01*
X167773455Y-63089487D01*
G37*
G36*
X166713785Y-56350843D02*
X167633363Y-55431265D01*
X167866709Y-55664611D01*
X166947131Y-56584189D01*
X166713785Y-56350843D01*
X166713785Y-56350843D01*
G37*
G36*
X166359963Y-55997021D02*
X167279541Y-55077443D01*
X167512887Y-55310789D01*
X166593309Y-56230367D01*
X166359963Y-55997021D01*
X166359963Y-55997021D01*
G37*
G36*
X166006141Y-55643199D02*
X166925719Y-54723621D01*
X167159065Y-54956967D01*
X166239487Y-55876545D01*
X166006141Y-55643199D01*
X166006141Y-55643199D01*
G37*
G36*
X158581265Y-56016637D02*
X158814611Y-55783291D01*
X159734189Y-56702869D01*
X159500843Y-56936215D01*
X158581265Y-56016637D01*
X158581265Y-56016637D01*
G37*
G36*
X158227443Y-56370459D02*
X158460789Y-56137113D01*
X159380367Y-57056691D01*
X159147021Y-57290037D01*
X158227443Y-56370459D01*
X158227443Y-56370459D01*
G37*
G36*
X157873621Y-56724281D02*
X158106967Y-56490935D01*
X159026545Y-57410513D01*
X158793199Y-57643859D01*
X157873621Y-56724281D01*
X157873621Y-56724281D01*
G37*
G36*
X159994757Y-65896855D02*
X160914335Y-64977277D01*
X161147681Y-65210623D01*
X160228103Y-66130201D01*
X159994757Y-65896855D01*
X159994757Y-65896855D01*
G37*
G36*
X160348579Y-66250677D02*
X161268157Y-65331099D01*
X161501503Y-65564445D01*
X160581925Y-66484023D01*
X160348579Y-66250677D01*
X160348579Y-66250677D01*
G37*
G36*
X160702402Y-66604499D02*
X161621980Y-65684921D01*
X161855326Y-65918267D01*
X160935748Y-66837845D01*
X160702402Y-66604499D01*
X160702402Y-66604499D01*
G37*
G36*
X161056224Y-66958322D02*
X161975802Y-66038744D01*
X162209148Y-66272090D01*
X161289570Y-67191668D01*
X161056224Y-66958322D01*
X161056224Y-66958322D01*
G37*
G36*
X161408250Y-67310348D02*
X162327828Y-66390770D01*
X162561174Y-66624116D01*
X161641596Y-67543694D01*
X161408250Y-67310348D01*
X161408250Y-67310348D01*
G37*
G36*
X168127277Y-62735665D02*
X168360623Y-62502319D01*
X169280201Y-63421897D01*
X169046855Y-63655243D01*
X168127277Y-62735665D01*
X168127277Y-62735665D01*
G37*
G36*
X168481099Y-62381843D02*
X168714445Y-62148497D01*
X169634023Y-63068075D01*
X169400677Y-63301421D01*
X168481099Y-62381843D01*
X168481099Y-62381843D01*
G37*
G36*
X168834921Y-62028020D02*
X169068267Y-61794674D01*
X169987845Y-62714252D01*
X169754499Y-62947598D01*
X168834921Y-62028020D01*
X168834921Y-62028020D01*
G37*
G36*
X169188744Y-61674198D02*
X169422090Y-61440852D01*
X170341668Y-62360430D01*
X170108322Y-62593776D01*
X169188744Y-61674198D01*
X169188744Y-61674198D01*
G37*
G36*
X169540770Y-61322172D02*
X169774116Y-61088826D01*
X170693694Y-62008404D01*
X170460348Y-62241750D01*
X169540770Y-61322172D01*
X169540770Y-61322172D01*
G37*
G36*
X165652319Y-55289377D02*
X166571897Y-54369799D01*
X166805243Y-54603145D01*
X165885665Y-55522723D01*
X165652319Y-55289377D01*
X165652319Y-55289377D01*
G37*
G36*
X165298497Y-54935555D02*
X166218075Y-54015977D01*
X166451421Y-54249323D01*
X165531843Y-55168901D01*
X165298497Y-54935555D01*
X165298497Y-54935555D01*
G37*
G36*
X164944674Y-54581733D02*
X165864252Y-53662155D01*
X166097598Y-53895501D01*
X165178020Y-54815079D01*
X164944674Y-54581733D01*
X164944674Y-54581733D01*
G37*
G36*
X164590852Y-54227910D02*
X165510430Y-53308332D01*
X165743776Y-53541678D01*
X164824198Y-54461256D01*
X164590852Y-54227910D01*
X164590852Y-54227910D01*
G37*
G36*
X164238826Y-53875884D02*
X165158404Y-52956306D01*
X165391750Y-53189652D01*
X164472172Y-54109230D01*
X164238826Y-53875884D01*
X164238826Y-53875884D01*
G37*
G36*
X157519799Y-57078103D02*
X157753145Y-56844757D01*
X158672723Y-57764335D01*
X158439377Y-57997681D01*
X157519799Y-57078103D01*
X157519799Y-57078103D01*
G37*
G36*
X157165977Y-57431925D02*
X157399323Y-57198579D01*
X158318901Y-58118157D01*
X158085555Y-58351503D01*
X157165977Y-57431925D01*
X157165977Y-57431925D01*
G37*
G36*
X156812155Y-57785748D02*
X157045501Y-57552402D01*
X157965079Y-58471980D01*
X157731733Y-58705326D01*
X156812155Y-57785748D01*
X156812155Y-57785748D01*
G37*
G36*
X156458332Y-58139570D02*
X156691678Y-57906224D01*
X157611256Y-58825802D01*
X157377910Y-59059148D01*
X156458332Y-58139570D01*
X156458332Y-58139570D01*
G37*
G36*
X156106306Y-58491596D02*
X156339652Y-58258250D01*
X157259230Y-59177828D01*
X157025884Y-59411174D01*
X156106306Y-58491596D01*
X156106306Y-58491596D01*
G37*
D37*
X171225000Y-82275000D03*
D38*
X181225000Y-82275000D03*
D22*
X181550000Y-86150000D03*
X180050000Y-86150000D03*
D39*
X156150000Y-74625000D03*
X156200000Y-75850000D03*
X156200000Y-76875000D03*
X156200000Y-78525000D03*
X156350000Y-79725000D03*
X156225000Y-81175000D03*
X155700000Y-82075000D03*
X154725000Y-82725000D03*
X153000000Y-82675000D03*
X153075000Y-79100000D03*
X153525000Y-78150000D03*
X153625000Y-77325000D03*
X153550000Y-76650000D03*
X153625000Y-75700000D03*
X153700000Y-75150000D03*
X153675000Y-74175000D03*
X161050000Y-70800000D03*
X185425000Y-68325000D03*
X185025000Y-86700000D03*
X185100000Y-85100000D03*
X185100000Y-81100000D03*
X196200000Y-53625000D03*
X168150000Y-86650000D03*
X173100000Y-43050000D03*
X174775000Y-49750000D03*
X169425000Y-52550000D03*
X159325000Y-61850000D03*
X159575000Y-68425000D03*
X169175000Y-60950000D03*
X174150000Y-58450000D03*
X181425000Y-48400000D03*
X180500000Y-49625000D03*
X179750000Y-50450000D03*
X181725000Y-52400000D03*
X180350000Y-53700000D03*
X178250000Y-51725000D03*
X176900000Y-52500000D03*
X179050000Y-54850000D03*
X182625000Y-51425000D03*
X184500000Y-49675000D03*
X185375000Y-49800000D03*
X172825000Y-63450000D03*
X170400000Y-63075000D03*
X170350000Y-59350000D03*
X172300000Y-59450000D03*
X191700000Y-52275000D03*
X179250000Y-85575000D03*
X166875000Y-83275000D03*
X163575000Y-51975000D03*
X162375000Y-51925000D03*
X165925000Y-51575000D03*
X155375000Y-61225000D03*
X158225000Y-61575000D03*
X170200000Y-51850000D03*
X172050000Y-51800000D03*
X177100000Y-48650000D03*
X168500000Y-61375000D03*
X158325000Y-67850000D03*
X179350000Y-75950000D03*
X182200000Y-75350000D03*
X167050000Y-57400000D03*
X161425000Y-63100000D03*
X177875000Y-71350000D03*
X183350000Y-75675000D03*
X174975000Y-73825000D03*
X169450000Y-69050000D03*
X162075000Y-62550000D03*
X175600000Y-75575000D03*
X171925000Y-70925000D03*
X161400000Y-63900000D03*
X188025000Y-70450000D03*
X185950000Y-75700000D03*
X184075000Y-77125000D03*
X147525000Y-50925000D03*
X157850000Y-45125000D03*
X158400000Y-64925000D03*
X155250000Y-63800000D03*
X149100000Y-52725000D03*
X188390000Y-44089040D03*
X170350000Y-57000000D03*
X159950000Y-61050000D03*
X167400000Y-53150000D03*
X170300000Y-54600000D03*
X156250000Y-69225000D03*
X153750000Y-67225000D03*
X157650000Y-66425000D03*
X154950000Y-65650000D03*
X157625000Y-65625000D03*
X155775000Y-56275000D03*
X156325000Y-57150000D03*
X155550000Y-57900000D03*
X155875000Y-59725000D03*
X151975000Y-56875000D03*
X166725000Y-63150000D03*
X162025000Y-47600000D03*
X165525000Y-64125000D03*
X164450000Y-47725000D03*
X167600000Y-58750000D03*
X168000000Y-46075000D03*
X167975000Y-54925000D03*
X176450000Y-55450000D03*
X170250000Y-55950000D03*
X175875000Y-56250000D03*
X179750000Y-71300000D03*
X188000000Y-80800000D03*
X155650000Y-65025000D03*
X154150000Y-63750000D03*
X159375000Y-70325000D03*
X171475000Y-46250000D03*
X170650000Y-63800000D03*
X167700000Y-67000000D03*
X159350000Y-69475000D03*
X171700000Y-60350000D03*
X167300000Y-66250000D03*
X163725000Y-70575000D03*
X162650000Y-57450000D03*
X163900000Y-56900000D03*
X169400000Y-67225000D03*
X178550000Y-64925000D03*
X180375000Y-64750000D03*
X156325000Y-62800000D03*
X152600000Y-64025000D03*
X162250000Y-74250000D03*
X163200000Y-74900000D03*
X147250000Y-53450000D03*
X165600000Y-83300000D03*
D40*
X154900000Y-72000000D02*
X154900000Y-73000000D01*
D41*
X154075000Y-80725000D02*
X154000000Y-80800000D01*
X153800000Y-81000000D02*
X149000000Y-81000000D01*
X154075000Y-80725000D02*
X153800000Y-81000000D01*
D42*
X154900000Y-79900000D02*
X153825000Y-80975000D01*
X153825000Y-80975000D02*
X149400000Y-80975000D01*
D41*
X154900000Y-73000000D02*
X154900000Y-74100000D01*
D42*
X154900000Y-74100000D02*
X154900000Y-79900000D01*
D43*
X153000000Y-82675000D02*
X154675000Y-82675000D01*
X156000000Y-74475000D02*
X156000000Y-72000000D01*
X156150000Y-74625000D02*
X156000000Y-74475000D01*
X156200000Y-76875000D02*
X156200000Y-75850000D01*
X156200000Y-79575000D02*
X156200000Y-78525000D01*
X156350000Y-79725000D02*
X156200000Y-79575000D01*
X156225000Y-81550000D02*
X156225000Y-81175000D01*
X155700000Y-82075000D02*
X156225000Y-81550000D01*
X154675000Y-82675000D02*
X154725000Y-82725000D01*
X153800000Y-72000000D02*
X153800000Y-74050000D01*
X153800000Y-83475000D02*
X153800000Y-84350000D01*
X153000000Y-82675000D02*
X153800000Y-83475000D01*
X153075000Y-78600000D02*
X153075000Y-79100000D01*
X153525000Y-78150000D02*
X153075000Y-78600000D01*
X153625000Y-76725000D02*
X153625000Y-77325000D01*
X153550000Y-76650000D02*
X153625000Y-76725000D01*
X153625000Y-75225000D02*
X153625000Y-75700000D01*
X153700000Y-75150000D02*
X153625000Y-75225000D01*
X153800000Y-74050000D02*
X153675000Y-74175000D01*
X202700020Y-40949980D02*
X202700020Y-41050020D01*
X202700020Y-45525020D02*
X202700020Y-46350020D01*
D40*
X161200000Y-72000000D02*
X161200000Y-70950000D01*
X161200000Y-70950000D02*
X161050000Y-70800000D01*
X185550000Y-69500000D02*
X185550000Y-68450000D01*
X185550000Y-68450000D02*
X185425000Y-68325000D01*
D43*
X161200000Y-73950000D02*
X161200000Y-74300000D01*
X167925000Y-81025000D02*
X167925000Y-83400000D01*
X161200000Y-74300000D02*
X167925000Y-81025000D01*
X167800000Y-83525000D02*
X167800000Y-84350000D01*
X167925000Y-83400000D02*
X167800000Y-83525000D01*
X185025000Y-85175000D02*
X185025000Y-86700000D01*
X185100000Y-85100000D02*
X185025000Y-85175000D01*
X185750000Y-82050000D02*
X185750000Y-81750000D01*
X185750000Y-81750000D02*
X185100000Y-81100000D01*
X194800000Y-51600000D02*
X194800000Y-52225000D01*
X194800000Y-52225000D02*
X196200000Y-53625000D01*
X167800000Y-86300000D02*
X167800000Y-85400000D01*
X168150000Y-86650000D02*
X167800000Y-86300000D01*
D40*
X185550000Y-69500000D02*
X185550000Y-70000000D01*
X201525000Y-47525040D02*
X202700020Y-46350020D01*
X201525000Y-64250000D02*
X201525000Y-47525040D01*
X194700000Y-71075000D02*
X201525000Y-64250000D01*
X186625000Y-71075000D02*
X194700000Y-71075000D01*
X185550000Y-70000000D02*
X186625000Y-71075000D01*
X170730000Y-42000000D02*
X170730000Y-42280000D01*
X170730000Y-42280000D02*
X171500000Y-43050000D01*
X171500000Y-43050000D02*
X173100000Y-43050000D01*
D44*
X174850000Y-55950000D02*
X174850000Y-49825000D01*
X174850000Y-49825000D02*
X174775000Y-49750000D01*
X169425000Y-52550000D02*
X168825000Y-53150000D01*
X168825000Y-53150000D02*
X168650000Y-53150000D01*
X163000000Y-49620000D02*
X163000000Y-48725000D01*
X163000000Y-48725000D02*
X162450000Y-48175000D01*
X162450000Y-48175000D02*
X157375980Y-48175000D01*
X157375980Y-48175000D02*
X157350000Y-48200980D01*
X163000000Y-49620000D02*
X164270000Y-49620000D01*
X165167314Y-53884794D02*
X165167314Y-53907686D01*
X165167314Y-53907686D02*
X164575000Y-54500000D01*
X163000000Y-53325000D02*
X163000000Y-49620000D01*
X164175000Y-54500000D02*
X163000000Y-53325000D01*
X164575000Y-54500000D02*
X164175000Y-54500000D01*
X165167314Y-53884794D02*
X165167314Y-53882686D01*
X165167314Y-53882686D02*
X166600000Y-52450000D01*
X166600000Y-52450000D02*
X167950000Y-52450000D01*
X167950000Y-52450000D02*
X168650000Y-53150000D01*
X154605330Y-61830330D02*
X154605330Y-62130330D01*
X154605330Y-62130330D02*
X155900000Y-63425000D01*
X155900000Y-63425000D02*
X157042398Y-63425000D01*
X157042398Y-63425000D02*
X157742439Y-62724959D01*
D40*
X157742439Y-62724959D02*
X157775041Y-62724959D01*
X157775041Y-62724959D02*
X158400000Y-62100000D01*
X158400000Y-62100000D02*
X159075000Y-62100000D01*
X159075000Y-62100000D02*
X159325000Y-61850000D01*
X159575000Y-68425000D02*
X160280330Y-68494670D01*
X160280330Y-68494670D02*
X160280330Y-68480330D01*
X157742439Y-62724959D02*
X157800041Y-62724959D01*
X160219670Y-68480330D02*
X160280330Y-68480330D01*
D44*
X153800000Y-72000000D02*
X153800000Y-73000000D01*
X156000000Y-72000000D02*
X156000000Y-73000000D01*
X155550000Y-48100980D02*
X157250000Y-48100980D01*
X157250000Y-48100980D02*
X157350000Y-48200980D01*
X153850000Y-48100980D02*
X155550000Y-48100980D01*
X152050000Y-48100980D02*
X153850000Y-48100980D01*
D45*
X175810000Y-40730000D02*
X175810000Y-42000000D01*
X175810000Y-45480000D02*
X176440000Y-46110000D01*
X175810000Y-42000000D02*
X175810000Y-45480000D01*
X178730000Y-48400000D02*
X176440000Y-46110000D01*
X185450000Y-48400000D02*
X185850000Y-48800000D01*
X181425000Y-48400000D02*
X185450000Y-48400000D01*
X178730000Y-48400000D02*
X181425000Y-48400000D01*
X192600000Y-53800000D02*
X189050000Y-53800000D01*
X189050000Y-53800000D02*
X188650000Y-53800000D01*
X188650000Y-53800000D02*
X188550000Y-53800000D01*
X188550000Y-53800000D02*
X187550000Y-52800000D01*
X194800000Y-51600000D02*
X192600000Y-53800000D01*
X185850000Y-48800000D02*
X187250000Y-50200000D01*
X187550000Y-50500000D02*
X187550000Y-52800000D01*
X187250000Y-50200000D02*
X187550000Y-50500000D01*
X194800000Y-51600000D02*
X199400000Y-51600000D01*
X192950000Y-49750000D02*
X192950000Y-47200000D01*
X194800000Y-51600000D02*
X192950000Y-49750000D01*
X193300000Y-46850000D02*
X193300000Y-44900000D01*
X192950000Y-47200000D02*
X193300000Y-46850000D01*
D41*
X143840000Y-41559040D02*
X143840000Y-44439040D01*
X143860000Y-41539040D02*
X143840000Y-41559040D01*
X143050000Y-45229040D02*
X143050000Y-48100440D01*
X143840000Y-44439040D02*
X143050000Y-45229040D01*
X142849340Y-48301100D02*
X142849340Y-53599540D01*
X143050000Y-48100440D02*
X142849340Y-48301100D01*
X143050000Y-53800200D02*
X143050000Y-56299560D01*
X142849340Y-53599540D02*
X143050000Y-53800200D01*
X144350480Y-48100440D02*
X143050000Y-48100440D01*
X146049740Y-49799700D02*
X144350480Y-48100440D01*
X143289040Y-56538600D02*
X143289040Y-62620000D01*
X143050000Y-56299560D02*
X143289040Y-56538600D01*
X144350480Y-56299560D02*
X143050000Y-56299560D01*
X146049740Y-54600300D02*
X144350480Y-56299560D01*
D40*
X185700000Y-82000000D02*
X185700000Y-79950000D01*
X185750000Y-82050000D02*
X185700000Y-82000000D01*
D44*
X167800000Y-85400000D02*
X167800000Y-84350000D01*
X161200000Y-73000000D02*
X161200000Y-72000000D01*
X156100000Y-73100000D02*
X156000000Y-73000000D01*
X161200000Y-73000000D02*
X161200000Y-73950000D01*
X153700000Y-73100000D02*
X153800000Y-73000000D01*
X156000000Y-70600000D02*
X156000000Y-70550000D01*
X156000000Y-72000000D02*
X156000000Y-70600000D01*
X156000000Y-70550000D02*
X155950000Y-70500000D01*
X155950000Y-70500000D02*
X154900000Y-69450000D01*
X150805000Y-72000000D02*
X153800000Y-72000000D01*
X148945000Y-70140000D02*
X150805000Y-72000000D01*
X148945000Y-71214040D02*
X148945000Y-70140000D01*
X146289040Y-73870000D02*
X148945000Y-71214040D01*
X145851620Y-53599540D02*
X142849340Y-53599540D01*
X145950680Y-53500480D02*
X145851620Y-53599540D01*
X157969670Y-68480330D02*
X160280330Y-68480330D01*
X155950000Y-70500000D02*
X157969670Y-68480330D01*
X161793428Y-66967232D02*
X161984712Y-66967232D01*
X160280330Y-68480330D02*
X161793428Y-66967232D01*
X161984712Y-66967232D02*
X161632686Y-66615206D01*
X185500000Y-69550000D02*
X185500000Y-71600000D01*
X185550000Y-69500000D02*
X185500000Y-69550000D01*
D41*
X197299980Y-46350020D02*
X197299980Y-40949980D01*
X197299980Y-40949980D02*
X202700020Y-40949980D01*
X202700020Y-46350020D02*
X197299980Y-46350020D01*
X194800000Y-48850000D02*
X194800000Y-51600000D01*
X197299980Y-46350020D02*
X194800000Y-48850000D01*
D40*
X195950000Y-39600000D02*
X184829040Y-39600000D01*
X197299980Y-40949980D02*
X195950000Y-39600000D01*
X183310000Y-41159040D02*
X183310000Y-44089040D01*
X183290000Y-41139040D02*
X183310000Y-41159040D01*
X153650000Y-83900000D02*
X153800000Y-84350000D01*
X153750000Y-83800000D02*
X153650000Y-83900000D01*
X153750000Y-85350000D02*
X153750000Y-83800000D01*
X153800000Y-85400000D02*
X153750000Y-85350000D01*
X167750000Y-85350000D02*
X167800000Y-85400000D01*
X143050000Y-50599800D02*
X143050000Y-48100440D01*
X142849340Y-50800460D02*
X143050000Y-50599800D01*
X176400080Y-58200080D02*
X175200620Y-58200080D01*
X177350000Y-59150000D02*
X176400080Y-58200080D01*
X173900000Y-60999300D02*
X172899380Y-61999920D01*
X173900000Y-59500700D02*
X173900000Y-60999300D01*
X175200620Y-58200080D02*
X173900000Y-59500700D01*
X175200620Y-56300620D02*
X175200620Y-58200080D01*
X174850000Y-55950000D02*
X175200620Y-56300620D01*
X169175000Y-61427108D02*
X169175000Y-60950000D01*
X169765206Y-62017314D02*
X169175000Y-61427108D01*
X174950700Y-58450000D02*
X175200620Y-58200080D01*
X174150000Y-58450000D02*
X174950700Y-58450000D01*
D43*
X183290000Y-44069040D02*
X183310000Y-44089040D01*
X183290000Y-41139040D02*
X183290000Y-44069040D01*
X195950000Y-39600000D02*
X197299980Y-40949980D01*
X184829040Y-39600000D02*
X195950000Y-39600000D01*
X183290000Y-41139040D02*
X184829040Y-39600000D01*
X181425000Y-48700000D02*
X180500000Y-49625000D01*
X179750000Y-50450000D02*
X181700000Y-52400000D01*
X181700000Y-52400000D02*
X181725000Y-52400000D01*
X180350000Y-53700000D02*
X178375000Y-51725000D01*
X178375000Y-51725000D02*
X178250000Y-51725000D01*
X176900000Y-52500000D02*
X179050000Y-54650000D01*
X179050000Y-54650000D02*
X179050000Y-54850000D01*
X182625000Y-51425000D02*
X181425000Y-50225000D01*
X181425000Y-50225000D02*
X181425000Y-48400000D01*
X181425000Y-48400000D02*
X181425000Y-48700000D01*
X184450000Y-49625000D02*
X184500000Y-49675000D01*
X185375000Y-49800000D02*
X185850000Y-49325000D01*
X185850000Y-49325000D02*
X185850000Y-48800000D01*
X180500000Y-49625000D02*
X184450000Y-49625000D01*
D44*
X154900000Y-67950000D02*
X154900000Y-67800000D01*
X154900000Y-67800000D02*
X155582099Y-67117901D01*
D40*
X175200620Y-62349380D02*
X175200620Y-61999920D01*
X173100000Y-64450000D02*
X175200620Y-62349380D01*
X176000080Y-61999920D02*
X175200620Y-61999920D01*
X177350000Y-60650000D02*
X176000080Y-61999920D01*
X170625000Y-62173056D02*
X170625000Y-62775000D01*
X170117232Y-61665288D02*
X170625000Y-62173056D01*
X172825000Y-64175000D02*
X173100000Y-64450000D01*
X172825000Y-63450000D02*
X172825000Y-64175000D01*
X170400000Y-63000000D02*
X170400000Y-63075000D01*
X170625000Y-62775000D02*
X170400000Y-63000000D01*
X171750000Y-64300000D02*
X171750000Y-61750000D01*
X171600000Y-64450000D02*
X171750000Y-64300000D01*
X171850000Y-61150000D02*
X172250000Y-60750000D01*
X171850000Y-61650000D02*
X171850000Y-61150000D01*
X171750000Y-61750000D02*
X171850000Y-61650000D01*
X172899380Y-60100620D02*
X172899380Y-58200080D01*
X172250000Y-60750000D02*
X172899380Y-60100620D01*
X173350000Y-57749460D02*
X173350000Y-55950000D01*
X172899380Y-58200080D02*
X173350000Y-57749460D01*
X170350000Y-59067480D02*
X170117232Y-58834712D01*
X170350000Y-59350000D02*
X170350000Y-59067480D01*
X172300000Y-58799460D02*
X172300000Y-59450000D01*
X172899380Y-58200080D02*
X172300000Y-58799460D01*
X184250000Y-84200000D02*
X184250000Y-82050000D01*
X184450000Y-84400000D02*
X184250000Y-84200000D01*
X184200000Y-82000000D02*
X184200000Y-79950000D01*
X184250000Y-82050000D02*
X184200000Y-82000000D01*
X172150000Y-67900000D02*
X166452108Y-67900000D01*
X166452108Y-67900000D02*
X165167314Y-66615206D01*
X184200000Y-79950000D02*
X172150000Y-67900000D01*
D43*
X191700000Y-52275000D02*
X191025000Y-51600000D01*
X191025000Y-51600000D02*
X190200000Y-51600000D01*
D45*
X166700000Y-84350000D02*
X166700000Y-83450000D01*
X179250000Y-85575000D02*
X179825000Y-86150000D01*
X166700000Y-83450000D02*
X166875000Y-83275000D01*
X179825000Y-86150000D02*
X180050000Y-86150000D01*
D44*
X161730000Y-49620000D02*
X161730000Y-51730000D01*
X163975000Y-51575000D02*
X165925000Y-51575000D01*
X163575000Y-51975000D02*
X163975000Y-51575000D01*
X161925000Y-51925000D02*
X162375000Y-51925000D01*
X161730000Y-51730000D02*
X161925000Y-51925000D01*
X165925000Y-51575000D02*
X165925000Y-52400000D01*
X164815288Y-53532768D02*
X164815288Y-53509712D01*
X164815288Y-53509712D02*
X165925000Y-52400000D01*
X165925000Y-52400000D02*
X166675000Y-51650000D01*
X166675000Y-51650000D02*
X168650000Y-51650000D01*
X154919670Y-60769670D02*
X153544670Y-60769670D01*
X155375000Y-61225000D02*
X154919670Y-60769670D01*
D40*
X157388617Y-62371136D02*
X157428864Y-62371136D01*
X157428864Y-62371136D02*
X158225000Y-61575000D01*
D44*
X159219670Y-67419670D02*
X158755330Y-67419670D01*
X158755330Y-67419670D02*
X158300000Y-67875000D01*
D45*
X146400000Y-41660960D02*
X146400000Y-41300000D01*
X146400000Y-41300000D02*
X148150000Y-39550000D01*
X148150000Y-39550000D02*
X170450000Y-39550000D01*
X177080000Y-40730000D02*
X177080000Y-42000000D01*
X177080000Y-42940000D02*
X180250000Y-46110000D01*
X177080000Y-42000000D02*
X177080000Y-42940000D01*
X186000000Y-47400000D02*
X190200000Y-51600000D01*
X181540000Y-47400000D02*
X186000000Y-47400000D01*
X180250000Y-46110000D02*
X181540000Y-47400000D01*
X191450000Y-50350000D02*
X191450000Y-47200000D01*
X190200000Y-51600000D02*
X191450000Y-50350000D01*
X191800000Y-46850000D02*
X191800000Y-44900000D01*
X191450000Y-47200000D02*
X191800000Y-46850000D01*
D44*
X166700000Y-85400000D02*
X166700000Y-84350000D01*
X166700000Y-85400000D02*
X166800000Y-85300000D01*
X161278863Y-66261383D02*
X161278864Y-66261383D01*
X160925041Y-65907561D02*
X161278863Y-66261383D01*
X160120577Y-67419670D02*
X159219670Y-67419670D01*
X161278864Y-66261383D02*
X160520124Y-67020123D01*
X160520124Y-67020123D02*
X160120577Y-67419670D01*
D40*
X185850000Y-41280960D02*
X185850000Y-44210960D01*
X185830000Y-41260960D02*
X185850000Y-41280960D01*
X186000000Y-44360960D02*
X186000000Y-47400000D01*
X185850000Y-44210960D02*
X186000000Y-44360960D01*
D45*
X169460000Y-40730000D02*
X169460000Y-42000000D01*
X169750000Y-40250000D02*
X170450000Y-39550000D01*
X170450000Y-39550000D02*
X170550000Y-39450000D01*
X169750000Y-40440000D02*
X169750000Y-40250000D01*
X169460000Y-40730000D02*
X169750000Y-40440000D01*
X170600000Y-39400000D02*
X175000000Y-39400000D01*
X170550000Y-39450000D02*
X170600000Y-39400000D01*
X176300000Y-39450000D02*
X177000000Y-40150000D01*
X176300000Y-39400000D02*
X176300000Y-39450000D01*
X176250000Y-39400000D02*
X176300000Y-39400000D01*
X175000000Y-39400000D02*
X176250000Y-39400000D01*
X177080000Y-40230000D02*
X177080000Y-40730000D01*
X177000000Y-40150000D02*
X177080000Y-40230000D01*
D40*
X170500000Y-43040000D02*
X170500000Y-44300000D01*
X169460000Y-42000000D02*
X170500000Y-43040000D01*
X171950000Y-48750000D02*
X172150000Y-48550000D01*
X168850000Y-51850000D02*
X168650000Y-51650000D01*
X170200000Y-51850000D02*
X168850000Y-51850000D01*
X172050000Y-48650000D02*
X172050000Y-51800000D01*
X172150000Y-48550000D02*
X172050000Y-48650000D01*
X174500000Y-48650000D02*
X177100000Y-48650000D01*
X174400000Y-48550000D02*
X174500000Y-48650000D01*
X168500000Y-61459753D02*
X168500000Y-61375000D01*
X169411383Y-62371136D02*
X168500000Y-61459753D01*
X158325000Y-67850000D02*
X158300000Y-67875000D01*
D42*
X146400000Y-44540960D02*
X146380000Y-44560960D01*
X146400000Y-41660960D02*
X146400000Y-44540960D01*
D43*
X185830000Y-44190960D02*
X185850000Y-44210960D01*
X185830000Y-41260960D02*
X185830000Y-44190960D01*
X185850000Y-47250000D02*
X186000000Y-47400000D01*
X185850000Y-44210960D02*
X185850000Y-47250000D01*
D40*
X184000000Y-73700000D02*
X184000000Y-71600000D01*
X183950000Y-73750000D02*
X184000000Y-73700000D01*
X184050000Y-71550000D02*
X184050000Y-69500000D01*
X184000000Y-71600000D02*
X184050000Y-71550000D01*
X171900000Y-68300000D02*
X166148056Y-68300000D01*
X166148056Y-68300000D02*
X164815288Y-66967232D01*
X183950000Y-73750000D02*
X182350000Y-75350000D01*
X179100000Y-75500000D02*
X171950000Y-68350000D01*
X179100000Y-75750000D02*
X179100000Y-75500000D01*
X179150000Y-75750000D02*
X179100000Y-75750000D01*
X179350000Y-75750000D02*
X179150000Y-75750000D01*
X179350000Y-75950000D02*
X179350000Y-75750000D01*
X182350000Y-75350000D02*
X182200000Y-75350000D01*
X171950000Y-68350000D02*
X171900000Y-68300000D01*
D44*
X152100000Y-51900000D02*
X152100000Y-50249020D01*
X152100000Y-50249020D02*
X152050000Y-50199020D01*
X153850000Y-50199020D02*
X153850000Y-51750000D01*
X153850000Y-51750000D02*
X154000000Y-51900000D01*
X155550000Y-50199020D02*
X155550000Y-51850000D01*
X155550000Y-51850000D02*
X155600000Y-51900000D01*
X157350000Y-50299020D02*
X157350000Y-51700000D01*
X157350000Y-51700000D02*
X157550000Y-51900000D01*
D40*
X166800000Y-56497974D02*
X167290247Y-56007727D01*
X166800000Y-57150000D02*
X166800000Y-56497974D01*
X167050000Y-57400000D02*
X166800000Y-57150000D01*
X161278864Y-54238617D02*
X161278864Y-54303864D01*
X161278864Y-54303864D02*
X162050000Y-55075000D01*
X162050000Y-55075000D02*
X162050000Y-56575000D01*
X162050000Y-56575000D02*
X161425000Y-57200000D01*
X161425000Y-57200000D02*
X161425000Y-63100000D01*
X188500000Y-78200000D02*
X184250000Y-78200000D01*
X177875000Y-71825000D02*
X177875000Y-71350000D01*
X184250000Y-78200000D02*
X177875000Y-71825000D01*
X188500000Y-78200000D02*
X188400000Y-78100000D01*
X195600000Y-75700000D02*
X187125000Y-75700000D01*
X204000000Y-51600000D02*
X202500000Y-53100000D01*
X202500000Y-53100000D02*
X202500000Y-67750000D01*
X202500000Y-67750000D02*
X202500000Y-68800000D01*
X202500000Y-68800000D02*
X195650000Y-75650000D01*
X195650000Y-75650000D02*
X195600000Y-75700000D01*
X184050000Y-74975000D02*
X183350000Y-75675000D01*
X186400000Y-74975000D02*
X184050000Y-74975000D01*
X187125000Y-75700000D02*
X186400000Y-74975000D01*
X174975000Y-72925000D02*
X174975000Y-73825000D01*
X171350000Y-69300000D02*
X174975000Y-72925000D01*
X169700000Y-69300000D02*
X171350000Y-69300000D01*
X169450000Y-69050000D02*
X169700000Y-69300000D01*
X161632686Y-53884794D02*
X161634794Y-53884794D01*
X161634794Y-53884794D02*
X162675000Y-54925000D01*
X162675000Y-54925000D02*
X162675000Y-56550000D01*
X162675000Y-56550000D02*
X162075000Y-57150000D01*
X162075000Y-57150000D02*
X162075000Y-62550000D01*
X160925041Y-54592439D02*
X160925041Y-54650041D01*
X160925041Y-54650041D02*
X161550000Y-55275000D01*
X173900000Y-73875000D02*
X175600000Y-75575000D01*
X173900000Y-72900000D02*
X173900000Y-73875000D01*
X171925000Y-70925000D02*
X173900000Y-72900000D01*
X160700000Y-63200000D02*
X161400000Y-63900000D01*
X160700000Y-63025000D02*
X160700000Y-63200000D01*
X161072598Y-62652402D02*
X160700000Y-63025000D01*
X161072598Y-56952402D02*
X161072598Y-62652402D01*
X161550000Y-56475000D02*
X161072598Y-56952402D01*
X161550000Y-55275000D02*
X161550000Y-56475000D01*
X188025000Y-70450000D02*
X188500000Y-69975000D01*
X185500000Y-75700000D02*
X185950000Y-75700000D01*
X184075000Y-77125000D02*
X185500000Y-75700000D01*
X188500000Y-69975000D02*
X188500000Y-69200000D01*
X160925041Y-54675041D02*
X160925041Y-54592439D01*
D41*
X205700000Y-55700000D02*
X205700000Y-55325000D01*
D42*
X203650000Y-43650000D02*
X206650000Y-46650000D01*
X206650000Y-46650000D02*
X206650000Y-54750000D01*
X206650000Y-54750000D02*
X205700000Y-55700000D01*
X200000000Y-43650000D02*
X203650000Y-43650000D01*
D44*
X158803905Y-63786425D02*
X158688575Y-63786425D01*
X158688575Y-63786425D02*
X156217901Y-66257099D01*
X156217901Y-66257099D02*
X156217901Y-66482099D01*
D43*
X145950680Y-50899520D02*
X147499520Y-50899520D01*
X147499520Y-50899520D02*
X147525000Y-50925000D01*
D45*
X179620000Y-42000000D02*
X179620000Y-40730000D01*
X166920000Y-40730000D02*
X166920000Y-42000000D01*
X162245000Y-40730000D02*
X166920000Y-40730000D01*
X157850000Y-45125000D02*
X162245000Y-40730000D01*
D44*
X159157727Y-64140247D02*
X159157727Y-64167273D01*
X159157727Y-64167273D02*
X158400000Y-64925000D01*
X155250000Y-63800000D02*
X151300000Y-59850000D01*
X151300000Y-59850000D02*
X151300000Y-54925000D01*
X151300000Y-54925000D02*
X149100000Y-52725000D01*
D40*
X170350000Y-57190247D02*
X169411383Y-58128864D01*
X170350000Y-57000000D02*
X170350000Y-57190247D01*
D44*
X159509753Y-64492273D02*
X159509753Y-64390247D01*
X159509753Y-64390247D02*
X159975000Y-63925000D01*
X159975000Y-63925000D02*
X159975000Y-61075000D01*
X159975000Y-61075000D02*
X159950000Y-61050000D01*
X158096261Y-57421219D02*
X158046219Y-57421219D01*
X158046219Y-57421219D02*
X156350000Y-55725000D01*
X156350000Y-55725000D02*
X152550000Y-55725000D01*
X152550000Y-55725000D02*
X150200000Y-53375000D01*
X150200000Y-53375000D02*
X150200000Y-45719040D01*
X150200000Y-45719040D02*
X148920000Y-44439040D01*
X151460000Y-44560960D02*
X151460000Y-45440000D01*
X156732686Y-55350000D02*
X158450083Y-57067397D01*
X152650000Y-55350000D02*
X156732686Y-55350000D01*
X150525000Y-53225000D02*
X152650000Y-55350000D01*
X150525000Y-46375000D02*
X150525000Y-53225000D01*
X151460000Y-45440000D02*
X150525000Y-46375000D01*
D40*
X167317398Y-53150000D02*
X165874959Y-54592439D01*
X167400000Y-53150000D02*
X167317398Y-53150000D01*
X168750000Y-54600000D02*
X167900000Y-53750000D01*
X168800000Y-54600000D02*
X168750000Y-54600000D01*
X170300000Y-54600000D02*
X168800000Y-54600000D01*
X167900000Y-53750000D02*
X167600000Y-53750000D01*
X167425042Y-53750000D02*
X167600000Y-53750000D01*
X166228781Y-54946261D02*
X167425042Y-53750000D01*
D44*
X160571219Y-65553739D02*
X160571219Y-65553781D01*
X143289040Y-73439040D02*
X143289040Y-72780000D01*
D40*
X156250000Y-68825000D02*
X158675000Y-66400000D01*
X156250000Y-69225000D02*
X156250000Y-68825000D01*
X159724958Y-66400000D02*
X160571219Y-65553739D01*
X158675000Y-66400000D02*
X159724958Y-66400000D01*
X160217397Y-65199917D02*
X160150083Y-65199917D01*
X160150083Y-65199917D02*
X159450000Y-65900000D01*
X146660000Y-70240000D02*
X143410960Y-70240000D01*
X148075000Y-68825000D02*
X146660000Y-70240000D01*
X152150000Y-68825000D02*
X148075000Y-68825000D01*
X153750000Y-67225000D02*
X152150000Y-68825000D01*
X158175000Y-65900000D02*
X157650000Y-66425000D01*
X159450000Y-65900000D02*
X158175000Y-65900000D01*
X160217397Y-65199917D02*
X160217397Y-65257603D01*
X143700960Y-69950000D02*
X143410960Y-70240000D01*
D44*
X160217397Y-65199917D02*
X160175083Y-65199917D01*
D40*
X159863575Y-64846095D02*
X159803905Y-64846095D01*
X159803905Y-64846095D02*
X159150000Y-65500000D01*
X147250000Y-67700000D02*
X143289040Y-67700000D01*
X148500000Y-66450000D02*
X147250000Y-67700000D01*
X154150000Y-66450000D02*
X148500000Y-66450000D01*
X154950000Y-65650000D02*
X154150000Y-66450000D01*
X157750000Y-65500000D02*
X157625000Y-65625000D01*
X159150000Y-65500000D02*
X157750000Y-65500000D01*
D44*
X159863575Y-64846095D02*
X159863575Y-64886425D01*
X159863575Y-64886425D02*
X159425000Y-65325000D01*
D40*
X156267398Y-56300000D02*
X157742439Y-57775041D01*
X155800000Y-56300000D02*
X156267398Y-56300000D01*
X155775000Y-56275000D02*
X155800000Y-56300000D01*
X156325000Y-57150000D02*
X157303864Y-58128864D01*
X157303864Y-58128864D02*
X157388617Y-58128864D01*
X156277108Y-57725000D02*
X157034794Y-58482686D01*
X155725000Y-57725000D02*
X156277108Y-57725000D01*
X155550000Y-57900000D02*
X155725000Y-57725000D01*
X155875000Y-59725000D02*
X156682768Y-58917232D01*
X156682768Y-58917232D02*
X156682768Y-58834712D01*
X156590288Y-58834712D02*
X156682768Y-58834712D01*
X158803905Y-56713575D02*
X158838575Y-56713575D01*
X158838575Y-56713575D02*
X159300000Y-57175000D01*
X159300000Y-57175000D02*
X159300000Y-58875000D01*
X159300000Y-58875000D02*
X157400000Y-60775000D01*
X157400000Y-60775000D02*
X155875000Y-60775000D01*
X155875000Y-60775000D02*
X151975000Y-56875000D01*
D44*
X167642273Y-64140247D02*
X167642273Y-64067273D01*
X167642273Y-64067273D02*
X166725000Y-63150000D01*
X162025000Y-47600000D02*
X161730000Y-47305000D01*
X161730000Y-47305000D02*
X161730000Y-45810000D01*
X166582603Y-65199917D02*
X166582603Y-65182603D01*
X166582603Y-65182603D02*
X165525000Y-64125000D01*
X164450000Y-47725000D02*
X164350000Y-47625000D01*
X164350000Y-47625000D02*
X163200000Y-47625000D01*
X163200000Y-47625000D02*
X163000000Y-47425000D01*
X163000000Y-47425000D02*
X163000000Y-45810000D01*
D40*
X168000000Y-46075000D02*
X170225000Y-46075000D01*
X170225000Y-46075000D02*
X172000000Y-44300000D01*
D44*
X172000000Y-44300000D02*
X172000000Y-44425000D01*
X166810000Y-45810000D02*
X167735000Y-45810000D01*
X169122892Y-59125000D02*
X169765206Y-58482686D01*
X167975000Y-59125000D02*
X169122892Y-59125000D01*
X167600000Y-58750000D02*
X167975000Y-59125000D01*
X167735000Y-45810000D02*
X168000000Y-46075000D01*
D40*
X159509753Y-56007727D02*
X159509753Y-55934753D01*
X159509753Y-55934753D02*
X158525000Y-54950000D01*
X158525000Y-54950000D02*
X153650000Y-54950000D01*
X153650000Y-54950000D02*
X152100000Y-53400000D01*
X159863575Y-55653905D02*
X159828905Y-55653905D01*
X159828905Y-55653905D02*
X158750000Y-54575000D01*
X158750000Y-54575000D02*
X155175000Y-54575000D01*
X155175000Y-54575000D02*
X154000000Y-53400000D01*
X160217397Y-55300083D02*
X160200083Y-55300083D01*
X160200083Y-55300083D02*
X159050000Y-54150000D01*
X159050000Y-54150000D02*
X156350000Y-54150000D01*
X156350000Y-54150000D02*
X155600000Y-53400000D01*
X160571219Y-54946261D02*
X160571219Y-54921219D01*
X160571219Y-54921219D02*
X159050000Y-53400000D01*
X159050000Y-53400000D02*
X157550000Y-53400000D01*
D44*
X203950000Y-84400000D02*
X185950000Y-84400000D01*
X205700000Y-82650000D02*
X203950000Y-84400000D01*
D40*
X188450000Y-73750000D02*
X185450000Y-73750000D01*
X188450000Y-73750000D02*
X185450000Y-73750000D01*
X188500000Y-73700000D02*
X188450000Y-73750000D01*
X186550000Y-83650000D02*
X186550000Y-81150000D01*
X186550000Y-81150000D02*
X186550000Y-80950000D01*
X186375000Y-80775000D02*
X186350000Y-80750000D01*
X186550000Y-80950000D02*
X186375000Y-80775000D01*
X205700000Y-78200000D02*
X199900000Y-84000000D01*
X186900000Y-84000000D02*
X186650000Y-83750000D01*
X187050000Y-84000000D02*
X186900000Y-84000000D01*
X199900000Y-84000000D02*
X187050000Y-84000000D01*
X186650000Y-83750000D02*
X186550000Y-83650000D01*
X186149186Y-79050814D02*
X183849186Y-79050814D01*
X183825000Y-79075000D02*
X183824186Y-79075814D01*
X183849186Y-79050814D02*
X183825000Y-79075000D01*
X186375000Y-80775000D02*
X186354011Y-80754011D01*
X186354011Y-79254011D02*
X186150000Y-79050000D01*
X186354011Y-80754011D02*
X186354011Y-79254011D01*
X186150000Y-79050000D02*
X186149186Y-79050814D01*
X171100000Y-66300000D02*
X168600000Y-66300000D01*
X168600000Y-66300000D02*
X166936425Y-64846095D01*
X183825000Y-79075000D02*
X171100000Y-66300000D01*
X187300000Y-79950000D02*
X199450000Y-79950000D01*
X199450000Y-79950000D02*
X205700000Y-73700000D01*
X186603197Y-79004825D02*
X186750000Y-79151628D01*
X184000000Y-78600000D02*
X186250000Y-78600000D01*
X186250000Y-78600000D02*
X186250000Y-78651628D01*
X186250000Y-78651628D02*
X186603197Y-79004825D01*
X167290247Y-64492273D02*
X168697974Y-65900000D01*
X171350000Y-65950000D02*
X183950000Y-78550000D01*
X171350000Y-65900000D02*
X171350000Y-65950000D01*
X168697974Y-65900000D02*
X171350000Y-65900000D01*
X183950000Y-78550000D02*
X184000000Y-78600000D01*
X186750000Y-79151628D02*
X186728448Y-79466379D01*
X186728448Y-79466379D02*
X187300000Y-79950000D01*
D44*
X188500000Y-55700000D02*
X176700000Y-55700000D01*
X167590330Y-55000000D02*
X166936425Y-55653905D01*
X167900000Y-55000000D02*
X167590330Y-55000000D01*
X167975000Y-54925000D02*
X167900000Y-55000000D01*
X176700000Y-55700000D02*
X176450000Y-55450000D01*
X168349917Y-57067397D02*
X168382603Y-57067397D01*
X168382603Y-57067397D02*
X169500000Y-55950000D01*
X169500000Y-55950000D02*
X170250000Y-55950000D01*
X175875000Y-56250000D02*
X176800000Y-57175000D01*
X176800000Y-57175000D02*
X185475000Y-57175000D01*
X185475000Y-57175000D02*
X188500000Y-60200000D01*
X178500000Y-71000000D02*
X178434472Y-70934472D01*
X178500000Y-71400000D02*
X178500000Y-71000000D01*
X180050000Y-71800000D02*
X180000000Y-71850000D01*
X185650000Y-67550000D02*
X184350000Y-67550000D01*
X184350000Y-67550000D02*
X184300000Y-67550000D01*
X184300000Y-67550000D02*
X180050000Y-71800000D01*
X185650000Y-67550000D02*
X188500000Y-64700000D01*
X180000000Y-71850000D02*
X178950000Y-71850000D01*
X178950000Y-71850000D02*
X178500000Y-71400000D01*
X178434472Y-70934472D02*
X178434472Y-70815528D01*
X178234472Y-70615528D02*
X178434472Y-70815528D01*
X178209472Y-70590528D02*
X178234472Y-70615528D01*
X169628602Y-64550000D02*
X168759670Y-64550000D01*
X168759670Y-64550000D02*
X167996095Y-63786425D01*
X171500000Y-65554802D02*
X171483404Y-65571398D01*
X178218944Y-70600000D02*
X176550000Y-70600000D01*
X176550000Y-70600000D02*
X176545198Y-70600000D01*
X176545198Y-70600000D02*
X171500000Y-65554802D01*
X178234472Y-70615528D02*
X178218944Y-70600000D01*
X171483404Y-65571398D02*
X170650000Y-65571398D01*
X170650000Y-65571398D02*
X169628602Y-64550000D01*
X188500000Y-82650000D02*
X188000000Y-82150000D01*
X168728781Y-63078781D02*
X168703739Y-63078781D01*
X177000000Y-70250000D02*
X172000000Y-65250000D01*
X178300000Y-70250000D02*
X177000000Y-70250000D01*
X188000000Y-80800000D02*
X188000000Y-82150000D01*
X179350000Y-71300000D02*
X178400000Y-70350000D01*
X179750000Y-71300000D02*
X179350000Y-71300000D01*
X178400000Y-70350000D02*
X178300000Y-70250000D01*
X172000000Y-65250000D02*
X170900000Y-65250000D01*
X168728781Y-63078781D02*
X170900000Y-65250000D01*
X145950680Y-52200000D02*
X146900000Y-52200000D01*
X156825042Y-64350000D02*
X158096261Y-63078781D01*
X153850000Y-64350000D02*
X156825042Y-64350000D01*
X150300000Y-60800000D02*
X153850000Y-64350000D01*
X150300000Y-55600000D02*
X150300000Y-60800000D01*
X146900000Y-52200000D02*
X150300000Y-55600000D01*
X158450083Y-63432603D02*
X158450083Y-63474917D01*
X158450083Y-63474917D02*
X156900000Y-65025000D01*
X156900000Y-65025000D02*
X155650000Y-65025000D01*
X154150000Y-63750000D02*
X150900000Y-60500000D01*
X150900000Y-60500000D02*
X150900000Y-55325000D01*
X150900000Y-55325000D02*
X147124760Y-51549760D01*
X147124760Y-51549760D02*
X145950680Y-51549760D01*
D40*
X162300000Y-77525000D02*
X162300000Y-84350000D01*
X159571398Y-74796398D02*
X162300000Y-77525000D01*
X159571398Y-70521398D02*
X159571398Y-74796398D01*
X159375000Y-70325000D02*
X159571398Y-70521398D01*
D44*
X162300000Y-85400000D02*
X162300000Y-84350000D01*
D40*
X172150000Y-47050000D02*
X172150000Y-46925000D01*
X172150000Y-46925000D02*
X171475000Y-46250000D01*
D44*
X173270000Y-40730000D02*
X173270000Y-42000000D01*
X173270000Y-42000000D02*
X173270000Y-42370000D01*
D40*
X173270000Y-42000000D02*
X173250000Y-42020000D01*
X171000000Y-63450000D02*
X170650000Y-63800000D01*
X171000000Y-48200000D02*
X171000000Y-63450000D01*
X172150000Y-47050000D02*
X171000000Y-48200000D01*
X166967398Y-67000000D02*
X165874959Y-65907561D01*
X167700000Y-67000000D02*
X166967398Y-67000000D01*
X161200000Y-84350000D02*
X161200000Y-79975000D01*
X158650000Y-70175000D02*
X159350000Y-69475000D01*
X158650000Y-70600000D02*
X158650000Y-70175000D01*
X159000000Y-70950000D02*
X158650000Y-70600000D01*
X159000000Y-77775000D02*
X159000000Y-70950000D01*
X161200000Y-79975000D02*
X159000000Y-77775000D01*
D44*
X161200000Y-85400000D02*
X161200000Y-84350000D01*
D40*
X174400000Y-47050000D02*
X174400000Y-42140000D01*
X174400000Y-42140000D02*
X174540000Y-42000000D01*
D44*
X174540000Y-40730000D02*
X174540000Y-42000000D01*
X173860000Y-40050000D02*
X174540000Y-40730000D01*
X172600000Y-40050000D02*
X173860000Y-40050000D01*
X172000000Y-40650000D02*
X172600000Y-40050000D01*
X172000000Y-40730000D02*
X172000000Y-40650000D01*
X172000000Y-42000000D02*
X172000000Y-40730000D01*
D40*
X174400000Y-47050000D02*
X174540000Y-46910000D01*
X172950000Y-52850000D02*
X171650000Y-54150000D01*
X171650000Y-54150000D02*
X171700000Y-54200000D01*
X171700000Y-54200000D02*
X171700000Y-60350000D01*
X174400000Y-47050000D02*
X172950000Y-48500000D01*
X172950000Y-48500000D02*
X172950000Y-52050000D01*
X172950000Y-52050000D02*
X172950000Y-52850000D01*
X166925042Y-66250000D02*
X166228781Y-65553739D01*
X167300000Y-66250000D02*
X166925042Y-66250000D01*
D44*
X164500000Y-85400000D02*
X164450000Y-85350000D01*
X162550000Y-54098056D02*
X162550000Y-54100000D01*
X162550000Y-54100000D02*
X162550000Y-54098891D01*
X161984712Y-53532768D02*
X162525972Y-54074028D01*
X162550000Y-54098056D02*
X162550000Y-54098891D01*
X162525972Y-54074028D02*
X162550000Y-54098056D01*
X164500000Y-84350000D02*
X164350000Y-84200000D01*
X163200000Y-54950000D02*
X163200000Y-54850000D01*
X163200000Y-54850000D02*
X162525972Y-54074028D01*
X163250000Y-56250000D02*
X163150000Y-67500000D01*
X163050000Y-67600000D02*
X163150000Y-67500000D01*
X160300000Y-70600000D02*
X160300000Y-74200000D01*
X164300000Y-78200000D02*
X160300000Y-74200000D01*
X164350000Y-78200000D02*
X164300000Y-78200000D01*
X164350000Y-84200000D02*
X164350000Y-78200000D01*
X160300000Y-70600000D02*
X163050000Y-67600000D01*
X163250000Y-56250000D02*
X163200000Y-54950000D01*
X164500000Y-85400000D02*
X164500000Y-84350000D01*
X168349917Y-63432603D02*
X168307603Y-63432603D01*
X168307603Y-63432603D02*
X166875000Y-62000000D01*
X166875000Y-62000000D02*
X166564714Y-62000000D01*
X166564714Y-62000000D02*
X164000000Y-64564714D01*
X164000000Y-64564714D02*
X164000000Y-66375000D01*
X164000000Y-66375000D02*
X163975000Y-66400000D01*
X163975000Y-66400000D02*
X163975000Y-69725000D01*
X163975000Y-69725000D02*
X165600000Y-71350000D01*
X165600000Y-71350000D02*
X165600000Y-72000000D01*
X165600000Y-72000000D02*
X165550000Y-71950000D01*
X165600000Y-72000000D02*
X165450000Y-71850000D01*
X165600000Y-72000000D02*
X165600000Y-73000000D01*
D40*
X163550000Y-70400000D02*
X163550000Y-67950000D01*
X163725000Y-70575000D02*
X163550000Y-70400000D01*
X166450000Y-61650000D02*
X163650000Y-64450000D01*
X163650000Y-66100000D02*
X163550000Y-66200000D01*
X163550000Y-66200000D02*
X163550000Y-67950000D01*
X163650000Y-64450000D02*
X163650000Y-66100000D01*
X169057561Y-62724959D02*
X167982602Y-61650000D01*
X167982602Y-61650000D02*
X166500000Y-61650000D01*
X166500000Y-61650000D02*
X166450000Y-61650000D01*
X163550000Y-67950000D02*
X163550000Y-67900000D01*
D44*
X162750000Y-65550000D02*
X162900000Y-57700000D01*
X162900000Y-57700000D02*
X162650000Y-57450000D01*
X163900000Y-56900000D02*
X163900000Y-55859753D01*
X163900000Y-55859753D02*
X165521136Y-54238617D01*
X162550000Y-67600000D02*
X162800000Y-67350000D01*
X163850000Y-78300000D02*
X159900000Y-74350000D01*
X163850000Y-83900000D02*
X163850000Y-78300000D01*
X163400000Y-84350000D02*
X163850000Y-83900000D01*
X159900000Y-70450000D02*
X159950000Y-70400000D01*
X159900000Y-74350000D02*
X159900000Y-70450000D01*
X159950000Y-70400000D02*
X162550000Y-67600000D01*
X162800000Y-67350000D02*
X162800000Y-65600000D01*
X162800000Y-65600000D02*
X162750000Y-65550000D01*
X163400000Y-85400000D02*
X163400000Y-84350000D01*
D40*
X154900000Y-84350000D02*
X154900000Y-85400000D01*
D44*
X158200000Y-72000000D02*
X158200000Y-73000000D01*
X164500000Y-73000000D02*
X164500000Y-72000000D01*
X166700000Y-73000000D02*
X166700000Y-72000000D01*
X169400000Y-67225000D02*
X168500000Y-67225000D01*
X166809753Y-67550000D02*
X165521136Y-66261383D01*
X168175000Y-67550000D02*
X166809753Y-67550000D01*
X168500000Y-67225000D02*
X168175000Y-67550000D01*
D40*
X169400000Y-67225000D02*
X169400000Y-67200000D01*
X180200000Y-64925000D02*
X178550000Y-64925000D01*
X180375000Y-64750000D02*
X180200000Y-64925000D01*
D44*
X157034794Y-62017314D02*
X157032686Y-62017314D01*
X157032686Y-62017314D02*
X156075000Y-62975000D01*
X156075000Y-62975000D02*
X156325000Y-62800000D01*
X152600000Y-64025000D02*
X152755000Y-64180000D01*
X152755000Y-64180000D02*
X152755000Y-65060000D01*
X162250000Y-74250000D02*
X162250000Y-72050000D01*
X162300000Y-72000000D02*
X162250000Y-72050000D01*
X162300000Y-72000000D02*
X162300000Y-73000000D01*
X163200000Y-73200000D02*
X163400000Y-73000000D01*
X163200000Y-74900000D02*
X163200000Y-73200000D01*
X163400000Y-72000000D02*
X163400000Y-73000000D01*
D40*
X145475680Y-52825240D02*
X146625240Y-52825240D01*
X146625240Y-52825240D02*
X147250000Y-53450000D01*
D44*
X145950680Y-52850240D02*
X145900920Y-52900000D01*
X157100000Y-72000000D02*
X157100000Y-73000000D01*
D40*
X165600000Y-83300000D02*
X165600000Y-84350000D01*
D44*
X165600000Y-84350000D02*
X165600000Y-85400000D01*
D43*
X181550000Y-86150000D02*
X181550000Y-82600000D01*
X181550000Y-82600000D02*
X181225000Y-82275000D01*
M02*
