G04 #@! TF.FileFunction,Legend,Top*
%FSLAX46Y46*%
G04 Gerber Fmt 4.6, Leading zero omitted, Abs format (unit mm)*
G04 Created by KiCad (PCBNEW (after 2015-may-01 BZR unknown)-product) date Tue 12 May 2015 01:07:24 EDT*
%MOMM*%
G01*
G04 APERTURE LIST*
%ADD10C,0.100000*%
%ADD11C,0.200000*%
%ADD12C,0.300000*%
%ADD13C,0.150000*%
%ADD14C,0.203200*%
%ADD15C,0.254000*%
%ADD16C,0.381000*%
%ADD17C,0.200660*%
%ADD18C,0.099060*%
%ADD19C,0.127000*%
%ADD20C,0.101600*%
%ADD21C,0.149860*%
%ADD22C,0.198120*%
%ADD23C,0.088900*%
%ADD24C,0.304800*%
%ADD25C,0.078740*%
G04 APERTURE END LIST*
D10*
D11*
X109054508Y-48000000D02*
G75*
G03X109054508Y-48000000I-279508J0D01*
G01*
X108975000Y-46450000D02*
G75*
G03X108975000Y-46450000I-200000J0D01*
G01*
X108623607Y-46475000D02*
G75*
G03X108623607Y-46475000I-223607J0D01*
G01*
X108425000Y-46675000D02*
G75*
G03X108425000Y-46675000I-200000J0D01*
G01*
X108450000Y-47775000D02*
G75*
G03X108450000Y-47775000I-250000J0D01*
G01*
X108643198Y-47475000D02*
G75*
G03X108643198Y-47475000I-318198J0D01*
G01*
X108794121Y-47500000D02*
G75*
G03X108794121Y-47500000I-369121J0D01*
G01*
X108450000Y-47950000D02*
G75*
G03X108450000Y-47950000I-325000J0D01*
G01*
X108805330Y-47950000D02*
G75*
G03X108805330Y-47950000I-530330J0D01*
G01*
X109059439Y-47125000D02*
G75*
G03X109059439Y-47125000I-534439J0D01*
G01*
X109015388Y-47550000D02*
G75*
G03X109015388Y-47550000I-515388J0D01*
G01*
X108942663Y-47275000D02*
G75*
G03X108942663Y-47275000I-592663J0D01*
G01*
X108925595Y-47325000D02*
G75*
G03X108925595Y-47325000I-525595J0D01*
G01*
X108978887Y-47350000D02*
G75*
G03X108978887Y-47350000I-403887J0D01*
G01*
D12*
X99721428Y-92078571D02*
X100578571Y-92078571D01*
X100149999Y-92078571D02*
X100149999Y-90578571D01*
X100292856Y-90792857D01*
X100435714Y-90935714D01*
X100578571Y-91007143D01*
X86350000Y-113028571D02*
X86850000Y-114528571D01*
X87350000Y-113028571D01*
X87850000Y-114528571D02*
X87850000Y-113028571D01*
X88564286Y-114528571D02*
X88564286Y-113028571D01*
X89421429Y-114528571D01*
X89421429Y-113028571D01*
X92064286Y-113100000D02*
X91921429Y-113028571D01*
X91707143Y-113028571D01*
X91492858Y-113100000D01*
X91350000Y-113242857D01*
X91278572Y-113385714D01*
X91207143Y-113671429D01*
X91207143Y-113885714D01*
X91278572Y-114171429D01*
X91350000Y-114314286D01*
X91492858Y-114457143D01*
X91707143Y-114528571D01*
X91850000Y-114528571D01*
X92064286Y-114457143D01*
X92135715Y-114385714D01*
X92135715Y-113885714D01*
X91850000Y-113885714D01*
X92778572Y-114528571D02*
X92778572Y-113028571D01*
X93635715Y-114528571D01*
X93635715Y-113028571D01*
X94350001Y-114528571D02*
X94350001Y-113028571D01*
X94707144Y-113028571D01*
X94921429Y-113100000D01*
X95064287Y-113242857D01*
X95135715Y-113385714D01*
X95207144Y-113671429D01*
X95207144Y-113885714D01*
X95135715Y-114171429D01*
X95064287Y-114314286D01*
X94921429Y-114457143D01*
X94707144Y-114528571D01*
X94350001Y-114528571D01*
D13*
X82500000Y-77175000D02*
X82500000Y-87175000D01*
X82500000Y-87175000D02*
X68500000Y-87175000D01*
X68500000Y-87175000D02*
X68500000Y-77175000D01*
X68500000Y-77175000D02*
X72500000Y-77175000D01*
X84400000Y-70250000D02*
X84400000Y-69550000D01*
X85600000Y-69550000D02*
X85600000Y-70250000D01*
X89673223Y-69821751D02*
X89178249Y-69326777D01*
X90026777Y-68478249D02*
X90521751Y-68973223D01*
X106850000Y-61450000D02*
X106850000Y-60750000D01*
X108050000Y-60750000D02*
X108050000Y-61450000D01*
X103850000Y-56550000D02*
X104550000Y-56550000D01*
X104550000Y-57750000D02*
X103850000Y-57750000D01*
X114750000Y-82650000D02*
X115450000Y-82650000D01*
X115450000Y-83850000D02*
X114750000Y-83850000D01*
X121950000Y-47800000D02*
X122650000Y-47800000D01*
X122650000Y-49000000D02*
X121950000Y-49000000D01*
X122300000Y-45500000D02*
X123000000Y-45500000D01*
X123000000Y-46700000D02*
X122300000Y-46700000D01*
X114550000Y-70100000D02*
X115250000Y-70100000D01*
X115250000Y-71300000D02*
X114550000Y-71300000D01*
X82449720Y-50847840D02*
X82774840Y-50847840D01*
X82774840Y-50847840D02*
X82774840Y-51348220D01*
X82449720Y-51348220D02*
X82774840Y-51348220D01*
X82449720Y-50847840D02*
X82449720Y-51348220D01*
X81827420Y-50847840D02*
X81977280Y-50847840D01*
X81977280Y-50847840D02*
X81977280Y-51099300D01*
X81827420Y-51099300D02*
X81977280Y-51099300D01*
X81827420Y-50847840D02*
X81827420Y-51099300D01*
X82322720Y-50847840D02*
X82472580Y-50847840D01*
X82472580Y-50847840D02*
X82472580Y-51099300D01*
X82322720Y-51099300D02*
X82472580Y-51099300D01*
X82322720Y-50847840D02*
X82322720Y-51099300D01*
X81951880Y-50847840D02*
X82348120Y-50847840D01*
X82348120Y-50847840D02*
X82348120Y-51023100D01*
X81951880Y-51023100D02*
X82348120Y-51023100D01*
X81951880Y-50847840D02*
X81951880Y-51023100D01*
X82449720Y-49351780D02*
X82774840Y-49351780D01*
X82774840Y-49351780D02*
X82774840Y-49852160D01*
X82449720Y-49852160D02*
X82774840Y-49852160D01*
X82449720Y-49351780D02*
X82449720Y-49852160D01*
X81525160Y-49351780D02*
X81850280Y-49351780D01*
X81850280Y-49351780D02*
X81850280Y-49852160D01*
X81525160Y-49852160D02*
X81850280Y-49852160D01*
X81525160Y-49351780D02*
X81525160Y-49852160D01*
X82322720Y-49600700D02*
X82472580Y-49600700D01*
X82472580Y-49600700D02*
X82472580Y-49852160D01*
X82322720Y-49852160D02*
X82472580Y-49852160D01*
X82322720Y-49600700D02*
X82322720Y-49852160D01*
X81827420Y-49600700D02*
X81977280Y-49600700D01*
X81977280Y-49600700D02*
X81977280Y-49852160D01*
X81827420Y-49852160D02*
X81977280Y-49852160D01*
X81827420Y-49600700D02*
X81827420Y-49852160D01*
X81951880Y-49676900D02*
X82348120Y-49676900D01*
X82348120Y-49676900D02*
X82348120Y-49852160D01*
X81951880Y-49852160D02*
X82348120Y-49852160D01*
X81951880Y-49676900D02*
X81951880Y-49852160D01*
X82050940Y-50350000D02*
X82249060Y-50350000D01*
X82249060Y-50350000D02*
X82249060Y-50548120D01*
X82050940Y-50548120D02*
X82249060Y-50548120D01*
X82050940Y-50350000D02*
X82050940Y-50548120D01*
X81550560Y-50847840D02*
X81850280Y-50847840D01*
X81850280Y-50847840D02*
X81850280Y-51147560D01*
X81550560Y-51147560D02*
X81850280Y-51147560D01*
X81550560Y-50847840D02*
X81550560Y-51147560D01*
X81525160Y-51274560D02*
X81751220Y-51274560D01*
X81751220Y-51274560D02*
X81751220Y-51348220D01*
X81525160Y-51348220D02*
X81751220Y-51348220D01*
X81525160Y-51274560D02*
X81525160Y-51348220D01*
X82724040Y-50873240D02*
X82724040Y-49826760D01*
X81575960Y-49852160D02*
X81575960Y-51274560D01*
X81772262Y-51198360D02*
G75*
G03X81772262Y-51198360I-71842J0D01*
G01*
X81802020Y-51348220D02*
G75*
G02X82497980Y-51348220I347980J0D01*
G01*
X82497980Y-49351780D02*
G75*
G02X81802020Y-49351780I-347980J0D01*
G01*
X84249720Y-50847840D02*
X84574840Y-50847840D01*
X84574840Y-50847840D02*
X84574840Y-51348220D01*
X84249720Y-51348220D02*
X84574840Y-51348220D01*
X84249720Y-50847840D02*
X84249720Y-51348220D01*
X83627420Y-50847840D02*
X83777280Y-50847840D01*
X83777280Y-50847840D02*
X83777280Y-51099300D01*
X83627420Y-51099300D02*
X83777280Y-51099300D01*
X83627420Y-50847840D02*
X83627420Y-51099300D01*
X84122720Y-50847840D02*
X84272580Y-50847840D01*
X84272580Y-50847840D02*
X84272580Y-51099300D01*
X84122720Y-51099300D02*
X84272580Y-51099300D01*
X84122720Y-50847840D02*
X84122720Y-51099300D01*
X83751880Y-50847840D02*
X84148120Y-50847840D01*
X84148120Y-50847840D02*
X84148120Y-51023100D01*
X83751880Y-51023100D02*
X84148120Y-51023100D01*
X83751880Y-50847840D02*
X83751880Y-51023100D01*
X84249720Y-49351780D02*
X84574840Y-49351780D01*
X84574840Y-49351780D02*
X84574840Y-49852160D01*
X84249720Y-49852160D02*
X84574840Y-49852160D01*
X84249720Y-49351780D02*
X84249720Y-49852160D01*
X83325160Y-49351780D02*
X83650280Y-49351780D01*
X83650280Y-49351780D02*
X83650280Y-49852160D01*
X83325160Y-49852160D02*
X83650280Y-49852160D01*
X83325160Y-49351780D02*
X83325160Y-49852160D01*
X84122720Y-49600700D02*
X84272580Y-49600700D01*
X84272580Y-49600700D02*
X84272580Y-49852160D01*
X84122720Y-49852160D02*
X84272580Y-49852160D01*
X84122720Y-49600700D02*
X84122720Y-49852160D01*
X83627420Y-49600700D02*
X83777280Y-49600700D01*
X83777280Y-49600700D02*
X83777280Y-49852160D01*
X83627420Y-49852160D02*
X83777280Y-49852160D01*
X83627420Y-49600700D02*
X83627420Y-49852160D01*
X83751880Y-49676900D02*
X84148120Y-49676900D01*
X84148120Y-49676900D02*
X84148120Y-49852160D01*
X83751880Y-49852160D02*
X84148120Y-49852160D01*
X83751880Y-49676900D02*
X83751880Y-49852160D01*
X83850940Y-50350000D02*
X84049060Y-50350000D01*
X84049060Y-50350000D02*
X84049060Y-50548120D01*
X83850940Y-50548120D02*
X84049060Y-50548120D01*
X83850940Y-50350000D02*
X83850940Y-50548120D01*
X83350560Y-50847840D02*
X83650280Y-50847840D01*
X83650280Y-50847840D02*
X83650280Y-51147560D01*
X83350560Y-51147560D02*
X83650280Y-51147560D01*
X83350560Y-50847840D02*
X83350560Y-51147560D01*
X83325160Y-51274560D02*
X83551220Y-51274560D01*
X83551220Y-51274560D02*
X83551220Y-51348220D01*
X83325160Y-51348220D02*
X83551220Y-51348220D01*
X83325160Y-51274560D02*
X83325160Y-51348220D01*
X84524040Y-50873240D02*
X84524040Y-49826760D01*
X83375960Y-49852160D02*
X83375960Y-51274560D01*
X83572262Y-51198360D02*
G75*
G03X83572262Y-51198360I-71842J0D01*
G01*
X83602020Y-51348220D02*
G75*
G02X84297980Y-51348220I347980J0D01*
G01*
X84297980Y-49351780D02*
G75*
G02X83602020Y-49351780I-347980J0D01*
G01*
X85949720Y-50847840D02*
X86274840Y-50847840D01*
X86274840Y-50847840D02*
X86274840Y-51348220D01*
X85949720Y-51348220D02*
X86274840Y-51348220D01*
X85949720Y-50847840D02*
X85949720Y-51348220D01*
X85327420Y-50847840D02*
X85477280Y-50847840D01*
X85477280Y-50847840D02*
X85477280Y-51099300D01*
X85327420Y-51099300D02*
X85477280Y-51099300D01*
X85327420Y-50847840D02*
X85327420Y-51099300D01*
X85822720Y-50847840D02*
X85972580Y-50847840D01*
X85972580Y-50847840D02*
X85972580Y-51099300D01*
X85822720Y-51099300D02*
X85972580Y-51099300D01*
X85822720Y-50847840D02*
X85822720Y-51099300D01*
X85451880Y-50847840D02*
X85848120Y-50847840D01*
X85848120Y-50847840D02*
X85848120Y-51023100D01*
X85451880Y-51023100D02*
X85848120Y-51023100D01*
X85451880Y-50847840D02*
X85451880Y-51023100D01*
X85949720Y-49351780D02*
X86274840Y-49351780D01*
X86274840Y-49351780D02*
X86274840Y-49852160D01*
X85949720Y-49852160D02*
X86274840Y-49852160D01*
X85949720Y-49351780D02*
X85949720Y-49852160D01*
X85025160Y-49351780D02*
X85350280Y-49351780D01*
X85350280Y-49351780D02*
X85350280Y-49852160D01*
X85025160Y-49852160D02*
X85350280Y-49852160D01*
X85025160Y-49351780D02*
X85025160Y-49852160D01*
X85822720Y-49600700D02*
X85972580Y-49600700D01*
X85972580Y-49600700D02*
X85972580Y-49852160D01*
X85822720Y-49852160D02*
X85972580Y-49852160D01*
X85822720Y-49600700D02*
X85822720Y-49852160D01*
X85327420Y-49600700D02*
X85477280Y-49600700D01*
X85477280Y-49600700D02*
X85477280Y-49852160D01*
X85327420Y-49852160D02*
X85477280Y-49852160D01*
X85327420Y-49600700D02*
X85327420Y-49852160D01*
X85451880Y-49676900D02*
X85848120Y-49676900D01*
X85848120Y-49676900D02*
X85848120Y-49852160D01*
X85451880Y-49852160D02*
X85848120Y-49852160D01*
X85451880Y-49676900D02*
X85451880Y-49852160D01*
X85550940Y-50350000D02*
X85749060Y-50350000D01*
X85749060Y-50350000D02*
X85749060Y-50548120D01*
X85550940Y-50548120D02*
X85749060Y-50548120D01*
X85550940Y-50350000D02*
X85550940Y-50548120D01*
X85050560Y-50847840D02*
X85350280Y-50847840D01*
X85350280Y-50847840D02*
X85350280Y-51147560D01*
X85050560Y-51147560D02*
X85350280Y-51147560D01*
X85050560Y-50847840D02*
X85050560Y-51147560D01*
X85025160Y-51274560D02*
X85251220Y-51274560D01*
X85251220Y-51274560D02*
X85251220Y-51348220D01*
X85025160Y-51348220D02*
X85251220Y-51348220D01*
X85025160Y-51274560D02*
X85025160Y-51348220D01*
X86224040Y-50873240D02*
X86224040Y-49826760D01*
X85075960Y-49852160D02*
X85075960Y-51274560D01*
X85272262Y-51198360D02*
G75*
G03X85272262Y-51198360I-71842J0D01*
G01*
X85302020Y-51348220D02*
G75*
G02X85997980Y-51348220I347980J0D01*
G01*
X85997980Y-49351780D02*
G75*
G02X85302020Y-49351780I-347980J0D01*
G01*
X87749720Y-50947840D02*
X88074840Y-50947840D01*
X88074840Y-50947840D02*
X88074840Y-51448220D01*
X87749720Y-51448220D02*
X88074840Y-51448220D01*
X87749720Y-50947840D02*
X87749720Y-51448220D01*
X87127420Y-50947840D02*
X87277280Y-50947840D01*
X87277280Y-50947840D02*
X87277280Y-51199300D01*
X87127420Y-51199300D02*
X87277280Y-51199300D01*
X87127420Y-50947840D02*
X87127420Y-51199300D01*
X87622720Y-50947840D02*
X87772580Y-50947840D01*
X87772580Y-50947840D02*
X87772580Y-51199300D01*
X87622720Y-51199300D02*
X87772580Y-51199300D01*
X87622720Y-50947840D02*
X87622720Y-51199300D01*
X87251880Y-50947840D02*
X87648120Y-50947840D01*
X87648120Y-50947840D02*
X87648120Y-51123100D01*
X87251880Y-51123100D02*
X87648120Y-51123100D01*
X87251880Y-50947840D02*
X87251880Y-51123100D01*
X87749720Y-49451780D02*
X88074840Y-49451780D01*
X88074840Y-49451780D02*
X88074840Y-49952160D01*
X87749720Y-49952160D02*
X88074840Y-49952160D01*
X87749720Y-49451780D02*
X87749720Y-49952160D01*
X86825160Y-49451780D02*
X87150280Y-49451780D01*
X87150280Y-49451780D02*
X87150280Y-49952160D01*
X86825160Y-49952160D02*
X87150280Y-49952160D01*
X86825160Y-49451780D02*
X86825160Y-49952160D01*
X87622720Y-49700700D02*
X87772580Y-49700700D01*
X87772580Y-49700700D02*
X87772580Y-49952160D01*
X87622720Y-49952160D02*
X87772580Y-49952160D01*
X87622720Y-49700700D02*
X87622720Y-49952160D01*
X87127420Y-49700700D02*
X87277280Y-49700700D01*
X87277280Y-49700700D02*
X87277280Y-49952160D01*
X87127420Y-49952160D02*
X87277280Y-49952160D01*
X87127420Y-49700700D02*
X87127420Y-49952160D01*
X87251880Y-49776900D02*
X87648120Y-49776900D01*
X87648120Y-49776900D02*
X87648120Y-49952160D01*
X87251880Y-49952160D02*
X87648120Y-49952160D01*
X87251880Y-49776900D02*
X87251880Y-49952160D01*
X87350940Y-50450000D02*
X87549060Y-50450000D01*
X87549060Y-50450000D02*
X87549060Y-50648120D01*
X87350940Y-50648120D02*
X87549060Y-50648120D01*
X87350940Y-50450000D02*
X87350940Y-50648120D01*
X86850560Y-50947840D02*
X87150280Y-50947840D01*
X87150280Y-50947840D02*
X87150280Y-51247560D01*
X86850560Y-51247560D02*
X87150280Y-51247560D01*
X86850560Y-50947840D02*
X86850560Y-51247560D01*
X86825160Y-51374560D02*
X87051220Y-51374560D01*
X87051220Y-51374560D02*
X87051220Y-51448220D01*
X86825160Y-51448220D02*
X87051220Y-51448220D01*
X86825160Y-51374560D02*
X86825160Y-51448220D01*
X88024040Y-50973240D02*
X88024040Y-49926760D01*
X86875960Y-49952160D02*
X86875960Y-51374560D01*
X87072262Y-51298360D02*
G75*
G03X87072262Y-51298360I-71842J0D01*
G01*
X87102020Y-51448220D02*
G75*
G02X87797980Y-51448220I347980J0D01*
G01*
X87797980Y-49451780D02*
G75*
G02X87102020Y-49451780I-347980J0D01*
G01*
X108074000Y-47300000D02*
X108836000Y-48316000D01*
X108074000Y-47300000D02*
X108836000Y-46284000D01*
X108074000Y-46284000D02*
X108074000Y-48316000D01*
X108836000Y-46284000D02*
X108836000Y-48316000D01*
D14*
X84730192Y-67858112D02*
X85858112Y-66730192D01*
X87269808Y-68141888D02*
X86141888Y-69269808D01*
X85789862Y-69201558D02*
G75*
G03X86141888Y-69269808I210138J141888D01*
G01*
X87271604Y-68140092D02*
G75*
G03X87199762Y-67788066I-211934J140092D01*
G01*
X86210138Y-66798442D02*
G75*
G03X85858112Y-66730192I-210138J-141888D01*
G01*
X84728396Y-67859908D02*
G75*
G03X84800238Y-68211934I211934J-140092D01*
G01*
D15*
X117150000Y-46550000D02*
X117150000Y-44150000D01*
X119550000Y-44150000D02*
X112150000Y-44150000D01*
X112150000Y-44150000D02*
X112150000Y-46350000D01*
X112150000Y-46350000D02*
X112150000Y-46550000D01*
X112150000Y-46550000D02*
X119750000Y-46550000D01*
X119750000Y-46550000D02*
X119750000Y-44150000D01*
X119750000Y-44150000D02*
X119550000Y-44150000D01*
X77700000Y-44000000D02*
X77700000Y-41600000D01*
X80100000Y-41600000D02*
X72700000Y-41600000D01*
X72700000Y-41600000D02*
X72700000Y-43800000D01*
X72700000Y-43800000D02*
X72700000Y-44000000D01*
X72700000Y-44000000D02*
X80300000Y-44000000D01*
X80300000Y-44000000D02*
X80300000Y-41600000D01*
X80300000Y-41600000D02*
X80100000Y-41600000D01*
X72550000Y-46900000D02*
X82950000Y-46900000D01*
X82950000Y-44500000D02*
X72550000Y-44500000D01*
X82950000Y-46900000D02*
X82950000Y-44500000D01*
X80350000Y-44500000D02*
X80350000Y-46900000D01*
X72550000Y-46900000D02*
X72550000Y-44500000D01*
X112000000Y-43600000D02*
X122400000Y-43600000D01*
X122400000Y-41200000D02*
X112000000Y-41200000D01*
X122400000Y-43600000D02*
X122400000Y-41200000D01*
X119800000Y-41200000D02*
X119800000Y-43600000D01*
X112000000Y-43600000D02*
X112000000Y-41200000D01*
D16*
X72180000Y-72690000D02*
X74720000Y-72690000D01*
X74720000Y-62550000D02*
X74720000Y-75250000D01*
X74720000Y-75250000D02*
X72180000Y-75250000D01*
X72180000Y-75250000D02*
X72180000Y-62550000D01*
X72180000Y-62550000D02*
X74720000Y-62550000D01*
D15*
X77650000Y-61050000D02*
X75250000Y-61050000D01*
X77650000Y-58650000D02*
X75250000Y-58650000D01*
X75250000Y-58650000D02*
X75250000Y-76450000D01*
X75250000Y-76450000D02*
X77650000Y-76450000D01*
X77650000Y-76450000D02*
X77650000Y-58650000D01*
D13*
X90560000Y-44470000D02*
X98180000Y-44470000D01*
X98180000Y-44470000D02*
X98180000Y-53360000D01*
X98180000Y-53360000D02*
X90560000Y-53360000D01*
X90560000Y-53360000D02*
X90560000Y-44470000D01*
X105175000Y-48500000D02*
X105175000Y-49500000D01*
X103825000Y-49500000D02*
X103825000Y-48500000D01*
X102925000Y-48500000D02*
X102925000Y-49500000D01*
X101575000Y-49500000D02*
X101575000Y-48500000D01*
X81525000Y-54350000D02*
X81525000Y-53350000D01*
X82875000Y-53350000D02*
X82875000Y-54350000D01*
X83425000Y-54350000D02*
X83425000Y-53350000D01*
X84775000Y-53350000D02*
X84775000Y-54350000D01*
X85025000Y-54350000D02*
X85025000Y-53350000D01*
X86375000Y-53350000D02*
X86375000Y-54350000D01*
X86975000Y-54350000D02*
X86975000Y-53350000D01*
X88325000Y-53350000D02*
X88325000Y-54350000D01*
X102950000Y-66325000D02*
X101950000Y-66325000D01*
X101950000Y-64975000D02*
X102950000Y-64975000D01*
X115550000Y-81825000D02*
X114550000Y-81825000D01*
X114550000Y-80475000D02*
X115550000Y-80475000D01*
X114800000Y-84925000D02*
X115800000Y-84925000D01*
X115800000Y-86275000D02*
X114800000Y-86275000D01*
X115300000Y-75625000D02*
X114300000Y-75625000D01*
X114300000Y-74275000D02*
X115300000Y-74275000D01*
X115350000Y-73475000D02*
X114350000Y-73475000D01*
X114350000Y-72125000D02*
X115350000Y-72125000D01*
X136700000Y-88300000D02*
X117700000Y-88300000D01*
X117700000Y-88300000D02*
X117700000Y-52700000D01*
X117700000Y-52700000D02*
X136700000Y-52700000D01*
X136700000Y-52700000D02*
X136700000Y-88300000D01*
D17*
X70975740Y-48373740D02*
X70975740Y-58274660D01*
X70975740Y-58274660D02*
X74374260Y-58274660D01*
X74374260Y-58274660D02*
X74374260Y-57075780D01*
X74374260Y-57075780D02*
X76876160Y-57075780D01*
X76876160Y-57075780D02*
X76876160Y-49674220D01*
X76876160Y-49674220D02*
X74475860Y-49674220D01*
X74475860Y-49674220D02*
X74475860Y-48373740D01*
X74475860Y-48373740D02*
X70975740Y-48373740D01*
D18*
X105549540Y-63799360D02*
X105549540Y-63601240D01*
X105549540Y-63601240D02*
X105750200Y-63601240D01*
X105750200Y-63799360D02*
X105750200Y-58800640D01*
X105750200Y-58800640D02*
X102549800Y-58800640D01*
X102549800Y-58800640D02*
X102549800Y-63799360D01*
X102549800Y-63799360D02*
X105750200Y-63799360D01*
D16*
X126950400Y-41700400D02*
X133249600Y-41700400D01*
X133249600Y-41700400D02*
X133249600Y-47999600D01*
X133249600Y-47999600D02*
X126950400Y-47999600D01*
X126950400Y-47999600D02*
X126950400Y-41700400D01*
D13*
X100850000Y-44825000D02*
X101850000Y-44825000D01*
X101850000Y-46175000D02*
X100850000Y-46175000D01*
X82900000Y-87200000D02*
X98900000Y-87200000D01*
X98900000Y-87200000D02*
X98900000Y-72600000D01*
X98900000Y-72600000D02*
X82900000Y-72600000D01*
X82900000Y-72600000D02*
X82900000Y-87200000D01*
D14*
X78410000Y-67260760D02*
X79410760Y-66260000D01*
X79710480Y-66260000D02*
X82220000Y-66260000D01*
X82489240Y-66260000D02*
X83490000Y-67260760D01*
X83490000Y-67260760D02*
X83490000Y-70339240D01*
X83490000Y-70339240D02*
X82489240Y-71340000D01*
X82189520Y-71340000D02*
X79710480Y-71340000D01*
X79410760Y-71340000D02*
X78410000Y-70339240D01*
X78410000Y-70339240D02*
X78410000Y-67260760D01*
D19*
X82220000Y-70705000D02*
X81394500Y-70705000D01*
X81394500Y-70705000D02*
X80942380Y-70959000D01*
X80721400Y-70705000D02*
X79837480Y-70705000D01*
D20*
X81848026Y-68800000D02*
G75*
G03X81848026Y-68800000I-898026J0D01*
G01*
D13*
X99350000Y-53250000D02*
X99350000Y-53950000D01*
X98150000Y-53950000D02*
X98150000Y-53250000D01*
X84351777Y-61828249D02*
X84846751Y-62323223D01*
X83998223Y-63171751D02*
X83503249Y-62676777D01*
D21*
X85369276Y-61379954D02*
X85369276Y-61520046D01*
X85511164Y-61661934D02*
X85511164Y-61238066D01*
X85651256Y-61097974D02*
X85651256Y-61802026D01*
X85793144Y-61943914D02*
X85793144Y-60956086D01*
X85935032Y-60814198D02*
X85935032Y-62085802D01*
X86076920Y-62227690D02*
X86076920Y-60672310D01*
X86217012Y-60532218D02*
X86217012Y-62367782D01*
X86358900Y-62509670D02*
X86358900Y-60390330D01*
X86500788Y-62651558D02*
X85299230Y-61450000D01*
X85299230Y-61450000D02*
X86500788Y-60248442D01*
X86500788Y-60248442D02*
X86500788Y-62651558D01*
X94701558Y-68449212D02*
X93500000Y-69650770D01*
X93500000Y-69650770D02*
X92298442Y-68449212D01*
X100499212Y-60248442D02*
X101700770Y-61450000D01*
X101700770Y-61450000D02*
X100499212Y-62651558D01*
X92298442Y-54450788D02*
X93500000Y-53249230D01*
X93500000Y-53249230D02*
X94701558Y-54450788D01*
D19*
X93140790Y-68167232D02*
X86782768Y-61809210D01*
X93859210Y-68167232D02*
X100217232Y-61809210D01*
X93859210Y-54732768D02*
X100217232Y-61090790D01*
X86782768Y-61090790D02*
X93140790Y-54732768D01*
X88241399Y-61450000D02*
G75*
G03X88241399Y-61450000I-381000J0D01*
G01*
X86782768Y-61809210D02*
X86782768Y-61090790D01*
X93859210Y-68167232D02*
X93140790Y-68167232D01*
X100217232Y-61090790D02*
X100217232Y-61809210D01*
X93140790Y-54732768D02*
X93859210Y-54732768D01*
D13*
X99825000Y-80475000D02*
X112825000Y-80475000D01*
X112825000Y-80475000D02*
X112825000Y-86475000D01*
X112825000Y-86475000D02*
X99825000Y-86475000D01*
X99825000Y-86475000D02*
X99825000Y-80475000D01*
X110400000Y-86675000D02*
X111400000Y-86675000D01*
X111400000Y-88025000D02*
X110400000Y-88025000D01*
X110990000Y-40660000D02*
X110990000Y-44470000D01*
X110990000Y-44470000D02*
X95750000Y-44470000D01*
X95750000Y-44470000D02*
X95750000Y-40660000D01*
X95750000Y-40660000D02*
X110990000Y-40660000D01*
X74170000Y-93490000D02*
X77980000Y-93490000D01*
X77980000Y-93490000D02*
X77980000Y-108730000D01*
X77980000Y-108730000D02*
X74170000Y-108730000D01*
X74170000Y-108730000D02*
X74170000Y-93490000D01*
X92800000Y-99300000D02*
X93500000Y-99300000D01*
X93500000Y-100500000D02*
X92800000Y-100500000D01*
X90650000Y-100300000D02*
X89950000Y-100300000D01*
X89950000Y-99100000D02*
X90650000Y-99100000D01*
X86900000Y-95350000D02*
X86900000Y-96050000D01*
X85700000Y-96050000D02*
X85700000Y-95350000D01*
X82538000Y-107621000D02*
X84062000Y-107621000D01*
X84443000Y-107494000D02*
X82157000Y-107494000D01*
X81903000Y-107367000D02*
X84697000Y-107367000D01*
X84951000Y-107240000D02*
X81649000Y-107240000D01*
X81522000Y-107113000D02*
X85078000Y-107113000D01*
X86348000Y-104700000D02*
G75*
G03X86348000Y-104700000I-3048000J0D01*
G01*
X79998000Y-108002000D02*
X86602000Y-108002000D01*
X86602000Y-108002000D02*
X86602000Y-102160000D01*
X86602000Y-102160000D02*
X85840000Y-101398000D01*
X85840000Y-101398000D02*
X80760000Y-101398000D01*
X80760000Y-101398000D02*
X79998000Y-102160000D01*
X79998000Y-102160000D02*
X79998000Y-108002000D01*
X83300000Y-102541000D02*
X83300000Y-103303000D01*
X82919000Y-102922000D02*
X83681000Y-102922000D01*
X95402160Y-94149720D02*
X95402160Y-94474840D01*
X95402160Y-94474840D02*
X94901780Y-94474840D01*
X94901780Y-94149720D02*
X94901780Y-94474840D01*
X95402160Y-94149720D02*
X94901780Y-94149720D01*
X95402160Y-93527420D02*
X95402160Y-93677280D01*
X95402160Y-93677280D02*
X95150700Y-93677280D01*
X95150700Y-93527420D02*
X95150700Y-93677280D01*
X95402160Y-93527420D02*
X95150700Y-93527420D01*
X95402160Y-94022720D02*
X95402160Y-94172580D01*
X95402160Y-94172580D02*
X95150700Y-94172580D01*
X95150700Y-94022720D02*
X95150700Y-94172580D01*
X95402160Y-94022720D02*
X95150700Y-94022720D01*
X95402160Y-93651880D02*
X95402160Y-94048120D01*
X95402160Y-94048120D02*
X95226900Y-94048120D01*
X95226900Y-93651880D02*
X95226900Y-94048120D01*
X95402160Y-93651880D02*
X95226900Y-93651880D01*
X96898220Y-94149720D02*
X96898220Y-94474840D01*
X96898220Y-94474840D02*
X96397840Y-94474840D01*
X96397840Y-94149720D02*
X96397840Y-94474840D01*
X96898220Y-94149720D02*
X96397840Y-94149720D01*
X96898220Y-93225160D02*
X96898220Y-93550280D01*
X96898220Y-93550280D02*
X96397840Y-93550280D01*
X96397840Y-93225160D02*
X96397840Y-93550280D01*
X96898220Y-93225160D02*
X96397840Y-93225160D01*
X96649300Y-94022720D02*
X96649300Y-94172580D01*
X96649300Y-94172580D02*
X96397840Y-94172580D01*
X96397840Y-94022720D02*
X96397840Y-94172580D01*
X96649300Y-94022720D02*
X96397840Y-94022720D01*
X96649300Y-93527420D02*
X96649300Y-93677280D01*
X96649300Y-93677280D02*
X96397840Y-93677280D01*
X96397840Y-93527420D02*
X96397840Y-93677280D01*
X96649300Y-93527420D02*
X96397840Y-93527420D01*
X96573100Y-93651880D02*
X96573100Y-94048120D01*
X96573100Y-94048120D02*
X96397840Y-94048120D01*
X96397840Y-93651880D02*
X96397840Y-94048120D01*
X96573100Y-93651880D02*
X96397840Y-93651880D01*
X95900000Y-93750940D02*
X95900000Y-93949060D01*
X95900000Y-93949060D02*
X95701880Y-93949060D01*
X95701880Y-93750940D02*
X95701880Y-93949060D01*
X95900000Y-93750940D02*
X95701880Y-93750940D01*
X95402160Y-93250560D02*
X95402160Y-93550280D01*
X95402160Y-93550280D02*
X95102440Y-93550280D01*
X95102440Y-93250560D02*
X95102440Y-93550280D01*
X95402160Y-93250560D02*
X95102440Y-93250560D01*
X94975440Y-93225160D02*
X94975440Y-93451220D01*
X94975440Y-93451220D02*
X94901780Y-93451220D01*
X94901780Y-93225160D02*
X94901780Y-93451220D01*
X94975440Y-93225160D02*
X94901780Y-93225160D01*
X95376760Y-94424040D02*
X96423240Y-94424040D01*
X96397840Y-93275960D02*
X94975440Y-93275960D01*
X95123482Y-93400420D02*
G75*
G03X95123482Y-93400420I-71842J0D01*
G01*
X94901780Y-93502020D02*
G75*
G02X94901780Y-94197980I0J-347980D01*
G01*
X96898220Y-94197980D02*
G75*
G02X96898220Y-93502020I0J347980D01*
G01*
X95952160Y-95949720D02*
X95952160Y-96274840D01*
X95952160Y-96274840D02*
X95451780Y-96274840D01*
X95451780Y-95949720D02*
X95451780Y-96274840D01*
X95952160Y-95949720D02*
X95451780Y-95949720D01*
X95952160Y-95327420D02*
X95952160Y-95477280D01*
X95952160Y-95477280D02*
X95700700Y-95477280D01*
X95700700Y-95327420D02*
X95700700Y-95477280D01*
X95952160Y-95327420D02*
X95700700Y-95327420D01*
X95952160Y-95822720D02*
X95952160Y-95972580D01*
X95952160Y-95972580D02*
X95700700Y-95972580D01*
X95700700Y-95822720D02*
X95700700Y-95972580D01*
X95952160Y-95822720D02*
X95700700Y-95822720D01*
X95952160Y-95451880D02*
X95952160Y-95848120D01*
X95952160Y-95848120D02*
X95776900Y-95848120D01*
X95776900Y-95451880D02*
X95776900Y-95848120D01*
X95952160Y-95451880D02*
X95776900Y-95451880D01*
X97448220Y-95949720D02*
X97448220Y-96274840D01*
X97448220Y-96274840D02*
X96947840Y-96274840D01*
X96947840Y-95949720D02*
X96947840Y-96274840D01*
X97448220Y-95949720D02*
X96947840Y-95949720D01*
X97448220Y-95025160D02*
X97448220Y-95350280D01*
X97448220Y-95350280D02*
X96947840Y-95350280D01*
X96947840Y-95025160D02*
X96947840Y-95350280D01*
X97448220Y-95025160D02*
X96947840Y-95025160D01*
X97199300Y-95822720D02*
X97199300Y-95972580D01*
X97199300Y-95972580D02*
X96947840Y-95972580D01*
X96947840Y-95822720D02*
X96947840Y-95972580D01*
X97199300Y-95822720D02*
X96947840Y-95822720D01*
X97199300Y-95327420D02*
X97199300Y-95477280D01*
X97199300Y-95477280D02*
X96947840Y-95477280D01*
X96947840Y-95327420D02*
X96947840Y-95477280D01*
X97199300Y-95327420D02*
X96947840Y-95327420D01*
X97123100Y-95451880D02*
X97123100Y-95848120D01*
X97123100Y-95848120D02*
X96947840Y-95848120D01*
X96947840Y-95451880D02*
X96947840Y-95848120D01*
X97123100Y-95451880D02*
X96947840Y-95451880D01*
X96450000Y-95550940D02*
X96450000Y-95749060D01*
X96450000Y-95749060D02*
X96251880Y-95749060D01*
X96251880Y-95550940D02*
X96251880Y-95749060D01*
X96450000Y-95550940D02*
X96251880Y-95550940D01*
X95952160Y-95050560D02*
X95952160Y-95350280D01*
X95952160Y-95350280D02*
X95652440Y-95350280D01*
X95652440Y-95050560D02*
X95652440Y-95350280D01*
X95952160Y-95050560D02*
X95652440Y-95050560D01*
X95525440Y-95025160D02*
X95525440Y-95251220D01*
X95525440Y-95251220D02*
X95451780Y-95251220D01*
X95451780Y-95025160D02*
X95451780Y-95251220D01*
X95525440Y-95025160D02*
X95451780Y-95025160D01*
X95926760Y-96224040D02*
X96973240Y-96224040D01*
X96947840Y-95075960D02*
X95525440Y-95075960D01*
X95673482Y-95200420D02*
G75*
G03X95673482Y-95200420I-71842J0D01*
G01*
X95451780Y-95302020D02*
G75*
G02X95451780Y-95997980I0J-347980D01*
G01*
X97448220Y-95997980D02*
G75*
G02X97448220Y-95302020I0J347980D01*
G01*
X94503981Y-111844000D02*
G75*
G03X94503981Y-111844000I-283981J0D01*
G01*
X94728000Y-106383000D02*
X94728000Y-111717000D01*
X94474000Y-106383000D02*
X94474000Y-111717000D01*
X97776000Y-111717000D02*
X94474000Y-111717000D01*
X97776000Y-106383000D02*
X94474000Y-106383000D01*
X100824000Y-106383000D02*
X104126000Y-106383000D01*
X104126000Y-106383000D02*
X104126000Y-111717000D01*
X104126000Y-111717000D02*
X100824000Y-111717000D01*
X90150000Y-112563000D02*
X88372000Y-112563000D01*
X88372000Y-112563000D02*
X87737000Y-111928000D01*
X87737000Y-111928000D02*
X87737000Y-108372000D01*
X87737000Y-108372000D02*
X88372000Y-107737000D01*
X88372000Y-107737000D02*
X91928000Y-107737000D01*
X91928000Y-107737000D02*
X92563000Y-108372000D01*
X92563000Y-108372000D02*
X92563000Y-111928000D01*
X92563000Y-111928000D02*
X91928000Y-112563000D01*
X91928000Y-112563000D02*
X90150000Y-112563000D01*
X98230000Y-114820000D02*
X95690000Y-114820000D01*
X101050000Y-115100000D02*
X99500000Y-115100000D01*
X98230000Y-114820000D02*
X98230000Y-112280000D01*
X99500000Y-112000000D02*
X101050000Y-112000000D01*
X101050000Y-112000000D02*
X101050000Y-115100000D01*
X98230000Y-112280000D02*
X95690000Y-112280000D01*
X95690000Y-112280000D02*
X95690000Y-114820000D01*
X101455000Y-93445000D02*
X101455000Y-98525000D01*
X101175000Y-90625000D02*
X102725000Y-90625000D01*
X103995000Y-90905000D02*
X103995000Y-93445000D01*
X103995000Y-93445000D02*
X101455000Y-93445000D01*
X101455000Y-98525000D02*
X106535000Y-98525000D01*
X106535000Y-98525000D02*
X106535000Y-93445000D01*
X101175000Y-90625000D02*
X101175000Y-92175000D01*
X106535000Y-90905000D02*
X103995000Y-90905000D01*
X106535000Y-93445000D02*
X106535000Y-90905000D01*
X99400000Y-96875000D02*
X100400000Y-96875000D01*
X100400000Y-98225000D02*
X99400000Y-98225000D01*
X96850000Y-96875000D02*
X97850000Y-96875000D01*
X97850000Y-98225000D02*
X96850000Y-98225000D01*
X88975000Y-104200000D02*
X88975000Y-105200000D01*
X87625000Y-105200000D02*
X87625000Y-104200000D01*
X88975000Y-101200000D02*
X88975000Y-102200000D01*
X87625000Y-102200000D02*
X87625000Y-101200000D01*
X79800000Y-100375000D02*
X78800000Y-100375000D01*
X78800000Y-99025000D02*
X79800000Y-99025000D01*
X99400000Y-93175000D02*
X100400000Y-93175000D01*
X100400000Y-94525000D02*
X99400000Y-94525000D01*
X99500000Y-95075000D02*
X100500000Y-95075000D01*
X100500000Y-96425000D02*
X99500000Y-96425000D01*
X88441421Y-96100000D02*
G75*
G03X88441421Y-96100000I-141421J0D01*
G01*
X90800000Y-96500000D02*
X90800000Y-94900000D01*
X90800000Y-94900000D02*
X87800000Y-94900000D01*
X87800000Y-94900000D02*
X87800000Y-96500000D01*
X87800000Y-96500000D02*
X90800000Y-96500000D01*
D19*
X80999520Y-97800580D02*
X80199420Y-97000480D01*
X80199420Y-97000480D02*
X80199420Y-97800580D01*
X80199420Y-97800580D02*
X80999520Y-97800580D01*
X80301020Y-97201140D02*
X80798860Y-97698980D01*
X80301020Y-97300200D02*
X80699800Y-97698980D01*
X80699800Y-97698980D02*
X80600740Y-97698980D01*
X80600740Y-97698980D02*
X80301020Y-97399260D01*
X80301020Y-97399260D02*
X80301020Y-97500860D01*
X80301020Y-97500860D02*
X80499140Y-97698980D01*
X80301020Y-97201140D02*
X80301020Y-97399260D01*
X80301020Y-97099540D02*
X80301020Y-97300200D01*
X80301020Y-97698980D02*
X80301020Y-93701020D01*
X80301020Y-93701020D02*
X84298980Y-93701020D01*
X84298980Y-93701020D02*
X84298980Y-97698980D01*
X84298980Y-97698980D02*
X80301020Y-97698980D01*
D22*
X81120572Y-97097000D02*
G75*
G03X81120572Y-97097000I-222652J0D01*
G01*
D13*
X102884547Y-100390000D02*
G75*
G03X102884547Y-100390000I-1534547J0D01*
G01*
X100334000Y-101914000D02*
X102366000Y-101914000D01*
X101350000Y-102676000D02*
X102366000Y-101914000D01*
X100334000Y-101914000D02*
X101350000Y-102676000D01*
X100334000Y-102676000D02*
X102366000Y-102676000D01*
X92000000Y-97575000D02*
X93000000Y-97575000D01*
X93000000Y-98925000D02*
X92000000Y-98925000D01*
X98500000Y-100325000D02*
X97500000Y-100325000D01*
X97500000Y-98975000D02*
X98500000Y-98975000D01*
X97050000Y-104900000D02*
X97050000Y-103900000D01*
X95350000Y-103900000D02*
X95350000Y-104900000D01*
X99050000Y-104850000D02*
X99050000Y-103850000D01*
X97350000Y-103850000D02*
X97350000Y-104850000D01*
X119625000Y-106550000D02*
X119625000Y-107050000D01*
X120575000Y-107050000D02*
X120575000Y-106550000D01*
X120575000Y-104550000D02*
X120575000Y-104050000D01*
X119625000Y-104050000D02*
X119625000Y-104550000D01*
X122575000Y-102550000D02*
X122575000Y-102050000D01*
X121625000Y-102050000D02*
X121625000Y-102550000D01*
X122075000Y-97550000D02*
X122075000Y-97050000D01*
X121125000Y-97050000D02*
X121125000Y-97550000D01*
X126575000Y-99550000D02*
X126575000Y-99050000D01*
X125625000Y-99050000D02*
X125625000Y-99550000D01*
X129075000Y-97050000D02*
X129075000Y-96550000D01*
X128125000Y-96550000D02*
X128125000Y-97050000D01*
X130350000Y-97275000D02*
X130850000Y-97275000D01*
X130850000Y-96325000D02*
X130350000Y-96325000D01*
X128850000Y-99275000D02*
X129350000Y-99275000D01*
X129350000Y-98325000D02*
X128850000Y-98325000D01*
X132600000Y-95075000D02*
X132100000Y-95075000D01*
X132100000Y-96025000D02*
X132600000Y-96025000D01*
X133259099Y-98812652D02*
X133612652Y-98459099D01*
X132940901Y-97787348D02*
X132587348Y-98140901D01*
X125075000Y-101550000D02*
X125075000Y-101050000D01*
X124125000Y-101050000D02*
X124125000Y-101550000D01*
X126350000Y-101275000D02*
X126850000Y-101275000D01*
X126850000Y-100325000D02*
X126350000Y-100325000D01*
X127075000Y-104050000D02*
X127075000Y-103550000D01*
X126125000Y-103550000D02*
X126125000Y-104050000D01*
X123440901Y-102787348D02*
X123087348Y-103140901D01*
X123759099Y-103812652D02*
X124112652Y-103459099D01*
X125850000Y-104825000D02*
X125350000Y-104825000D01*
X125350000Y-105775000D02*
X125850000Y-105775000D01*
X121625000Y-105050000D02*
X121625000Y-105550000D01*
X122575000Y-105550000D02*
X122575000Y-105050000D01*
X136690901Y-97287348D02*
X136337348Y-97640901D01*
X137009099Y-98312652D02*
X137362652Y-97959099D01*
X137940901Y-97787348D02*
X137587348Y-98140901D01*
X138259099Y-98812652D02*
X138612652Y-98459099D01*
X128850000Y-103825000D02*
X128350000Y-103825000D01*
X128350000Y-104775000D02*
X128850000Y-104775000D01*
X125025000Y-106550000D02*
X125025000Y-107050000D01*
X125975000Y-107050000D02*
X125975000Y-106550000D01*
X129850000Y-102825000D02*
X129350000Y-102825000D01*
X129350000Y-103775000D02*
X129850000Y-103775000D01*
X130850000Y-101825000D02*
X130350000Y-101825000D01*
X130350000Y-102775000D02*
X130850000Y-102775000D01*
X128959099Y-106812652D02*
X129312652Y-106459099D01*
X128640901Y-105787348D02*
X128287348Y-106140901D01*
X129875000Y-106800000D02*
X129875000Y-107300000D01*
X130825000Y-107300000D02*
X130825000Y-106800000D01*
X138690901Y-98537348D02*
X138337348Y-98890901D01*
X139009099Y-99562652D02*
X139362652Y-99209099D01*
X137125000Y-107300000D02*
X137125000Y-107800000D01*
X138075000Y-107800000D02*
X138075000Y-107300000D01*
X136125000Y-107550000D02*
X136125000Y-108050000D01*
X137075000Y-108050000D02*
X137075000Y-107550000D01*
X137850000Y-105975000D02*
X138350000Y-105975000D01*
X138350000Y-105025000D02*
X137850000Y-105025000D01*
X140850000Y-102825000D02*
X140350000Y-102825000D01*
X140350000Y-103775000D02*
X140850000Y-103775000D01*
X141375000Y-103550000D02*
X141375000Y-104050000D01*
X142325000Y-104050000D02*
X142325000Y-103550000D01*
X141850000Y-105775000D02*
X142350000Y-105775000D01*
X142350000Y-104825000D02*
X141850000Y-104825000D01*
X118350000Y-94775000D02*
X117850000Y-94775000D01*
X117850000Y-95825000D02*
X118350000Y-95825000D01*
X127625000Y-97050000D02*
X127625000Y-96550000D01*
X126575000Y-96550000D02*
X126575000Y-97050000D01*
X128125000Y-99550000D02*
X128125000Y-99050000D01*
X127075000Y-99050000D02*
X127075000Y-99550000D01*
X132350000Y-97325000D02*
X132850000Y-97325000D01*
X132850000Y-96275000D02*
X132350000Y-96275000D01*
X130850000Y-99825000D02*
X131350000Y-99825000D01*
X131350000Y-98775000D02*
X130850000Y-98775000D01*
X128850000Y-100325000D02*
X129350000Y-100325000D01*
X129350000Y-99275000D02*
X128850000Y-99275000D01*
X134350000Y-97325000D02*
X134850000Y-97325000D01*
X134850000Y-96275000D02*
X134350000Y-96275000D01*
X122575000Y-101050000D02*
X122575000Y-101550000D01*
X123625000Y-101550000D02*
X123625000Y-101050000D01*
X127075000Y-102050000D02*
X127075000Y-102550000D01*
X128125000Y-102550000D02*
X128125000Y-102050000D01*
X124405546Y-103751992D02*
X124051992Y-104105546D01*
X124794454Y-104848008D02*
X125148008Y-104494454D01*
X123075000Y-105550000D02*
X123075000Y-106050000D01*
X124125000Y-106050000D02*
X124125000Y-105550000D01*
X130850000Y-100775000D02*
X130350000Y-100775000D01*
X130350000Y-101825000D02*
X130850000Y-101825000D01*
X139375000Y-104050000D02*
X139375000Y-103550000D01*
X138325000Y-103550000D02*
X138325000Y-104050000D01*
X139551992Y-105244454D02*
X139905546Y-105598008D01*
X140648008Y-104855546D02*
X140294454Y-104501992D01*
X125975000Y-106550000D02*
X125975000Y-107050000D01*
X127025000Y-107050000D02*
X127025000Y-106550000D01*
X147700000Y-92800000D02*
X147700000Y-110800000D01*
X112100000Y-110800000D02*
X112100000Y-92800000D01*
X112100000Y-92800000D02*
X147700000Y-92800000D01*
X147700000Y-110800000D02*
X112100000Y-110800000D01*
D19*
X119299640Y-102898800D02*
X120198800Y-101999640D01*
X120198800Y-101999640D02*
X120198800Y-102898800D01*
X120198800Y-102898800D02*
X119299640Y-102898800D01*
X120099740Y-102200300D02*
X119500300Y-102799740D01*
X119500300Y-102799740D02*
X119599360Y-102799740D01*
X119599360Y-102799740D02*
X120099740Y-102299360D01*
X120099740Y-102299360D02*
X120099740Y-102400960D01*
X120099740Y-102400960D02*
X119700960Y-102799740D01*
X119700960Y-102799740D02*
X119800020Y-102799740D01*
X119800020Y-102799740D02*
X120099740Y-102500020D01*
X120099740Y-102500020D02*
X120099740Y-102599080D01*
X120099740Y-102599080D02*
X119899080Y-102799740D01*
X114100260Y-102799740D02*
X114100260Y-96800260D01*
X114100260Y-96800260D02*
X120099740Y-96800260D01*
X120099740Y-96800260D02*
X120099740Y-102799740D01*
X120099740Y-102799740D02*
X114100260Y-102799740D01*
D17*
X119621352Y-102101240D02*
G75*
G03X119621352Y-102101240I-222652J0D01*
G01*
D19*
X131999420Y-100999520D02*
X132799520Y-100199420D01*
X132799520Y-100199420D02*
X131999420Y-100199420D01*
X131999420Y-100199420D02*
X131999420Y-100999520D01*
X132598860Y-100301020D02*
X132101020Y-100798860D01*
X132499800Y-100301020D02*
X132101020Y-100699800D01*
X132101020Y-100699800D02*
X132101020Y-100600740D01*
X132101020Y-100600740D02*
X132400740Y-100301020D01*
X132400740Y-100301020D02*
X132299140Y-100301020D01*
X132299140Y-100301020D02*
X132101020Y-100499140D01*
X132100000Y-100300000D02*
X137100000Y-100300000D01*
X137100000Y-100300000D02*
X137100000Y-105300000D01*
X137100000Y-105300000D02*
X132100000Y-105300000D01*
X132100000Y-105300000D02*
X132100000Y-100300000D01*
D22*
X133025652Y-100997920D02*
G75*
G03X133025652Y-100997920I-222652J0D01*
G01*
D13*
X133825000Y-107300000D02*
X133825000Y-109300000D01*
X135875000Y-109300000D02*
X135875000Y-107300000D01*
X140617678Y-102231891D02*
X142031891Y-100817678D01*
X140582322Y-99368109D02*
X139168109Y-100782322D01*
X111625000Y-102550000D02*
X111625000Y-103050000D01*
X112575000Y-103050000D02*
X112575000Y-102550000D01*
X112625000Y-102550000D02*
X112625000Y-103050000D01*
X113575000Y-103050000D02*
X113575000Y-102550000D01*
X112900000Y-103600000D02*
X119500000Y-103600000D01*
X119500000Y-103600000D02*
X119500000Y-108500000D01*
X119500000Y-108500000D02*
X112900000Y-108500000D01*
X112900000Y-108500000D02*
X112900000Y-103600000D01*
X133425000Y-106550000D02*
X133425000Y-108550000D01*
X131275000Y-108550000D02*
X131275000Y-106550000D01*
X144900000Y-107400000D02*
X143000000Y-107400000D01*
X143000000Y-107400000D02*
X143000000Y-105200000D01*
X143000000Y-105200000D02*
X145000000Y-105200000D01*
X145000000Y-105200000D02*
X145000000Y-107400000D01*
X82785714Y-85341667D02*
X83261905Y-85341667D01*
X82690476Y-85627381D02*
X83023809Y-84627381D01*
X83357143Y-85627381D01*
X84214286Y-85627381D02*
X83642857Y-85627381D01*
X83928571Y-85627381D02*
X83928571Y-84627381D01*
X83833333Y-84770238D01*
X83738095Y-84865476D01*
X83642857Y-84913095D01*
X83457143Y-70066666D02*
X83504762Y-70114285D01*
X83552381Y-70257142D01*
X83552381Y-70352380D01*
X83504762Y-70495238D01*
X83409524Y-70590476D01*
X83314286Y-70638095D01*
X83123810Y-70685714D01*
X82980952Y-70685714D01*
X82790476Y-70638095D01*
X82695238Y-70590476D01*
X82600000Y-70495238D01*
X82552381Y-70352380D01*
X82552381Y-70257142D01*
X82600000Y-70114285D01*
X82647619Y-70066666D01*
X83552381Y-69114285D02*
X83552381Y-69685714D01*
X83552381Y-69400000D02*
X82552381Y-69400000D01*
X82695238Y-69495238D01*
X82790476Y-69590476D01*
X82838095Y-69685714D01*
X88136108Y-70628191D02*
X88068765Y-70628191D01*
X87934078Y-70560847D01*
X87866734Y-70493504D01*
X87799390Y-70358816D01*
X87799390Y-70224129D01*
X87833062Y-70123114D01*
X87934077Y-69954756D01*
X88035093Y-69853740D01*
X88203452Y-69752725D01*
X88304467Y-69719053D01*
X88439154Y-69719053D01*
X88573841Y-69786397D01*
X88641185Y-69853740D01*
X88708528Y-69988427D01*
X88708528Y-70055771D01*
X88977902Y-70325144D02*
X89045245Y-70325144D01*
X89146260Y-70358816D01*
X89314620Y-70527175D01*
X89348291Y-70628191D01*
X89348291Y-70695534D01*
X89314620Y-70796549D01*
X89247276Y-70863893D01*
X89112589Y-70931236D01*
X88304467Y-70931236D01*
X88742200Y-71368969D01*
X111232143Y-61216666D02*
X111279762Y-61264285D01*
X111327381Y-61407142D01*
X111327381Y-61502380D01*
X111279762Y-61645238D01*
X111184524Y-61740476D01*
X111089286Y-61788095D01*
X110898810Y-61835714D01*
X110755952Y-61835714D01*
X110565476Y-61788095D01*
X110470238Y-61740476D01*
X110375000Y-61645238D01*
X110327381Y-61502380D01*
X110327381Y-61407142D01*
X110375000Y-61264285D01*
X110422619Y-61216666D01*
X110327381Y-60883333D02*
X110327381Y-60264285D01*
X110708333Y-60597619D01*
X110708333Y-60454761D01*
X110755952Y-60359523D01*
X110803571Y-60311904D01*
X110898810Y-60264285D01*
X111136905Y-60264285D01*
X111232143Y-60311904D01*
X111279762Y-60359523D01*
X111327381Y-60454761D01*
X111327381Y-60740476D01*
X111279762Y-60835714D01*
X111232143Y-60883333D01*
X104033334Y-55607143D02*
X103985715Y-55654762D01*
X103842858Y-55702381D01*
X103747620Y-55702381D01*
X103604762Y-55654762D01*
X103509524Y-55559524D01*
X103461905Y-55464286D01*
X103414286Y-55273810D01*
X103414286Y-55130952D01*
X103461905Y-54940476D01*
X103509524Y-54845238D01*
X103604762Y-54750000D01*
X103747620Y-54702381D01*
X103842858Y-54702381D01*
X103985715Y-54750000D01*
X104033334Y-54797619D01*
X104890477Y-55035714D02*
X104890477Y-55702381D01*
X104652381Y-54654762D02*
X104414286Y-55369048D01*
X105033334Y-55369048D01*
X112408334Y-83657143D02*
X112360715Y-83704762D01*
X112217858Y-83752381D01*
X112122620Y-83752381D01*
X111979762Y-83704762D01*
X111884524Y-83609524D01*
X111836905Y-83514286D01*
X111789286Y-83323810D01*
X111789286Y-83180952D01*
X111836905Y-82990476D01*
X111884524Y-82895238D01*
X111979762Y-82800000D01*
X112122620Y-82752381D01*
X112217858Y-82752381D01*
X112360715Y-82800000D01*
X112408334Y-82847619D01*
X113313096Y-82752381D02*
X112836905Y-82752381D01*
X112789286Y-83228571D01*
X112836905Y-83180952D01*
X112932143Y-83133333D01*
X113170239Y-83133333D01*
X113265477Y-83180952D01*
X113313096Y-83228571D01*
X113360715Y-83323810D01*
X113360715Y-83561905D01*
X113313096Y-83657143D01*
X113265477Y-83704762D01*
X113170239Y-83752381D01*
X112932143Y-83752381D01*
X112836905Y-83704762D01*
X112789286Y-83657143D01*
X122133334Y-46857143D02*
X122085715Y-46904762D01*
X121942858Y-46952381D01*
X121847620Y-46952381D01*
X121704762Y-46904762D01*
X121609524Y-46809524D01*
X121561905Y-46714286D01*
X121514286Y-46523810D01*
X121514286Y-46380952D01*
X121561905Y-46190476D01*
X121609524Y-46095238D01*
X121704762Y-46000000D01*
X121847620Y-45952381D01*
X121942858Y-45952381D01*
X122085715Y-46000000D01*
X122133334Y-46047619D01*
X122990477Y-45952381D02*
X122800000Y-45952381D01*
X122704762Y-46000000D01*
X122657143Y-46047619D01*
X122561905Y-46190476D01*
X122514286Y-46380952D01*
X122514286Y-46761905D01*
X122561905Y-46857143D01*
X122609524Y-46904762D01*
X122704762Y-46952381D01*
X122895239Y-46952381D01*
X122990477Y-46904762D01*
X123038096Y-46857143D01*
X123085715Y-46761905D01*
X123085715Y-46523810D01*
X123038096Y-46428571D01*
X122990477Y-46380952D01*
X122895239Y-46333333D01*
X122704762Y-46333333D01*
X122609524Y-46380952D01*
X122561905Y-46428571D01*
X122514286Y-46523810D01*
X122483334Y-44557143D02*
X122435715Y-44604762D01*
X122292858Y-44652381D01*
X122197620Y-44652381D01*
X122054762Y-44604762D01*
X121959524Y-44509524D01*
X121911905Y-44414286D01*
X121864286Y-44223810D01*
X121864286Y-44080952D01*
X121911905Y-43890476D01*
X121959524Y-43795238D01*
X122054762Y-43700000D01*
X122197620Y-43652381D01*
X122292858Y-43652381D01*
X122435715Y-43700000D01*
X122483334Y-43747619D01*
X122816667Y-43652381D02*
X123483334Y-43652381D01*
X123054762Y-44652381D01*
X110657143Y-70982143D02*
X110609524Y-71029762D01*
X110466667Y-71077381D01*
X110371429Y-71077381D01*
X110228571Y-71029762D01*
X110133333Y-70934524D01*
X110085714Y-70839286D01*
X110038095Y-70648810D01*
X110038095Y-70505952D01*
X110085714Y-70315476D01*
X110133333Y-70220238D01*
X110228571Y-70125000D01*
X110371429Y-70077381D01*
X110466667Y-70077381D01*
X110609524Y-70125000D01*
X110657143Y-70172619D01*
X111609524Y-71077381D02*
X111038095Y-71077381D01*
X111323809Y-71077381D02*
X111323809Y-70077381D01*
X111228571Y-70220238D01*
X111133333Y-70315476D01*
X111038095Y-70363095D01*
X112228571Y-70077381D02*
X112323810Y-70077381D01*
X112419048Y-70125000D01*
X112466667Y-70172619D01*
X112514286Y-70267857D01*
X112561905Y-70458333D01*
X112561905Y-70696429D01*
X112514286Y-70886905D01*
X112466667Y-70982143D01*
X112419048Y-71029762D01*
X112323810Y-71077381D01*
X112228571Y-71077381D01*
X112133333Y-71029762D01*
X112085714Y-70982143D01*
X112038095Y-70886905D01*
X111990476Y-70696429D01*
X111990476Y-70458333D01*
X112038095Y-70267857D01*
X112085714Y-70172619D01*
X112133333Y-70125000D01*
X112228571Y-70077381D01*
X81332381Y-51088095D02*
X80332381Y-51088095D01*
X80332381Y-50850000D01*
X80380000Y-50707142D01*
X80475238Y-50611904D01*
X80570476Y-50564285D01*
X80760952Y-50516666D01*
X80903810Y-50516666D01*
X81094286Y-50564285D01*
X81189524Y-50611904D01*
X81284762Y-50707142D01*
X81332381Y-50850000D01*
X81332381Y-51088095D01*
X81332381Y-49564285D02*
X81332381Y-50135714D01*
X81332381Y-49850000D02*
X80332381Y-49850000D01*
X80475238Y-49945238D01*
X80570476Y-50040476D01*
X80618095Y-50135714D01*
X83132381Y-51088095D02*
X82132381Y-51088095D01*
X82132381Y-50850000D01*
X82180000Y-50707142D01*
X82275238Y-50611904D01*
X82370476Y-50564285D01*
X82560952Y-50516666D01*
X82703810Y-50516666D01*
X82894286Y-50564285D01*
X82989524Y-50611904D01*
X83084762Y-50707142D01*
X83132381Y-50850000D01*
X83132381Y-51088095D01*
X82227619Y-50135714D02*
X82180000Y-50088095D01*
X82132381Y-49992857D01*
X82132381Y-49754761D01*
X82180000Y-49659523D01*
X82227619Y-49611904D01*
X82322857Y-49564285D01*
X82418095Y-49564285D01*
X82560952Y-49611904D01*
X83132381Y-50183333D01*
X83132381Y-49564285D01*
X84832381Y-51088095D02*
X83832381Y-51088095D01*
X83832381Y-50850000D01*
X83880000Y-50707142D01*
X83975238Y-50611904D01*
X84070476Y-50564285D01*
X84260952Y-50516666D01*
X84403810Y-50516666D01*
X84594286Y-50564285D01*
X84689524Y-50611904D01*
X84784762Y-50707142D01*
X84832381Y-50850000D01*
X84832381Y-51088095D01*
X83832381Y-50183333D02*
X83832381Y-49564285D01*
X84213333Y-49897619D01*
X84213333Y-49754761D01*
X84260952Y-49659523D01*
X84308571Y-49611904D01*
X84403810Y-49564285D01*
X84641905Y-49564285D01*
X84737143Y-49611904D01*
X84784762Y-49659523D01*
X84832381Y-49754761D01*
X84832381Y-50040476D01*
X84784762Y-50135714D01*
X84737143Y-50183333D01*
X86632381Y-51188095D02*
X85632381Y-51188095D01*
X85632381Y-50950000D01*
X85680000Y-50807142D01*
X85775238Y-50711904D01*
X85870476Y-50664285D01*
X86060952Y-50616666D01*
X86203810Y-50616666D01*
X86394286Y-50664285D01*
X86489524Y-50711904D01*
X86584762Y-50807142D01*
X86632381Y-50950000D01*
X86632381Y-51188095D01*
X85965714Y-49759523D02*
X86632381Y-49759523D01*
X85584762Y-49997619D02*
X86299048Y-50235714D01*
X86299048Y-49616666D01*
X105811905Y-50927381D02*
X105811905Y-49927381D01*
X106050000Y-49927381D01*
X106192858Y-49975000D01*
X106288096Y-50070238D01*
X106335715Y-50165476D01*
X106383334Y-50355952D01*
X106383334Y-50498810D01*
X106335715Y-50689286D01*
X106288096Y-50784524D01*
X106192858Y-50879762D01*
X106050000Y-50927381D01*
X105811905Y-50927381D01*
X107288096Y-49927381D02*
X106811905Y-49927381D01*
X106764286Y-50403571D01*
X106811905Y-50355952D01*
X106907143Y-50308333D01*
X107145239Y-50308333D01*
X107240477Y-50355952D01*
X107288096Y-50403571D01*
X107335715Y-50498810D01*
X107335715Y-50736905D01*
X107288096Y-50832143D01*
X107240477Y-50879762D01*
X107145239Y-50927381D01*
X106907143Y-50927381D01*
X106811905Y-50879762D01*
X106764286Y-50832143D01*
X109105905Y-49117667D02*
X109582096Y-49117667D01*
X109010667Y-49403381D02*
X109344000Y-48403381D01*
X109677334Y-49403381D01*
D23*
X78385785Y-51250648D02*
X78385785Y-51540933D01*
X78366433Y-51598990D01*
X78327728Y-51637695D01*
X78269671Y-51657048D01*
X78230966Y-51657048D01*
X78579309Y-51657048D02*
X78579309Y-51250648D01*
X78714776Y-51540933D01*
X78850242Y-51250648D01*
X78850242Y-51657048D01*
X79043766Y-51657048D02*
X79043766Y-51250648D01*
X79198585Y-51250648D01*
X79237290Y-51270000D01*
X79256642Y-51289352D01*
X79275994Y-51328057D01*
X79275994Y-51386114D01*
X79256642Y-51424819D01*
X79237290Y-51444171D01*
X79198585Y-51463524D01*
X79043766Y-51463524D01*
X79430814Y-51289352D02*
X79450166Y-51270000D01*
X79488871Y-51250648D01*
X79585633Y-51250648D01*
X79624337Y-51270000D01*
X79643690Y-51289352D01*
X79663042Y-51328057D01*
X79663042Y-51366762D01*
X79643690Y-51424819D01*
X79411461Y-51657048D01*
X79663042Y-51657048D01*
X77698776Y-48716695D02*
X77756833Y-48736048D01*
X77853595Y-48736048D01*
X77892299Y-48716695D01*
X77911652Y-48697343D01*
X77931004Y-48658638D01*
X77931004Y-48619933D01*
X77911652Y-48581229D01*
X77892299Y-48561876D01*
X77853595Y-48542524D01*
X77776185Y-48523171D01*
X77737480Y-48503819D01*
X77718128Y-48484467D01*
X77698776Y-48445762D01*
X77698776Y-48407057D01*
X77718128Y-48368352D01*
X77737480Y-48349000D01*
X77776185Y-48329648D01*
X77872947Y-48329648D01*
X77931004Y-48349000D01*
X78221290Y-48329648D02*
X78221290Y-48619933D01*
X78201938Y-48677990D01*
X78163233Y-48716695D01*
X78105176Y-48736048D01*
X78066471Y-48736048D01*
X78414814Y-48736048D02*
X78414814Y-48329648D01*
X78550281Y-48619933D01*
X78685747Y-48329648D01*
X78685747Y-48736048D01*
X78879271Y-48736048D02*
X78879271Y-48329648D01*
X79034090Y-48329648D01*
X79072795Y-48349000D01*
X79092147Y-48368352D01*
X79111499Y-48407057D01*
X79111499Y-48465114D01*
X79092147Y-48503819D01*
X79072795Y-48523171D01*
X79034090Y-48542524D01*
X78879271Y-48542524D01*
X79363080Y-48329648D02*
X79440490Y-48329648D01*
X79479195Y-48349000D01*
X79517899Y-48387705D01*
X79537252Y-48465114D01*
X79537252Y-48600581D01*
X79517899Y-48677990D01*
X79479195Y-48716695D01*
X79440490Y-48736048D01*
X79363080Y-48736048D01*
X79324376Y-48716695D01*
X79285671Y-48677990D01*
X79266319Y-48600581D01*
X79266319Y-48465114D01*
X79285671Y-48387705D01*
X79324376Y-48349000D01*
X79363080Y-48329648D01*
X79711423Y-48465114D02*
X79711423Y-48871514D01*
X79711423Y-48484467D02*
X79750128Y-48465114D01*
X79827537Y-48465114D01*
X79866242Y-48484467D01*
X79885594Y-48503819D01*
X79904947Y-48542524D01*
X79904947Y-48658638D01*
X79885594Y-48697343D01*
X79866242Y-48716695D01*
X79827537Y-48736048D01*
X79750128Y-48736048D01*
X79711423Y-48716695D01*
X80233937Y-48716695D02*
X80195232Y-48736048D01*
X80117823Y-48736048D01*
X80079118Y-48716695D01*
X80059766Y-48677990D01*
X80059766Y-48523171D01*
X80079118Y-48484467D01*
X80117823Y-48465114D01*
X80195232Y-48465114D01*
X80233937Y-48484467D01*
X80253289Y-48523171D01*
X80253289Y-48561876D01*
X80059766Y-48600581D01*
X80427461Y-48465114D02*
X80427461Y-48736048D01*
X80427461Y-48503819D02*
X80446813Y-48484467D01*
X80485518Y-48465114D01*
X80543575Y-48465114D01*
X80582280Y-48484467D01*
X80601632Y-48523171D01*
X80601632Y-48736048D01*
X78335785Y-53400648D02*
X78335785Y-53690933D01*
X78316433Y-53748990D01*
X78277728Y-53787695D01*
X78219671Y-53807048D01*
X78180966Y-53807048D01*
X78529309Y-53807048D02*
X78529309Y-53400648D01*
X78664776Y-53690933D01*
X78800242Y-53400648D01*
X78800242Y-53807048D01*
X78993766Y-53807048D02*
X78993766Y-53400648D01*
X79148585Y-53400648D01*
X79187290Y-53420000D01*
X79206642Y-53439352D01*
X79225994Y-53478057D01*
X79225994Y-53536114D01*
X79206642Y-53574819D01*
X79187290Y-53594171D01*
X79148585Y-53613524D01*
X78993766Y-53613524D01*
X79361461Y-53400648D02*
X79613042Y-53400648D01*
X79477575Y-53555467D01*
X79535633Y-53555467D01*
X79574337Y-53574819D01*
X79593690Y-53594171D01*
X79613042Y-53632876D01*
X79613042Y-53729638D01*
X79593690Y-53768343D01*
X79574337Y-53787695D01*
X79535633Y-53807048D01*
X79419518Y-53807048D01*
X79380814Y-53787695D01*
X79361461Y-53768343D01*
X77648776Y-50866695D02*
X77706833Y-50886048D01*
X77803595Y-50886048D01*
X77842299Y-50866695D01*
X77861652Y-50847343D01*
X77881004Y-50808638D01*
X77881004Y-50769933D01*
X77861652Y-50731229D01*
X77842299Y-50711876D01*
X77803595Y-50692524D01*
X77726185Y-50673171D01*
X77687480Y-50653819D01*
X77668128Y-50634467D01*
X77648776Y-50595762D01*
X77648776Y-50557057D01*
X77668128Y-50518352D01*
X77687480Y-50499000D01*
X77726185Y-50479648D01*
X77822947Y-50479648D01*
X77881004Y-50499000D01*
X78171290Y-50479648D02*
X78171290Y-50769933D01*
X78151938Y-50827990D01*
X78113233Y-50866695D01*
X78055176Y-50886048D01*
X78016471Y-50886048D01*
X78364814Y-50886048D02*
X78364814Y-50479648D01*
X78500281Y-50769933D01*
X78635747Y-50479648D01*
X78635747Y-50886048D01*
X78829271Y-50886048D02*
X78829271Y-50479648D01*
X78984090Y-50479648D01*
X79022795Y-50499000D01*
X79042147Y-50518352D01*
X79061499Y-50557057D01*
X79061499Y-50615114D01*
X79042147Y-50653819D01*
X79022795Y-50673171D01*
X78984090Y-50692524D01*
X78829271Y-50692524D01*
X79313080Y-50479648D02*
X79390490Y-50479648D01*
X79429195Y-50499000D01*
X79467899Y-50537705D01*
X79487252Y-50615114D01*
X79487252Y-50750581D01*
X79467899Y-50827990D01*
X79429195Y-50866695D01*
X79390490Y-50886048D01*
X79313080Y-50886048D01*
X79274376Y-50866695D01*
X79235671Y-50827990D01*
X79216319Y-50750581D01*
X79216319Y-50615114D01*
X79235671Y-50537705D01*
X79274376Y-50499000D01*
X79313080Y-50479648D01*
X79661423Y-50615114D02*
X79661423Y-51021514D01*
X79661423Y-50634467D02*
X79700128Y-50615114D01*
X79777537Y-50615114D01*
X79816242Y-50634467D01*
X79835594Y-50653819D01*
X79854947Y-50692524D01*
X79854947Y-50808638D01*
X79835594Y-50847343D01*
X79816242Y-50866695D01*
X79777537Y-50886048D01*
X79700128Y-50886048D01*
X79661423Y-50866695D01*
X80183937Y-50866695D02*
X80145232Y-50886048D01*
X80067823Y-50886048D01*
X80029118Y-50866695D01*
X80009766Y-50827990D01*
X80009766Y-50673171D01*
X80029118Y-50634467D01*
X80067823Y-50615114D01*
X80145232Y-50615114D01*
X80183937Y-50634467D01*
X80203289Y-50673171D01*
X80203289Y-50711876D01*
X80009766Y-50750581D01*
X80377461Y-50615114D02*
X80377461Y-50886048D01*
X80377461Y-50653819D02*
X80396813Y-50634467D01*
X80435518Y-50615114D01*
X80493575Y-50615114D01*
X80532280Y-50634467D01*
X80551632Y-50673171D01*
X80551632Y-50886048D01*
D24*
X114825143Y-48579429D02*
X114825143Y-47055429D01*
X115696000Y-48579429D02*
X115042857Y-47708571D01*
X115696000Y-47055429D02*
X114825143Y-47926286D01*
X117147429Y-48579429D02*
X116276572Y-48579429D01*
X116712000Y-48579429D02*
X116712000Y-47055429D01*
X116566857Y-47273143D01*
X116421715Y-47418286D01*
X116276572Y-47490857D01*
X75375143Y-46029429D02*
X75375143Y-44505429D01*
X76246000Y-46029429D02*
X75592857Y-45158571D01*
X76246000Y-44505429D02*
X75375143Y-45376286D01*
X76826572Y-44650571D02*
X76899143Y-44578000D01*
X77044286Y-44505429D01*
X77407143Y-44505429D01*
X77552286Y-44578000D01*
X77624857Y-44650571D01*
X77697429Y-44795714D01*
X77697429Y-44940857D01*
X77624857Y-45158571D01*
X76754000Y-46029429D01*
X77697429Y-46029429D01*
X76625143Y-48929429D02*
X76625143Y-47405429D01*
X77205715Y-47405429D01*
X77350857Y-47478000D01*
X77423429Y-47550571D01*
X77496000Y-47695714D01*
X77496000Y-47913429D01*
X77423429Y-48058571D01*
X77350857Y-48131143D01*
X77205715Y-48203714D01*
X76625143Y-48203714D01*
X78947429Y-48929429D02*
X78076572Y-48929429D01*
X78512000Y-48929429D02*
X78512000Y-47405429D01*
X78366857Y-47623143D01*
X78221715Y-47768286D01*
X78076572Y-47840857D01*
X116075143Y-45629429D02*
X116075143Y-44105429D01*
X116655715Y-44105429D01*
X116800857Y-44178000D01*
X116873429Y-44250571D01*
X116946000Y-44395714D01*
X116946000Y-44613429D01*
X116873429Y-44758571D01*
X116800857Y-44831143D01*
X116655715Y-44903714D01*
X116075143Y-44903714D01*
X117526572Y-44250571D02*
X117599143Y-44178000D01*
X117744286Y-44105429D01*
X118107143Y-44105429D01*
X118252286Y-44178000D01*
X118324857Y-44250571D01*
X118397429Y-44395714D01*
X118397429Y-44540857D01*
X118324857Y-44758571D01*
X117454000Y-45629429D01*
X118397429Y-45629429D01*
X74614429Y-78324857D02*
X73090429Y-78324857D01*
X73090429Y-77744285D01*
X73163000Y-77599143D01*
X73235571Y-77526571D01*
X73380714Y-77454000D01*
X73598429Y-77454000D01*
X73743571Y-77526571D01*
X73816143Y-77599143D01*
X73888714Y-77744285D01*
X73888714Y-78324857D01*
X73090429Y-76946000D02*
X73090429Y-76002571D01*
X73671000Y-76510571D01*
X73671000Y-76292857D01*
X73743571Y-76147714D01*
X73816143Y-76075143D01*
X73961286Y-76002571D01*
X74324143Y-76002571D01*
X74469286Y-76075143D01*
X74541857Y-76147714D01*
X74614429Y-76292857D01*
X74614429Y-76728285D01*
X74541857Y-76873428D01*
X74469286Y-76946000D01*
X77589429Y-79549857D02*
X76065429Y-79549857D01*
X76065429Y-78969285D01*
X76138000Y-78824143D01*
X76210571Y-78751571D01*
X76355714Y-78679000D01*
X76573429Y-78679000D01*
X76718571Y-78751571D01*
X76791143Y-78824143D01*
X76863714Y-78969285D01*
X76863714Y-79549857D01*
X76573429Y-77372714D02*
X77589429Y-77372714D01*
X75992857Y-77735571D02*
X77081429Y-78098428D01*
X77081429Y-77155000D01*
D13*
X89661905Y-49027381D02*
X89661905Y-48027381D01*
X90042858Y-48027381D01*
X90138096Y-48075000D01*
X90185715Y-48122619D01*
X90233334Y-48217857D01*
X90233334Y-48360714D01*
X90185715Y-48455952D01*
X90138096Y-48503571D01*
X90042858Y-48551190D01*
X89661905Y-48551190D01*
X91138096Y-48027381D02*
X90661905Y-48027381D01*
X90614286Y-48503571D01*
X90661905Y-48455952D01*
X90757143Y-48408333D01*
X90995239Y-48408333D01*
X91090477Y-48455952D01*
X91138096Y-48503571D01*
X91185715Y-48598810D01*
X91185715Y-48836905D01*
X91138096Y-48932143D01*
X91090477Y-48979762D01*
X90995239Y-49027381D01*
X90757143Y-49027381D01*
X90661905Y-48979762D01*
X90614286Y-48932143D01*
X103052381Y-49166666D02*
X102576190Y-49500000D01*
X103052381Y-49738095D02*
X102052381Y-49738095D01*
X102052381Y-49357142D01*
X102100000Y-49261904D01*
X102147619Y-49214285D01*
X102242857Y-49166666D01*
X102385714Y-49166666D01*
X102480952Y-49214285D01*
X102528571Y-49261904D01*
X102576190Y-49357142D01*
X102576190Y-49738095D01*
X103052381Y-48214285D02*
X103052381Y-48785714D01*
X103052381Y-48500000D02*
X102052381Y-48500000D01*
X102195238Y-48595238D01*
X102290476Y-48690476D01*
X102338095Y-48785714D01*
X100802381Y-49166666D02*
X100326190Y-49500000D01*
X100802381Y-49738095D02*
X99802381Y-49738095D01*
X99802381Y-49357142D01*
X99850000Y-49261904D01*
X99897619Y-49214285D01*
X99992857Y-49166666D01*
X100135714Y-49166666D01*
X100230952Y-49214285D01*
X100278571Y-49261904D01*
X100326190Y-49357142D01*
X100326190Y-49738095D01*
X99897619Y-48785714D02*
X99850000Y-48738095D01*
X99802381Y-48642857D01*
X99802381Y-48404761D01*
X99850000Y-48309523D01*
X99897619Y-48261904D01*
X99992857Y-48214285D01*
X100088095Y-48214285D01*
X100230952Y-48261904D01*
X100802381Y-48833333D01*
X100802381Y-48214285D01*
X84552381Y-54016666D02*
X84076190Y-54350000D01*
X84552381Y-54588095D02*
X83552381Y-54588095D01*
X83552381Y-54207142D01*
X83600000Y-54111904D01*
X83647619Y-54064285D01*
X83742857Y-54016666D01*
X83885714Y-54016666D01*
X83980952Y-54064285D01*
X84028571Y-54111904D01*
X84076190Y-54207142D01*
X84076190Y-54588095D01*
X83552381Y-53683333D02*
X83552381Y-53064285D01*
X83933333Y-53397619D01*
X83933333Y-53254761D01*
X83980952Y-53159523D01*
X84028571Y-53111904D01*
X84123810Y-53064285D01*
X84361905Y-53064285D01*
X84457143Y-53111904D01*
X84504762Y-53159523D01*
X84552381Y-53254761D01*
X84552381Y-53540476D01*
X84504762Y-53635714D01*
X84457143Y-53683333D01*
X86452381Y-54016666D02*
X85976190Y-54350000D01*
X86452381Y-54588095D02*
X85452381Y-54588095D01*
X85452381Y-54207142D01*
X85500000Y-54111904D01*
X85547619Y-54064285D01*
X85642857Y-54016666D01*
X85785714Y-54016666D01*
X85880952Y-54064285D01*
X85928571Y-54111904D01*
X85976190Y-54207142D01*
X85976190Y-54588095D01*
X85785714Y-53159523D02*
X86452381Y-53159523D01*
X85404762Y-53397619D02*
X86119048Y-53635714D01*
X86119048Y-53016666D01*
X88052381Y-54016666D02*
X87576190Y-54350000D01*
X88052381Y-54588095D02*
X87052381Y-54588095D01*
X87052381Y-54207142D01*
X87100000Y-54111904D01*
X87147619Y-54064285D01*
X87242857Y-54016666D01*
X87385714Y-54016666D01*
X87480952Y-54064285D01*
X87528571Y-54111904D01*
X87576190Y-54207142D01*
X87576190Y-54588095D01*
X87052381Y-53111904D02*
X87052381Y-53588095D01*
X87528571Y-53635714D01*
X87480952Y-53588095D01*
X87433333Y-53492857D01*
X87433333Y-53254761D01*
X87480952Y-53159523D01*
X87528571Y-53111904D01*
X87623810Y-53064285D01*
X87861905Y-53064285D01*
X87957143Y-53111904D01*
X88004762Y-53159523D01*
X88052381Y-53254761D01*
X88052381Y-53492857D01*
X88004762Y-53588095D01*
X87957143Y-53635714D01*
X90002381Y-54016666D02*
X89526190Y-54350000D01*
X90002381Y-54588095D02*
X89002381Y-54588095D01*
X89002381Y-54207142D01*
X89050000Y-54111904D01*
X89097619Y-54064285D01*
X89192857Y-54016666D01*
X89335714Y-54016666D01*
X89430952Y-54064285D01*
X89478571Y-54111904D01*
X89526190Y-54207142D01*
X89526190Y-54588095D01*
X89002381Y-53159523D02*
X89002381Y-53350000D01*
X89050000Y-53445238D01*
X89097619Y-53492857D01*
X89240476Y-53588095D01*
X89430952Y-53635714D01*
X89811905Y-53635714D01*
X89907143Y-53588095D01*
X89954762Y-53540476D01*
X90002381Y-53445238D01*
X90002381Y-53254761D01*
X89954762Y-53159523D01*
X89907143Y-53111904D01*
X89811905Y-53064285D01*
X89573810Y-53064285D01*
X89478571Y-53111904D01*
X89430952Y-53159523D01*
X89383333Y-53254761D01*
X89383333Y-53445238D01*
X89430952Y-53540476D01*
X89478571Y-53588095D01*
X89573810Y-53635714D01*
X101108334Y-67927381D02*
X100775000Y-67451190D01*
X100536905Y-67927381D02*
X100536905Y-66927381D01*
X100917858Y-66927381D01*
X101013096Y-66975000D01*
X101060715Y-67022619D01*
X101108334Y-67117857D01*
X101108334Y-67260714D01*
X101060715Y-67355952D01*
X101013096Y-67403571D01*
X100917858Y-67451190D01*
X100536905Y-67451190D01*
X101441667Y-66927381D02*
X102108334Y-66927381D01*
X101679762Y-67927381D01*
X112158334Y-81277381D02*
X111825000Y-80801190D01*
X111586905Y-81277381D02*
X111586905Y-80277381D01*
X111967858Y-80277381D01*
X112063096Y-80325000D01*
X112110715Y-80372619D01*
X112158334Y-80467857D01*
X112158334Y-80610714D01*
X112110715Y-80705952D01*
X112063096Y-80753571D01*
X111967858Y-80801190D01*
X111586905Y-80801190D01*
X112729762Y-80705952D02*
X112634524Y-80658333D01*
X112586905Y-80610714D01*
X112539286Y-80515476D01*
X112539286Y-80467857D01*
X112586905Y-80372619D01*
X112634524Y-80325000D01*
X112729762Y-80277381D01*
X112920239Y-80277381D01*
X113015477Y-80325000D01*
X113063096Y-80372619D01*
X113110715Y-80467857D01*
X113110715Y-80515476D01*
X113063096Y-80610714D01*
X113015477Y-80658333D01*
X112920239Y-80705952D01*
X112729762Y-80705952D01*
X112634524Y-80753571D01*
X112586905Y-80801190D01*
X112539286Y-80896429D01*
X112539286Y-81086905D01*
X112586905Y-81182143D01*
X112634524Y-81229762D01*
X112729762Y-81277381D01*
X112920239Y-81277381D01*
X113015477Y-81229762D01*
X113063096Y-81182143D01*
X113110715Y-81086905D01*
X113110715Y-80896429D01*
X113063096Y-80801190D01*
X113015477Y-80753571D01*
X112920239Y-80705952D01*
X112808334Y-85977381D02*
X112475000Y-85501190D01*
X112236905Y-85977381D02*
X112236905Y-84977381D01*
X112617858Y-84977381D01*
X112713096Y-85025000D01*
X112760715Y-85072619D01*
X112808334Y-85167857D01*
X112808334Y-85310714D01*
X112760715Y-85405952D01*
X112713096Y-85453571D01*
X112617858Y-85501190D01*
X112236905Y-85501190D01*
X113284524Y-85977381D02*
X113475000Y-85977381D01*
X113570239Y-85929762D01*
X113617858Y-85882143D01*
X113713096Y-85739286D01*
X113760715Y-85548810D01*
X113760715Y-85167857D01*
X113713096Y-85072619D01*
X113665477Y-85025000D01*
X113570239Y-84977381D01*
X113379762Y-84977381D01*
X113284524Y-85025000D01*
X113236905Y-85072619D01*
X113189286Y-85167857D01*
X113189286Y-85405952D01*
X113236905Y-85501190D01*
X113284524Y-85548810D01*
X113379762Y-85596429D01*
X113570239Y-85596429D01*
X113665477Y-85548810D01*
X113713096Y-85501190D01*
X113760715Y-85405952D01*
X110682143Y-75202381D02*
X110348809Y-74726190D01*
X110110714Y-75202381D02*
X110110714Y-74202381D01*
X110491667Y-74202381D01*
X110586905Y-74250000D01*
X110634524Y-74297619D01*
X110682143Y-74392857D01*
X110682143Y-74535714D01*
X110634524Y-74630952D01*
X110586905Y-74678571D01*
X110491667Y-74726190D01*
X110110714Y-74726190D01*
X111634524Y-75202381D02*
X111063095Y-75202381D01*
X111348809Y-75202381D02*
X111348809Y-74202381D01*
X111253571Y-74345238D01*
X111158333Y-74440476D01*
X111063095Y-74488095D01*
X112253571Y-74202381D02*
X112348810Y-74202381D01*
X112444048Y-74250000D01*
X112491667Y-74297619D01*
X112539286Y-74392857D01*
X112586905Y-74583333D01*
X112586905Y-74821429D01*
X112539286Y-75011905D01*
X112491667Y-75107143D01*
X112444048Y-75154762D01*
X112348810Y-75202381D01*
X112253571Y-75202381D01*
X112158333Y-75154762D01*
X112110714Y-75107143D01*
X112063095Y-75011905D01*
X112015476Y-74821429D01*
X112015476Y-74583333D01*
X112063095Y-74392857D01*
X112110714Y-74297619D01*
X112158333Y-74250000D01*
X112253571Y-74202381D01*
X111007143Y-73277381D02*
X110673809Y-72801190D01*
X110435714Y-73277381D02*
X110435714Y-72277381D01*
X110816667Y-72277381D01*
X110911905Y-72325000D01*
X110959524Y-72372619D01*
X111007143Y-72467857D01*
X111007143Y-72610714D01*
X110959524Y-72705952D01*
X110911905Y-72753571D01*
X110816667Y-72801190D01*
X110435714Y-72801190D01*
X111959524Y-73277381D02*
X111388095Y-73277381D01*
X111673809Y-73277381D02*
X111673809Y-72277381D01*
X111578571Y-72420238D01*
X111483333Y-72515476D01*
X111388095Y-72563095D01*
X112911905Y-73277381D02*
X112340476Y-73277381D01*
X112626190Y-73277381D02*
X112626190Y-72277381D01*
X112530952Y-72420238D01*
X112435714Y-72515476D01*
X112340476Y-72563095D01*
X131552381Y-72895238D02*
X131076190Y-73228572D01*
X131552381Y-73466667D02*
X130552381Y-73466667D01*
X130552381Y-73085714D01*
X130600000Y-72990476D01*
X130647619Y-72942857D01*
X130742857Y-72895238D01*
X130885714Y-72895238D01*
X130980952Y-72942857D01*
X131028571Y-72990476D01*
X131076190Y-73085714D01*
X131076190Y-73466667D01*
X131028571Y-72133333D02*
X131028571Y-72466667D01*
X131552381Y-72466667D02*
X130552381Y-72466667D01*
X130552381Y-71990476D01*
X130647619Y-71657143D02*
X130600000Y-71609524D01*
X130552381Y-71514286D01*
X130552381Y-71276190D01*
X130600000Y-71180952D01*
X130647619Y-71133333D01*
X130742857Y-71085714D01*
X130838095Y-71085714D01*
X130980952Y-71133333D01*
X131552381Y-71704762D01*
X131552381Y-71085714D01*
X127552381Y-74319048D02*
X126552381Y-74319048D01*
X126552381Y-74080953D01*
X126600000Y-73938095D01*
X126695238Y-73842857D01*
X126790476Y-73795238D01*
X126980952Y-73747619D01*
X127123810Y-73747619D01*
X127314286Y-73795238D01*
X127409524Y-73842857D01*
X127504762Y-73938095D01*
X127552381Y-74080953D01*
X127552381Y-74319048D01*
X127552381Y-72747619D02*
X127076190Y-73080953D01*
X127552381Y-73319048D02*
X126552381Y-73319048D01*
X126552381Y-72938095D01*
X126600000Y-72842857D01*
X126647619Y-72795238D01*
X126742857Y-72747619D01*
X126885714Y-72747619D01*
X126980952Y-72795238D01*
X127028571Y-72842857D01*
X127076190Y-72938095D01*
X127076190Y-73319048D01*
X127266667Y-72366667D02*
X127266667Y-71890476D01*
X127552381Y-72461905D02*
X126552381Y-72128572D01*
X127552381Y-71795238D01*
X126980952Y-71319048D02*
X126933333Y-71414286D01*
X126885714Y-71461905D01*
X126790476Y-71509524D01*
X126742857Y-71509524D01*
X126647619Y-71461905D01*
X126600000Y-71414286D01*
X126552381Y-71319048D01*
X126552381Y-71128571D01*
X126600000Y-71033333D01*
X126647619Y-70985714D01*
X126742857Y-70938095D01*
X126790476Y-70938095D01*
X126885714Y-70985714D01*
X126933333Y-71033333D01*
X126980952Y-71128571D01*
X126980952Y-71319048D01*
X127028571Y-71414286D01*
X127076190Y-71461905D01*
X127171429Y-71509524D01*
X127361905Y-71509524D01*
X127457143Y-71461905D01*
X127504762Y-71414286D01*
X127552381Y-71319048D01*
X127552381Y-71128571D01*
X127504762Y-71033333D01*
X127457143Y-70985714D01*
X127361905Y-70938095D01*
X127171429Y-70938095D01*
X127076190Y-70985714D01*
X127028571Y-71033333D01*
X126980952Y-71128571D01*
X127552381Y-69985714D02*
X127552381Y-70557143D01*
X127552381Y-70271429D02*
X126552381Y-70271429D01*
X126695238Y-70366667D01*
X126790476Y-70461905D01*
X126838095Y-70557143D01*
X126980952Y-69414286D02*
X126933333Y-69509524D01*
X126885714Y-69557143D01*
X126790476Y-69604762D01*
X126742857Y-69604762D01*
X126647619Y-69557143D01*
X126600000Y-69509524D01*
X126552381Y-69414286D01*
X126552381Y-69223809D01*
X126600000Y-69128571D01*
X126647619Y-69080952D01*
X126742857Y-69033333D01*
X126790476Y-69033333D01*
X126885714Y-69080952D01*
X126933333Y-69128571D01*
X126980952Y-69223809D01*
X126980952Y-69414286D01*
X127028571Y-69509524D01*
X127076190Y-69557143D01*
X127171429Y-69604762D01*
X127361905Y-69604762D01*
X127457143Y-69557143D01*
X127504762Y-69509524D01*
X127552381Y-69414286D01*
X127552381Y-69223809D01*
X127504762Y-69128571D01*
X127457143Y-69080952D01*
X127361905Y-69033333D01*
X127171429Y-69033333D01*
X127076190Y-69080952D01*
X127028571Y-69128571D01*
X126980952Y-69223809D01*
D19*
X100633914Y-61916857D02*
X101395914Y-61408857D01*
X100633914Y-61408857D02*
X101395914Y-61916857D01*
X101395914Y-60719429D02*
X101395914Y-61154857D01*
X101395914Y-60937143D02*
X100633914Y-60937143D01*
X100742771Y-61009714D01*
X100815343Y-61082286D01*
X100851629Y-61154857D01*
X109547143Y-64711999D02*
X109583429Y-64748285D01*
X109619714Y-64857142D01*
X109619714Y-64929713D01*
X109583429Y-65038570D01*
X109510857Y-65111142D01*
X109438286Y-65147427D01*
X109293143Y-65183713D01*
X109184286Y-65183713D01*
X109039143Y-65147427D01*
X108966571Y-65111142D01*
X108894000Y-65038570D01*
X108857714Y-64929713D01*
X108857714Y-64857142D01*
X108894000Y-64748285D01*
X108930286Y-64711999D01*
X109619714Y-63949999D02*
X109256857Y-64203999D01*
X109619714Y-64385427D02*
X108857714Y-64385427D01*
X108857714Y-64095142D01*
X108894000Y-64022570D01*
X108930286Y-63986285D01*
X109002857Y-63949999D01*
X109111714Y-63949999D01*
X109184286Y-63986285D01*
X109220571Y-64022570D01*
X109256857Y-64095142D01*
X109256857Y-64385427D01*
X109256857Y-63478285D02*
X109619714Y-63478285D01*
X108857714Y-63732285D02*
X109256857Y-63478285D01*
X108857714Y-63224285D01*
X109583429Y-63006570D02*
X109619714Y-62897713D01*
X109619714Y-62716284D01*
X109583429Y-62643713D01*
X109547143Y-62607427D01*
X109474571Y-62571142D01*
X109402000Y-62571142D01*
X109329429Y-62607427D01*
X109293143Y-62643713D01*
X109256857Y-62716284D01*
X109220571Y-62861427D01*
X109184286Y-62933999D01*
X109148000Y-62970284D01*
X109075429Y-63006570D01*
X109002857Y-63006570D01*
X108930286Y-62970284D01*
X108894000Y-62933999D01*
X108857714Y-62861427D01*
X108857714Y-62679999D01*
X108894000Y-62571142D01*
X108857714Y-62353428D02*
X108857714Y-61917999D01*
X109619714Y-62135713D02*
X108857714Y-62135713D01*
X109402000Y-61700285D02*
X109402000Y-61337428D01*
X109619714Y-61772857D02*
X108857714Y-61518857D01*
X109619714Y-61264857D01*
X109619714Y-60647999D02*
X109619714Y-61010856D01*
X108857714Y-61010856D01*
X109692286Y-60575428D02*
X109692286Y-59994857D01*
X109402000Y-59849714D02*
X109402000Y-59486857D01*
X109619714Y-59922286D02*
X108857714Y-59668286D01*
X109619714Y-59414286D01*
X109220571Y-58906285D02*
X109256857Y-58797428D01*
X109293143Y-58761143D01*
X109365714Y-58724857D01*
X109474571Y-58724857D01*
X109547143Y-58761143D01*
X109583429Y-58797428D01*
X109619714Y-58870000D01*
X109619714Y-59160285D01*
X108857714Y-59160285D01*
X108857714Y-58906285D01*
X108894000Y-58833714D01*
X108930286Y-58797428D01*
X109002857Y-58761143D01*
X109075429Y-58761143D01*
X109148000Y-58797428D01*
X109184286Y-58833714D01*
X109220571Y-58906285D01*
X109220571Y-59160285D01*
X109619714Y-58398285D02*
X108857714Y-58398285D01*
X109402000Y-58144285D01*
X108857714Y-57890285D01*
X109619714Y-57890285D01*
X108857714Y-57600000D02*
X108857714Y-57128286D01*
X109148000Y-57382286D01*
X109148000Y-57273428D01*
X109184286Y-57200857D01*
X109220571Y-57164571D01*
X109293143Y-57128286D01*
X109474571Y-57128286D01*
X109547143Y-57164571D01*
X109583429Y-57200857D01*
X109619714Y-57273428D01*
X109619714Y-57491143D01*
X109583429Y-57563714D01*
X109547143Y-57600000D01*
X109547143Y-56366286D02*
X109583429Y-56402572D01*
X109619714Y-56511429D01*
X109619714Y-56584000D01*
X109583429Y-56692857D01*
X109510857Y-56765429D01*
X109438286Y-56801714D01*
X109293143Y-56838000D01*
X109184286Y-56838000D01*
X109039143Y-56801714D01*
X108966571Y-56765429D01*
X108894000Y-56692857D01*
X108857714Y-56584000D01*
X108857714Y-56511429D01*
X108894000Y-56402572D01*
X108930286Y-56366286D01*
D24*
X129592000Y-49095429D02*
X129592000Y-50184000D01*
X129519428Y-50401714D01*
X129374285Y-50546857D01*
X129156571Y-50619429D01*
X129011428Y-50619429D01*
X130245143Y-49240571D02*
X130317714Y-49168000D01*
X130462857Y-49095429D01*
X130825714Y-49095429D01*
X130970857Y-49168000D01*
X131043428Y-49240571D01*
X131116000Y-49385714D01*
X131116000Y-49530857D01*
X131043428Y-49748571D01*
X130172571Y-50619429D01*
X131116000Y-50619429D01*
X129410572Y-53086857D02*
X129628286Y-53159429D01*
X129991143Y-53159429D01*
X130136286Y-53086857D01*
X130208857Y-53014286D01*
X130281429Y-52869143D01*
X130281429Y-52724000D01*
X130208857Y-52578857D01*
X130136286Y-52506286D01*
X129991143Y-52433714D01*
X129700857Y-52361143D01*
X129555715Y-52288571D01*
X129483143Y-52216000D01*
X129410572Y-52070857D01*
X129410572Y-51925714D01*
X129483143Y-51780571D01*
X129555715Y-51708000D01*
X129700857Y-51635429D01*
X130063715Y-51635429D01*
X130281429Y-51708000D01*
X130934572Y-53159429D02*
X130934572Y-51635429D01*
X131442572Y-52724000D01*
X131950572Y-51635429D01*
X131950572Y-53159429D01*
X132603715Y-52724000D02*
X133329429Y-52724000D01*
X132458572Y-53159429D02*
X132966572Y-51635429D01*
X133474572Y-53159429D01*
D13*
X100707143Y-47852381D02*
X100373809Y-47376190D01*
X100135714Y-47852381D02*
X100135714Y-46852381D01*
X100516667Y-46852381D01*
X100611905Y-46900000D01*
X100659524Y-46947619D01*
X100707143Y-47042857D01*
X100707143Y-47185714D01*
X100659524Y-47280952D01*
X100611905Y-47328571D01*
X100516667Y-47376190D01*
X100135714Y-47376190D01*
X101659524Y-47852381D02*
X101088095Y-47852381D01*
X101373809Y-47852381D02*
X101373809Y-46852381D01*
X101278571Y-46995238D01*
X101183333Y-47090476D01*
X101088095Y-47138095D01*
X102040476Y-46947619D02*
X102088095Y-46900000D01*
X102183333Y-46852381D01*
X102421429Y-46852381D01*
X102516667Y-46900000D01*
X102564286Y-46947619D01*
X102611905Y-47042857D01*
X102611905Y-47138095D01*
X102564286Y-47280952D01*
X101992857Y-47852381D01*
X102611905Y-47852381D01*
X88432381Y-85925238D02*
X87956190Y-86258572D01*
X88432381Y-86496667D02*
X87432381Y-86496667D01*
X87432381Y-86115714D01*
X87480000Y-86020476D01*
X87527619Y-85972857D01*
X87622857Y-85925238D01*
X87765714Y-85925238D01*
X87860952Y-85972857D01*
X87908571Y-86020476D01*
X87956190Y-86115714D01*
X87956190Y-86496667D01*
X87908571Y-85163333D02*
X87908571Y-85496667D01*
X88432381Y-85496667D02*
X87432381Y-85496667D01*
X87432381Y-85020476D01*
X88432381Y-84115714D02*
X88432381Y-84687143D01*
X88432381Y-84401429D02*
X87432381Y-84401429D01*
X87575238Y-84496667D01*
X87670476Y-84591905D01*
X87718095Y-84687143D01*
D23*
X116917362Y-64345695D02*
X116975419Y-64365048D01*
X117072181Y-64365048D01*
X117110885Y-64345695D01*
X117130238Y-64326343D01*
X117149590Y-64287638D01*
X117149590Y-64248933D01*
X117130238Y-64210229D01*
X117110885Y-64190876D01*
X117072181Y-64171524D01*
X116994771Y-64152171D01*
X116956066Y-64132819D01*
X116936714Y-64113467D01*
X116917362Y-64074762D01*
X116917362Y-64036057D01*
X116936714Y-63997352D01*
X116956066Y-63978000D01*
X116994771Y-63958648D01*
X117091533Y-63958648D01*
X117149590Y-63978000D01*
X117536638Y-64365048D02*
X117304410Y-64365048D01*
X117420524Y-64365048D02*
X117420524Y-63958648D01*
X117381819Y-64016705D01*
X117343114Y-64055410D01*
X117304410Y-64074762D01*
X115059534Y-60148648D02*
X115291762Y-60148648D01*
X115175648Y-60555048D02*
X115175648Y-60148648D01*
X115407877Y-60438933D02*
X115601400Y-60438933D01*
X115369172Y-60555048D02*
X115504638Y-60148648D01*
X115640105Y-60555048D01*
X116007800Y-60516343D02*
X115988448Y-60535695D01*
X115930391Y-60555048D01*
X115891686Y-60555048D01*
X115833629Y-60535695D01*
X115794924Y-60496990D01*
X115775572Y-60458286D01*
X115756220Y-60380876D01*
X115756220Y-60322819D01*
X115775572Y-60245410D01*
X115794924Y-60206705D01*
X115833629Y-60168000D01*
X115891686Y-60148648D01*
X115930391Y-60148648D01*
X115988448Y-60168000D01*
X116007800Y-60187352D01*
X116085210Y-60593752D02*
X116394848Y-60593752D01*
X116472258Y-60535695D02*
X116530315Y-60555048D01*
X116627077Y-60555048D01*
X116665781Y-60535695D01*
X116685134Y-60516343D01*
X116704486Y-60477638D01*
X116704486Y-60438933D01*
X116685134Y-60400229D01*
X116665781Y-60380876D01*
X116627077Y-60361524D01*
X116549667Y-60342171D01*
X116510962Y-60322819D01*
X116491610Y-60303467D01*
X116472258Y-60264762D01*
X116472258Y-60226057D01*
X116491610Y-60187352D01*
X116510962Y-60168000D01*
X116549667Y-60148648D01*
X116646429Y-60148648D01*
X116704486Y-60168000D01*
X116839953Y-60148648D02*
X116936715Y-60555048D01*
X117014125Y-60264762D01*
X117091534Y-60555048D01*
X117188296Y-60148648D01*
X117343115Y-60555048D02*
X117343115Y-60148648D01*
X117478582Y-60148648D02*
X117710810Y-60148648D01*
X117594696Y-60555048D02*
X117594696Y-60148648D01*
X118078505Y-60516343D02*
X118059153Y-60535695D01*
X118001096Y-60555048D01*
X117962391Y-60555048D01*
X117904334Y-60535695D01*
X117865629Y-60496990D01*
X117846277Y-60458286D01*
X117826925Y-60380876D01*
X117826925Y-60322819D01*
X117846277Y-60245410D01*
X117865629Y-60206705D01*
X117904334Y-60168000D01*
X117962391Y-60148648D01*
X118001096Y-60148648D01*
X118059153Y-60168000D01*
X118078505Y-60187352D01*
X118252677Y-60555048D02*
X118252677Y-60148648D01*
X118252677Y-60342171D02*
X118484905Y-60342171D01*
X118484905Y-60555048D02*
X118484905Y-60148648D01*
X118659077Y-60535695D02*
X118717134Y-60555048D01*
X118813896Y-60555048D01*
X118852600Y-60535695D01*
X118871953Y-60516343D01*
X118891305Y-60477638D01*
X118891305Y-60438933D01*
X118871953Y-60400229D01*
X118852600Y-60380876D01*
X118813896Y-60361524D01*
X118736486Y-60342171D01*
X118697781Y-60322819D01*
X118678429Y-60303467D01*
X118659077Y-60264762D01*
X118659077Y-60226057D01*
X118678429Y-60187352D01*
X118697781Y-60168000D01*
X118736486Y-60148648D01*
X118833248Y-60148648D01*
X118891305Y-60168000D01*
X119065477Y-60555048D02*
X119065477Y-60148648D01*
X119200944Y-60438933D01*
X119336410Y-60148648D01*
X119336410Y-60555048D01*
X119529934Y-60555048D02*
X119529934Y-60148648D01*
X119626696Y-60148648D01*
X119684753Y-60168000D01*
X119723458Y-60206705D01*
X119742810Y-60245410D01*
X119762162Y-60322819D01*
X119762162Y-60380876D01*
X119742810Y-60458286D01*
X119723458Y-60496990D01*
X119684753Y-60535695D01*
X119626696Y-60555048D01*
X119529934Y-60555048D01*
D13*
X101007143Y-54242857D02*
X101054762Y-54290476D01*
X101102381Y-54433333D01*
X101102381Y-54528571D01*
X101054762Y-54671429D01*
X100959524Y-54766667D01*
X100864286Y-54814286D01*
X100673810Y-54861905D01*
X100530952Y-54861905D01*
X100340476Y-54814286D01*
X100245238Y-54766667D01*
X100150000Y-54671429D01*
X100102381Y-54528571D01*
X100102381Y-54433333D01*
X100150000Y-54290476D01*
X100197619Y-54242857D01*
X101102381Y-53290476D02*
X101102381Y-53861905D01*
X101102381Y-53576191D02*
X100102381Y-53576191D01*
X100245238Y-53671429D01*
X100340476Y-53766667D01*
X100388095Y-53861905D01*
X101102381Y-52338095D02*
X101102381Y-52909524D01*
X101102381Y-52623810D02*
X100102381Y-52623810D01*
X100245238Y-52719048D01*
X100340476Y-52814286D01*
X100388095Y-52909524D01*
X84811396Y-60954467D02*
X84744053Y-60954467D01*
X84609366Y-60887123D01*
X84542022Y-60819780D01*
X84474678Y-60685092D01*
X84474678Y-60550405D01*
X84508350Y-60449390D01*
X84609365Y-60281032D01*
X84710381Y-60180016D01*
X84878740Y-60079001D01*
X84979755Y-60045329D01*
X85114442Y-60045329D01*
X85249129Y-60112673D01*
X85316473Y-60180016D01*
X85383816Y-60314703D01*
X85383816Y-60382047D01*
X85417488Y-61695245D02*
X85013427Y-61291184D01*
X85215457Y-61493214D02*
X85922564Y-60786107D01*
X85754205Y-60819779D01*
X85619518Y-60819779D01*
X85518503Y-60786107D01*
X86360297Y-61223840D02*
X86798030Y-61661573D01*
X86292953Y-61695244D01*
X86393969Y-61796260D01*
X86427641Y-61897275D01*
X86427641Y-61964619D01*
X86393968Y-62065635D01*
X86225610Y-62233993D01*
X86124595Y-62267665D01*
X86057251Y-62267665D01*
X85956236Y-62233993D01*
X85754205Y-62031962D01*
X85720533Y-61930947D01*
X85720533Y-61863604D01*
D21*
X92578241Y-61564391D02*
X92149327Y-61993305D01*
X92124097Y-62068996D01*
X92124097Y-62119457D01*
X92149327Y-62195148D01*
X92250248Y-62296068D01*
X92325938Y-62321298D01*
X92376399Y-62321298D01*
X92452090Y-62296068D01*
X92881004Y-61867154D01*
X92881004Y-62926824D02*
X92578241Y-62624062D01*
X92729623Y-62775443D02*
X93259458Y-62245608D01*
X93133306Y-62270838D01*
X93032385Y-62270838D01*
X92956695Y-62245608D01*
X91406745Y-64022629D02*
X90876910Y-63492794D01*
X91431975Y-63694636D01*
X91230133Y-63139571D01*
X91759969Y-63669406D01*
X92012271Y-63417103D02*
X91482436Y-62887268D01*
X92315034Y-63114341D02*
X91785200Y-63038650D01*
X91785199Y-62584506D02*
X91785199Y-63190031D01*
X92794408Y-62634966D02*
X92542106Y-62887268D01*
X92012271Y-62357433D01*
X92466416Y-62004210D02*
X92466416Y-61953749D01*
X92491646Y-61878058D01*
X92617797Y-61751908D01*
X92693487Y-61726677D01*
X92743948Y-61726677D01*
X92819639Y-61751908D01*
X92870099Y-61802368D01*
X92920560Y-61903289D01*
X92920560Y-62508815D01*
X93248553Y-62180822D01*
X93172862Y-61196842D02*
X93071942Y-61297763D01*
X93046711Y-61373454D01*
X93046711Y-61423914D01*
X93071942Y-61550066D01*
X93147632Y-61676217D01*
X93349474Y-61878058D01*
X93425165Y-61903289D01*
X93475625Y-61903289D01*
X93551316Y-61878058D01*
X93652237Y-61777138D01*
X93677467Y-61701447D01*
X93677467Y-61650987D01*
X93652237Y-61575296D01*
X93526085Y-61449144D01*
X93450395Y-61423915D01*
X93399934Y-61423915D01*
X93324244Y-61449145D01*
X93223323Y-61550066D01*
X93198093Y-61625756D01*
X93198093Y-61676217D01*
X93223323Y-61751907D01*
X93399934Y-60969770D02*
X93753158Y-60616547D01*
X93929770Y-61499605D01*
X94282993Y-61146382D01*
X94762367Y-60667007D02*
X94459605Y-60969770D01*
X94610986Y-60818388D02*
X94081151Y-60288553D01*
X94106381Y-60414705D01*
X94106381Y-60515626D01*
X94081151Y-60591316D01*
X94484835Y-59985791D02*
X94484835Y-59935330D01*
X94510065Y-59859639D01*
X94636216Y-59733488D01*
X94711907Y-59708258D01*
X94762367Y-59708258D01*
X94838058Y-59733488D01*
X94888519Y-59783949D01*
X94938979Y-59884870D01*
X94938979Y-60490395D01*
X95266972Y-60162402D01*
X95266973Y-59556877D02*
X95191282Y-59582107D01*
X95140821Y-59582107D01*
X95065131Y-59556877D01*
X95039900Y-59531646D01*
X95014670Y-59455955D01*
X95014670Y-59405495D01*
X95039900Y-59329804D01*
X95140821Y-59228884D01*
X95216512Y-59203653D01*
X95266972Y-59203653D01*
X95342663Y-59228884D01*
X95367893Y-59254114D01*
X95393123Y-59329805D01*
X95393123Y-59380265D01*
X95367893Y-59455956D01*
X95266973Y-59556877D01*
X95241743Y-59632567D01*
X95241743Y-59683028D01*
X95266972Y-59758718D01*
X95367893Y-59859639D01*
X95443584Y-59884869D01*
X95494045Y-59884869D01*
X95569735Y-59859639D01*
X95670656Y-59758719D01*
X95695886Y-59683028D01*
X95695886Y-59632567D01*
X95670656Y-59556877D01*
X95569735Y-59455955D01*
X95494045Y-59430726D01*
X95443584Y-59430726D01*
X95367893Y-59455956D01*
X95393123Y-58976581D02*
X96099571Y-59329804D01*
X95746347Y-58623358D01*
X96705096Y-58724279D02*
X96452794Y-58976581D01*
X95922959Y-58446746D01*
X96881708Y-58547667D02*
X96351873Y-58017832D01*
X96604175Y-58270134D02*
X96906938Y-57967372D01*
X97184470Y-58244904D02*
X96654635Y-57715069D01*
X97310622Y-57412306D02*
X97663845Y-57765530D01*
X96982629Y-57336615D02*
X97234931Y-57841220D01*
X97562924Y-57513227D01*
D13*
X105682143Y-79582143D02*
X105634524Y-79629762D01*
X105491667Y-79677381D01*
X105396429Y-79677381D01*
X105253571Y-79629762D01*
X105158333Y-79534524D01*
X105110714Y-79439286D01*
X105063095Y-79248810D01*
X105063095Y-79105952D01*
X105110714Y-78915476D01*
X105158333Y-78820238D01*
X105253571Y-78725000D01*
X105396429Y-78677381D01*
X105491667Y-78677381D01*
X105634524Y-78725000D01*
X105682143Y-78772619D01*
X106634524Y-79677381D02*
X106063095Y-79677381D01*
X106348809Y-79677381D02*
X106348809Y-78677381D01*
X106253571Y-78820238D01*
X106158333Y-78915476D01*
X106063095Y-78963095D01*
X107491667Y-79010714D02*
X107491667Y-79677381D01*
X107253571Y-78629762D02*
X107015476Y-79344048D01*
X107634524Y-79344048D01*
X107282143Y-87727381D02*
X106948809Y-87251190D01*
X106710714Y-87727381D02*
X106710714Y-86727381D01*
X107091667Y-86727381D01*
X107186905Y-86775000D01*
X107234524Y-86822619D01*
X107282143Y-86917857D01*
X107282143Y-87060714D01*
X107234524Y-87155952D01*
X107186905Y-87203571D01*
X107091667Y-87251190D01*
X106710714Y-87251190D01*
X108234524Y-87727381D02*
X107663095Y-87727381D01*
X107948809Y-87727381D02*
X107948809Y-86727381D01*
X107853571Y-86870238D01*
X107758333Y-86965476D01*
X107663095Y-87013095D01*
X109091667Y-87060714D02*
X109091667Y-87727381D01*
X108853571Y-86679762D02*
X108615476Y-87394048D01*
X109234524Y-87394048D01*
X102631905Y-46192381D02*
X102631905Y-45192381D01*
X103012858Y-45192381D01*
X103108096Y-45240000D01*
X103155715Y-45287619D01*
X103203334Y-45382857D01*
X103203334Y-45525714D01*
X103155715Y-45620952D01*
X103108096Y-45668571D01*
X103012858Y-45716190D01*
X102631905Y-45716190D01*
X104060477Y-45192381D02*
X103870000Y-45192381D01*
X103774762Y-45240000D01*
X103727143Y-45287619D01*
X103631905Y-45430476D01*
X103584286Y-45620952D01*
X103584286Y-46001905D01*
X103631905Y-46097143D01*
X103679524Y-46144762D01*
X103774762Y-46192381D01*
X103965239Y-46192381D01*
X104060477Y-46144762D01*
X104108096Y-46097143D01*
X104155715Y-46001905D01*
X104155715Y-45763810D01*
X104108096Y-45668571D01*
X104060477Y-45620952D01*
X103965239Y-45573333D01*
X103774762Y-45573333D01*
X103679524Y-45620952D01*
X103631905Y-45668571D01*
X103584286Y-45763810D01*
X79702381Y-101848095D02*
X78702381Y-101848095D01*
X78702381Y-101467142D01*
X78750000Y-101371904D01*
X78797619Y-101324285D01*
X78892857Y-101276666D01*
X79035714Y-101276666D01*
X79130952Y-101324285D01*
X79178571Y-101371904D01*
X79226190Y-101467142D01*
X79226190Y-101848095D01*
X78797619Y-100895714D02*
X78750000Y-100848095D01*
X78702381Y-100752857D01*
X78702381Y-100514761D01*
X78750000Y-100419523D01*
X78797619Y-100371904D01*
X78892857Y-100324285D01*
X78988095Y-100324285D01*
X79130952Y-100371904D01*
X79702381Y-100943333D01*
X79702381Y-100324285D01*
X92983334Y-98357143D02*
X92935715Y-98404762D01*
X92792858Y-98452381D01*
X92697620Y-98452381D01*
X92554762Y-98404762D01*
X92459524Y-98309524D01*
X92411905Y-98214286D01*
X92364286Y-98023810D01*
X92364286Y-97880952D01*
X92411905Y-97690476D01*
X92459524Y-97595238D01*
X92554762Y-97500000D01*
X92697620Y-97452381D01*
X92792858Y-97452381D01*
X92935715Y-97500000D01*
X92983334Y-97547619D01*
X93316667Y-97452381D02*
X93935715Y-97452381D01*
X93602381Y-97833333D01*
X93745239Y-97833333D01*
X93840477Y-97880952D01*
X93888096Y-97928571D01*
X93935715Y-98023810D01*
X93935715Y-98261905D01*
X93888096Y-98357143D01*
X93840477Y-98404762D01*
X93745239Y-98452381D01*
X93459524Y-98452381D01*
X93364286Y-98404762D01*
X93316667Y-98357143D01*
X93180953Y-97402381D02*
X92609524Y-97402381D01*
X92895238Y-97402381D02*
X92895238Y-96402381D01*
X92800000Y-96545238D01*
X92704762Y-96640476D01*
X92609524Y-96688095D01*
X93800000Y-96402381D02*
X93895239Y-96402381D01*
X93990477Y-96450000D01*
X94038096Y-96497619D01*
X94085715Y-96592857D01*
X94133334Y-96783333D01*
X94133334Y-97021429D01*
X94085715Y-97211905D01*
X94038096Y-97307143D01*
X93990477Y-97354762D01*
X93895239Y-97402381D01*
X93800000Y-97402381D01*
X93704762Y-97354762D01*
X93657143Y-97307143D01*
X93609524Y-97211905D01*
X93561905Y-97021429D01*
X93561905Y-96783333D01*
X93609524Y-96592857D01*
X93657143Y-96497619D01*
X93704762Y-96450000D01*
X93800000Y-96402381D01*
X94752381Y-96402381D02*
X94847620Y-96402381D01*
X94942858Y-96450000D01*
X94990477Y-96497619D01*
X95038096Y-96592857D01*
X95085715Y-96783333D01*
X95085715Y-97021429D01*
X95038096Y-97211905D01*
X94990477Y-97307143D01*
X94942858Y-97354762D01*
X94847620Y-97402381D01*
X94752381Y-97402381D01*
X94657143Y-97354762D01*
X94609524Y-97307143D01*
X94561905Y-97211905D01*
X94514286Y-97021429D01*
X94514286Y-96783333D01*
X94561905Y-96592857D01*
X94609524Y-96497619D01*
X94657143Y-96450000D01*
X94752381Y-96402381D01*
X95514286Y-96735714D02*
X95514286Y-97402381D01*
X95514286Y-96830952D02*
X95561905Y-96783333D01*
X95657143Y-96735714D01*
X95800001Y-96735714D01*
X95895239Y-96783333D01*
X95942858Y-96878571D01*
X95942858Y-97402381D01*
X90133334Y-101957143D02*
X90085715Y-102004762D01*
X89942858Y-102052381D01*
X89847620Y-102052381D01*
X89704762Y-102004762D01*
X89609524Y-101909524D01*
X89561905Y-101814286D01*
X89514286Y-101623810D01*
X89514286Y-101480952D01*
X89561905Y-101290476D01*
X89609524Y-101195238D01*
X89704762Y-101100000D01*
X89847620Y-101052381D01*
X89942858Y-101052381D01*
X90085715Y-101100000D01*
X90133334Y-101147619D01*
X90990477Y-101385714D02*
X90990477Y-102052381D01*
X90752381Y-101004762D02*
X90514286Y-101719048D01*
X91133334Y-101719048D01*
X89783334Y-98752381D02*
X89211905Y-98752381D01*
X89497619Y-98752381D02*
X89497619Y-97752381D01*
X89402381Y-97895238D01*
X89307143Y-97990476D01*
X89211905Y-98038095D01*
X90640477Y-98085714D02*
X90640477Y-98752381D01*
X90211905Y-98085714D02*
X90211905Y-98609524D01*
X90259524Y-98704762D01*
X90354762Y-98752381D01*
X90497620Y-98752381D01*
X90592858Y-98704762D01*
X90640477Y-98657143D01*
X88557143Y-95866666D02*
X88604762Y-95914285D01*
X88652381Y-96057142D01*
X88652381Y-96152380D01*
X88604762Y-96295238D01*
X88509524Y-96390476D01*
X88414286Y-96438095D01*
X88223810Y-96485714D01*
X88080952Y-96485714D01*
X87890476Y-96438095D01*
X87795238Y-96390476D01*
X87700000Y-96295238D01*
X87652381Y-96152380D01*
X87652381Y-96057142D01*
X87700000Y-95914285D01*
X87747619Y-95866666D01*
X87652381Y-94961904D02*
X87652381Y-95438095D01*
X88128571Y-95485714D01*
X88080952Y-95438095D01*
X88033333Y-95342857D01*
X88033333Y-95104761D01*
X88080952Y-95009523D01*
X88128571Y-94961904D01*
X88223810Y-94914285D01*
X88461905Y-94914285D01*
X88557143Y-94961904D01*
X88604762Y-95009523D01*
X88652381Y-95104761D01*
X88652381Y-95342857D01*
X88604762Y-95438095D01*
X88557143Y-95485714D01*
X86083334Y-94102381D02*
X85511905Y-94102381D01*
X85797619Y-94102381D02*
X85797619Y-93102381D01*
X85702381Y-93245238D01*
X85607143Y-93340476D01*
X85511905Y-93388095D01*
X86940477Y-93435714D02*
X86940477Y-94102381D01*
X86511905Y-93435714D02*
X86511905Y-93959524D01*
X86559524Y-94054762D01*
X86654762Y-94102381D01*
X86797620Y-94102381D01*
X86892858Y-94054762D01*
X86940477Y-94007143D01*
X79720143Y-104866666D02*
X79767762Y-104914285D01*
X79815381Y-105057142D01*
X79815381Y-105152380D01*
X79767762Y-105295238D01*
X79672524Y-105390476D01*
X79577286Y-105438095D01*
X79386810Y-105485714D01*
X79243952Y-105485714D01*
X79053476Y-105438095D01*
X78958238Y-105390476D01*
X78863000Y-105295238D01*
X78815381Y-105152380D01*
X78815381Y-105057142D01*
X78863000Y-104914285D01*
X78910619Y-104866666D01*
X78815381Y-104009523D02*
X78815381Y-104200000D01*
X78863000Y-104295238D01*
X78910619Y-104342857D01*
X79053476Y-104438095D01*
X79243952Y-104485714D01*
X79624905Y-104485714D01*
X79720143Y-104438095D01*
X79767762Y-104390476D01*
X79815381Y-104295238D01*
X79815381Y-104104761D01*
X79767762Y-104009523D01*
X79720143Y-103961904D01*
X79624905Y-103914285D01*
X79386810Y-103914285D01*
X79291571Y-103961904D01*
X79243952Y-104009523D01*
X79196333Y-104104761D01*
X79196333Y-104295238D01*
X79243952Y-104390476D01*
X79291571Y-104438095D01*
X79386810Y-104485714D01*
X79452381Y-105569047D02*
X79452381Y-106140476D01*
X79452381Y-105854762D02*
X78452381Y-105854762D01*
X78595238Y-105950000D01*
X78690476Y-106045238D01*
X78738095Y-106140476D01*
X78547619Y-105188095D02*
X78500000Y-105140476D01*
X78452381Y-105045238D01*
X78452381Y-104807142D01*
X78500000Y-104711904D01*
X78547619Y-104664285D01*
X78642857Y-104616666D01*
X78738095Y-104616666D01*
X78880952Y-104664285D01*
X79452381Y-105235714D01*
X79452381Y-104616666D01*
X78452381Y-103997619D02*
X78452381Y-103902380D01*
X78500000Y-103807142D01*
X78547619Y-103759523D01*
X78642857Y-103711904D01*
X78833333Y-103664285D01*
X79071429Y-103664285D01*
X79261905Y-103711904D01*
X79357143Y-103759523D01*
X79404762Y-103807142D01*
X79452381Y-103902380D01*
X79452381Y-103997619D01*
X79404762Y-104092857D01*
X79357143Y-104140476D01*
X79261905Y-104188095D01*
X79071429Y-104235714D01*
X78833333Y-104235714D01*
X78642857Y-104188095D01*
X78547619Y-104140476D01*
X78500000Y-104092857D01*
X78452381Y-103997619D01*
X78785714Y-102807142D02*
X79452381Y-102807142D01*
X78785714Y-103235714D02*
X79309524Y-103235714D01*
X79404762Y-103188095D01*
X79452381Y-103092857D01*
X79452381Y-102949999D01*
X79404762Y-102854761D01*
X79357143Y-102807142D01*
X95161905Y-93032381D02*
X95161905Y-92032381D01*
X95400000Y-92032381D01*
X95542858Y-92080000D01*
X95638096Y-92175238D01*
X95685715Y-92270476D01*
X95733334Y-92460952D01*
X95733334Y-92603810D01*
X95685715Y-92794286D01*
X95638096Y-92889524D01*
X95542858Y-92984762D01*
X95400000Y-93032381D01*
X95161905Y-93032381D01*
X96114286Y-92127619D02*
X96161905Y-92080000D01*
X96257143Y-92032381D01*
X96495239Y-92032381D01*
X96590477Y-92080000D01*
X96638096Y-92127619D01*
X96685715Y-92222857D01*
X96685715Y-92318095D01*
X96638096Y-92460952D01*
X96066667Y-93032381D01*
X96685715Y-93032381D01*
X89997619Y-91704762D02*
X90140476Y-91752381D01*
X90378572Y-91752381D01*
X90473810Y-91704762D01*
X90521429Y-91657143D01*
X90569048Y-91561905D01*
X90569048Y-91466667D01*
X90521429Y-91371429D01*
X90473810Y-91323810D01*
X90378572Y-91276190D01*
X90188095Y-91228571D01*
X90092857Y-91180952D01*
X90045238Y-91133333D01*
X89997619Y-91038095D01*
X89997619Y-90942857D01*
X90045238Y-90847619D01*
X90092857Y-90800000D01*
X90188095Y-90752381D01*
X90426191Y-90752381D01*
X90569048Y-90800000D01*
X90854762Y-90752381D02*
X91426191Y-90752381D01*
X91140476Y-91752381D02*
X91140476Y-90752381D01*
X91711905Y-91466667D02*
X92188096Y-91466667D01*
X91616667Y-91752381D02*
X91950000Y-90752381D01*
X92283334Y-91752381D01*
X92473810Y-90752381D02*
X93045239Y-90752381D01*
X92759524Y-91752381D02*
X92759524Y-90752381D01*
X93902382Y-91752381D02*
X93330953Y-91752381D01*
X93616667Y-91752381D02*
X93616667Y-90752381D01*
X93521429Y-90895238D01*
X93426191Y-90990476D01*
X93330953Y-91038095D01*
X94854763Y-90800000D02*
X94759525Y-90752381D01*
X94616668Y-90752381D01*
X94473810Y-90800000D01*
X94378572Y-90895238D01*
X94330953Y-90990476D01*
X94283334Y-91180952D01*
X94283334Y-91323810D01*
X94330953Y-91514286D01*
X94378572Y-91609524D01*
X94473810Y-91704762D01*
X94616668Y-91752381D01*
X94711906Y-91752381D01*
X94854763Y-91704762D01*
X94902382Y-91657143D01*
X94902382Y-91323810D01*
X94711906Y-91323810D01*
X95711905Y-94832381D02*
X95711905Y-93832381D01*
X95950000Y-93832381D01*
X96092858Y-93880000D01*
X96188096Y-93975238D01*
X96235715Y-94070476D01*
X96283334Y-94260952D01*
X96283334Y-94403810D01*
X96235715Y-94594286D01*
X96188096Y-94689524D01*
X96092858Y-94784762D01*
X95950000Y-94832381D01*
X95711905Y-94832381D01*
X96616667Y-93832381D02*
X97235715Y-93832381D01*
X96902381Y-94213333D01*
X97045239Y-94213333D01*
X97140477Y-94260952D01*
X97188096Y-94308571D01*
X97235715Y-94403810D01*
X97235715Y-94641905D01*
X97188096Y-94737143D01*
X97140477Y-94784762D01*
X97045239Y-94832381D01*
X96759524Y-94832381D01*
X96664286Y-94784762D01*
X96616667Y-94737143D01*
X90097619Y-92954762D02*
X90240476Y-93002381D01*
X90478572Y-93002381D01*
X90573810Y-92954762D01*
X90621429Y-92907143D01*
X90669048Y-92811905D01*
X90669048Y-92716667D01*
X90621429Y-92621429D01*
X90573810Y-92573810D01*
X90478572Y-92526190D01*
X90288095Y-92478571D01*
X90192857Y-92430952D01*
X90145238Y-92383333D01*
X90097619Y-92288095D01*
X90097619Y-92192857D01*
X90145238Y-92097619D01*
X90192857Y-92050000D01*
X90288095Y-92002381D01*
X90526191Y-92002381D01*
X90669048Y-92050000D01*
X90954762Y-92002381D02*
X91526191Y-92002381D01*
X91240476Y-93002381D02*
X91240476Y-92002381D01*
X91811905Y-92716667D02*
X92288096Y-92716667D01*
X91716667Y-93002381D02*
X92050000Y-92002381D01*
X92383334Y-93002381D01*
X92573810Y-92002381D02*
X93145239Y-92002381D01*
X92859524Y-93002381D02*
X92859524Y-92002381D01*
X93430953Y-92097619D02*
X93478572Y-92050000D01*
X93573810Y-92002381D01*
X93811906Y-92002381D01*
X93907144Y-92050000D01*
X93954763Y-92097619D01*
X94002382Y-92192857D01*
X94002382Y-92288095D01*
X93954763Y-92430952D01*
X93383334Y-93002381D01*
X94002382Y-93002381D01*
X95002382Y-93002381D02*
X94669048Y-92526190D01*
X94430953Y-93002381D02*
X94430953Y-92002381D01*
X94811906Y-92002381D01*
X94907144Y-92050000D01*
X94954763Y-92097619D01*
X95002382Y-92192857D01*
X95002382Y-92335714D01*
X94954763Y-92430952D01*
X94907144Y-92478571D01*
X94811906Y-92526190D01*
X94430953Y-92526190D01*
X99990571Y-109383333D02*
X99990571Y-109716667D01*
X100514381Y-109716667D02*
X99514381Y-109716667D01*
X99514381Y-109240476D01*
X100514381Y-108335714D02*
X100514381Y-108907143D01*
X100514381Y-108621429D02*
X99514381Y-108621429D01*
X99657238Y-108716667D01*
X99752476Y-108811905D01*
X99800095Y-108907143D01*
X91201821Y-110217606D02*
X91201821Y-110693797D01*
X90201821Y-110693797D01*
X91201821Y-109360463D02*
X91201821Y-109931892D01*
X91201821Y-109646178D02*
X90201821Y-109646178D01*
X90344678Y-109741416D01*
X90439916Y-109836654D01*
X90487535Y-109931892D01*
X87002381Y-111319047D02*
X87002381Y-111890476D01*
X87002381Y-111604762D02*
X86002381Y-111604762D01*
X86145238Y-111700000D01*
X86240476Y-111795238D01*
X86288095Y-111890476D01*
X86335714Y-110461904D02*
X87002381Y-110461904D01*
X86335714Y-110890476D02*
X86859524Y-110890476D01*
X86954762Y-110842857D01*
X87002381Y-110747619D01*
X87002381Y-110604761D01*
X86954762Y-110509523D01*
X86907143Y-110461904D01*
X87002381Y-109985714D02*
X86002381Y-109985714D01*
X87002381Y-109557142D02*
X86478571Y-109557142D01*
X86383333Y-109604761D01*
X86335714Y-109699999D01*
X86335714Y-109842857D01*
X86383333Y-109938095D01*
X86430952Y-109985714D01*
X105052381Y-114288095D02*
X104052381Y-114288095D01*
X104052381Y-113907142D01*
X104100000Y-113811904D01*
X104147619Y-113764285D01*
X104242857Y-113716666D01*
X104385714Y-113716666D01*
X104480952Y-113764285D01*
X104528571Y-113811904D01*
X104576190Y-113907142D01*
X104576190Y-114288095D01*
X105052381Y-112764285D02*
X105052381Y-113335714D01*
X105052381Y-113050000D02*
X104052381Y-113050000D01*
X104195238Y-113145238D01*
X104290476Y-113240476D01*
X104338095Y-113335714D01*
X102052381Y-114645238D02*
X103052381Y-114311905D01*
X102052381Y-113978571D01*
X103052381Y-113645238D02*
X102052381Y-113645238D01*
X103052381Y-113169048D02*
X102052381Y-113169048D01*
X103052381Y-112597619D01*
X102052381Y-112597619D01*
X101986905Y-87527381D02*
X101986905Y-86527381D01*
X102367858Y-86527381D01*
X102463096Y-86575000D01*
X102510715Y-86622619D01*
X102558334Y-86717857D01*
X102558334Y-86860714D01*
X102510715Y-86955952D01*
X102463096Y-87003571D01*
X102367858Y-87051190D01*
X101986905Y-87051190D01*
X102891667Y-86527381D02*
X103510715Y-86527381D01*
X103177381Y-86908333D01*
X103320239Y-86908333D01*
X103415477Y-86955952D01*
X103463096Y-87003571D01*
X103510715Y-87098810D01*
X103510715Y-87336905D01*
X103463096Y-87432143D01*
X103415477Y-87479762D01*
X103320239Y-87527381D01*
X103034524Y-87527381D01*
X102939286Y-87479762D01*
X102891667Y-87432143D01*
X106016667Y-105230953D02*
X106016667Y-104754762D01*
X106302381Y-105326191D02*
X105302381Y-104992858D01*
X106302381Y-104659524D01*
X105302381Y-104469048D02*
X106302381Y-104135715D01*
X105302381Y-103802381D01*
X106302381Y-102897619D02*
X105826190Y-103230953D01*
X106302381Y-103469048D02*
X105302381Y-103469048D01*
X105302381Y-103088095D01*
X105350000Y-102992857D01*
X105397619Y-102945238D01*
X105492857Y-102897619D01*
X105635714Y-102897619D01*
X105730952Y-102945238D01*
X105778571Y-102992857D01*
X105826190Y-103088095D01*
X105826190Y-103469048D01*
X106302381Y-102469048D02*
X105302381Y-102469048D01*
X105302381Y-102088095D01*
X105350000Y-101992857D01*
X105397619Y-101945238D01*
X105492857Y-101897619D01*
X105635714Y-101897619D01*
X105730952Y-101945238D01*
X105778571Y-101992857D01*
X105826190Y-102088095D01*
X105826190Y-102469048D01*
X106302381Y-101469048D02*
X105635714Y-101469048D01*
X105826190Y-101469048D02*
X105730952Y-101421429D01*
X105683333Y-101373810D01*
X105635714Y-101278572D01*
X105635714Y-101183333D01*
X106302381Y-100707143D02*
X106254762Y-100802381D01*
X106207143Y-100850000D01*
X106111905Y-100897619D01*
X105826190Y-100897619D01*
X105730952Y-100850000D01*
X105683333Y-100802381D01*
X105635714Y-100707143D01*
X105635714Y-100564285D01*
X105683333Y-100469047D01*
X105730952Y-100421428D01*
X105826190Y-100373809D01*
X106111905Y-100373809D01*
X106207143Y-100421428D01*
X106254762Y-100469047D01*
X106302381Y-100564285D01*
X106302381Y-100707143D01*
X105635714Y-99516666D02*
X106445238Y-99516666D01*
X106540476Y-99564285D01*
X106588095Y-99611904D01*
X106635714Y-99707143D01*
X106635714Y-99850000D01*
X106588095Y-99945238D01*
X106254762Y-99516666D02*
X106302381Y-99611904D01*
X106302381Y-99802381D01*
X106254762Y-99897619D01*
X106207143Y-99945238D01*
X106111905Y-99992857D01*
X105826190Y-99992857D01*
X105730952Y-99945238D01*
X105683333Y-99897619D01*
X105635714Y-99802381D01*
X105635714Y-99611904D01*
X105683333Y-99516666D01*
X99733334Y-99902381D02*
X99400000Y-99426190D01*
X99161905Y-99902381D02*
X99161905Y-98902381D01*
X99542858Y-98902381D01*
X99638096Y-98950000D01*
X99685715Y-98997619D01*
X99733334Y-99092857D01*
X99733334Y-99235714D01*
X99685715Y-99330952D01*
X99638096Y-99378571D01*
X99542858Y-99426190D01*
X99161905Y-99426190D01*
X100685715Y-99902381D02*
X100114286Y-99902381D01*
X100400000Y-99902381D02*
X100400000Y-98902381D01*
X100304762Y-99045238D01*
X100209524Y-99140476D01*
X100114286Y-99188095D01*
X97183334Y-99902381D02*
X96850000Y-99426190D01*
X96611905Y-99902381D02*
X96611905Y-98902381D01*
X96992858Y-98902381D01*
X97088096Y-98950000D01*
X97135715Y-98997619D01*
X97183334Y-99092857D01*
X97183334Y-99235714D01*
X97135715Y-99330952D01*
X97088096Y-99378571D01*
X96992858Y-99426190D01*
X96611905Y-99426190D01*
X97564286Y-98997619D02*
X97611905Y-98950000D01*
X97707143Y-98902381D01*
X97945239Y-98902381D01*
X98040477Y-98950000D01*
X98088096Y-98997619D01*
X98135715Y-99092857D01*
X98135715Y-99188095D01*
X98088096Y-99330952D01*
X97516667Y-99902381D01*
X98135715Y-99902381D01*
X86852381Y-104866666D02*
X86376190Y-105200000D01*
X86852381Y-105438095D02*
X85852381Y-105438095D01*
X85852381Y-105057142D01*
X85900000Y-104961904D01*
X85947619Y-104914285D01*
X86042857Y-104866666D01*
X86185714Y-104866666D01*
X86280952Y-104914285D01*
X86328571Y-104961904D01*
X86376190Y-105057142D01*
X86376190Y-105438095D01*
X85852381Y-104533333D02*
X85852381Y-103914285D01*
X86233333Y-104247619D01*
X86233333Y-104104761D01*
X86280952Y-104009523D01*
X86328571Y-103961904D01*
X86423810Y-103914285D01*
X86661905Y-103914285D01*
X86757143Y-103961904D01*
X86804762Y-104009523D01*
X86852381Y-104104761D01*
X86852381Y-104390476D01*
X86804762Y-104485714D01*
X86757143Y-104533333D01*
X89352381Y-107335714D02*
X89352381Y-106669047D01*
X90352381Y-107097619D01*
X89352381Y-105859523D02*
X89352381Y-106050000D01*
X89400000Y-106145238D01*
X89447619Y-106192857D01*
X89590476Y-106288095D01*
X89780952Y-106335714D01*
X90161905Y-106335714D01*
X90257143Y-106288095D01*
X90304762Y-106240476D01*
X90352381Y-106145238D01*
X90352381Y-105954761D01*
X90304762Y-105859523D01*
X90257143Y-105811904D01*
X90161905Y-105764285D01*
X89923810Y-105764285D01*
X89828571Y-105811904D01*
X89780952Y-105859523D01*
X89733333Y-105954761D01*
X89733333Y-106145238D01*
X89780952Y-106240476D01*
X89828571Y-106288095D01*
X89923810Y-106335714D01*
X89780952Y-105192857D02*
X89733333Y-105288095D01*
X89685714Y-105335714D01*
X89590476Y-105383333D01*
X89542857Y-105383333D01*
X89447619Y-105335714D01*
X89400000Y-105288095D01*
X89352381Y-105192857D01*
X89352381Y-105002380D01*
X89400000Y-104907142D01*
X89447619Y-104859523D01*
X89542857Y-104811904D01*
X89590476Y-104811904D01*
X89685714Y-104859523D01*
X89733333Y-104907142D01*
X89780952Y-105002380D01*
X89780952Y-105192857D01*
X89828571Y-105288095D01*
X89876190Y-105335714D01*
X89971429Y-105383333D01*
X90161905Y-105383333D01*
X90257143Y-105335714D01*
X90304762Y-105288095D01*
X90352381Y-105192857D01*
X90352381Y-105002380D01*
X90304762Y-104907142D01*
X90257143Y-104859523D01*
X90161905Y-104811904D01*
X89971429Y-104811904D01*
X89876190Y-104859523D01*
X89828571Y-104907142D01*
X89780952Y-105002380D01*
X90352381Y-104383333D02*
X89352381Y-104383333D01*
X90352381Y-103811904D02*
X89780952Y-104240476D01*
X89352381Y-103811904D02*
X89923810Y-104383333D01*
X86852381Y-101866666D02*
X86376190Y-102200000D01*
X86852381Y-102438095D02*
X85852381Y-102438095D01*
X85852381Y-102057142D01*
X85900000Y-101961904D01*
X85947619Y-101914285D01*
X86042857Y-101866666D01*
X86185714Y-101866666D01*
X86280952Y-101914285D01*
X86328571Y-101961904D01*
X86376190Y-102057142D01*
X86376190Y-102438095D01*
X86185714Y-101009523D02*
X86852381Y-101009523D01*
X85804762Y-101247619D02*
X86519048Y-101485714D01*
X86519048Y-100866666D01*
X87002381Y-100616666D02*
X87002381Y-101188095D01*
X87002381Y-100902381D02*
X86002381Y-100902381D01*
X86145238Y-100997619D01*
X86240476Y-101092857D01*
X86288095Y-101188095D01*
X86002381Y-100283333D02*
X86002381Y-99664285D01*
X86383333Y-99997619D01*
X86383333Y-99854761D01*
X86430952Y-99759523D01*
X86478571Y-99711904D01*
X86573810Y-99664285D01*
X86811905Y-99664285D01*
X86907143Y-99711904D01*
X86954762Y-99759523D01*
X87002381Y-99854761D01*
X87002381Y-100140476D01*
X86954762Y-100235714D01*
X86907143Y-100283333D01*
X86002381Y-99330952D02*
X86002381Y-98664285D01*
X87002381Y-99092857D01*
X87002381Y-98283333D02*
X86002381Y-98283333D01*
X87002381Y-97711904D02*
X86430952Y-98140476D01*
X86002381Y-97711904D02*
X86573810Y-98283333D01*
X79133334Y-98252381D02*
X78800000Y-97776190D01*
X78561905Y-98252381D02*
X78561905Y-97252381D01*
X78942858Y-97252381D01*
X79038096Y-97300000D01*
X79085715Y-97347619D01*
X79133334Y-97442857D01*
X79133334Y-97585714D01*
X79085715Y-97680952D01*
X79038096Y-97728571D01*
X78942858Y-97776190D01*
X78561905Y-97776190D01*
X80038096Y-97252381D02*
X79561905Y-97252381D01*
X79514286Y-97728571D01*
X79561905Y-97680952D01*
X79657143Y-97633333D01*
X79895239Y-97633333D01*
X79990477Y-97680952D01*
X80038096Y-97728571D01*
X80085715Y-97823810D01*
X80085715Y-98061905D01*
X80038096Y-98157143D01*
X79990477Y-98204762D01*
X79895239Y-98252381D01*
X79657143Y-98252381D01*
X79561905Y-98204762D01*
X79514286Y-98157143D01*
X78411905Y-100352381D02*
X78507144Y-100352381D01*
X78602382Y-100400000D01*
X78650001Y-100447619D01*
X78697620Y-100542857D01*
X78745239Y-100733333D01*
X78745239Y-100971429D01*
X78697620Y-101161905D01*
X78650001Y-101257143D01*
X78602382Y-101304762D01*
X78507144Y-101352381D01*
X78411905Y-101352381D01*
X78316667Y-101304762D01*
X78269048Y-101257143D01*
X78221429Y-101161905D01*
X78173810Y-100971429D01*
X78173810Y-100733333D01*
X78221429Y-100542857D01*
X78269048Y-100447619D01*
X78316667Y-100400000D01*
X78411905Y-100352381D01*
X79173810Y-101257143D02*
X79221429Y-101304762D01*
X79173810Y-101352381D01*
X79126191Y-101304762D01*
X79173810Y-101257143D01*
X79173810Y-101352381D01*
X79840476Y-100352381D02*
X79935715Y-100352381D01*
X80030953Y-100400000D01*
X80078572Y-100447619D01*
X80126191Y-100542857D01*
X80173810Y-100733333D01*
X80173810Y-100971429D01*
X80126191Y-101161905D01*
X80078572Y-101257143D01*
X80030953Y-101304762D01*
X79935715Y-101352381D01*
X79840476Y-101352381D01*
X79745238Y-101304762D01*
X79697619Y-101257143D01*
X79650000Y-101161905D01*
X79602381Y-100971429D01*
X79602381Y-100733333D01*
X79650000Y-100542857D01*
X79697619Y-100447619D01*
X79745238Y-100400000D01*
X79840476Y-100352381D01*
X81126191Y-101352381D02*
X80554762Y-101352381D01*
X80840476Y-101352381D02*
X80840476Y-100352381D01*
X80745238Y-100495238D01*
X80650000Y-100590476D01*
X80554762Y-100638095D01*
X99733334Y-96202381D02*
X99400000Y-95726190D01*
X99161905Y-96202381D02*
X99161905Y-95202381D01*
X99542858Y-95202381D01*
X99638096Y-95250000D01*
X99685715Y-95297619D01*
X99733334Y-95392857D01*
X99733334Y-95535714D01*
X99685715Y-95630952D01*
X99638096Y-95678571D01*
X99542858Y-95726190D01*
X99161905Y-95726190D01*
X100590477Y-95202381D02*
X100400000Y-95202381D01*
X100304762Y-95250000D01*
X100257143Y-95297619D01*
X100161905Y-95440476D01*
X100114286Y-95630952D01*
X100114286Y-96011905D01*
X100161905Y-96107143D01*
X100209524Y-96154762D01*
X100304762Y-96202381D01*
X100495239Y-96202381D01*
X100590477Y-96154762D01*
X100638096Y-96107143D01*
X100685715Y-96011905D01*
X100685715Y-95773810D01*
X100638096Y-95678571D01*
X100590477Y-95630952D01*
X100495239Y-95583333D01*
X100304762Y-95583333D01*
X100209524Y-95630952D01*
X100161905Y-95678571D01*
X100114286Y-95773810D01*
X96661905Y-90602381D02*
X96185714Y-90602381D01*
X96138095Y-91078571D01*
X96185714Y-91030952D01*
X96280952Y-90983333D01*
X96519048Y-90983333D01*
X96614286Y-91030952D01*
X96661905Y-91078571D01*
X96709524Y-91173810D01*
X96709524Y-91411905D01*
X96661905Y-91507143D01*
X96614286Y-91554762D01*
X96519048Y-91602381D01*
X96280952Y-91602381D01*
X96185714Y-91554762D01*
X96138095Y-91507143D01*
X97614286Y-90602381D02*
X97138095Y-90602381D01*
X97090476Y-91078571D01*
X97138095Y-91030952D01*
X97233333Y-90983333D01*
X97471429Y-90983333D01*
X97566667Y-91030952D01*
X97614286Y-91078571D01*
X97661905Y-91173810D01*
X97661905Y-91411905D01*
X97614286Y-91507143D01*
X97566667Y-91554762D01*
X97471429Y-91602381D01*
X97233333Y-91602381D01*
X97138095Y-91554762D01*
X97090476Y-91507143D01*
X99833334Y-98102381D02*
X99500000Y-97626190D01*
X99261905Y-98102381D02*
X99261905Y-97102381D01*
X99642858Y-97102381D01*
X99738096Y-97150000D01*
X99785715Y-97197619D01*
X99833334Y-97292857D01*
X99833334Y-97435714D01*
X99785715Y-97530952D01*
X99738096Y-97578571D01*
X99642858Y-97626190D01*
X99261905Y-97626190D01*
X100166667Y-97102381D02*
X100833334Y-97102381D01*
X100404762Y-98102381D01*
X95990476Y-91802381D02*
X96657143Y-91802381D01*
X96228571Y-92802381D01*
X97514286Y-91802381D02*
X97038095Y-91802381D01*
X96990476Y-92278571D01*
X97038095Y-92230952D01*
X97133333Y-92183333D01*
X97371429Y-92183333D01*
X97466667Y-92230952D01*
X97514286Y-92278571D01*
X97561905Y-92373810D01*
X97561905Y-92611905D01*
X97514286Y-92707143D01*
X97466667Y-92754762D01*
X97371429Y-92802381D01*
X97133333Y-92802381D01*
X97038095Y-92754762D01*
X96990476Y-92707143D01*
X86252381Y-96461905D02*
X87061905Y-96461905D01*
X87157143Y-96414286D01*
X87204762Y-96366667D01*
X87252381Y-96271429D01*
X87252381Y-96080952D01*
X87204762Y-95985714D01*
X87157143Y-95938095D01*
X87061905Y-95890476D01*
X86252381Y-95890476D01*
X86347619Y-95461905D02*
X86300000Y-95414286D01*
X86252381Y-95319048D01*
X86252381Y-95080952D01*
X86300000Y-94985714D01*
X86347619Y-94938095D01*
X86442857Y-94890476D01*
X86538095Y-94890476D01*
X86680952Y-94938095D01*
X87252381Y-95509524D01*
X87252381Y-94890476D01*
D25*
X81910716Y-92979720D02*
X81910716Y-92580940D01*
X82328485Y-92941741D02*
X82309495Y-92960731D01*
X82252527Y-92979720D01*
X82214548Y-92979720D01*
X82157579Y-92960731D01*
X82119600Y-92922752D01*
X82100611Y-92884773D01*
X82081621Y-92808815D01*
X82081621Y-92751846D01*
X82100611Y-92675888D01*
X82119600Y-92637909D01*
X82157579Y-92599930D01*
X82214548Y-92580940D01*
X82252527Y-92580940D01*
X82309495Y-92599930D01*
X82328485Y-92618920D01*
X82708275Y-92979720D02*
X82480401Y-92979720D01*
X82594338Y-92979720D02*
X82594338Y-92580940D01*
X82556359Y-92637909D01*
X82518380Y-92675888D01*
X82480401Y-92694878D01*
X79318646Y-98865263D02*
X79508541Y-98865263D01*
X79280667Y-98979200D02*
X79413594Y-98580420D01*
X79546520Y-98979200D01*
X79622478Y-98580420D02*
X79850352Y-98580420D01*
X79736415Y-98979200D02*
X79736415Y-98580420D01*
X79926310Y-98580420D02*
X80154184Y-98580420D01*
X80040247Y-98979200D02*
X80040247Y-98580420D01*
X80287111Y-98979200D02*
X80287111Y-98580420D01*
X80477006Y-98979200D02*
X80477006Y-98580420D01*
X80704880Y-98979200D01*
X80704880Y-98580420D01*
X80970734Y-98789305D02*
X80970734Y-98979200D01*
X80837807Y-98580420D02*
X80970734Y-98789305D01*
X81103660Y-98580420D01*
X81217597Y-98618400D02*
X81236587Y-98599410D01*
X81274566Y-98580420D01*
X81369513Y-98580420D01*
X81407492Y-98599410D01*
X81426482Y-98618400D01*
X81445471Y-98656379D01*
X81445471Y-98694358D01*
X81426482Y-98751326D01*
X81198608Y-98979200D01*
X81445471Y-98979200D01*
X81787282Y-98713347D02*
X81787282Y-98979200D01*
X81692335Y-98561431D02*
X81597387Y-98846274D01*
X81844251Y-98846274D01*
X81977177Y-98865263D02*
X82167072Y-98865263D01*
X81939198Y-98979200D02*
X82072125Y-98580420D01*
X82205051Y-98979200D01*
X82337978Y-98827284D02*
X82641810Y-98827284D01*
X82831706Y-98979200D02*
X82831706Y-98580420D01*
X82964632Y-98865263D01*
X83097559Y-98580420D01*
X83097559Y-98979200D01*
X83287455Y-98827284D02*
X83591287Y-98827284D01*
X83914109Y-98770316D02*
X83781183Y-98770316D01*
X83781183Y-98979200D02*
X83781183Y-98580420D01*
X83971078Y-98580420D01*
X84122994Y-98979200D02*
X84122994Y-98580420D01*
X84274910Y-98580420D02*
X84540763Y-98979200D01*
X84540763Y-98580420D02*
X84274910Y-98979200D01*
X84692679Y-98770316D02*
X84825605Y-98770316D01*
X84882574Y-98979200D02*
X84692679Y-98979200D01*
X84692679Y-98580420D01*
X84882574Y-98580420D01*
X85053480Y-98979200D02*
X85053480Y-98580420D01*
X85148427Y-98580420D01*
X85205396Y-98599410D01*
X85243375Y-98637389D01*
X85262364Y-98675368D01*
X85281354Y-98751326D01*
X85281354Y-98808295D01*
X85262364Y-98884253D01*
X85243375Y-98922232D01*
X85205396Y-98960211D01*
X85148427Y-98979200D01*
X85053480Y-98979200D01*
D13*
X92038095Y-106152381D02*
X92038095Y-106961905D01*
X92085714Y-107057143D01*
X92133333Y-107104762D01*
X92228571Y-107152381D01*
X92419048Y-107152381D01*
X92514286Y-107104762D01*
X92561905Y-107057143D01*
X92609524Y-106961905D01*
X92609524Y-106152381D01*
X93609524Y-107152381D02*
X93038095Y-107152381D01*
X93323809Y-107152381D02*
X93323809Y-106152381D01*
X93228571Y-106295238D01*
X93133333Y-106390476D01*
X93038095Y-106438095D01*
X96188095Y-98162381D02*
X96759524Y-98162381D01*
X96473809Y-99162381D02*
X96473809Y-98162381D01*
X97092857Y-99162381D02*
X97092857Y-98162381D01*
X97473810Y-98162381D01*
X97569048Y-98210000D01*
X97616667Y-98257619D01*
X97664286Y-98352857D01*
X97664286Y-98495714D01*
X97616667Y-98590952D01*
X97569048Y-98638571D01*
X97473810Y-98686190D01*
X97092857Y-98686190D01*
X98616667Y-99162381D02*
X98045238Y-99162381D01*
X98330952Y-99162381D02*
X98330952Y-98162381D01*
X98235714Y-98305238D01*
X98140476Y-98400476D01*
X98045238Y-98448095D01*
X95011905Y-100678571D02*
X95345239Y-100678571D01*
X95488096Y-101202381D02*
X95011905Y-101202381D01*
X95011905Y-100202381D01*
X95488096Y-100202381D01*
X95916667Y-101202381D02*
X95916667Y-100202381D01*
X96488096Y-101202381D01*
X96488096Y-100202381D01*
X104977381Y-104666315D02*
X103977381Y-104666315D01*
X103977381Y-104428220D01*
X104025000Y-104285362D01*
X104120238Y-104190124D01*
X104215476Y-104142505D01*
X104405952Y-104094886D01*
X104548810Y-104094886D01*
X104739286Y-104142505D01*
X104834524Y-104190124D01*
X104929762Y-104285362D01*
X104977381Y-104428220D01*
X104977381Y-104666315D01*
X104977381Y-103142505D02*
X104977381Y-103713934D01*
X104977381Y-103428220D02*
X103977381Y-103428220D01*
X104120238Y-103523458D01*
X104215476Y-103618696D01*
X104263095Y-103713934D01*
X92333334Y-100602381D02*
X92000000Y-100126190D01*
X91761905Y-100602381D02*
X91761905Y-99602381D01*
X92142858Y-99602381D01*
X92238096Y-99650000D01*
X92285715Y-99697619D01*
X92333334Y-99792857D01*
X92333334Y-99935714D01*
X92285715Y-100030952D01*
X92238096Y-100078571D01*
X92142858Y-100126190D01*
X91761905Y-100126190D01*
X92904762Y-100030952D02*
X92809524Y-99983333D01*
X92761905Y-99935714D01*
X92714286Y-99840476D01*
X92714286Y-99792857D01*
X92761905Y-99697619D01*
X92809524Y-99650000D01*
X92904762Y-99602381D01*
X93095239Y-99602381D01*
X93190477Y-99650000D01*
X93238096Y-99697619D01*
X93285715Y-99792857D01*
X93285715Y-99840476D01*
X93238096Y-99935714D01*
X93190477Y-99983333D01*
X93095239Y-100030952D01*
X92904762Y-100030952D01*
X92809524Y-100078571D01*
X92761905Y-100126190D01*
X92714286Y-100221429D01*
X92714286Y-100411905D01*
X92761905Y-100507143D01*
X92809524Y-100554762D01*
X92904762Y-100602381D01*
X93095239Y-100602381D01*
X93190477Y-100554762D01*
X93238096Y-100507143D01*
X93285715Y-100411905D01*
X93285715Y-100221429D01*
X93238096Y-100126190D01*
X93190477Y-100078571D01*
X93095239Y-100030952D01*
X92002381Y-96366666D02*
X92002381Y-96938095D01*
X92002381Y-96652381D02*
X91002381Y-96652381D01*
X91145238Y-96747619D01*
X91240476Y-96842857D01*
X91288095Y-96938095D01*
X91002381Y-95747619D02*
X91002381Y-95652380D01*
X91050000Y-95557142D01*
X91097619Y-95509523D01*
X91192857Y-95461904D01*
X91383333Y-95414285D01*
X91621429Y-95414285D01*
X91811905Y-95461904D01*
X91907143Y-95509523D01*
X91954762Y-95557142D01*
X92002381Y-95652380D01*
X92002381Y-95747619D01*
X91954762Y-95842857D01*
X91907143Y-95890476D01*
X91811905Y-95938095D01*
X91621429Y-95985714D01*
X91383333Y-95985714D01*
X91192857Y-95938095D01*
X91097619Y-95890476D01*
X91050000Y-95842857D01*
X91002381Y-95747619D01*
X91002381Y-94795238D02*
X91002381Y-94699999D01*
X91050000Y-94604761D01*
X91097619Y-94557142D01*
X91192857Y-94509523D01*
X91383333Y-94461904D01*
X91621429Y-94461904D01*
X91811905Y-94509523D01*
X91907143Y-94557142D01*
X91954762Y-94604761D01*
X92002381Y-94699999D01*
X92002381Y-94795238D01*
X91954762Y-94890476D01*
X91907143Y-94938095D01*
X91811905Y-94985714D01*
X91621429Y-95033333D01*
X91383333Y-95033333D01*
X91192857Y-94985714D01*
X91097619Y-94938095D01*
X91050000Y-94890476D01*
X91002381Y-94795238D01*
X92002381Y-94033333D02*
X91002381Y-94033333D01*
X92002381Y-93461904D02*
X91430952Y-93890476D01*
X91002381Y-93461904D02*
X91573810Y-94033333D01*
X97833334Y-98202381D02*
X97500000Y-97726190D01*
X97261905Y-98202381D02*
X97261905Y-97202381D01*
X97642858Y-97202381D01*
X97738096Y-97250000D01*
X97785715Y-97297619D01*
X97833334Y-97392857D01*
X97833334Y-97535714D01*
X97785715Y-97630952D01*
X97738096Y-97678571D01*
X97642858Y-97726190D01*
X97261905Y-97726190D01*
X98309524Y-98202381D02*
X98500000Y-98202381D01*
X98595239Y-98154762D01*
X98642858Y-98107143D01*
X98738096Y-97964286D01*
X98785715Y-97773810D01*
X98785715Y-97392857D01*
X98738096Y-97297619D01*
X98690477Y-97250000D01*
X98595239Y-97202381D01*
X98404762Y-97202381D01*
X98309524Y-97250000D01*
X98261905Y-97297619D01*
X98214286Y-97392857D01*
X98214286Y-97630952D01*
X98261905Y-97726190D01*
X98309524Y-97773810D01*
X98404762Y-97821429D01*
X98595239Y-97821429D01*
X98690477Y-97773810D01*
X98738096Y-97726190D01*
X98785715Y-97630952D01*
X94183334Y-99152381D02*
X93611905Y-99152381D01*
X93897619Y-99152381D02*
X93897619Y-98152381D01*
X93802381Y-98295238D01*
X93707143Y-98390476D01*
X93611905Y-98438095D01*
X94802381Y-98152381D02*
X94897620Y-98152381D01*
X94992858Y-98200000D01*
X95040477Y-98247619D01*
X95088096Y-98342857D01*
X95135715Y-98533333D01*
X95135715Y-98771429D01*
X95088096Y-98961905D01*
X95040477Y-99057143D01*
X94992858Y-99104762D01*
X94897620Y-99152381D01*
X94802381Y-99152381D01*
X94707143Y-99104762D01*
X94659524Y-99057143D01*
X94611905Y-98961905D01*
X94564286Y-98771429D01*
X94564286Y-98533333D01*
X94611905Y-98342857D01*
X94659524Y-98247619D01*
X94707143Y-98200000D01*
X94802381Y-98152381D01*
X95754762Y-98152381D02*
X95850001Y-98152381D01*
X95945239Y-98200000D01*
X95992858Y-98247619D01*
X96040477Y-98342857D01*
X96088096Y-98533333D01*
X96088096Y-98771429D01*
X96040477Y-98961905D01*
X95992858Y-99057143D01*
X95945239Y-99104762D01*
X95850001Y-99152381D01*
X95754762Y-99152381D01*
X95659524Y-99104762D01*
X95611905Y-99057143D01*
X95564286Y-98961905D01*
X95516667Y-98771429D01*
X95516667Y-98533333D01*
X95564286Y-98342857D01*
X95611905Y-98247619D01*
X95659524Y-98200000D01*
X95754762Y-98152381D01*
X96516667Y-99152381D02*
X96516667Y-98152381D01*
X97088096Y-99152381D02*
X96659524Y-98580952D01*
X97088096Y-98152381D02*
X96516667Y-98723810D01*
X98657143Y-104566666D02*
X98704762Y-104614285D01*
X98752381Y-104757142D01*
X98752381Y-104852380D01*
X98704762Y-104995238D01*
X98609524Y-105090476D01*
X98514286Y-105138095D01*
X98323810Y-105185714D01*
X98180952Y-105185714D01*
X97990476Y-105138095D01*
X97895238Y-105090476D01*
X97800000Y-104995238D01*
X97752381Y-104852380D01*
X97752381Y-104757142D01*
X97800000Y-104614285D01*
X97847619Y-104566666D01*
X98752381Y-103614285D02*
X98752381Y-104185714D01*
X98752381Y-103900000D02*
X97752381Y-103900000D01*
X97895238Y-103995238D01*
X97990476Y-104090476D01*
X98038095Y-104185714D01*
X95102381Y-105742857D02*
X95102381Y-106314286D01*
X95102381Y-106028572D02*
X94102381Y-106028572D01*
X94245238Y-106123810D01*
X94340476Y-106219048D01*
X94388095Y-106314286D01*
X94102381Y-105123810D02*
X94102381Y-105028571D01*
X94150000Y-104933333D01*
X94197619Y-104885714D01*
X94292857Y-104838095D01*
X94483333Y-104790476D01*
X94721429Y-104790476D01*
X94911905Y-104838095D01*
X95007143Y-104885714D01*
X95054762Y-104933333D01*
X95102381Y-105028571D01*
X95102381Y-105123810D01*
X95054762Y-105219048D01*
X95007143Y-105266667D01*
X94911905Y-105314286D01*
X94721429Y-105361905D01*
X94483333Y-105361905D01*
X94292857Y-105314286D01*
X94197619Y-105266667D01*
X94150000Y-105219048D01*
X94102381Y-105123810D01*
X94435714Y-103933333D02*
X95102381Y-103933333D01*
X94435714Y-104361905D02*
X94959524Y-104361905D01*
X95054762Y-104314286D01*
X95102381Y-104219048D01*
X95102381Y-104076190D01*
X95054762Y-103980952D01*
X95007143Y-103933333D01*
X100657143Y-104516666D02*
X100704762Y-104564285D01*
X100752381Y-104707142D01*
X100752381Y-104802380D01*
X100704762Y-104945238D01*
X100609524Y-105040476D01*
X100514286Y-105088095D01*
X100323810Y-105135714D01*
X100180952Y-105135714D01*
X99990476Y-105088095D01*
X99895238Y-105040476D01*
X99800000Y-104945238D01*
X99752381Y-104802380D01*
X99752381Y-104707142D01*
X99800000Y-104564285D01*
X99847619Y-104516666D01*
X99847619Y-104135714D02*
X99800000Y-104088095D01*
X99752381Y-103992857D01*
X99752381Y-103754761D01*
X99800000Y-103659523D01*
X99847619Y-103611904D01*
X99942857Y-103564285D01*
X100038095Y-103564285D01*
X100180952Y-103611904D01*
X100752381Y-104183333D01*
X100752381Y-103564285D01*
X95152381Y-103242857D02*
X95152381Y-103814286D01*
X95152381Y-103528572D02*
X94152381Y-103528572D01*
X94295238Y-103623810D01*
X94390476Y-103719048D01*
X94438095Y-103814286D01*
X94152381Y-102623810D02*
X94152381Y-102528571D01*
X94200000Y-102433333D01*
X94247619Y-102385714D01*
X94342857Y-102338095D01*
X94533333Y-102290476D01*
X94771429Y-102290476D01*
X94961905Y-102338095D01*
X95057143Y-102385714D01*
X95104762Y-102433333D01*
X95152381Y-102528571D01*
X95152381Y-102623810D01*
X95104762Y-102719048D01*
X95057143Y-102766667D01*
X94961905Y-102814286D01*
X94771429Y-102861905D01*
X94533333Y-102861905D01*
X94342857Y-102814286D01*
X94247619Y-102766667D01*
X94200000Y-102719048D01*
X94152381Y-102623810D01*
X94485714Y-101433333D02*
X95152381Y-101433333D01*
X94485714Y-101861905D02*
X95009524Y-101861905D01*
X95104762Y-101814286D01*
X95152381Y-101719048D01*
X95152381Y-101576190D01*
X95104762Y-101480952D01*
X95057143Y-101433333D01*
X118757143Y-106966666D02*
X118804762Y-107014285D01*
X118852381Y-107157142D01*
X118852381Y-107252380D01*
X118804762Y-107395238D01*
X118709524Y-107490476D01*
X118614286Y-107538095D01*
X118423810Y-107585714D01*
X118280952Y-107585714D01*
X118090476Y-107538095D01*
X117995238Y-107490476D01*
X117900000Y-107395238D01*
X117852381Y-107252380D01*
X117852381Y-107157142D01*
X117900000Y-107014285D01*
X117947619Y-106966666D01*
X118852381Y-106014285D02*
X118852381Y-106585714D01*
X118852381Y-106300000D02*
X117852381Y-106300000D01*
X117995238Y-106395238D01*
X118090476Y-106490476D01*
X118138095Y-106585714D01*
X122157143Y-104466666D02*
X122204762Y-104514285D01*
X122252381Y-104657142D01*
X122252381Y-104752380D01*
X122204762Y-104895238D01*
X122109524Y-104990476D01*
X122014286Y-105038095D01*
X121823810Y-105085714D01*
X121680952Y-105085714D01*
X121490476Y-105038095D01*
X121395238Y-104990476D01*
X121300000Y-104895238D01*
X121252381Y-104752380D01*
X121252381Y-104657142D01*
X121300000Y-104514285D01*
X121347619Y-104466666D01*
X121347619Y-104085714D02*
X121300000Y-104038095D01*
X121252381Y-103942857D01*
X121252381Y-103704761D01*
X121300000Y-103609523D01*
X121347619Y-103561904D01*
X121442857Y-103514285D01*
X121538095Y-103514285D01*
X121680952Y-103561904D01*
X122252381Y-104133333D01*
X122252381Y-103514285D01*
X124157143Y-102466666D02*
X124204762Y-102514285D01*
X124252381Y-102657142D01*
X124252381Y-102752380D01*
X124204762Y-102895238D01*
X124109524Y-102990476D01*
X124014286Y-103038095D01*
X123823810Y-103085714D01*
X123680952Y-103085714D01*
X123490476Y-103038095D01*
X123395238Y-102990476D01*
X123300000Y-102895238D01*
X123252381Y-102752380D01*
X123252381Y-102657142D01*
X123300000Y-102514285D01*
X123347619Y-102466666D01*
X123252381Y-102133333D02*
X123252381Y-101514285D01*
X123633333Y-101847619D01*
X123633333Y-101704761D01*
X123680952Y-101609523D01*
X123728571Y-101561904D01*
X123823810Y-101514285D01*
X124061905Y-101514285D01*
X124157143Y-101561904D01*
X124204762Y-101609523D01*
X124252381Y-101704761D01*
X124252381Y-101990476D01*
X124204762Y-102085714D01*
X124157143Y-102133333D01*
X123657143Y-97466666D02*
X123704762Y-97514285D01*
X123752381Y-97657142D01*
X123752381Y-97752380D01*
X123704762Y-97895238D01*
X123609524Y-97990476D01*
X123514286Y-98038095D01*
X123323810Y-98085714D01*
X123180952Y-98085714D01*
X122990476Y-98038095D01*
X122895238Y-97990476D01*
X122800000Y-97895238D01*
X122752381Y-97752380D01*
X122752381Y-97657142D01*
X122800000Y-97514285D01*
X122847619Y-97466666D01*
X123085714Y-96609523D02*
X123752381Y-96609523D01*
X122704762Y-96847619D02*
X123419048Y-97085714D01*
X123419048Y-96466666D01*
X128157143Y-99466666D02*
X128204762Y-99514285D01*
X128252381Y-99657142D01*
X128252381Y-99752380D01*
X128204762Y-99895238D01*
X128109524Y-99990476D01*
X128014286Y-100038095D01*
X127823810Y-100085714D01*
X127680952Y-100085714D01*
X127490476Y-100038095D01*
X127395238Y-99990476D01*
X127300000Y-99895238D01*
X127252381Y-99752380D01*
X127252381Y-99657142D01*
X127300000Y-99514285D01*
X127347619Y-99466666D01*
X127252381Y-98561904D02*
X127252381Y-99038095D01*
X127728571Y-99085714D01*
X127680952Y-99038095D01*
X127633333Y-98942857D01*
X127633333Y-98704761D01*
X127680952Y-98609523D01*
X127728571Y-98561904D01*
X127823810Y-98514285D01*
X128061905Y-98514285D01*
X128157143Y-98561904D01*
X128204762Y-98609523D01*
X128252381Y-98704761D01*
X128252381Y-98942857D01*
X128204762Y-99038095D01*
X128157143Y-99085714D01*
X130657143Y-96966666D02*
X130704762Y-97014285D01*
X130752381Y-97157142D01*
X130752381Y-97252380D01*
X130704762Y-97395238D01*
X130609524Y-97490476D01*
X130514286Y-97538095D01*
X130323810Y-97585714D01*
X130180952Y-97585714D01*
X129990476Y-97538095D01*
X129895238Y-97490476D01*
X129800000Y-97395238D01*
X129752381Y-97252380D01*
X129752381Y-97157142D01*
X129800000Y-97014285D01*
X129847619Y-96966666D01*
X129752381Y-96109523D02*
X129752381Y-96300000D01*
X129800000Y-96395238D01*
X129847619Y-96442857D01*
X129990476Y-96538095D01*
X130180952Y-96585714D01*
X130561905Y-96585714D01*
X130657143Y-96538095D01*
X130704762Y-96490476D01*
X130752381Y-96395238D01*
X130752381Y-96204761D01*
X130704762Y-96109523D01*
X130657143Y-96061904D01*
X130561905Y-96014285D01*
X130323810Y-96014285D01*
X130228571Y-96061904D01*
X130180952Y-96109523D01*
X130133333Y-96204761D01*
X130133333Y-96395238D01*
X130180952Y-96490476D01*
X130228571Y-96538095D01*
X130323810Y-96585714D01*
X130433334Y-98857143D02*
X130385715Y-98904762D01*
X130242858Y-98952381D01*
X130147620Y-98952381D01*
X130004762Y-98904762D01*
X129909524Y-98809524D01*
X129861905Y-98714286D01*
X129814286Y-98523810D01*
X129814286Y-98380952D01*
X129861905Y-98190476D01*
X129909524Y-98095238D01*
X130004762Y-98000000D01*
X130147620Y-97952381D01*
X130242858Y-97952381D01*
X130385715Y-98000000D01*
X130433334Y-98047619D01*
X130766667Y-97952381D02*
X131433334Y-97952381D01*
X131004762Y-98952381D01*
X128933334Y-100857143D02*
X128885715Y-100904762D01*
X128742858Y-100952381D01*
X128647620Y-100952381D01*
X128504762Y-100904762D01*
X128409524Y-100809524D01*
X128361905Y-100714286D01*
X128314286Y-100523810D01*
X128314286Y-100380952D01*
X128361905Y-100190476D01*
X128409524Y-100095238D01*
X128504762Y-100000000D01*
X128647620Y-99952381D01*
X128742858Y-99952381D01*
X128885715Y-100000000D01*
X128933334Y-100047619D01*
X129504762Y-100380952D02*
X129409524Y-100333333D01*
X129361905Y-100285714D01*
X129314286Y-100190476D01*
X129314286Y-100142857D01*
X129361905Y-100047619D01*
X129409524Y-100000000D01*
X129504762Y-99952381D01*
X129695239Y-99952381D01*
X129790477Y-100000000D01*
X129838096Y-100047619D01*
X129885715Y-100142857D01*
X129885715Y-100190476D01*
X129838096Y-100285714D01*
X129790477Y-100333333D01*
X129695239Y-100380952D01*
X129504762Y-100380952D01*
X129409524Y-100428571D01*
X129361905Y-100476190D01*
X129314286Y-100571429D01*
X129314286Y-100761905D01*
X129361905Y-100857143D01*
X129409524Y-100904762D01*
X129504762Y-100952381D01*
X129695239Y-100952381D01*
X129790477Y-100904762D01*
X129838096Y-100857143D01*
X129885715Y-100761905D01*
X129885715Y-100571429D01*
X129838096Y-100476190D01*
X129790477Y-100428571D01*
X129695239Y-100380952D01*
X132183334Y-94207143D02*
X132135715Y-94254762D01*
X131992858Y-94302381D01*
X131897620Y-94302381D01*
X131754762Y-94254762D01*
X131659524Y-94159524D01*
X131611905Y-94064286D01*
X131564286Y-93873810D01*
X131564286Y-93730952D01*
X131611905Y-93540476D01*
X131659524Y-93445238D01*
X131754762Y-93350000D01*
X131897620Y-93302381D01*
X131992858Y-93302381D01*
X132135715Y-93350000D01*
X132183334Y-93397619D01*
X132659524Y-94302381D02*
X132850000Y-94302381D01*
X132945239Y-94254762D01*
X132992858Y-94207143D01*
X133088096Y-94064286D01*
X133135715Y-93873810D01*
X133135715Y-93492857D01*
X133088096Y-93397619D01*
X133040477Y-93350000D01*
X132945239Y-93302381D01*
X132754762Y-93302381D01*
X132659524Y-93350000D01*
X132611905Y-93397619D01*
X132564286Y-93492857D01*
X132564286Y-93730952D01*
X132611905Y-93826190D01*
X132659524Y-93873810D01*
X132754762Y-93921429D01*
X132945239Y-93921429D01*
X133040477Y-93873810D01*
X133088096Y-93826190D01*
X133135715Y-93730952D01*
X134100052Y-100209189D02*
X134100052Y-100276532D01*
X134032708Y-100411219D01*
X133965365Y-100478563D01*
X133830677Y-100545907D01*
X133695990Y-100545907D01*
X133594975Y-100512235D01*
X133426617Y-100411220D01*
X133325601Y-100310204D01*
X133224586Y-100141845D01*
X133190914Y-100040830D01*
X133190914Y-99906143D01*
X133258258Y-99771456D01*
X133325601Y-99704112D01*
X133460288Y-99636769D01*
X133527632Y-99636769D01*
X134840830Y-99603097D02*
X134436769Y-100007158D01*
X134638799Y-99805128D02*
X133931692Y-99098021D01*
X133965364Y-99266380D01*
X133965364Y-99401067D01*
X133931692Y-99502082D01*
X134571456Y-98458258D02*
X134638800Y-98390914D01*
X134739815Y-98357242D01*
X134807158Y-98357242D01*
X134908174Y-98390914D01*
X135076532Y-98491929D01*
X135244892Y-98660288D01*
X135345907Y-98828647D01*
X135379578Y-98929662D01*
X135379578Y-98997006D01*
X135345907Y-99098021D01*
X135278563Y-99165365D01*
X135177547Y-99199037D01*
X135110204Y-99199037D01*
X135009189Y-99165365D01*
X134840830Y-99064350D01*
X134672471Y-98895990D01*
X134571456Y-98727632D01*
X134537784Y-98626617D01*
X134537784Y-98559273D01*
X134571456Y-98458258D01*
X126657143Y-101942857D02*
X126704762Y-101990476D01*
X126752381Y-102133333D01*
X126752381Y-102228571D01*
X126704762Y-102371429D01*
X126609524Y-102466667D01*
X126514286Y-102514286D01*
X126323810Y-102561905D01*
X126180952Y-102561905D01*
X125990476Y-102514286D01*
X125895238Y-102466667D01*
X125800000Y-102371429D01*
X125752381Y-102228571D01*
X125752381Y-102133333D01*
X125800000Y-101990476D01*
X125847619Y-101942857D01*
X126752381Y-100990476D02*
X126752381Y-101561905D01*
X126752381Y-101276191D02*
X125752381Y-101276191D01*
X125895238Y-101371429D01*
X125990476Y-101466667D01*
X126038095Y-101561905D01*
X126752381Y-100038095D02*
X126752381Y-100609524D01*
X126752381Y-100323810D02*
X125752381Y-100323810D01*
X125895238Y-100419048D01*
X125990476Y-100514286D01*
X126038095Y-100609524D01*
X125957143Y-102857143D02*
X125909524Y-102904762D01*
X125766667Y-102952381D01*
X125671429Y-102952381D01*
X125528571Y-102904762D01*
X125433333Y-102809524D01*
X125385714Y-102714286D01*
X125338095Y-102523810D01*
X125338095Y-102380952D01*
X125385714Y-102190476D01*
X125433333Y-102095238D01*
X125528571Y-102000000D01*
X125671429Y-101952381D01*
X125766667Y-101952381D01*
X125909524Y-102000000D01*
X125957143Y-102047619D01*
X126909524Y-102952381D02*
X126338095Y-102952381D01*
X126623809Y-102952381D02*
X126623809Y-101952381D01*
X126528571Y-102095238D01*
X126433333Y-102190476D01*
X126338095Y-102238095D01*
X127290476Y-102047619D02*
X127338095Y-102000000D01*
X127433333Y-101952381D01*
X127671429Y-101952381D01*
X127766667Y-102000000D01*
X127814286Y-102047619D01*
X127861905Y-102142857D01*
X127861905Y-102238095D01*
X127814286Y-102380952D01*
X127242857Y-102952381D01*
X127861905Y-102952381D01*
X128657143Y-104442857D02*
X128704762Y-104490476D01*
X128752381Y-104633333D01*
X128752381Y-104728571D01*
X128704762Y-104871429D01*
X128609524Y-104966667D01*
X128514286Y-105014286D01*
X128323810Y-105061905D01*
X128180952Y-105061905D01*
X127990476Y-105014286D01*
X127895238Y-104966667D01*
X127800000Y-104871429D01*
X127752381Y-104728571D01*
X127752381Y-104633333D01*
X127800000Y-104490476D01*
X127847619Y-104442857D01*
X128752381Y-103490476D02*
X128752381Y-104061905D01*
X128752381Y-103776191D02*
X127752381Y-103776191D01*
X127895238Y-103871429D01*
X127990476Y-103966667D01*
X128038095Y-104061905D01*
X127752381Y-103157143D02*
X127752381Y-102538095D01*
X128133333Y-102871429D01*
X128133333Y-102728571D01*
X128180952Y-102633333D01*
X128228571Y-102585714D01*
X128323810Y-102538095D01*
X128561905Y-102538095D01*
X128657143Y-102585714D01*
X128704762Y-102633333D01*
X128752381Y-102728571D01*
X128752381Y-103014286D01*
X128704762Y-103109524D01*
X128657143Y-103157143D01*
X122195888Y-102805025D02*
X122195888Y-102872368D01*
X122128544Y-103007055D01*
X122061201Y-103074399D01*
X121926513Y-103141743D01*
X121791826Y-103141743D01*
X121690811Y-103108071D01*
X121522453Y-103007056D01*
X121421437Y-102906040D01*
X121320422Y-102737681D01*
X121286750Y-102636666D01*
X121286750Y-102501979D01*
X121354094Y-102367292D01*
X121421437Y-102299948D01*
X121556124Y-102232605D01*
X121623468Y-102232605D01*
X122936666Y-102198933D02*
X122532605Y-102602994D01*
X122734635Y-102400964D02*
X122027528Y-101693857D01*
X122061200Y-101862216D01*
X122061200Y-101996903D01*
X122027528Y-102097918D01*
X123071353Y-101121437D02*
X123542758Y-101592842D01*
X122633620Y-101020422D02*
X122970338Y-101693857D01*
X123408071Y-101256124D01*
X124957143Y-103957143D02*
X124909524Y-104004762D01*
X124766667Y-104052381D01*
X124671429Y-104052381D01*
X124528571Y-104004762D01*
X124433333Y-103909524D01*
X124385714Y-103814286D01*
X124338095Y-103623810D01*
X124338095Y-103480952D01*
X124385714Y-103290476D01*
X124433333Y-103195238D01*
X124528571Y-103100000D01*
X124671429Y-103052381D01*
X124766667Y-103052381D01*
X124909524Y-103100000D01*
X124957143Y-103147619D01*
X125909524Y-104052381D02*
X125338095Y-104052381D01*
X125623809Y-104052381D02*
X125623809Y-103052381D01*
X125528571Y-103195238D01*
X125433333Y-103290476D01*
X125338095Y-103338095D01*
X126814286Y-103052381D02*
X126338095Y-103052381D01*
X126290476Y-103528571D01*
X126338095Y-103480952D01*
X126433333Y-103433333D01*
X126671429Y-103433333D01*
X126766667Y-103480952D01*
X126814286Y-103528571D01*
X126861905Y-103623810D01*
X126861905Y-103861905D01*
X126814286Y-103957143D01*
X126766667Y-104004762D01*
X126671429Y-104052381D01*
X126433333Y-104052381D01*
X126338095Y-104004762D01*
X126290476Y-103957143D01*
X120757143Y-105942857D02*
X120804762Y-105990476D01*
X120852381Y-106133333D01*
X120852381Y-106228571D01*
X120804762Y-106371429D01*
X120709524Y-106466667D01*
X120614286Y-106514286D01*
X120423810Y-106561905D01*
X120280952Y-106561905D01*
X120090476Y-106514286D01*
X119995238Y-106466667D01*
X119900000Y-106371429D01*
X119852381Y-106228571D01*
X119852381Y-106133333D01*
X119900000Y-105990476D01*
X119947619Y-105942857D01*
X120852381Y-104990476D02*
X120852381Y-105561905D01*
X120852381Y-105276191D02*
X119852381Y-105276191D01*
X119995238Y-105371429D01*
X120090476Y-105466667D01*
X120138095Y-105561905D01*
X119852381Y-104133333D02*
X119852381Y-104323810D01*
X119900000Y-104419048D01*
X119947619Y-104466667D01*
X120090476Y-104561905D01*
X120280952Y-104609524D01*
X120661905Y-104609524D01*
X120757143Y-104561905D01*
X120804762Y-104514286D01*
X120852381Y-104419048D01*
X120852381Y-104228571D01*
X120804762Y-104133333D01*
X120757143Y-104085714D01*
X120661905Y-104038095D01*
X120423810Y-104038095D01*
X120328571Y-104085714D01*
X120280952Y-104133333D01*
X120233333Y-104228571D01*
X120233333Y-104419048D01*
X120280952Y-104514286D01*
X120328571Y-104561905D01*
X120423810Y-104609524D01*
X135445888Y-97305025D02*
X135445888Y-97372368D01*
X135378544Y-97507055D01*
X135311201Y-97574399D01*
X135176513Y-97641743D01*
X135041826Y-97641743D01*
X134940811Y-97608071D01*
X134772453Y-97507056D01*
X134671437Y-97406040D01*
X134570422Y-97237681D01*
X134536750Y-97136666D01*
X134536750Y-97001979D01*
X134604094Y-96867292D01*
X134671437Y-96799948D01*
X134806124Y-96732605D01*
X134873468Y-96732605D01*
X136186666Y-96698933D02*
X135782605Y-97102994D01*
X135984635Y-96900964D02*
X135277528Y-96193857D01*
X135311200Y-96362216D01*
X135311200Y-96496903D01*
X135277528Y-96597918D01*
X135715261Y-95756124D02*
X136186666Y-95284720D01*
X136590727Y-96294873D01*
X136695888Y-97805025D02*
X136695888Y-97872368D01*
X136628544Y-98007055D01*
X136561201Y-98074399D01*
X136426513Y-98141743D01*
X136291826Y-98141743D01*
X136190811Y-98108071D01*
X136022453Y-98007056D01*
X135921437Y-97906040D01*
X135820422Y-97737681D01*
X135786750Y-97636666D01*
X135786750Y-97501979D01*
X135854094Y-97367292D01*
X135921437Y-97299948D01*
X136056124Y-97232605D01*
X136123468Y-97232605D01*
X137436666Y-97198933D02*
X137032605Y-97602994D01*
X137234635Y-97400964D02*
X136527528Y-96693857D01*
X136561200Y-96862216D01*
X136561200Y-96996903D01*
X136527528Y-97097918D01*
X137436665Y-96390811D02*
X137335650Y-96424483D01*
X137268307Y-96424483D01*
X137167292Y-96390811D01*
X137133620Y-96357140D01*
X137099948Y-96256124D01*
X137099948Y-96188781D01*
X137133620Y-96087766D01*
X137268308Y-95953078D01*
X137369323Y-95919406D01*
X137436666Y-95919406D01*
X137537681Y-95953078D01*
X137571353Y-95986750D01*
X137605025Y-96087765D01*
X137605025Y-96155108D01*
X137571353Y-96256124D01*
X137436665Y-96390811D01*
X137402994Y-96491826D01*
X137402994Y-96559170D01*
X137436666Y-96660186D01*
X137571353Y-96794873D01*
X137672368Y-96828544D01*
X137739712Y-96828544D01*
X137840727Y-96794873D01*
X137975414Y-96660185D01*
X138009086Y-96559170D01*
X138009086Y-96491826D01*
X137975414Y-96390811D01*
X137840728Y-96256124D01*
X137739712Y-96222452D01*
X137672368Y-96222452D01*
X137571353Y-96256124D01*
X127957143Y-102957143D02*
X127909524Y-103004762D01*
X127766667Y-103052381D01*
X127671429Y-103052381D01*
X127528571Y-103004762D01*
X127433333Y-102909524D01*
X127385714Y-102814286D01*
X127338095Y-102623810D01*
X127338095Y-102480952D01*
X127385714Y-102290476D01*
X127433333Y-102195238D01*
X127528571Y-102100000D01*
X127671429Y-102052381D01*
X127766667Y-102052381D01*
X127909524Y-102100000D01*
X127957143Y-102147619D01*
X128909524Y-103052381D02*
X128338095Y-103052381D01*
X128623809Y-103052381D02*
X128623809Y-102052381D01*
X128528571Y-102195238D01*
X128433333Y-102290476D01*
X128338095Y-102338095D01*
X129385714Y-103052381D02*
X129576190Y-103052381D01*
X129671429Y-103004762D01*
X129719048Y-102957143D01*
X129814286Y-102814286D01*
X129861905Y-102623810D01*
X129861905Y-102242857D01*
X129814286Y-102147619D01*
X129766667Y-102100000D01*
X129671429Y-102052381D01*
X129480952Y-102052381D01*
X129385714Y-102100000D01*
X129338095Y-102147619D01*
X129290476Y-102242857D01*
X129290476Y-102480952D01*
X129338095Y-102576190D01*
X129385714Y-102623810D01*
X129480952Y-102671429D01*
X129671429Y-102671429D01*
X129766667Y-102623810D01*
X129814286Y-102576190D01*
X129861905Y-102480952D01*
X124157143Y-107442857D02*
X124204762Y-107490476D01*
X124252381Y-107633333D01*
X124252381Y-107728571D01*
X124204762Y-107871429D01*
X124109524Y-107966667D01*
X124014286Y-108014286D01*
X123823810Y-108061905D01*
X123680952Y-108061905D01*
X123490476Y-108014286D01*
X123395238Y-107966667D01*
X123300000Y-107871429D01*
X123252381Y-107728571D01*
X123252381Y-107633333D01*
X123300000Y-107490476D01*
X123347619Y-107442857D01*
X123347619Y-107061905D02*
X123300000Y-107014286D01*
X123252381Y-106919048D01*
X123252381Y-106680952D01*
X123300000Y-106585714D01*
X123347619Y-106538095D01*
X123442857Y-106490476D01*
X123538095Y-106490476D01*
X123680952Y-106538095D01*
X124252381Y-107109524D01*
X124252381Y-106490476D01*
X123252381Y-105871429D02*
X123252381Y-105776190D01*
X123300000Y-105680952D01*
X123347619Y-105633333D01*
X123442857Y-105585714D01*
X123633333Y-105538095D01*
X123871429Y-105538095D01*
X124061905Y-105585714D01*
X124157143Y-105633333D01*
X124204762Y-105680952D01*
X124252381Y-105776190D01*
X124252381Y-105871429D01*
X124204762Y-105966667D01*
X124157143Y-106014286D01*
X124061905Y-106061905D01*
X123871429Y-106109524D01*
X123633333Y-106109524D01*
X123442857Y-106061905D01*
X123347619Y-106014286D01*
X123300000Y-105966667D01*
X123252381Y-105871429D01*
X128957143Y-101957143D02*
X128909524Y-102004762D01*
X128766667Y-102052381D01*
X128671429Y-102052381D01*
X128528571Y-102004762D01*
X128433333Y-101909524D01*
X128385714Y-101814286D01*
X128338095Y-101623810D01*
X128338095Y-101480952D01*
X128385714Y-101290476D01*
X128433333Y-101195238D01*
X128528571Y-101100000D01*
X128671429Y-101052381D01*
X128766667Y-101052381D01*
X128909524Y-101100000D01*
X128957143Y-101147619D01*
X129338095Y-101147619D02*
X129385714Y-101100000D01*
X129480952Y-101052381D01*
X129719048Y-101052381D01*
X129814286Y-101100000D01*
X129861905Y-101147619D01*
X129909524Y-101242857D01*
X129909524Y-101338095D01*
X129861905Y-101480952D01*
X129290476Y-102052381D01*
X129909524Y-102052381D01*
X130861905Y-102052381D02*
X130290476Y-102052381D01*
X130576190Y-102052381D02*
X130576190Y-101052381D01*
X130480952Y-101195238D01*
X130385714Y-101290476D01*
X130290476Y-101338095D01*
X129957143Y-100957143D02*
X129909524Y-101004762D01*
X129766667Y-101052381D01*
X129671429Y-101052381D01*
X129528571Y-101004762D01*
X129433333Y-100909524D01*
X129385714Y-100814286D01*
X129338095Y-100623810D01*
X129338095Y-100480952D01*
X129385714Y-100290476D01*
X129433333Y-100195238D01*
X129528571Y-100100000D01*
X129671429Y-100052381D01*
X129766667Y-100052381D01*
X129909524Y-100100000D01*
X129957143Y-100147619D01*
X130338095Y-100147619D02*
X130385714Y-100100000D01*
X130480952Y-100052381D01*
X130719048Y-100052381D01*
X130814286Y-100100000D01*
X130861905Y-100147619D01*
X130909524Y-100242857D01*
X130909524Y-100338095D01*
X130861905Y-100480952D01*
X130290476Y-101052381D01*
X130909524Y-101052381D01*
X131290476Y-100147619D02*
X131338095Y-100100000D01*
X131433333Y-100052381D01*
X131671429Y-100052381D01*
X131766667Y-100100000D01*
X131814286Y-100147619D01*
X131861905Y-100242857D01*
X131861905Y-100338095D01*
X131814286Y-100480952D01*
X131242857Y-101052381D01*
X131861905Y-101052381D01*
X129800052Y-108209189D02*
X129800052Y-108276532D01*
X129732708Y-108411219D01*
X129665365Y-108478563D01*
X129530677Y-108545907D01*
X129395990Y-108545907D01*
X129294975Y-108512235D01*
X129126617Y-108411220D01*
X129025601Y-108310204D01*
X128924586Y-108141845D01*
X128890914Y-108040830D01*
X128890914Y-107906143D01*
X128958258Y-107771456D01*
X129025601Y-107704112D01*
X129160288Y-107636769D01*
X129227632Y-107636769D01*
X129497006Y-107367395D02*
X129497006Y-107300052D01*
X129530677Y-107199037D01*
X129699037Y-107030677D01*
X129800052Y-106997006D01*
X129867395Y-106997006D01*
X129968410Y-107030677D01*
X130035754Y-107098021D01*
X130103097Y-107232708D01*
X130103097Y-108040830D01*
X130540830Y-107603097D01*
X130069425Y-106660288D02*
X130507158Y-106222555D01*
X130540829Y-106727632D01*
X130641845Y-106626616D01*
X130742860Y-106592944D01*
X130810204Y-106592944D01*
X130911220Y-106626617D01*
X131079578Y-106794975D01*
X131113250Y-106895990D01*
X131113250Y-106963334D01*
X131079578Y-107064349D01*
X130877547Y-107266380D01*
X130776532Y-107300052D01*
X130709189Y-107300052D01*
X129007143Y-107692857D02*
X129054762Y-107740476D01*
X129102381Y-107883333D01*
X129102381Y-107978571D01*
X129054762Y-108121429D01*
X128959524Y-108216667D01*
X128864286Y-108264286D01*
X128673810Y-108311905D01*
X128530952Y-108311905D01*
X128340476Y-108264286D01*
X128245238Y-108216667D01*
X128150000Y-108121429D01*
X128102381Y-107978571D01*
X128102381Y-107883333D01*
X128150000Y-107740476D01*
X128197619Y-107692857D01*
X128197619Y-107311905D02*
X128150000Y-107264286D01*
X128102381Y-107169048D01*
X128102381Y-106930952D01*
X128150000Y-106835714D01*
X128197619Y-106788095D01*
X128292857Y-106740476D01*
X128388095Y-106740476D01*
X128530952Y-106788095D01*
X129102381Y-107359524D01*
X129102381Y-106740476D01*
X128435714Y-105883333D02*
X129102381Y-105883333D01*
X128054762Y-106121429D02*
X128769048Y-106359524D01*
X128769048Y-105740476D01*
X137445888Y-98555025D02*
X137445888Y-98622368D01*
X137378544Y-98757055D01*
X137311201Y-98824399D01*
X137176513Y-98891743D01*
X137041826Y-98891743D01*
X136940811Y-98858071D01*
X136772453Y-98757056D01*
X136671437Y-98656040D01*
X136570422Y-98487681D01*
X136536750Y-98386666D01*
X136536750Y-98251979D01*
X136604094Y-98117292D01*
X136671437Y-98049948D01*
X136806124Y-97982605D01*
X136873468Y-97982605D01*
X137142842Y-97713231D02*
X137142842Y-97645888D01*
X137176513Y-97544873D01*
X137344873Y-97376513D01*
X137445888Y-97342842D01*
X137513231Y-97342842D01*
X137614246Y-97376513D01*
X137681590Y-97443857D01*
X137748933Y-97578544D01*
X137748933Y-98386666D01*
X138186666Y-97948933D01*
X138119323Y-96602063D02*
X137782605Y-96938781D01*
X138085650Y-97309170D01*
X138085650Y-97241826D01*
X138119322Y-97140811D01*
X138287681Y-96972452D01*
X138388696Y-96938780D01*
X138456040Y-96938780D01*
X138557056Y-96972453D01*
X138725414Y-97140811D01*
X138759086Y-97241826D01*
X138759086Y-97309170D01*
X138725414Y-97410185D01*
X138557055Y-97578544D01*
X138456040Y-97612216D01*
X138388696Y-97612216D01*
X136257143Y-108192857D02*
X136304762Y-108240476D01*
X136352381Y-108383333D01*
X136352381Y-108478571D01*
X136304762Y-108621429D01*
X136209524Y-108716667D01*
X136114286Y-108764286D01*
X135923810Y-108811905D01*
X135780952Y-108811905D01*
X135590476Y-108764286D01*
X135495238Y-108716667D01*
X135400000Y-108621429D01*
X135352381Y-108478571D01*
X135352381Y-108383333D01*
X135400000Y-108240476D01*
X135447619Y-108192857D01*
X135447619Y-107811905D02*
X135400000Y-107764286D01*
X135352381Y-107669048D01*
X135352381Y-107430952D01*
X135400000Y-107335714D01*
X135447619Y-107288095D01*
X135542857Y-107240476D01*
X135638095Y-107240476D01*
X135780952Y-107288095D01*
X136352381Y-107859524D01*
X136352381Y-107240476D01*
X135352381Y-106383333D02*
X135352381Y-106573810D01*
X135400000Y-106669048D01*
X135447619Y-106716667D01*
X135590476Y-106811905D01*
X135780952Y-106859524D01*
X136161905Y-106859524D01*
X136257143Y-106811905D01*
X136304762Y-106764286D01*
X136352381Y-106669048D01*
X136352381Y-106478571D01*
X136304762Y-106383333D01*
X136257143Y-106335714D01*
X136161905Y-106288095D01*
X135923810Y-106288095D01*
X135828571Y-106335714D01*
X135780952Y-106383333D01*
X135733333Y-106478571D01*
X135733333Y-106669048D01*
X135780952Y-106764286D01*
X135828571Y-106811905D01*
X135923810Y-106859524D01*
X135257143Y-108442857D02*
X135304762Y-108490476D01*
X135352381Y-108633333D01*
X135352381Y-108728571D01*
X135304762Y-108871429D01*
X135209524Y-108966667D01*
X135114286Y-109014286D01*
X134923810Y-109061905D01*
X134780952Y-109061905D01*
X134590476Y-109014286D01*
X134495238Y-108966667D01*
X134400000Y-108871429D01*
X134352381Y-108728571D01*
X134352381Y-108633333D01*
X134400000Y-108490476D01*
X134447619Y-108442857D01*
X134447619Y-108061905D02*
X134400000Y-108014286D01*
X134352381Y-107919048D01*
X134352381Y-107680952D01*
X134400000Y-107585714D01*
X134447619Y-107538095D01*
X134542857Y-107490476D01*
X134638095Y-107490476D01*
X134780952Y-107538095D01*
X135352381Y-108109524D01*
X135352381Y-107490476D01*
X134352381Y-107157143D02*
X134352381Y-106490476D01*
X135352381Y-106919048D01*
X137457143Y-107557143D02*
X137409524Y-107604762D01*
X137266667Y-107652381D01*
X137171429Y-107652381D01*
X137028571Y-107604762D01*
X136933333Y-107509524D01*
X136885714Y-107414286D01*
X136838095Y-107223810D01*
X136838095Y-107080952D01*
X136885714Y-106890476D01*
X136933333Y-106795238D01*
X137028571Y-106700000D01*
X137171429Y-106652381D01*
X137266667Y-106652381D01*
X137409524Y-106700000D01*
X137457143Y-106747619D01*
X137838095Y-106747619D02*
X137885714Y-106700000D01*
X137980952Y-106652381D01*
X138219048Y-106652381D01*
X138314286Y-106700000D01*
X138361905Y-106747619D01*
X138409524Y-106842857D01*
X138409524Y-106938095D01*
X138361905Y-107080952D01*
X137790476Y-107652381D01*
X138409524Y-107652381D01*
X138980952Y-107080952D02*
X138885714Y-107033333D01*
X138838095Y-106985714D01*
X138790476Y-106890476D01*
X138790476Y-106842857D01*
X138838095Y-106747619D01*
X138885714Y-106700000D01*
X138980952Y-106652381D01*
X139171429Y-106652381D01*
X139266667Y-106700000D01*
X139314286Y-106747619D01*
X139361905Y-106842857D01*
X139361905Y-106890476D01*
X139314286Y-106985714D01*
X139266667Y-107033333D01*
X139171429Y-107080952D01*
X138980952Y-107080952D01*
X138885714Y-107128571D01*
X138838095Y-107176190D01*
X138790476Y-107271429D01*
X138790476Y-107461905D01*
X138838095Y-107557143D01*
X138885714Y-107604762D01*
X138980952Y-107652381D01*
X139171429Y-107652381D01*
X139266667Y-107604762D01*
X139314286Y-107557143D01*
X139361905Y-107461905D01*
X139361905Y-107271429D01*
X139314286Y-107176190D01*
X139266667Y-107128571D01*
X139171429Y-107080952D01*
X139957143Y-101957143D02*
X139909524Y-102004762D01*
X139766667Y-102052381D01*
X139671429Y-102052381D01*
X139528571Y-102004762D01*
X139433333Y-101909524D01*
X139385714Y-101814286D01*
X139338095Y-101623810D01*
X139338095Y-101480952D01*
X139385714Y-101290476D01*
X139433333Y-101195238D01*
X139528571Y-101100000D01*
X139671429Y-101052381D01*
X139766667Y-101052381D01*
X139909524Y-101100000D01*
X139957143Y-101147619D01*
X140290476Y-101052381D02*
X140909524Y-101052381D01*
X140576190Y-101433333D01*
X140719048Y-101433333D01*
X140814286Y-101480952D01*
X140861905Y-101528571D01*
X140909524Y-101623810D01*
X140909524Y-101861905D01*
X140861905Y-101957143D01*
X140814286Y-102004762D01*
X140719048Y-102052381D01*
X140433333Y-102052381D01*
X140338095Y-102004762D01*
X140290476Y-101957143D01*
X141861905Y-102052381D02*
X141290476Y-102052381D01*
X141576190Y-102052381D02*
X141576190Y-101052381D01*
X141480952Y-101195238D01*
X141385714Y-101290476D01*
X141290476Y-101338095D01*
X140507143Y-104442857D02*
X140554762Y-104490476D01*
X140602381Y-104633333D01*
X140602381Y-104728571D01*
X140554762Y-104871429D01*
X140459524Y-104966667D01*
X140364286Y-105014286D01*
X140173810Y-105061905D01*
X140030952Y-105061905D01*
X139840476Y-105014286D01*
X139745238Y-104966667D01*
X139650000Y-104871429D01*
X139602381Y-104728571D01*
X139602381Y-104633333D01*
X139650000Y-104490476D01*
X139697619Y-104442857D01*
X139602381Y-104109524D02*
X139602381Y-103490476D01*
X139983333Y-103823810D01*
X139983333Y-103680952D01*
X140030952Y-103585714D01*
X140078571Y-103538095D01*
X140173810Y-103490476D01*
X140411905Y-103490476D01*
X140507143Y-103538095D01*
X140554762Y-103585714D01*
X140602381Y-103680952D01*
X140602381Y-103966667D01*
X140554762Y-104061905D01*
X140507143Y-104109524D01*
X139697619Y-103109524D02*
X139650000Y-103061905D01*
X139602381Y-102966667D01*
X139602381Y-102728571D01*
X139650000Y-102633333D01*
X139697619Y-102585714D01*
X139792857Y-102538095D01*
X139888095Y-102538095D01*
X140030952Y-102585714D01*
X140602381Y-103157143D01*
X140602381Y-102538095D01*
X141457143Y-107357143D02*
X141409524Y-107404762D01*
X141266667Y-107452381D01*
X141171429Y-107452381D01*
X141028571Y-107404762D01*
X140933333Y-107309524D01*
X140885714Y-107214286D01*
X140838095Y-107023810D01*
X140838095Y-106880952D01*
X140885714Y-106690476D01*
X140933333Y-106595238D01*
X141028571Y-106500000D01*
X141171429Y-106452381D01*
X141266667Y-106452381D01*
X141409524Y-106500000D01*
X141457143Y-106547619D01*
X141790476Y-106452381D02*
X142409524Y-106452381D01*
X142076190Y-106833333D01*
X142219048Y-106833333D01*
X142314286Y-106880952D01*
X142361905Y-106928571D01*
X142409524Y-107023810D01*
X142409524Y-107261905D01*
X142361905Y-107357143D01*
X142314286Y-107404762D01*
X142219048Y-107452381D01*
X141933333Y-107452381D01*
X141838095Y-107404762D01*
X141790476Y-107357143D01*
X142742857Y-106452381D02*
X143361905Y-106452381D01*
X143028571Y-106833333D01*
X143171429Y-106833333D01*
X143266667Y-106880952D01*
X143314286Y-106928571D01*
X143361905Y-107023810D01*
X143361905Y-107261905D01*
X143314286Y-107357143D01*
X143266667Y-107404762D01*
X143171429Y-107452381D01*
X142885714Y-107452381D01*
X142790476Y-107404762D01*
X142742857Y-107357143D01*
X117933334Y-93952381D02*
X117457143Y-93952381D01*
X117457143Y-92952381D01*
X118790477Y-93952381D02*
X118219048Y-93952381D01*
X118504762Y-93952381D02*
X118504762Y-92952381D01*
X118409524Y-93095238D01*
X118314286Y-93190476D01*
X118219048Y-93238095D01*
X129352381Y-96966666D02*
X129352381Y-97442857D01*
X128352381Y-97442857D01*
X128447619Y-96680952D02*
X128400000Y-96633333D01*
X128352381Y-96538095D01*
X128352381Y-96299999D01*
X128400000Y-96204761D01*
X128447619Y-96157142D01*
X128542857Y-96109523D01*
X128638095Y-96109523D01*
X128780952Y-96157142D01*
X129352381Y-96728571D01*
X129352381Y-96109523D01*
X129852381Y-99466666D02*
X129852381Y-99942857D01*
X128852381Y-99942857D01*
X128852381Y-99228571D02*
X128852381Y-98609523D01*
X129233333Y-98942857D01*
X129233333Y-98799999D01*
X129280952Y-98704761D01*
X129328571Y-98657142D01*
X129423810Y-98609523D01*
X129661905Y-98609523D01*
X129757143Y-98657142D01*
X129804762Y-98704761D01*
X129852381Y-98799999D01*
X129852381Y-99085714D01*
X129804762Y-99180952D01*
X129757143Y-99228571D01*
X132433334Y-99052381D02*
X131957143Y-99052381D01*
X131957143Y-98052381D01*
X133195239Y-98385714D02*
X133195239Y-99052381D01*
X132957143Y-98004762D02*
X132719048Y-98719048D01*
X133338096Y-98719048D01*
X130933334Y-101552381D02*
X130457143Y-101552381D01*
X130457143Y-100552381D01*
X131742858Y-100552381D02*
X131266667Y-100552381D01*
X131219048Y-101028571D01*
X131266667Y-100980952D01*
X131361905Y-100933333D01*
X131600001Y-100933333D01*
X131695239Y-100980952D01*
X131742858Y-101028571D01*
X131790477Y-101123810D01*
X131790477Y-101361905D01*
X131742858Y-101457143D01*
X131695239Y-101504762D01*
X131600001Y-101552381D01*
X131361905Y-101552381D01*
X131266667Y-101504762D01*
X131219048Y-101457143D01*
X128933334Y-102052381D02*
X128457143Y-102052381D01*
X128457143Y-101052381D01*
X129695239Y-101052381D02*
X129504762Y-101052381D01*
X129409524Y-101100000D01*
X129361905Y-101147619D01*
X129266667Y-101290476D01*
X129219048Y-101480952D01*
X129219048Y-101861905D01*
X129266667Y-101957143D01*
X129314286Y-102004762D01*
X129409524Y-102052381D01*
X129600001Y-102052381D01*
X129695239Y-102004762D01*
X129742858Y-101957143D01*
X129790477Y-101861905D01*
X129790477Y-101623810D01*
X129742858Y-101528571D01*
X129695239Y-101480952D01*
X129600001Y-101433333D01*
X129409524Y-101433333D01*
X129314286Y-101480952D01*
X129266667Y-101528571D01*
X129219048Y-101623810D01*
X134433334Y-99052381D02*
X133957143Y-99052381D01*
X133957143Y-98052381D01*
X134671429Y-98052381D02*
X135338096Y-98052381D01*
X134909524Y-99052381D01*
X121752381Y-101466666D02*
X121752381Y-101942857D01*
X120752381Y-101942857D01*
X121180952Y-100990476D02*
X121133333Y-101085714D01*
X121085714Y-101133333D01*
X120990476Y-101180952D01*
X120942857Y-101180952D01*
X120847619Y-101133333D01*
X120800000Y-101085714D01*
X120752381Y-100990476D01*
X120752381Y-100799999D01*
X120800000Y-100704761D01*
X120847619Y-100657142D01*
X120942857Y-100609523D01*
X120990476Y-100609523D01*
X121085714Y-100657142D01*
X121133333Y-100704761D01*
X121180952Y-100799999D01*
X121180952Y-100990476D01*
X121228571Y-101085714D01*
X121276190Y-101133333D01*
X121371429Y-101180952D01*
X121561905Y-101180952D01*
X121657143Y-101133333D01*
X121704762Y-101085714D01*
X121752381Y-100990476D01*
X121752381Y-100799999D01*
X121704762Y-100704761D01*
X121657143Y-100657142D01*
X121561905Y-100609523D01*
X121371429Y-100609523D01*
X121276190Y-100657142D01*
X121228571Y-100704761D01*
X121180952Y-100799999D01*
X126252381Y-102466666D02*
X126252381Y-102942857D01*
X125252381Y-102942857D01*
X126252381Y-102085714D02*
X126252381Y-101895238D01*
X126204762Y-101799999D01*
X126157143Y-101752380D01*
X126014286Y-101657142D01*
X125823810Y-101609523D01*
X125442857Y-101609523D01*
X125347619Y-101657142D01*
X125300000Y-101704761D01*
X125252381Y-101799999D01*
X125252381Y-101990476D01*
X125300000Y-102085714D01*
X125347619Y-102133333D01*
X125442857Y-102180952D01*
X125680952Y-102180952D01*
X125776190Y-102133333D01*
X125823810Y-102085714D01*
X125871429Y-101990476D01*
X125871429Y-101799999D01*
X125823810Y-101704761D01*
X125776190Y-101657142D01*
X125680952Y-101609523D01*
X123192521Y-103801658D02*
X122855803Y-104138376D01*
X122148696Y-103431269D01*
X123798613Y-103195567D02*
X123394551Y-103599628D01*
X123596582Y-103397598D02*
X122889475Y-102690491D01*
X122923147Y-102858849D01*
X122923147Y-102993536D01*
X122889475Y-103094551D01*
X123529238Y-102050727D02*
X123596582Y-101983383D01*
X123697598Y-101949712D01*
X123764941Y-101949712D01*
X123865956Y-101983383D01*
X124034315Y-102084398D01*
X124202674Y-102252758D01*
X124303689Y-102421116D01*
X124337361Y-102522132D01*
X124337361Y-102589475D01*
X124303689Y-102690490D01*
X124236345Y-102757834D01*
X124135330Y-102791506D01*
X124067986Y-102791506D01*
X123966971Y-102757834D01*
X123798613Y-102656819D01*
X123630253Y-102488460D01*
X123529238Y-102320101D01*
X123495567Y-102219086D01*
X123495567Y-102151743D01*
X123529238Y-102050727D01*
X122252381Y-106442857D02*
X122252381Y-106919048D01*
X121252381Y-106919048D01*
X122252381Y-105585714D02*
X122252381Y-106157143D01*
X122252381Y-105871429D02*
X121252381Y-105871429D01*
X121395238Y-105966667D01*
X121490476Y-106061905D01*
X121538095Y-106157143D01*
X122252381Y-104633333D02*
X122252381Y-105204762D01*
X122252381Y-104919048D02*
X121252381Y-104919048D01*
X121395238Y-105014286D01*
X121490476Y-105109524D01*
X121538095Y-105204762D01*
X129957143Y-99952381D02*
X129480952Y-99952381D01*
X129480952Y-98952381D01*
X130814286Y-99952381D02*
X130242857Y-99952381D01*
X130528571Y-99952381D02*
X130528571Y-98952381D01*
X130433333Y-99095238D01*
X130338095Y-99190476D01*
X130242857Y-99238095D01*
X131195238Y-99047619D02*
X131242857Y-99000000D01*
X131338095Y-98952381D01*
X131576191Y-98952381D01*
X131671429Y-99000000D01*
X131719048Y-99047619D01*
X131766667Y-99142857D01*
X131766667Y-99238095D01*
X131719048Y-99380952D01*
X131147619Y-99952381D01*
X131766667Y-99952381D01*
X141102381Y-104442857D02*
X141102381Y-104919048D01*
X140102381Y-104919048D01*
X141102381Y-103585714D02*
X141102381Y-104157143D01*
X141102381Y-103871429D02*
X140102381Y-103871429D01*
X140245238Y-103966667D01*
X140340476Y-104061905D01*
X140388095Y-104157143D01*
X140435714Y-102728571D02*
X141102381Y-102728571D01*
X140054762Y-102966667D02*
X140769048Y-103204762D01*
X140769048Y-102585714D01*
X138052758Y-106188105D02*
X137716040Y-105851387D01*
X138423147Y-105144280D01*
X138658849Y-106794197D02*
X138254788Y-106390135D01*
X138456818Y-106592166D02*
X139163925Y-105885059D01*
X138995567Y-105918731D01*
X138860880Y-105918731D01*
X138759865Y-105885059D01*
X140005720Y-106726853D02*
X139669002Y-106390135D01*
X139298613Y-106693181D01*
X139365956Y-106693181D01*
X139466971Y-106726853D01*
X139635331Y-106895212D01*
X139669002Y-106996227D01*
X139669002Y-107063570D01*
X139635330Y-107164586D01*
X139466971Y-107332945D01*
X139365956Y-107366617D01*
X139298613Y-107366617D01*
X139197598Y-107332945D01*
X139029238Y-107164586D01*
X138995567Y-107063570D01*
X138995567Y-106996227D01*
X125152381Y-106966666D02*
X124676190Y-107300000D01*
X125152381Y-107538095D02*
X124152381Y-107538095D01*
X124152381Y-107157142D01*
X124200000Y-107061904D01*
X124247619Y-107014285D01*
X124342857Y-106966666D01*
X124485714Y-106966666D01*
X124580952Y-107014285D01*
X124628571Y-107061904D01*
X124676190Y-107157142D01*
X124676190Y-107538095D01*
X125152381Y-106014285D02*
X125152381Y-106585714D01*
X125152381Y-106300000D02*
X124152381Y-106300000D01*
X124295238Y-106395238D01*
X124390476Y-106490476D01*
X124438095Y-106585714D01*
X128004762Y-106152381D02*
X127671428Y-105676190D01*
X127433333Y-106152381D02*
X127433333Y-105152381D01*
X127814286Y-105152381D01*
X127909524Y-105200000D01*
X127957143Y-105247619D01*
X128004762Y-105342857D01*
X128004762Y-105485714D01*
X127957143Y-105580952D01*
X127909524Y-105628571D01*
X127814286Y-105676190D01*
X127433333Y-105676190D01*
X128766667Y-105628571D02*
X128433333Y-105628571D01*
X128433333Y-106152381D02*
X128433333Y-105152381D01*
X128909524Y-105152381D01*
X129814286Y-106152381D02*
X129242857Y-106152381D01*
X129528571Y-106152381D02*
X129528571Y-105152381D01*
X129433333Y-105295238D01*
X129338095Y-105390476D01*
X129242857Y-105438095D01*
X126580952Y-102152381D02*
X126580952Y-101152381D01*
X126819047Y-101152381D01*
X126961905Y-101200000D01*
X127057143Y-101295238D01*
X127104762Y-101390476D01*
X127152381Y-101580952D01*
X127152381Y-101723810D01*
X127104762Y-101914286D01*
X127057143Y-102009524D01*
X126961905Y-102104762D01*
X126819047Y-102152381D01*
X126580952Y-102152381D01*
X128152381Y-102152381D02*
X127819047Y-101676190D01*
X127580952Y-102152381D02*
X127580952Y-101152381D01*
X127961905Y-101152381D01*
X128057143Y-101200000D01*
X128104762Y-101247619D01*
X128152381Y-101342857D01*
X128152381Y-101485714D01*
X128104762Y-101580952D01*
X128057143Y-101628571D01*
X127961905Y-101676190D01*
X127580952Y-101676190D01*
X128533333Y-101866667D02*
X129009524Y-101866667D01*
X128438095Y-102152381D02*
X128771428Y-101152381D01*
X129104762Y-102152381D01*
X129580952Y-101580952D02*
X129485714Y-101533333D01*
X129438095Y-101485714D01*
X129390476Y-101390476D01*
X129390476Y-101342857D01*
X129438095Y-101247619D01*
X129485714Y-101200000D01*
X129580952Y-101152381D01*
X129771429Y-101152381D01*
X129866667Y-101200000D01*
X129914286Y-101247619D01*
X129961905Y-101342857D01*
X129961905Y-101390476D01*
X129914286Y-101485714D01*
X129866667Y-101533333D01*
X129771429Y-101580952D01*
X129580952Y-101580952D01*
X129485714Y-101628571D01*
X129438095Y-101676190D01*
X129390476Y-101771429D01*
X129390476Y-101961905D01*
X129438095Y-102057143D01*
X129485714Y-102104762D01*
X129580952Y-102152381D01*
X129771429Y-102152381D01*
X129866667Y-102104762D01*
X129914286Y-102057143D01*
X129961905Y-101961905D01*
X129961905Y-101771429D01*
X129914286Y-101676190D01*
X129866667Y-101628571D01*
X129771429Y-101580952D01*
X130914286Y-102152381D02*
X130342857Y-102152381D01*
X130628571Y-102152381D02*
X130628571Y-101152381D01*
X130533333Y-101295238D01*
X130438095Y-101390476D01*
X130342857Y-101438095D01*
X131485714Y-101580952D02*
X131390476Y-101533333D01*
X131342857Y-101485714D01*
X131295238Y-101390476D01*
X131295238Y-101342857D01*
X131342857Y-101247619D01*
X131390476Y-101200000D01*
X131485714Y-101152381D01*
X131676191Y-101152381D01*
X131771429Y-101200000D01*
X131819048Y-101247619D01*
X131866667Y-101342857D01*
X131866667Y-101390476D01*
X131819048Y-101485714D01*
X131771429Y-101533333D01*
X131676191Y-101580952D01*
X131485714Y-101580952D01*
X131390476Y-101628571D01*
X131342857Y-101676190D01*
X131295238Y-101771429D01*
X131295238Y-101961905D01*
X131342857Y-102057143D01*
X131390476Y-102104762D01*
X131485714Y-102152381D01*
X131676191Y-102152381D01*
X131771429Y-102104762D01*
X131819048Y-102057143D01*
X131866667Y-101961905D01*
X131866667Y-101771429D01*
X131819048Y-101676190D01*
X131771429Y-101628571D01*
X131676191Y-101580952D01*
D25*
X112881120Y-100103832D02*
X113203942Y-100103832D01*
X113241921Y-100084843D01*
X113260911Y-100065853D01*
X113279900Y-100027874D01*
X113279900Y-99951916D01*
X113260911Y-99913937D01*
X113241921Y-99894948D01*
X113203942Y-99875958D01*
X112881120Y-99875958D01*
X113279900Y-99477178D02*
X113279900Y-99705052D01*
X113279900Y-99591115D02*
X112881120Y-99591115D01*
X112938089Y-99629094D01*
X112976068Y-99667073D01*
X112995058Y-99705052D01*
X121166963Y-100654527D02*
X121166963Y-100464632D01*
X121280900Y-100692506D02*
X120882120Y-100559579D01*
X121280900Y-100426653D01*
X120882120Y-100331705D02*
X121280900Y-100065852D01*
X120882120Y-100065852D02*
X121280900Y-100331705D01*
X120882120Y-99724041D02*
X120882120Y-99913936D01*
X121072016Y-99932926D01*
X121053026Y-99913936D01*
X121034037Y-99875957D01*
X121034037Y-99781010D01*
X121053026Y-99743031D01*
X121072016Y-99724041D01*
X121109995Y-99705052D01*
X121204942Y-99705052D01*
X121242921Y-99724041D01*
X121261911Y-99743031D01*
X121280900Y-99781010D01*
X121280900Y-99875957D01*
X121261911Y-99913936D01*
X121242921Y-99932926D01*
X120882120Y-99458188D02*
X120882120Y-99420209D01*
X120901110Y-99382230D01*
X120920100Y-99363241D01*
X120958079Y-99344251D01*
X121034037Y-99325262D01*
X121128984Y-99325262D01*
X121204942Y-99344251D01*
X121242921Y-99363241D01*
X121261911Y-99382230D01*
X121280900Y-99420209D01*
X121280900Y-99458188D01*
X121261911Y-99496167D01*
X121242921Y-99515157D01*
X121204942Y-99534146D01*
X121128984Y-99553136D01*
X121034037Y-99553136D01*
X120958079Y-99534146D01*
X120920100Y-99515157D01*
X120901110Y-99496167D01*
X120882120Y-99458188D01*
X120882120Y-99192335D02*
X120882120Y-98945472D01*
X121034037Y-99078398D01*
X121034037Y-99021430D01*
X121053026Y-98983451D01*
X121072016Y-98964461D01*
X121109995Y-98945472D01*
X121204942Y-98945472D01*
X121242921Y-98964461D01*
X121261911Y-98983451D01*
X121280900Y-99021430D01*
X121280900Y-99135367D01*
X121261911Y-99173346D01*
X121242921Y-99192335D01*
X137282300Y-103103832D02*
X137605122Y-103103832D01*
X137643101Y-103084843D01*
X137662091Y-103065853D01*
X137681080Y-103027874D01*
X137681080Y-102951916D01*
X137662091Y-102913937D01*
X137643101Y-102894948D01*
X137605122Y-102875958D01*
X137282300Y-102875958D01*
X137282300Y-102724041D02*
X137282300Y-102477178D01*
X137434217Y-102610104D01*
X137434217Y-102553136D01*
X137453206Y-102515157D01*
X137472196Y-102496167D01*
X137510175Y-102477178D01*
X137605122Y-102477178D01*
X137643101Y-102496167D01*
X137662091Y-102515157D01*
X137681080Y-102553136D01*
X137681080Y-102667073D01*
X137662091Y-102705052D01*
X137643101Y-102724041D01*
X131681600Y-103806443D02*
X131491705Y-103939370D01*
X131681600Y-104034317D02*
X131282820Y-104034317D01*
X131282820Y-103882401D01*
X131301810Y-103844422D01*
X131320800Y-103825433D01*
X131358779Y-103806443D01*
X131415747Y-103806443D01*
X131453726Y-103825433D01*
X131472716Y-103844422D01*
X131491705Y-103882401D01*
X131491705Y-104034317D01*
X131472716Y-103502611D02*
X131472716Y-103635537D01*
X131681600Y-103635537D02*
X131282820Y-103635537D01*
X131282820Y-103445642D01*
X131282820Y-103103831D02*
X131282820Y-103293726D01*
X131472716Y-103312716D01*
X131453726Y-103293726D01*
X131434737Y-103255747D01*
X131434737Y-103160800D01*
X131453726Y-103122821D01*
X131472716Y-103103831D01*
X131510695Y-103084842D01*
X131605642Y-103084842D01*
X131643621Y-103103831D01*
X131662611Y-103122821D01*
X131681600Y-103160800D01*
X131681600Y-103255747D01*
X131662611Y-103293726D01*
X131643621Y-103312716D01*
X131681600Y-102705052D02*
X131681600Y-102932926D01*
X131681600Y-102818989D02*
X131282820Y-102818989D01*
X131339789Y-102856968D01*
X131377768Y-102894947D01*
X131396758Y-102932926D01*
X131681600Y-102325262D02*
X131681600Y-102553136D01*
X131681600Y-102439199D02*
X131282820Y-102439199D01*
X131339789Y-102477178D01*
X131377768Y-102515157D01*
X131396758Y-102553136D01*
X131282820Y-102078398D02*
X131282820Y-102040419D01*
X131301810Y-102002440D01*
X131320800Y-101983451D01*
X131358779Y-101964461D01*
X131434737Y-101945472D01*
X131529684Y-101945472D01*
X131605642Y-101964461D01*
X131643621Y-101983451D01*
X131662611Y-102002440D01*
X131681600Y-102040419D01*
X131681600Y-102078398D01*
X131662611Y-102116377D01*
X131643621Y-102135367D01*
X131605642Y-102154356D01*
X131529684Y-102173346D01*
X131434737Y-102173346D01*
X131358779Y-102154356D01*
X131320800Y-102135367D01*
X131301810Y-102116377D01*
X131282820Y-102078398D01*
X131301810Y-101565682D02*
X131282820Y-101603661D01*
X131282820Y-101660629D01*
X131301810Y-101717598D01*
X131339789Y-101755577D01*
X131377768Y-101774566D01*
X131453726Y-101793556D01*
X131510695Y-101793556D01*
X131586653Y-101774566D01*
X131624632Y-101755577D01*
X131662611Y-101717598D01*
X131681600Y-101660629D01*
X131681600Y-101622650D01*
X131662611Y-101565682D01*
X131643621Y-101546692D01*
X131510695Y-101546692D01*
X131510695Y-101622650D01*
D13*
X132907143Y-108942857D02*
X132954762Y-108990476D01*
X133002381Y-109133333D01*
X133002381Y-109228571D01*
X132954762Y-109371429D01*
X132859524Y-109466667D01*
X132764286Y-109514286D01*
X132573810Y-109561905D01*
X132430952Y-109561905D01*
X132240476Y-109514286D01*
X132145238Y-109466667D01*
X132050000Y-109371429D01*
X132002381Y-109228571D01*
X132002381Y-109133333D01*
X132050000Y-108990476D01*
X132097619Y-108942857D01*
X132097619Y-108561905D02*
X132050000Y-108514286D01*
X132002381Y-108419048D01*
X132002381Y-108180952D01*
X132050000Y-108085714D01*
X132097619Y-108038095D01*
X132192857Y-107990476D01*
X132288095Y-107990476D01*
X132430952Y-108038095D01*
X133002381Y-108609524D01*
X133002381Y-107990476D01*
X133002381Y-107514286D02*
X133002381Y-107323810D01*
X132954762Y-107228571D01*
X132907143Y-107180952D01*
X132764286Y-107085714D01*
X132573810Y-107038095D01*
X132192857Y-107038095D01*
X132097619Y-107085714D01*
X132050000Y-107133333D01*
X132002381Y-107228571D01*
X132002381Y-107419048D01*
X132050000Y-107514286D01*
X132097619Y-107561905D01*
X132192857Y-107609524D01*
X132430952Y-107609524D01*
X132526190Y-107561905D01*
X132573810Y-107514286D01*
X132621429Y-107419048D01*
X132621429Y-107228571D01*
X132573810Y-107133333D01*
X132526190Y-107085714D01*
X132430952Y-107038095D01*
X142024316Y-103133453D02*
X142024316Y-103200796D01*
X141956972Y-103335483D01*
X141889629Y-103402827D01*
X141754941Y-103470171D01*
X141620254Y-103470171D01*
X141519239Y-103436499D01*
X141350881Y-103335484D01*
X141249865Y-103234468D01*
X141148850Y-103066109D01*
X141115178Y-102965094D01*
X141115178Y-102830407D01*
X141182522Y-102695720D01*
X141249865Y-102628376D01*
X141384552Y-102561033D01*
X141451896Y-102561033D01*
X141620254Y-102257987D02*
X142057987Y-101820254D01*
X142091658Y-102325331D01*
X142192674Y-102224315D01*
X142293689Y-102190643D01*
X142361033Y-102190643D01*
X142462049Y-102224316D01*
X142630407Y-102392674D01*
X142664079Y-102493689D01*
X142664079Y-102561033D01*
X142630407Y-102662048D01*
X142428376Y-102864079D01*
X142327361Y-102897751D01*
X142260018Y-102897751D01*
X142495720Y-101382522D02*
X142563064Y-101315178D01*
X142664079Y-101281506D01*
X142731422Y-101281506D01*
X142832438Y-101315178D01*
X143000796Y-101416193D01*
X143169156Y-101584552D01*
X143270171Y-101752911D01*
X143303842Y-101853926D01*
X143303842Y-101921270D01*
X143270171Y-102022285D01*
X143202827Y-102089629D01*
X143101811Y-102123301D01*
X143034468Y-102123301D01*
X142933453Y-102089629D01*
X142765094Y-101988614D01*
X142596735Y-101820254D01*
X142495720Y-101651896D01*
X142462048Y-101550881D01*
X142462048Y-101483537D01*
X142495720Y-101382522D01*
X110757143Y-103442857D02*
X110804762Y-103490476D01*
X110852381Y-103633333D01*
X110852381Y-103728571D01*
X110804762Y-103871429D01*
X110709524Y-103966667D01*
X110614286Y-104014286D01*
X110423810Y-104061905D01*
X110280952Y-104061905D01*
X110090476Y-104014286D01*
X109995238Y-103966667D01*
X109900000Y-103871429D01*
X109852381Y-103728571D01*
X109852381Y-103633333D01*
X109900000Y-103490476D01*
X109947619Y-103442857D01*
X109852381Y-103109524D02*
X109852381Y-102490476D01*
X110233333Y-102823810D01*
X110233333Y-102680952D01*
X110280952Y-102585714D01*
X110328571Y-102538095D01*
X110423810Y-102490476D01*
X110661905Y-102490476D01*
X110757143Y-102538095D01*
X110804762Y-102585714D01*
X110852381Y-102680952D01*
X110852381Y-102966667D01*
X110804762Y-103061905D01*
X110757143Y-103109524D01*
X110185714Y-101633333D02*
X110852381Y-101633333D01*
X109804762Y-101871429D02*
X110519048Y-102109524D01*
X110519048Y-101490476D01*
X111757143Y-103442857D02*
X111804762Y-103490476D01*
X111852381Y-103633333D01*
X111852381Y-103728571D01*
X111804762Y-103871429D01*
X111709524Y-103966667D01*
X111614286Y-104014286D01*
X111423810Y-104061905D01*
X111280952Y-104061905D01*
X111090476Y-104014286D01*
X110995238Y-103966667D01*
X110900000Y-103871429D01*
X110852381Y-103728571D01*
X110852381Y-103633333D01*
X110900000Y-103490476D01*
X110947619Y-103442857D01*
X110852381Y-103109524D02*
X110852381Y-102490476D01*
X111233333Y-102823810D01*
X111233333Y-102680952D01*
X111280952Y-102585714D01*
X111328571Y-102538095D01*
X111423810Y-102490476D01*
X111661905Y-102490476D01*
X111757143Y-102538095D01*
X111804762Y-102585714D01*
X111852381Y-102680952D01*
X111852381Y-102966667D01*
X111804762Y-103061905D01*
X111757143Y-103109524D01*
X110852381Y-101585714D02*
X110852381Y-102061905D01*
X111328571Y-102109524D01*
X111280952Y-102061905D01*
X111233333Y-101966667D01*
X111233333Y-101728571D01*
X111280952Y-101633333D01*
X111328571Y-101585714D01*
X111423810Y-101538095D01*
X111661905Y-101538095D01*
X111757143Y-101585714D01*
X111804762Y-101633333D01*
X111852381Y-101728571D01*
X111852381Y-101966667D01*
X111804762Y-102061905D01*
X111757143Y-102109524D01*
X115790476Y-108852381D02*
X116457143Y-109852381D01*
X116457143Y-108852381D02*
X115790476Y-109852381D01*
X117361905Y-109852381D02*
X116790476Y-109852381D01*
X117076190Y-109852381D02*
X117076190Y-108852381D01*
X116980952Y-108995238D01*
X116885714Y-109090476D01*
X116790476Y-109138095D01*
X130502381Y-108192857D02*
X130502381Y-108669048D01*
X129502381Y-108669048D01*
X130502381Y-107335714D02*
X130502381Y-107907143D01*
X130502381Y-107621429D02*
X129502381Y-107621429D01*
X129645238Y-107716667D01*
X129740476Y-107811905D01*
X129788095Y-107907143D01*
X129502381Y-107002381D02*
X129502381Y-106383333D01*
X129883333Y-106716667D01*
X129883333Y-106573809D01*
X129930952Y-106478571D01*
X129978571Y-106430952D01*
X130073810Y-106383333D01*
X130311905Y-106383333D01*
X130407143Y-106430952D01*
X130454762Y-106478571D01*
X130502381Y-106573809D01*
X130502381Y-106859524D01*
X130454762Y-106954762D01*
X130407143Y-107002381D01*
X144952381Y-106761905D02*
X145761905Y-106761905D01*
X145857143Y-106714286D01*
X145904762Y-106666667D01*
X145952381Y-106571429D01*
X145952381Y-106380952D01*
X145904762Y-106285714D01*
X145857143Y-106238095D01*
X145761905Y-106190476D01*
X144952381Y-106190476D01*
X145047619Y-105761905D02*
X145000000Y-105714286D01*
X144952381Y-105619048D01*
X144952381Y-105380952D01*
X145000000Y-105285714D01*
X145047619Y-105238095D01*
X145142857Y-105190476D01*
X145238095Y-105190476D01*
X145380952Y-105238095D01*
X145952381Y-105809524D01*
X145952381Y-105190476D01*
M02*
