M48
;DRILL file {KiCad (after 2015-may-01 BZR unknown)-product} date Tue 12 May 2015 01:08:08 EDT
;FORMAT={-:-/ absolute / inch / decimal}
FMAT,2
INCH,TZ
T1C0.008
T2C0.022
T3C0.031
T4C0.032
T5C0.035
T6C0.039
T7C0.039
T8C0.040
T9C0.050
T10C0.063
%
G90
G05
M72
T1
X2.9498Y-4.3858
X2.999Y-3.6437
X3.Y-4.4685
X3.0453Y-2.1516
X3.0561Y-2.0522
X3.0728Y-3.6693
X3.0994Y-2.4085
X3.1142Y-3.6772
X3.1181Y-2.123
X3.1339Y-3.8858
X3.1594Y-3.687
X3.1909Y-4.2264
X3.1978Y-2.5433
X3.2156Y-3.7431
X3.2313Y-2.2864
X3.2559Y-2.5679
X3.2648Y-3.7923
X3.2677Y-2.8622
X3.2697Y-2.9291
X3.2736Y-2.9882
X3.2756Y-3.1398
X3.2776Y-3.0768
X3.2874Y-3.2992
X3.3012Y-2.6939
X3.3091Y-3.8445
X3.315Y-3.6929
X3.3169Y-2.5571
X3.3484Y-2.6319
X3.3602Y-2.5591
X3.3602Y-4.2215
X3.3652Y-2.4577
X3.3681Y-3.2854
X3.372Y-2.3268
X3.376Y-2.6073
X3.3809Y-2.2628
X3.3848Y-2.3986
X3.3898Y-3.878
X3.3996Y-2.7726
X3.3996Y-2.9921
X3.4016Y-3.2008
X3.4026Y-2.2972
X3.4026Y-2.5197
X3.4055Y-3.0689
X3.4055Y-3.126
X3.4537Y-2.6309
X3.4547Y-2.6624
X3.4626Y-1.8238
X3.4626Y-3.8996
X3.4774Y-2.4715
X3.4813Y-2.7185
X3.4843Y-2.6033
X3.5138Y-3.7126
X3.5157Y-3.7657
X3.5167Y-2.0738
X3.5207Y-2.4823
X3.5217Y-2.7825
X3.5226Y-2.8159
X3.5305Y-2.7411
X3.5315Y-4.0079
X3.5443Y-4.3238
X3.5453Y-2.4508
X3.565Y-3.9646
X3.5768Y-3.8701
X3.5886Y-2.8346
X3.6024Y-2.563
X3.6033Y-2.5315
X3.627Y-1.9213
X3.628Y-4.1949
X3.6289Y-2.5098
X3.6299Y-4.126
X3.6339Y-4.0472
X3.6339Y-4.0906
X3.6358Y-2.9705
X3.6407Y-2.0915
X3.6516Y-2.3091
X3.6732Y-2.9961
X3.688Y-2.0935
X3.6939Y-2.8258
X3.7008Y-2.2874
X3.7224Y-1.9262
X3.7323Y-4.0925
X3.7441Y-3.8169
X3.7648Y-2.5719
X3.7677Y-3.3268
X3.7677Y-3.6516
X3.7805Y-2.0778
X3.812Y-2.5335
X3.8179Y-3.3258
X3.8248Y-2.3071
X3.8346Y-2.6555
X3.8346Y-3.8445
X3.8386Y-2.1398
X3.8465Y-2.3602
X3.8504Y-2.685
X3.8612Y-2.2096
X3.8622Y-1.8612
X3.8681Y-3.4587
X3.8819Y-2.4636
X3.8829Y-1.9528
X3.9085Y-2.4469
X3.9173Y-2.6939
X3.9173Y-4.2835
X3.9183Y-2.1161
X3.9193Y-2.7657
X3.9488Y-2.0886
X3.9508Y-2.25
X3.9528Y-2.1969
X3.9547Y-2.2913
X3.9547Y-2.3839
X3.9567Y-2.5305
X3.9665Y-2.5591
X3.999Y-1.8681
X4.0079Y-2.4232
X4.0167Y-2.8396
X4.0217Y-2.0866
X4.0315Y-2.3878
X4.0522Y-2.5453
X4.063Y-1.7421
X4.1043Y-2.3484
X4.1289Y-2.0059
X4.1358Y-4.0305
X4.1368Y-2.9537
X4.1368Y-4.2795
X4.1407Y-4.377
X4.1614Y-3.0226
X4.1722Y-2.2618
X4.1949Y-2.2303
X4.1959Y-2.5551
X4.2126Y-2.1142
X4.2205Y-1.9626
X4.251Y-2.7156
X4.251Y-2.8563
X4.2657Y-2.0837
X4.2776Y-2.6033
X4.2972Y-2.2067
X4.3051Y-3.4163
X4.3091Y-3.0374
X4.3248Y-2.0335
X4.3248Y-2.8543
X4.3484Y-2.1614
X4.3494Y-2.5965
X4.3543Y-2.001
X4.3907Y-1.9528
X4.4016Y-3.9921
X4.4026Y-2.1102
X4.4213Y-3.0138
X4.438Y-2.0719
X4.4606Y-3.9685
X4.4665Y-3.0266
X4.4951Y-3.0837
X4.502Y-4.1752
X4.5118Y-2.003
X4.5315Y-3.7283
X4.5325Y-3.4606
X4.5354Y-3.2402
X4.5354Y-3.3976
X4.5463Y-2.0079
X4.5482Y-2.7372
X4.563Y-4.1142
X4.5689Y-3.0276
X4.5709Y-3.7756
X4.5728Y-3.8917
X4.5787Y-3.9606
X4.5906Y-3.6654
X4.5984Y-4.0984
X4.5984Y-4.1654
X4.6024Y-3.7677
X4.6496Y-3.2283
X4.6506Y-2.8209
X4.6575Y-4.1732
X4.665Y-1.783
X4.6654Y-3.6614
X4.7598Y-4.1102
X4.7677Y-3.8898
X4.7717Y-4.1811
X4.7953Y-2.1053
X4.7992Y-4.2008
X4.8189Y-3.8386
X4.8366Y-3.7913
X4.8366Y-3.939
X4.8425Y-4.0394
X4.9154Y-3.9193
X4.9341Y-2.6319
X4.935Y-4.0177
X4.937Y-3.8583
X4.9528Y-4.1102
X4.9724Y-2.1585
X5.0276Y-3.8583
X5.0472Y-4.3268
X5.0591Y-3.9843
X5.0787Y-4.3701
X5.0945Y-3.9803
X5.0945Y-4.2087
X5.1417Y-4.2953
X5.1496Y-3.8543
X5.2008Y-3.8543
X5.2126Y-3.6929
X5.2126Y-3.9606
X5.2559Y-2.2539
X5.2638Y-4.0118
X5.2672Y-4.0792
X5.2697Y-2.2953
X5.2776Y-2.1772
X5.2795Y-3.7638
X5.2953Y-1.9331
X5.3071Y-4.252
X5.3268Y-1.9744
X5.3287Y-1.7264
X5.3312Y-4.0153
X5.3346Y-4.0748
X5.3366Y-2.0197
X5.3366Y-2.0925
X5.3366Y-2.1516
X5.3406Y-2.2972
X5.3465Y-3.8386
X5.3819Y-3.9646
X5.3996Y-1.7874
X5.4193Y-2.3031
X5.4272Y-3.9488
X5.4291Y-3.9843
X5.4311Y-1.9291
X5.435Y-1.8583
X5.437Y-4.0669
X5.439Y-2.1535
X5.4409Y-2.0098
X5.4409Y-2.063
X5.4429Y-2.2146
X5.4567Y-3.7283
X5.4567Y-4.2539
X5.5039Y-4.189
X5.6102Y-4.252
X5.6142Y-3.9882
X5.7244Y-4.2165
T2
X2.9701Y-3.7307
X2.9701Y-3.7807
X2.9701Y-3.8307
X2.9701Y-3.8807
X2.9701Y-3.9307
X2.9701Y-3.9807
X2.9701Y-4.0307
X2.9701Y-4.0807
X2.9701Y-4.1307
X2.9701Y-4.1807
X2.9701Y-4.2307
X3.0201Y-3.7307
X3.0201Y-3.7807
X3.0201Y-3.8307
X3.0201Y-3.8807
X3.0201Y-3.9307
X3.0201Y-3.9807
X3.0201Y-4.0307
X3.0201Y-4.0807
X3.0201Y-4.1307
X3.0201Y-4.1807
X3.0201Y-4.2307
X3.8197Y-1.6508
X3.8197Y-1.7008
X3.8697Y-1.6508
X3.8697Y-1.7008
X3.9197Y-1.6508
X3.9197Y-1.7008
X3.9697Y-1.6508
X3.9697Y-1.7008
X4.0197Y-1.6508
X4.0197Y-1.7008
X4.0697Y-1.6508
X4.0697Y-1.7008
X4.1197Y-1.6508
X4.1197Y-1.7008
X4.1697Y-1.6508
X4.1697Y-1.7008
X4.2197Y-1.6508
X4.2197Y-1.7008
X4.2697Y-1.6508
X4.2697Y-1.7008
X4.3197Y-1.6508
X4.3197Y-1.7008
T3
X3.9892Y-3.2864
X4.3829Y-3.2864
T4
X2.8893Y-2.5126
X2.8893Y-2.7126
X2.8893Y-2.9126
X2.8941Y-2.6126
X2.8941Y-2.8126
X2.911Y-1.7968
X2.9118Y-1.6826
X3.0074Y-2.3555
X3.0074Y-2.5555
X3.0074Y-2.7555
X3.0074Y-2.9555
X3.011Y-1.8016
X3.0118Y-1.6874
X3.0122Y-2.4555
X3.0122Y-2.6555
X3.0122Y-2.8555
X3.111Y-1.7968
X3.1118Y-1.6826
X3.211Y-1.8016
X4.4642Y-1.6669
X4.465Y-1.783
X4.5642Y-1.6717
X4.565Y-1.7878
X4.6642Y-1.6669
X4.665Y-1.783
X4.7642Y-1.6717
T6
X4.6083Y-4.3465
X4.7835Y-3.6693
X4.7835Y-4.3465
X4.9606Y-3.6693
X4.9606Y-4.3465
X5.1378Y-3.6693
X5.315Y-3.6693
X5.6693Y-3.6693
X5.6693Y-4.3465
X5.8307Y-3.7362
X5.8307Y-3.9173
X5.8307Y-4.0984
X5.8307Y-4.2795
T7
X3.9902Y-4.1024
X4.1949Y-1.8622
T8
X2.9793Y-2.0069
X2.9793Y-2.1959
X3.8173Y-4.4705
X3.9173Y-4.4705
X4.0443Y-3.6289
X4.0443Y-3.7289
X4.0443Y-3.8289
X4.1443Y-3.6289
X4.1443Y-3.7289
X4.1443Y-3.8289
T9
X3.9902Y-3.9524
X4.3449Y-1.8622
T10
X5.0157Y-1.6594
X5.0157Y-1.872
X5.122Y-1.7657
X5.2283Y-1.6594
X5.2283Y-1.872
T5
X2.8437Y-1.94G85X2.8787Y-1.94
G05
X2.8437Y-2.2628G85X2.8787Y-2.2628
G05
T0
M30
