G04 (created by PCBNEW-RS274X (2012-05-18 BZR 3565)-testing) date 5/24/2012 1:48:57 AM*
%MOIN*%
G04 Gerber Fmt 3.4, Leading zero omitted, Abs format*
%FSLAX34Y34*%
G01*
G70*
G90*
G04 APERTURE LIST*
%ADD10C,0.006*%
%ADD11C,0.005*%
%ADD12C,0.0489*%
%ADD13C,0.0488*%
%ADD14C,0.1034*%
%ADD15C,0.1033*%
G04 APERTURE END LIST*
G54D10*
G54D11*
X45831Y-37561D02*
X45831Y-38040D01*
X45222Y-37561D02*
X45222Y-38040D01*
X44581Y-37561D02*
X44581Y-38040D01*
X43971Y-37561D02*
X43971Y-38040D01*
X45831Y-41179D02*
X45831Y-40700D01*
X45222Y-41179D02*
X45222Y-40700D01*
X44631Y-41179D02*
X44631Y-40700D01*
X44021Y-41179D02*
X44021Y-40700D01*
X43971Y-37559D02*
X44581Y-37559D01*
X45222Y-37559D02*
X45831Y-37559D01*
X45831Y-41179D02*
X45222Y-41179D01*
X44631Y-41179D02*
X44021Y-41179D01*
X51736Y-37561D02*
X51736Y-38040D01*
X51127Y-37561D02*
X51127Y-38040D01*
X50486Y-37561D02*
X50486Y-38040D01*
X49876Y-37561D02*
X49876Y-38040D01*
X51736Y-41179D02*
X51736Y-40700D01*
X51127Y-41179D02*
X51127Y-40700D01*
X50536Y-41179D02*
X50536Y-40700D01*
X49926Y-41179D02*
X49926Y-40700D01*
X49876Y-37559D02*
X50486Y-37559D01*
X51127Y-37559D02*
X51736Y-37559D01*
X51736Y-41179D02*
X51127Y-41179D01*
X50536Y-41179D02*
X49926Y-41179D01*
X46331Y-47404D02*
X46331Y-47883D01*
X45722Y-47404D02*
X45722Y-47883D01*
X44081Y-47404D02*
X44081Y-47883D01*
X43471Y-47404D02*
X43471Y-47883D01*
X46331Y-51022D02*
X46331Y-50543D01*
X45722Y-51022D02*
X45722Y-50543D01*
X44131Y-51022D02*
X44131Y-50543D01*
X43521Y-51022D02*
X43521Y-50543D01*
X43471Y-47402D02*
X44081Y-47402D01*
X45722Y-47402D02*
X46331Y-47402D01*
X46331Y-51022D02*
X45722Y-51022D01*
X44131Y-51022D02*
X43521Y-51022D01*
X52236Y-47404D02*
X52236Y-47883D01*
X51627Y-47404D02*
X51627Y-47883D01*
X49986Y-47404D02*
X49986Y-47883D01*
X49376Y-47404D02*
X49376Y-47883D01*
X52236Y-51022D02*
X52236Y-50543D01*
X51627Y-51022D02*
X51627Y-50543D01*
X50036Y-51022D02*
X50036Y-50543D01*
X49426Y-51022D02*
X49426Y-50543D01*
X49376Y-47402D02*
X49986Y-47402D01*
X51627Y-47402D02*
X52236Y-47402D01*
X52236Y-51022D02*
X51627Y-51022D01*
X50036Y-51022D02*
X49426Y-51022D01*
%LPC*%
G54D12*
X44276Y-34449D03*
G54D13*
X46276Y-34049D03*
X46276Y-34849D03*
G54D12*
X50181Y-34449D03*
G54D13*
X52181Y-34049D03*
X52181Y-34849D03*
G54D12*
X44276Y-39370D03*
G54D13*
X46276Y-38970D03*
X46276Y-39770D03*
G54D14*
X44276Y-38370D03*
G54D15*
X45526Y-38370D03*
X44326Y-40370D03*
X45526Y-40370D03*
G54D12*
X50181Y-39370D03*
G54D13*
X52181Y-38970D03*
X52181Y-39770D03*
G54D14*
X50181Y-38370D03*
G54D15*
X51431Y-38370D03*
X50231Y-40370D03*
X51431Y-40370D03*
G54D12*
X43776Y-44291D03*
G54D13*
X46776Y-43891D03*
X46776Y-44691D03*
G54D12*
X49681Y-44291D03*
G54D13*
X52681Y-43891D03*
X52681Y-44691D03*
G54D12*
X43776Y-49213D03*
G54D13*
X46776Y-48813D03*
X46776Y-49613D03*
G54D14*
X43776Y-48213D03*
G54D15*
X46026Y-48213D03*
X43826Y-50213D03*
X46026Y-50213D03*
G54D12*
X49681Y-49213D03*
G54D13*
X52681Y-48813D03*
X52681Y-49613D03*
G54D14*
X49681Y-48213D03*
G54D15*
X51931Y-48213D03*
X49731Y-50213D03*
X51931Y-50213D03*
M02*
