M48
;DRILL file {Pcbnew (2012-05-18 BZR 3565)-testing} date 5/24/2012 1:49:00 AM
;FORMAT={-:-/ absolute / inch / decimal}
FMAT,2
INCH,TZ
T1C0.039
T2C0.039
T3C0.093
T4C0.093
%
G90
G05
M72
T1
X4.628Y-3.405
X4.628Y-3.485
X4.628Y-3.897
X4.628Y-3.977
X4.678Y-4.389
X4.678Y-4.469
X4.678Y-4.881
X4.678Y-4.961
X5.218Y-3.405
X5.218Y-3.485
X5.218Y-3.897
X5.218Y-3.977
X5.268Y-4.389
X5.268Y-4.469
X5.268Y-4.881
X5.268Y-4.961
T2
X4.378Y-4.429
X4.378Y-4.921
X4.428Y-3.445
X4.428Y-3.937
X4.968Y-4.429
X4.968Y-4.921
X5.018Y-3.445
X5.018Y-3.937
T3
X4.383Y-5.021
X4.433Y-4.037
X4.553Y-3.837
X4.553Y-4.037
X4.603Y-4.821
X4.603Y-5.021
X4.973Y-5.021
X5.023Y-4.037
X5.143Y-3.837
X5.143Y-4.037
X5.193Y-4.821
X5.193Y-5.021
T4
X4.378Y-4.821
X4.428Y-3.837
X4.968Y-4.821
X5.018Y-3.837
T0
M30
