G04 (created by PCBNEW-RS274X (2012-05-18 BZR 3565)-testing) date 5/24/2012 1:48:57 AM*
%MOIN*%
G04 Gerber Fmt 3.4, Leading zero omitted, Abs format*
%FSLAX34Y34*%
G01*
G70*
G90*
G04 APERTURE LIST*
%ADD10C,0.006*%
%ADD11C,0.0409*%
%ADD12C,0.0489*%
%ADD13C,0.0488*%
%ADD14C,0.1034*%
%ADD15C,0.1033*%
G04 APERTURE END LIST*
G54D10*
G54D11*
X44776Y-34699D03*
X44776Y-34199D03*
X45276Y-34699D03*
X45276Y-34199D03*
X45776Y-34699D03*
X45776Y-34199D03*
G54D12*
X44276Y-34449D03*
G54D13*
X46276Y-34049D03*
X46276Y-34849D03*
G54D11*
X50681Y-34699D03*
X50681Y-34199D03*
X51181Y-34699D03*
X51181Y-34199D03*
X51681Y-34699D03*
X51681Y-34199D03*
G54D12*
X50181Y-34449D03*
G54D13*
X52181Y-34049D03*
X52181Y-34849D03*
G54D11*
X44776Y-39620D03*
X44776Y-39120D03*
X45276Y-39620D03*
X45276Y-39120D03*
X45776Y-39620D03*
X45776Y-39120D03*
G54D12*
X44276Y-39370D03*
G54D13*
X46276Y-38970D03*
X46276Y-39770D03*
G54D14*
X44276Y-38370D03*
G54D15*
X45526Y-38370D03*
X44326Y-40370D03*
X45526Y-40370D03*
G54D11*
X50681Y-39620D03*
X50681Y-39120D03*
X51181Y-39620D03*
X51181Y-39120D03*
X51681Y-39620D03*
X51681Y-39120D03*
G54D12*
X50181Y-39370D03*
G54D13*
X52181Y-38970D03*
X52181Y-39770D03*
G54D14*
X50181Y-38370D03*
G54D15*
X51431Y-38370D03*
X50231Y-40370D03*
X51431Y-40370D03*
G54D11*
X46276Y-44041D03*
X46276Y-44541D03*
X45776Y-44041D03*
X45776Y-44541D03*
X44276Y-44541D03*
X44276Y-44041D03*
X44776Y-44541D03*
X44776Y-44041D03*
X45276Y-44541D03*
X45276Y-44041D03*
G54D12*
X43776Y-44291D03*
G54D13*
X46776Y-43891D03*
X46776Y-44691D03*
G54D11*
X52181Y-44041D03*
X52181Y-44541D03*
X51681Y-44041D03*
X51681Y-44541D03*
X50181Y-44541D03*
X50181Y-44041D03*
X50681Y-44541D03*
X50681Y-44041D03*
X51181Y-44541D03*
X51181Y-44041D03*
G54D12*
X49681Y-44291D03*
G54D13*
X52681Y-43891D03*
X52681Y-44691D03*
G54D11*
X46276Y-48963D03*
X46276Y-49463D03*
X45776Y-48963D03*
X45776Y-49463D03*
X44276Y-49463D03*
X44276Y-48963D03*
X44776Y-49463D03*
X44776Y-48963D03*
X45276Y-49463D03*
X45276Y-48963D03*
G54D12*
X43776Y-49213D03*
G54D13*
X46776Y-48813D03*
X46776Y-49613D03*
G54D14*
X43776Y-48213D03*
G54D15*
X46026Y-48213D03*
X43826Y-50213D03*
X46026Y-50213D03*
G54D11*
X52181Y-48963D03*
X52181Y-49463D03*
X51681Y-48963D03*
X51681Y-49463D03*
X50181Y-49463D03*
X50181Y-48963D03*
X50681Y-49463D03*
X50681Y-48963D03*
X51181Y-49463D03*
X51181Y-48963D03*
G54D12*
X49681Y-49213D03*
G54D13*
X52681Y-48813D03*
X52681Y-49613D03*
G54D14*
X49681Y-48213D03*
G54D15*
X51931Y-48213D03*
X49731Y-50213D03*
X51931Y-50213D03*
M02*
