G04 (created by PCBNEW-RS274X (2012-05-18 BZR 3565)-testing) date 5/24/2012 1:48:57 AM*
%MOIN*%
G04 Gerber Fmt 3.4, Leading zero omitted, Abs format*
%FSLAX34Y34*%
G01*
G70*
G90*
G04 APERTURE LIST*
%ADD10C,0.006*%
%ADD11C,0.005*%
%ADD12C,0.0409*%
%ADD13C,0.0489*%
%ADD14C,0.0488*%
%ADD15C,0.1034*%
%ADD16C,0.1033*%
G04 APERTURE END LIST*
G54D10*
G54D11*
X46301Y-35199D02*
X44456Y-35199D01*
X46301Y-33699D02*
X44456Y-33699D01*
X43991Y-34734D02*
X44456Y-35199D01*
X43991Y-34164D02*
X44456Y-33699D01*
X43992Y-34165D02*
X43968Y-34190D01*
X43946Y-34218D01*
X43927Y-34248D01*
X43911Y-34279D01*
X43898Y-34312D01*
X43887Y-34345D01*
X43880Y-34380D01*
X43875Y-34414D01*
X43873Y-34449D01*
X43875Y-34484D01*
X43880Y-34518D01*
X43887Y-34553D01*
X43898Y-34586D01*
X43911Y-34619D01*
X43927Y-34650D01*
X43946Y-34680D01*
X43968Y-34708D01*
X43992Y-34733D01*
X46676Y-34074D02*
X46676Y-34824D01*
X46301Y-35199D02*
X46333Y-35197D01*
X46366Y-35193D01*
X46398Y-35186D01*
X46429Y-35176D01*
X46459Y-35163D01*
X46488Y-35148D01*
X46516Y-35131D01*
X46542Y-35111D01*
X46566Y-35089D01*
X46588Y-35065D01*
X46608Y-35039D01*
X46625Y-35011D01*
X46640Y-34982D01*
X46653Y-34952D01*
X46663Y-34921D01*
X46670Y-34889D01*
X46674Y-34856D01*
X46676Y-34824D01*
X46676Y-34074D02*
X46674Y-34042D01*
X46670Y-34009D01*
X46663Y-33977D01*
X46653Y-33946D01*
X46640Y-33916D01*
X46625Y-33887D01*
X46608Y-33859D01*
X46588Y-33833D01*
X46566Y-33809D01*
X46542Y-33787D01*
X46516Y-33767D01*
X46488Y-33750D01*
X46459Y-33735D01*
X46429Y-33722D01*
X46398Y-33712D01*
X46366Y-33705D01*
X46333Y-33701D01*
X46301Y-33699D01*
X47226Y-33849D02*
X47226Y-35049D01*
X43326Y-35049D02*
X43326Y-33849D01*
X43926Y-33249D02*
X46626Y-33249D01*
X43926Y-35649D02*
X46626Y-35649D01*
X47226Y-33849D02*
X47223Y-33797D01*
X47216Y-33745D01*
X47205Y-33694D01*
X47189Y-33644D01*
X47169Y-33596D01*
X47145Y-33550D01*
X47117Y-33505D01*
X47085Y-33464D01*
X47050Y-33425D01*
X47011Y-33390D01*
X46970Y-33358D01*
X46926Y-33330D01*
X46879Y-33306D01*
X46831Y-33286D01*
X46781Y-33270D01*
X46730Y-33259D01*
X46678Y-33252D01*
X46626Y-33249D01*
X46626Y-35649D02*
X46678Y-35646D01*
X46730Y-35639D01*
X46781Y-35628D01*
X46831Y-35612D01*
X46879Y-35592D01*
X46926Y-35568D01*
X46970Y-35540D01*
X47011Y-35508D01*
X47050Y-35473D01*
X47085Y-35434D01*
X47117Y-35393D01*
X47145Y-35348D01*
X47169Y-35302D01*
X47189Y-35254D01*
X47205Y-35204D01*
X47216Y-35153D01*
X47223Y-35101D01*
X47226Y-35049D01*
X43326Y-35049D02*
X43329Y-35101D01*
X43336Y-35153D01*
X43347Y-35204D01*
X43363Y-35254D01*
X43383Y-35302D01*
X43407Y-35348D01*
X43435Y-35393D01*
X43467Y-35434D01*
X43502Y-35473D01*
X43541Y-35508D01*
X43582Y-35540D01*
X43627Y-35568D01*
X43673Y-35592D01*
X43721Y-35612D01*
X43771Y-35628D01*
X43822Y-35639D01*
X43874Y-35646D01*
X43926Y-35649D01*
X43926Y-33249D02*
X43874Y-33252D01*
X43822Y-33259D01*
X43771Y-33270D01*
X43721Y-33286D01*
X43673Y-33306D01*
X43627Y-33330D01*
X43582Y-33358D01*
X43541Y-33390D01*
X43502Y-33425D01*
X43467Y-33464D01*
X43435Y-33505D01*
X43407Y-33550D01*
X43383Y-33596D01*
X43363Y-33644D01*
X43347Y-33694D01*
X43336Y-33745D01*
X43329Y-33797D01*
X43326Y-33849D01*
X52206Y-35199D02*
X50361Y-35199D01*
X52206Y-33699D02*
X50361Y-33699D01*
X49896Y-34734D02*
X50361Y-35199D01*
X49896Y-34164D02*
X50361Y-33699D01*
X49897Y-34165D02*
X49873Y-34190D01*
X49851Y-34218D01*
X49832Y-34248D01*
X49816Y-34279D01*
X49803Y-34312D01*
X49792Y-34345D01*
X49785Y-34380D01*
X49780Y-34414D01*
X49778Y-34449D01*
X49780Y-34484D01*
X49785Y-34518D01*
X49792Y-34553D01*
X49803Y-34586D01*
X49816Y-34619D01*
X49832Y-34650D01*
X49851Y-34680D01*
X49873Y-34708D01*
X49897Y-34733D01*
X52581Y-34074D02*
X52581Y-34824D01*
X52206Y-35199D02*
X52238Y-35197D01*
X52271Y-35193D01*
X52303Y-35186D01*
X52334Y-35176D01*
X52364Y-35163D01*
X52393Y-35148D01*
X52421Y-35131D01*
X52447Y-35111D01*
X52471Y-35089D01*
X52493Y-35065D01*
X52513Y-35039D01*
X52530Y-35011D01*
X52545Y-34982D01*
X52558Y-34952D01*
X52568Y-34921D01*
X52575Y-34889D01*
X52579Y-34856D01*
X52581Y-34824D01*
X52581Y-34074D02*
X52579Y-34042D01*
X52575Y-34009D01*
X52568Y-33977D01*
X52558Y-33946D01*
X52545Y-33916D01*
X52530Y-33887D01*
X52513Y-33859D01*
X52493Y-33833D01*
X52471Y-33809D01*
X52447Y-33787D01*
X52421Y-33767D01*
X52393Y-33750D01*
X52364Y-33735D01*
X52334Y-33722D01*
X52303Y-33712D01*
X52271Y-33705D01*
X52238Y-33701D01*
X52206Y-33699D01*
X46301Y-40120D02*
X44456Y-40120D01*
X46301Y-38620D02*
X44456Y-38620D01*
X43991Y-39655D02*
X44456Y-40120D01*
X43991Y-39085D02*
X44456Y-38620D01*
X43992Y-39086D02*
X43968Y-39111D01*
X43946Y-39139D01*
X43927Y-39169D01*
X43911Y-39200D01*
X43898Y-39233D01*
X43887Y-39266D01*
X43880Y-39301D01*
X43875Y-39335D01*
X43873Y-39370D01*
X43875Y-39405D01*
X43880Y-39439D01*
X43887Y-39474D01*
X43898Y-39507D01*
X43911Y-39540D01*
X43927Y-39571D01*
X43946Y-39601D01*
X43968Y-39629D01*
X43992Y-39654D01*
X46676Y-40840D02*
X46676Y-40570D01*
X46676Y-40840D02*
X43876Y-40840D01*
X43876Y-40840D02*
X43876Y-40570D01*
X46676Y-37900D02*
X46676Y-38170D01*
X43876Y-37900D02*
X43876Y-38170D01*
X46676Y-37900D02*
X43876Y-37900D01*
X46676Y-38995D02*
X46676Y-39745D01*
X46301Y-40120D02*
X46333Y-40118D01*
X46366Y-40114D01*
X46398Y-40107D01*
X46429Y-40097D01*
X46459Y-40084D01*
X46488Y-40069D01*
X46516Y-40052D01*
X46542Y-40032D01*
X46566Y-40010D01*
X46588Y-39986D01*
X46608Y-39960D01*
X46625Y-39932D01*
X46640Y-39903D01*
X46653Y-39873D01*
X46663Y-39842D01*
X46670Y-39810D01*
X46674Y-39777D01*
X46676Y-39745D01*
X46676Y-38995D02*
X46674Y-38963D01*
X46670Y-38930D01*
X46663Y-38898D01*
X46653Y-38867D01*
X46640Y-38837D01*
X46625Y-38808D01*
X46608Y-38780D01*
X46588Y-38754D01*
X46566Y-38730D01*
X46542Y-38708D01*
X46516Y-38688D01*
X46488Y-38671D01*
X46459Y-38656D01*
X46429Y-38643D01*
X46398Y-38633D01*
X46366Y-38626D01*
X46333Y-38622D01*
X46301Y-38620D01*
X47226Y-38770D02*
X47226Y-39970D01*
X43326Y-39970D02*
X43326Y-38770D01*
X43926Y-38170D02*
X46626Y-38170D01*
X43926Y-40570D02*
X46626Y-40570D01*
X47226Y-38770D02*
X47223Y-38718D01*
X47216Y-38666D01*
X47205Y-38615D01*
X47189Y-38565D01*
X47169Y-38517D01*
X47145Y-38471D01*
X47117Y-38426D01*
X47085Y-38385D01*
X47050Y-38346D01*
X47011Y-38311D01*
X46970Y-38279D01*
X46926Y-38251D01*
X46879Y-38227D01*
X46831Y-38207D01*
X46781Y-38191D01*
X46730Y-38180D01*
X46678Y-38173D01*
X46626Y-38170D01*
X46626Y-40570D02*
X46678Y-40567D01*
X46730Y-40560D01*
X46781Y-40549D01*
X46831Y-40533D01*
X46879Y-40513D01*
X46926Y-40489D01*
X46970Y-40461D01*
X47011Y-40429D01*
X47050Y-40394D01*
X47085Y-40355D01*
X47117Y-40314D01*
X47145Y-40269D01*
X47169Y-40223D01*
X47189Y-40175D01*
X47205Y-40125D01*
X47216Y-40074D01*
X47223Y-40022D01*
X47226Y-39970D01*
X43326Y-39970D02*
X43329Y-40022D01*
X43336Y-40074D01*
X43347Y-40125D01*
X43363Y-40175D01*
X43383Y-40223D01*
X43407Y-40269D01*
X43435Y-40314D01*
X43467Y-40355D01*
X43502Y-40394D01*
X43541Y-40429D01*
X43582Y-40461D01*
X43627Y-40489D01*
X43673Y-40513D01*
X43721Y-40533D01*
X43771Y-40549D01*
X43822Y-40560D01*
X43874Y-40567D01*
X43926Y-40570D01*
X43926Y-38170D02*
X43874Y-38173D01*
X43822Y-38180D01*
X43771Y-38191D01*
X43721Y-38207D01*
X43673Y-38227D01*
X43627Y-38251D01*
X43582Y-38279D01*
X43541Y-38311D01*
X43502Y-38346D01*
X43467Y-38385D01*
X43435Y-38426D01*
X43407Y-38471D01*
X43383Y-38517D01*
X43363Y-38565D01*
X43347Y-38615D01*
X43336Y-38666D01*
X43329Y-38718D01*
X43326Y-38770D01*
X52206Y-40120D02*
X50361Y-40120D01*
X52206Y-38620D02*
X50361Y-38620D01*
X49896Y-39655D02*
X50361Y-40120D01*
X49896Y-39085D02*
X50361Y-38620D01*
X49897Y-39086D02*
X49873Y-39111D01*
X49851Y-39139D01*
X49832Y-39169D01*
X49816Y-39200D01*
X49803Y-39233D01*
X49792Y-39266D01*
X49785Y-39301D01*
X49780Y-39335D01*
X49778Y-39370D01*
X49780Y-39405D01*
X49785Y-39439D01*
X49792Y-39474D01*
X49803Y-39507D01*
X49816Y-39540D01*
X49832Y-39571D01*
X49851Y-39601D01*
X49873Y-39629D01*
X49897Y-39654D01*
X52581Y-38995D02*
X52581Y-39745D01*
X52206Y-40120D02*
X52238Y-40118D01*
X52271Y-40114D01*
X52303Y-40107D01*
X52334Y-40097D01*
X52364Y-40084D01*
X52393Y-40069D01*
X52421Y-40052D01*
X52447Y-40032D01*
X52471Y-40010D01*
X52493Y-39986D01*
X52513Y-39960D01*
X52530Y-39932D01*
X52545Y-39903D01*
X52558Y-39873D01*
X52568Y-39842D01*
X52575Y-39810D01*
X52579Y-39777D01*
X52581Y-39745D01*
X52581Y-38995D02*
X52579Y-38963D01*
X52575Y-38930D01*
X52568Y-38898D01*
X52558Y-38867D01*
X52545Y-38837D01*
X52530Y-38808D01*
X52513Y-38780D01*
X52493Y-38754D01*
X52471Y-38730D01*
X52447Y-38708D01*
X52421Y-38688D01*
X52393Y-38671D01*
X52364Y-38656D01*
X52334Y-38643D01*
X52303Y-38633D01*
X52271Y-38626D01*
X52238Y-38622D01*
X52206Y-38620D01*
X47126Y-45491D02*
X43426Y-45491D01*
X46801Y-45041D02*
X43956Y-45041D01*
X46801Y-43541D02*
X43956Y-43541D01*
X47126Y-43091D02*
X43426Y-43091D01*
X43491Y-44576D02*
X43956Y-45041D01*
X43491Y-44006D02*
X43956Y-43541D01*
X43492Y-44007D02*
X43468Y-44032D01*
X43446Y-44060D01*
X43427Y-44090D01*
X43411Y-44121D01*
X43398Y-44154D01*
X43387Y-44187D01*
X43380Y-44222D01*
X43375Y-44256D01*
X43373Y-44291D01*
X43375Y-44326D01*
X43380Y-44360D01*
X43387Y-44395D01*
X43398Y-44428D01*
X43411Y-44461D01*
X43427Y-44492D01*
X43446Y-44522D01*
X43468Y-44550D01*
X43492Y-44575D01*
X47176Y-43916D02*
X47176Y-44666D01*
X46801Y-45041D02*
X46833Y-45039D01*
X46866Y-45035D01*
X46898Y-45028D01*
X46929Y-45018D01*
X46959Y-45005D01*
X46988Y-44990D01*
X47016Y-44973D01*
X47042Y-44953D01*
X47066Y-44931D01*
X47088Y-44907D01*
X47108Y-44881D01*
X47125Y-44853D01*
X47140Y-44824D01*
X47153Y-44794D01*
X47163Y-44763D01*
X47170Y-44731D01*
X47174Y-44698D01*
X47176Y-44666D01*
X47176Y-43916D02*
X47174Y-43884D01*
X47170Y-43851D01*
X47163Y-43819D01*
X47153Y-43788D01*
X47140Y-43758D01*
X47125Y-43729D01*
X47108Y-43701D01*
X47088Y-43675D01*
X47066Y-43651D01*
X47042Y-43629D01*
X47016Y-43609D01*
X46988Y-43592D01*
X46959Y-43577D01*
X46929Y-43564D01*
X46898Y-43554D01*
X46866Y-43547D01*
X46833Y-43543D01*
X46801Y-43541D01*
X47726Y-43691D02*
X47726Y-44891D01*
X42826Y-44891D02*
X42826Y-43691D01*
X47726Y-43691D02*
X47723Y-43639D01*
X47716Y-43587D01*
X47705Y-43536D01*
X47689Y-43486D01*
X47669Y-43438D01*
X47645Y-43392D01*
X47617Y-43347D01*
X47585Y-43306D01*
X47550Y-43267D01*
X47511Y-43232D01*
X47470Y-43200D01*
X47426Y-43172D01*
X47379Y-43148D01*
X47331Y-43128D01*
X47281Y-43112D01*
X47230Y-43101D01*
X47178Y-43094D01*
X47126Y-43091D01*
X47126Y-45491D02*
X47178Y-45488D01*
X47230Y-45481D01*
X47281Y-45470D01*
X47331Y-45454D01*
X47379Y-45434D01*
X47426Y-45410D01*
X47470Y-45382D01*
X47511Y-45350D01*
X47550Y-45315D01*
X47585Y-45276D01*
X47617Y-45235D01*
X47645Y-45190D01*
X47669Y-45144D01*
X47689Y-45096D01*
X47705Y-45046D01*
X47716Y-44995D01*
X47723Y-44943D01*
X47726Y-44891D01*
X42826Y-44891D02*
X42829Y-44943D01*
X42836Y-44995D01*
X42847Y-45046D01*
X42863Y-45096D01*
X42883Y-45144D01*
X42907Y-45190D01*
X42935Y-45235D01*
X42967Y-45276D01*
X43002Y-45315D01*
X43041Y-45350D01*
X43082Y-45382D01*
X43127Y-45410D01*
X43173Y-45434D01*
X43221Y-45454D01*
X43271Y-45470D01*
X43322Y-45481D01*
X43374Y-45488D01*
X43426Y-45491D01*
X43426Y-43091D02*
X43374Y-43094D01*
X43322Y-43101D01*
X43271Y-43112D01*
X43221Y-43128D01*
X43173Y-43148D01*
X43127Y-43172D01*
X43082Y-43200D01*
X43041Y-43232D01*
X43002Y-43267D01*
X42967Y-43306D01*
X42935Y-43347D01*
X42907Y-43392D01*
X42883Y-43438D01*
X42863Y-43486D01*
X42847Y-43536D01*
X42836Y-43587D01*
X42829Y-43639D01*
X42826Y-43691D01*
X52706Y-45041D02*
X49861Y-45041D01*
X52706Y-43541D02*
X49861Y-43541D01*
X49396Y-44576D02*
X49861Y-45041D01*
X49396Y-44006D02*
X49861Y-43541D01*
X49397Y-44007D02*
X49373Y-44032D01*
X49351Y-44060D01*
X49332Y-44090D01*
X49316Y-44121D01*
X49303Y-44154D01*
X49292Y-44187D01*
X49285Y-44222D01*
X49280Y-44256D01*
X49278Y-44291D01*
X49280Y-44326D01*
X49285Y-44360D01*
X49292Y-44395D01*
X49303Y-44428D01*
X49316Y-44461D01*
X49332Y-44492D01*
X49351Y-44522D01*
X49373Y-44550D01*
X49397Y-44575D01*
X53081Y-43916D02*
X53081Y-44666D01*
X52706Y-45041D02*
X52738Y-45039D01*
X52771Y-45035D01*
X52803Y-45028D01*
X52834Y-45018D01*
X52864Y-45005D01*
X52893Y-44990D01*
X52921Y-44973D01*
X52947Y-44953D01*
X52971Y-44931D01*
X52993Y-44907D01*
X53013Y-44881D01*
X53030Y-44853D01*
X53045Y-44824D01*
X53058Y-44794D01*
X53068Y-44763D01*
X53075Y-44731D01*
X53079Y-44698D01*
X53081Y-44666D01*
X53081Y-43916D02*
X53079Y-43884D01*
X53075Y-43851D01*
X53068Y-43819D01*
X53058Y-43788D01*
X53045Y-43758D01*
X53030Y-43729D01*
X53013Y-43701D01*
X52993Y-43675D01*
X52971Y-43651D01*
X52947Y-43629D01*
X52921Y-43609D01*
X52893Y-43592D01*
X52864Y-43577D01*
X52834Y-43564D01*
X52803Y-43554D01*
X52771Y-43547D01*
X52738Y-43543D01*
X52706Y-43541D01*
X47176Y-50683D02*
X43376Y-50683D01*
X47126Y-50413D02*
X43426Y-50413D01*
X46801Y-49963D02*
X43956Y-49963D01*
X46801Y-48463D02*
X43956Y-48463D01*
X47126Y-48013D02*
X43426Y-48013D01*
X47176Y-47743D02*
X43376Y-47743D01*
X43491Y-49498D02*
X43956Y-49963D01*
X43491Y-48928D02*
X43956Y-48463D01*
X43492Y-48929D02*
X43468Y-48954D01*
X43446Y-48982D01*
X43427Y-49012D01*
X43411Y-49043D01*
X43398Y-49076D01*
X43387Y-49109D01*
X43380Y-49144D01*
X43375Y-49178D01*
X43373Y-49213D01*
X43375Y-49248D01*
X43380Y-49282D01*
X43387Y-49317D01*
X43398Y-49350D01*
X43411Y-49383D01*
X43427Y-49414D01*
X43446Y-49444D01*
X43468Y-49472D01*
X43492Y-49497D01*
X47176Y-50683D02*
X47176Y-50413D01*
X43376Y-50683D02*
X43376Y-50413D01*
X47176Y-47743D02*
X47176Y-48013D01*
X43376Y-47743D02*
X43376Y-48013D01*
X47176Y-48838D02*
X47176Y-49588D01*
X46801Y-49963D02*
X46833Y-49961D01*
X46866Y-49957D01*
X46898Y-49950D01*
X46929Y-49940D01*
X46959Y-49927D01*
X46988Y-49912D01*
X47016Y-49895D01*
X47042Y-49875D01*
X47066Y-49853D01*
X47088Y-49829D01*
X47108Y-49803D01*
X47125Y-49775D01*
X47140Y-49746D01*
X47153Y-49716D01*
X47163Y-49685D01*
X47170Y-49653D01*
X47174Y-49620D01*
X47176Y-49588D01*
X47176Y-48838D02*
X47174Y-48806D01*
X47170Y-48773D01*
X47163Y-48741D01*
X47153Y-48710D01*
X47140Y-48680D01*
X47125Y-48651D01*
X47108Y-48623D01*
X47088Y-48597D01*
X47066Y-48573D01*
X47042Y-48551D01*
X47016Y-48531D01*
X46988Y-48514D01*
X46959Y-48499D01*
X46929Y-48486D01*
X46898Y-48476D01*
X46866Y-48469D01*
X46833Y-48465D01*
X46801Y-48463D01*
X47726Y-48613D02*
X47726Y-49813D01*
X42826Y-49813D02*
X42826Y-48613D01*
X47726Y-48613D02*
X47723Y-48561D01*
X47716Y-48509D01*
X47705Y-48458D01*
X47689Y-48408D01*
X47669Y-48360D01*
X47645Y-48314D01*
X47617Y-48269D01*
X47585Y-48228D01*
X47550Y-48189D01*
X47511Y-48154D01*
X47470Y-48122D01*
X47426Y-48094D01*
X47379Y-48070D01*
X47331Y-48050D01*
X47281Y-48034D01*
X47230Y-48023D01*
X47178Y-48016D01*
X47126Y-48013D01*
X47126Y-50413D02*
X47178Y-50410D01*
X47230Y-50403D01*
X47281Y-50392D01*
X47331Y-50376D01*
X47379Y-50356D01*
X47426Y-50332D01*
X47470Y-50304D01*
X47511Y-50272D01*
X47550Y-50237D01*
X47585Y-50198D01*
X47617Y-50157D01*
X47645Y-50112D01*
X47669Y-50066D01*
X47689Y-50018D01*
X47705Y-49968D01*
X47716Y-49917D01*
X47723Y-49865D01*
X47726Y-49813D01*
X42826Y-49813D02*
X42829Y-49865D01*
X42836Y-49917D01*
X42847Y-49968D01*
X42863Y-50018D01*
X42883Y-50066D01*
X42907Y-50112D01*
X42935Y-50157D01*
X42967Y-50198D01*
X43002Y-50237D01*
X43041Y-50272D01*
X43082Y-50304D01*
X43127Y-50332D01*
X43173Y-50356D01*
X43221Y-50376D01*
X43271Y-50392D01*
X43322Y-50403D01*
X43374Y-50410D01*
X43426Y-50413D01*
X43426Y-48013D02*
X43374Y-48016D01*
X43322Y-48023D01*
X43271Y-48034D01*
X43221Y-48050D01*
X43173Y-48070D01*
X43127Y-48094D01*
X43082Y-48122D01*
X43041Y-48154D01*
X43002Y-48189D01*
X42967Y-48228D01*
X42935Y-48269D01*
X42907Y-48314D01*
X42883Y-48360D01*
X42863Y-48408D01*
X42847Y-48458D01*
X42836Y-48509D01*
X42829Y-48561D01*
X42826Y-48613D01*
X52706Y-49963D02*
X49861Y-49963D01*
X52706Y-48463D02*
X49861Y-48463D01*
X49396Y-49498D02*
X49861Y-49963D01*
X49396Y-48928D02*
X49861Y-48463D01*
X49397Y-48929D02*
X49373Y-48954D01*
X49351Y-48982D01*
X49332Y-49012D01*
X49316Y-49043D01*
X49303Y-49076D01*
X49292Y-49109D01*
X49285Y-49144D01*
X49280Y-49178D01*
X49278Y-49213D01*
X49280Y-49248D01*
X49285Y-49282D01*
X49292Y-49317D01*
X49303Y-49350D01*
X49316Y-49383D01*
X49332Y-49414D01*
X49351Y-49444D01*
X49373Y-49472D01*
X49397Y-49497D01*
X53081Y-48838D02*
X53081Y-49588D01*
X52706Y-49963D02*
X52738Y-49961D01*
X52771Y-49957D01*
X52803Y-49950D01*
X52834Y-49940D01*
X52864Y-49927D01*
X52893Y-49912D01*
X52921Y-49895D01*
X52947Y-49875D01*
X52971Y-49853D01*
X52993Y-49829D01*
X53013Y-49803D01*
X53030Y-49775D01*
X53045Y-49746D01*
X53058Y-49716D01*
X53068Y-49685D01*
X53075Y-49653D01*
X53079Y-49620D01*
X53081Y-49588D01*
X53081Y-48838D02*
X53079Y-48806D01*
X53075Y-48773D01*
X53068Y-48741D01*
X53058Y-48710D01*
X53045Y-48680D01*
X53030Y-48651D01*
X53013Y-48623D01*
X52993Y-48597D01*
X52971Y-48573D01*
X52947Y-48551D01*
X52921Y-48531D01*
X52893Y-48514D01*
X52864Y-48499D01*
X52834Y-48486D01*
X52803Y-48476D01*
X52771Y-48469D01*
X52738Y-48465D01*
X52706Y-48463D01*
X43530Y-32823D02*
X43701Y-32823D01*
X43616Y-33121D02*
X43616Y-32823D01*
X43970Y-33092D02*
X43956Y-33106D01*
X43913Y-33121D01*
X43885Y-33121D01*
X43843Y-33106D01*
X43814Y-33078D01*
X43800Y-33050D01*
X43786Y-32993D01*
X43786Y-32950D01*
X43800Y-32894D01*
X43814Y-32865D01*
X43843Y-32837D01*
X43885Y-32823D01*
X43913Y-32823D01*
X43956Y-32837D01*
X43970Y-32851D01*
X44084Y-32851D02*
X44098Y-32837D01*
X44126Y-32823D01*
X44197Y-32823D01*
X44226Y-32837D01*
X44240Y-32851D01*
X44254Y-32879D01*
X44254Y-32908D01*
X44240Y-32950D01*
X44070Y-33121D01*
X44254Y-33121D01*
X44439Y-32823D02*
X44467Y-32823D01*
X44495Y-32837D01*
X44510Y-32851D01*
X44524Y-32879D01*
X44538Y-32936D01*
X44538Y-33007D01*
X44524Y-33064D01*
X44510Y-33092D01*
X44495Y-33106D01*
X44467Y-33121D01*
X44439Y-33121D01*
X44410Y-33106D01*
X44396Y-33092D01*
X44382Y-33064D01*
X44368Y-33007D01*
X44368Y-32936D01*
X44382Y-32879D01*
X44396Y-32851D01*
X44410Y-32837D01*
X44439Y-32823D01*
X44638Y-32823D02*
X44822Y-32823D01*
X44723Y-32936D01*
X44765Y-32936D01*
X44794Y-32950D01*
X44808Y-32965D01*
X44822Y-32993D01*
X44822Y-33064D01*
X44808Y-33092D01*
X44794Y-33106D01*
X44765Y-33121D01*
X44680Y-33121D01*
X44652Y-33106D01*
X44638Y-33092D01*
X45007Y-32823D02*
X45035Y-32823D01*
X45063Y-32837D01*
X45078Y-32851D01*
X45092Y-32879D01*
X45106Y-32936D01*
X45106Y-33007D01*
X45092Y-33064D01*
X45078Y-33092D01*
X45063Y-33106D01*
X45035Y-33121D01*
X45007Y-33121D01*
X44978Y-33106D01*
X44964Y-33092D01*
X44950Y-33064D01*
X44936Y-33007D01*
X44936Y-32936D01*
X44950Y-32879D01*
X44964Y-32851D01*
X44978Y-32837D01*
X45007Y-32823D01*
X45234Y-33007D02*
X45461Y-33007D01*
X45603Y-33121D02*
X45603Y-32823D01*
X45773Y-33121D01*
X45773Y-32823D01*
X46057Y-33121D02*
X45915Y-33121D01*
X45915Y-32823D01*
X46085Y-33149D02*
X46312Y-33149D01*
X46482Y-32965D02*
X46525Y-32979D01*
X46539Y-32993D01*
X46553Y-33021D01*
X46553Y-33064D01*
X46539Y-33092D01*
X46525Y-33106D01*
X46496Y-33121D01*
X46383Y-33121D01*
X46383Y-32823D01*
X46482Y-32823D01*
X46511Y-32837D01*
X46525Y-32851D01*
X46539Y-32879D01*
X46539Y-32908D01*
X46525Y-32936D01*
X46511Y-32950D01*
X46482Y-32965D01*
X46383Y-32965D01*
X46681Y-33121D02*
X46681Y-32823D01*
X46979Y-32837D02*
X46951Y-32823D01*
X46908Y-32823D01*
X46866Y-32837D01*
X46837Y-32865D01*
X46823Y-32894D01*
X46809Y-32950D01*
X46809Y-32993D01*
X46823Y-33050D01*
X46837Y-33078D01*
X46866Y-33106D01*
X46908Y-33121D01*
X46936Y-33121D01*
X46979Y-33106D01*
X46993Y-33092D01*
X46993Y-32993D01*
X46936Y-32993D01*
X49123Y-33272D02*
X49294Y-33272D01*
X49209Y-33570D02*
X49209Y-33272D01*
X49563Y-33541D02*
X49549Y-33555D01*
X49506Y-33570D01*
X49478Y-33570D01*
X49436Y-33555D01*
X49407Y-33527D01*
X49393Y-33499D01*
X49379Y-33442D01*
X49379Y-33399D01*
X49393Y-33343D01*
X49407Y-33314D01*
X49436Y-33286D01*
X49478Y-33272D01*
X49506Y-33272D01*
X49549Y-33286D01*
X49563Y-33300D01*
X49677Y-33300D02*
X49691Y-33286D01*
X49719Y-33272D01*
X49790Y-33272D01*
X49819Y-33286D01*
X49833Y-33300D01*
X49847Y-33328D01*
X49847Y-33357D01*
X49833Y-33399D01*
X49663Y-33570D01*
X49847Y-33570D01*
X50032Y-33272D02*
X50060Y-33272D01*
X50088Y-33286D01*
X50103Y-33300D01*
X50117Y-33328D01*
X50131Y-33385D01*
X50131Y-33456D01*
X50117Y-33513D01*
X50103Y-33541D01*
X50088Y-33555D01*
X50060Y-33570D01*
X50032Y-33570D01*
X50003Y-33555D01*
X49989Y-33541D01*
X49975Y-33513D01*
X49961Y-33456D01*
X49961Y-33385D01*
X49975Y-33328D01*
X49989Y-33300D01*
X50003Y-33286D01*
X50032Y-33272D01*
X50231Y-33272D02*
X50415Y-33272D01*
X50316Y-33385D01*
X50358Y-33385D01*
X50387Y-33399D01*
X50401Y-33414D01*
X50415Y-33442D01*
X50415Y-33513D01*
X50401Y-33541D01*
X50387Y-33555D01*
X50358Y-33570D01*
X50273Y-33570D01*
X50245Y-33555D01*
X50231Y-33541D01*
X50600Y-33272D02*
X50628Y-33272D01*
X50656Y-33286D01*
X50671Y-33300D01*
X50685Y-33328D01*
X50699Y-33385D01*
X50699Y-33456D01*
X50685Y-33513D01*
X50671Y-33541D01*
X50656Y-33555D01*
X50628Y-33570D01*
X50600Y-33570D01*
X50571Y-33555D01*
X50557Y-33541D01*
X50543Y-33513D01*
X50529Y-33456D01*
X50529Y-33385D01*
X50543Y-33328D01*
X50557Y-33300D01*
X50571Y-33286D01*
X50600Y-33272D01*
X50827Y-33456D02*
X51054Y-33456D01*
X51196Y-33570D02*
X51196Y-33272D01*
X51366Y-33570D01*
X51366Y-33272D01*
X51650Y-33570D02*
X51508Y-33570D01*
X51508Y-33272D01*
X51678Y-33598D02*
X51905Y-33598D01*
X51962Y-33555D02*
X52004Y-33570D01*
X52075Y-33570D01*
X52104Y-33555D01*
X52118Y-33541D01*
X52132Y-33513D01*
X52132Y-33484D01*
X52118Y-33456D01*
X52104Y-33442D01*
X52075Y-33428D01*
X52019Y-33414D01*
X51990Y-33399D01*
X51976Y-33385D01*
X51962Y-33357D01*
X51962Y-33328D01*
X51976Y-33300D01*
X51990Y-33286D01*
X52019Y-33272D01*
X52089Y-33272D01*
X52132Y-33286D01*
X52260Y-33570D02*
X52260Y-33272D01*
X52359Y-33484D01*
X52459Y-33272D01*
X52459Y-33570D01*
X52587Y-33484D02*
X52729Y-33484D01*
X52558Y-33570D02*
X52658Y-33272D01*
X52757Y-33570D01*
X52998Y-33570D02*
X52856Y-33570D01*
X52856Y-33272D01*
X53239Y-33570D02*
X53097Y-33570D01*
X53097Y-33272D01*
X43991Y-37145D02*
X44162Y-37145D01*
X44077Y-37443D02*
X44077Y-37145D01*
X44431Y-37414D02*
X44417Y-37428D01*
X44374Y-37443D01*
X44346Y-37443D01*
X44304Y-37428D01*
X44275Y-37400D01*
X44261Y-37372D01*
X44247Y-37315D01*
X44247Y-37272D01*
X44261Y-37216D01*
X44275Y-37187D01*
X44304Y-37159D01*
X44346Y-37145D01*
X44374Y-37145D01*
X44417Y-37159D01*
X44431Y-37173D01*
X44545Y-37173D02*
X44559Y-37159D01*
X44587Y-37145D01*
X44658Y-37145D01*
X44687Y-37159D01*
X44701Y-37173D01*
X44715Y-37201D01*
X44715Y-37230D01*
X44701Y-37272D01*
X44531Y-37443D01*
X44715Y-37443D01*
X44900Y-37145D02*
X44928Y-37145D01*
X44956Y-37159D01*
X44971Y-37173D01*
X44985Y-37201D01*
X44999Y-37258D01*
X44999Y-37329D01*
X44985Y-37386D01*
X44971Y-37414D01*
X44956Y-37428D01*
X44928Y-37443D01*
X44900Y-37443D01*
X44871Y-37428D01*
X44857Y-37414D01*
X44843Y-37386D01*
X44829Y-37329D01*
X44829Y-37258D01*
X44843Y-37201D01*
X44857Y-37173D01*
X44871Y-37159D01*
X44900Y-37145D01*
X45099Y-37145D02*
X45283Y-37145D01*
X45184Y-37258D01*
X45226Y-37258D01*
X45255Y-37272D01*
X45269Y-37287D01*
X45283Y-37315D01*
X45283Y-37386D01*
X45269Y-37414D01*
X45255Y-37428D01*
X45226Y-37443D01*
X45141Y-37443D01*
X45113Y-37428D01*
X45099Y-37414D01*
X45468Y-37145D02*
X45496Y-37145D01*
X45524Y-37159D01*
X45539Y-37173D01*
X45553Y-37201D01*
X45567Y-37258D01*
X45567Y-37329D01*
X45553Y-37386D01*
X45539Y-37414D01*
X45524Y-37428D01*
X45496Y-37443D01*
X45468Y-37443D01*
X45439Y-37428D01*
X45425Y-37414D01*
X45411Y-37386D01*
X45397Y-37329D01*
X45397Y-37258D01*
X45411Y-37201D01*
X45425Y-37173D01*
X45439Y-37159D01*
X45468Y-37145D01*
X45624Y-37471D02*
X45851Y-37471D01*
X46021Y-37287D02*
X46064Y-37301D01*
X46078Y-37315D01*
X46092Y-37343D01*
X46092Y-37386D01*
X46078Y-37414D01*
X46064Y-37428D01*
X46035Y-37443D01*
X45922Y-37443D01*
X45922Y-37145D01*
X46021Y-37145D01*
X46050Y-37159D01*
X46064Y-37173D01*
X46078Y-37201D01*
X46078Y-37230D01*
X46064Y-37258D01*
X46050Y-37272D01*
X46021Y-37287D01*
X45922Y-37287D01*
X46220Y-37443D02*
X46220Y-37145D01*
X46518Y-37159D02*
X46490Y-37145D01*
X46447Y-37145D01*
X46405Y-37159D01*
X46376Y-37187D01*
X46362Y-37216D01*
X46348Y-37272D01*
X46348Y-37315D01*
X46362Y-37372D01*
X46376Y-37400D01*
X46405Y-37428D01*
X46447Y-37443D01*
X46475Y-37443D01*
X46518Y-37428D01*
X46532Y-37414D01*
X46532Y-37315D01*
X46475Y-37315D01*
X49584Y-37145D02*
X49755Y-37145D01*
X49670Y-37443D02*
X49670Y-37145D01*
X50024Y-37414D02*
X50010Y-37428D01*
X49967Y-37443D01*
X49939Y-37443D01*
X49897Y-37428D01*
X49868Y-37400D01*
X49854Y-37372D01*
X49840Y-37315D01*
X49840Y-37272D01*
X49854Y-37216D01*
X49868Y-37187D01*
X49897Y-37159D01*
X49939Y-37145D01*
X49967Y-37145D01*
X50010Y-37159D01*
X50024Y-37173D01*
X50138Y-37173D02*
X50152Y-37159D01*
X50180Y-37145D01*
X50251Y-37145D01*
X50280Y-37159D01*
X50294Y-37173D01*
X50308Y-37201D01*
X50308Y-37230D01*
X50294Y-37272D01*
X50124Y-37443D01*
X50308Y-37443D01*
X50493Y-37145D02*
X50521Y-37145D01*
X50549Y-37159D01*
X50564Y-37173D01*
X50578Y-37201D01*
X50592Y-37258D01*
X50592Y-37329D01*
X50578Y-37386D01*
X50564Y-37414D01*
X50549Y-37428D01*
X50521Y-37443D01*
X50493Y-37443D01*
X50464Y-37428D01*
X50450Y-37414D01*
X50436Y-37386D01*
X50422Y-37329D01*
X50422Y-37258D01*
X50436Y-37201D01*
X50450Y-37173D01*
X50464Y-37159D01*
X50493Y-37145D01*
X50692Y-37145D02*
X50876Y-37145D01*
X50777Y-37258D01*
X50819Y-37258D01*
X50848Y-37272D01*
X50862Y-37287D01*
X50876Y-37315D01*
X50876Y-37386D01*
X50862Y-37414D01*
X50848Y-37428D01*
X50819Y-37443D01*
X50734Y-37443D01*
X50706Y-37428D01*
X50692Y-37414D01*
X51061Y-37145D02*
X51089Y-37145D01*
X51117Y-37159D01*
X51132Y-37173D01*
X51146Y-37201D01*
X51160Y-37258D01*
X51160Y-37329D01*
X51146Y-37386D01*
X51132Y-37414D01*
X51117Y-37428D01*
X51089Y-37443D01*
X51061Y-37443D01*
X51032Y-37428D01*
X51018Y-37414D01*
X51004Y-37386D01*
X50990Y-37329D01*
X50990Y-37258D01*
X51004Y-37201D01*
X51018Y-37173D01*
X51032Y-37159D01*
X51061Y-37145D01*
X51217Y-37471D02*
X51444Y-37471D01*
X51501Y-37428D02*
X51543Y-37443D01*
X51614Y-37443D01*
X51643Y-37428D01*
X51657Y-37414D01*
X51671Y-37386D01*
X51671Y-37357D01*
X51657Y-37329D01*
X51643Y-37315D01*
X51614Y-37301D01*
X51558Y-37287D01*
X51529Y-37272D01*
X51515Y-37258D01*
X51501Y-37230D01*
X51501Y-37201D01*
X51515Y-37173D01*
X51529Y-37159D01*
X51558Y-37145D01*
X51628Y-37145D01*
X51671Y-37159D01*
X51799Y-37443D02*
X51799Y-37145D01*
X51898Y-37357D01*
X51998Y-37145D01*
X51998Y-37443D01*
X52126Y-37357D02*
X52268Y-37357D01*
X52097Y-37443D02*
X52197Y-37145D01*
X52296Y-37443D01*
X52537Y-37443D02*
X52395Y-37443D01*
X52395Y-37145D01*
X52778Y-37443D02*
X52636Y-37443D01*
X52636Y-37145D01*
X43530Y-42665D02*
X43701Y-42665D01*
X43616Y-42963D02*
X43616Y-42665D01*
X43970Y-42934D02*
X43956Y-42948D01*
X43913Y-42963D01*
X43885Y-42963D01*
X43843Y-42948D01*
X43814Y-42920D01*
X43800Y-42892D01*
X43786Y-42835D01*
X43786Y-42792D01*
X43800Y-42736D01*
X43814Y-42707D01*
X43843Y-42679D01*
X43885Y-42665D01*
X43913Y-42665D01*
X43956Y-42679D01*
X43970Y-42693D01*
X44084Y-42693D02*
X44098Y-42679D01*
X44126Y-42665D01*
X44197Y-42665D01*
X44226Y-42679D01*
X44240Y-42693D01*
X44254Y-42721D01*
X44254Y-42750D01*
X44240Y-42792D01*
X44070Y-42963D01*
X44254Y-42963D01*
X44439Y-42665D02*
X44467Y-42665D01*
X44495Y-42679D01*
X44510Y-42693D01*
X44524Y-42721D01*
X44538Y-42778D01*
X44538Y-42849D01*
X44524Y-42906D01*
X44510Y-42934D01*
X44495Y-42948D01*
X44467Y-42963D01*
X44439Y-42963D01*
X44410Y-42948D01*
X44396Y-42934D01*
X44382Y-42906D01*
X44368Y-42849D01*
X44368Y-42778D01*
X44382Y-42721D01*
X44396Y-42693D01*
X44410Y-42679D01*
X44439Y-42665D01*
X44808Y-42665D02*
X44666Y-42665D01*
X44652Y-42807D01*
X44666Y-42792D01*
X44694Y-42778D01*
X44765Y-42778D01*
X44794Y-42792D01*
X44808Y-42807D01*
X44822Y-42835D01*
X44822Y-42906D01*
X44808Y-42934D01*
X44794Y-42948D01*
X44765Y-42963D01*
X44694Y-42963D01*
X44666Y-42948D01*
X44652Y-42934D01*
X45007Y-42665D02*
X45035Y-42665D01*
X45063Y-42679D01*
X45078Y-42693D01*
X45092Y-42721D01*
X45106Y-42778D01*
X45106Y-42849D01*
X45092Y-42906D01*
X45078Y-42934D01*
X45063Y-42948D01*
X45035Y-42963D01*
X45007Y-42963D01*
X44978Y-42948D01*
X44964Y-42934D01*
X44950Y-42906D01*
X44936Y-42849D01*
X44936Y-42778D01*
X44950Y-42721D01*
X44964Y-42693D01*
X44978Y-42679D01*
X45007Y-42665D01*
X45234Y-42849D02*
X45461Y-42849D01*
X45603Y-42963D02*
X45603Y-42665D01*
X45773Y-42963D01*
X45773Y-42665D01*
X46057Y-42963D02*
X45915Y-42963D01*
X45915Y-42665D01*
X46085Y-42991D02*
X46312Y-42991D01*
X46482Y-42807D02*
X46525Y-42821D01*
X46539Y-42835D01*
X46553Y-42863D01*
X46553Y-42906D01*
X46539Y-42934D01*
X46525Y-42948D01*
X46496Y-42963D01*
X46383Y-42963D01*
X46383Y-42665D01*
X46482Y-42665D01*
X46511Y-42679D01*
X46525Y-42693D01*
X46539Y-42721D01*
X46539Y-42750D01*
X46525Y-42778D01*
X46511Y-42792D01*
X46482Y-42807D01*
X46383Y-42807D01*
X46681Y-42963D02*
X46681Y-42665D01*
X46979Y-42679D02*
X46951Y-42665D01*
X46908Y-42665D01*
X46866Y-42679D01*
X46837Y-42707D01*
X46823Y-42736D01*
X46809Y-42792D01*
X46809Y-42835D01*
X46823Y-42892D01*
X46837Y-42920D01*
X46866Y-42948D01*
X46908Y-42963D01*
X46936Y-42963D01*
X46979Y-42948D01*
X46993Y-42934D01*
X46993Y-42835D01*
X46936Y-42835D01*
X49123Y-43114D02*
X49294Y-43114D01*
X49209Y-43412D02*
X49209Y-43114D01*
X49563Y-43383D02*
X49549Y-43397D01*
X49506Y-43412D01*
X49478Y-43412D01*
X49436Y-43397D01*
X49407Y-43369D01*
X49393Y-43341D01*
X49379Y-43284D01*
X49379Y-43241D01*
X49393Y-43185D01*
X49407Y-43156D01*
X49436Y-43128D01*
X49478Y-43114D01*
X49506Y-43114D01*
X49549Y-43128D01*
X49563Y-43142D01*
X49677Y-43142D02*
X49691Y-43128D01*
X49719Y-43114D01*
X49790Y-43114D01*
X49819Y-43128D01*
X49833Y-43142D01*
X49847Y-43170D01*
X49847Y-43199D01*
X49833Y-43241D01*
X49663Y-43412D01*
X49847Y-43412D01*
X50032Y-43114D02*
X50060Y-43114D01*
X50088Y-43128D01*
X50103Y-43142D01*
X50117Y-43170D01*
X50131Y-43227D01*
X50131Y-43298D01*
X50117Y-43355D01*
X50103Y-43383D01*
X50088Y-43397D01*
X50060Y-43412D01*
X50032Y-43412D01*
X50003Y-43397D01*
X49989Y-43383D01*
X49975Y-43355D01*
X49961Y-43298D01*
X49961Y-43227D01*
X49975Y-43170D01*
X49989Y-43142D01*
X50003Y-43128D01*
X50032Y-43114D01*
X50401Y-43114D02*
X50259Y-43114D01*
X50245Y-43256D01*
X50259Y-43241D01*
X50287Y-43227D01*
X50358Y-43227D01*
X50387Y-43241D01*
X50401Y-43256D01*
X50415Y-43284D01*
X50415Y-43355D01*
X50401Y-43383D01*
X50387Y-43397D01*
X50358Y-43412D01*
X50287Y-43412D01*
X50259Y-43397D01*
X50245Y-43383D01*
X50600Y-43114D02*
X50628Y-43114D01*
X50656Y-43128D01*
X50671Y-43142D01*
X50685Y-43170D01*
X50699Y-43227D01*
X50699Y-43298D01*
X50685Y-43355D01*
X50671Y-43383D01*
X50656Y-43397D01*
X50628Y-43412D01*
X50600Y-43412D01*
X50571Y-43397D01*
X50557Y-43383D01*
X50543Y-43355D01*
X50529Y-43298D01*
X50529Y-43227D01*
X50543Y-43170D01*
X50557Y-43142D01*
X50571Y-43128D01*
X50600Y-43114D01*
X50827Y-43298D02*
X51054Y-43298D01*
X51196Y-43412D02*
X51196Y-43114D01*
X51366Y-43412D01*
X51366Y-43114D01*
X51650Y-43412D02*
X51508Y-43412D01*
X51508Y-43114D01*
X51678Y-43440D02*
X51905Y-43440D01*
X51962Y-43397D02*
X52004Y-43412D01*
X52075Y-43412D01*
X52104Y-43397D01*
X52118Y-43383D01*
X52132Y-43355D01*
X52132Y-43326D01*
X52118Y-43298D01*
X52104Y-43284D01*
X52075Y-43270D01*
X52019Y-43256D01*
X51990Y-43241D01*
X51976Y-43227D01*
X51962Y-43199D01*
X51962Y-43170D01*
X51976Y-43142D01*
X51990Y-43128D01*
X52019Y-43114D01*
X52089Y-43114D01*
X52132Y-43128D01*
X52260Y-43412D02*
X52260Y-43114D01*
X52359Y-43326D01*
X52459Y-43114D01*
X52459Y-43412D01*
X52587Y-43326D02*
X52729Y-43326D01*
X52558Y-43412D02*
X52658Y-43114D01*
X52757Y-43412D01*
X52998Y-43412D02*
X52856Y-43412D01*
X52856Y-43114D01*
X53239Y-43412D02*
X53097Y-43412D01*
X53097Y-43114D01*
X43991Y-46988D02*
X44162Y-46988D01*
X44077Y-47286D02*
X44077Y-46988D01*
X44431Y-47257D02*
X44417Y-47271D01*
X44374Y-47286D01*
X44346Y-47286D01*
X44304Y-47271D01*
X44275Y-47243D01*
X44261Y-47215D01*
X44247Y-47158D01*
X44247Y-47115D01*
X44261Y-47059D01*
X44275Y-47030D01*
X44304Y-47002D01*
X44346Y-46988D01*
X44374Y-46988D01*
X44417Y-47002D01*
X44431Y-47016D01*
X44545Y-47016D02*
X44559Y-47002D01*
X44587Y-46988D01*
X44658Y-46988D01*
X44687Y-47002D01*
X44701Y-47016D01*
X44715Y-47044D01*
X44715Y-47073D01*
X44701Y-47115D01*
X44531Y-47286D01*
X44715Y-47286D01*
X44900Y-46988D02*
X44928Y-46988D01*
X44956Y-47002D01*
X44971Y-47016D01*
X44985Y-47044D01*
X44999Y-47101D01*
X44999Y-47172D01*
X44985Y-47229D01*
X44971Y-47257D01*
X44956Y-47271D01*
X44928Y-47286D01*
X44900Y-47286D01*
X44871Y-47271D01*
X44857Y-47257D01*
X44843Y-47229D01*
X44829Y-47172D01*
X44829Y-47101D01*
X44843Y-47044D01*
X44857Y-47016D01*
X44871Y-47002D01*
X44900Y-46988D01*
X45269Y-46988D02*
X45127Y-46988D01*
X45113Y-47130D01*
X45127Y-47115D01*
X45155Y-47101D01*
X45226Y-47101D01*
X45255Y-47115D01*
X45269Y-47130D01*
X45283Y-47158D01*
X45283Y-47229D01*
X45269Y-47257D01*
X45255Y-47271D01*
X45226Y-47286D01*
X45155Y-47286D01*
X45127Y-47271D01*
X45113Y-47257D01*
X45468Y-46988D02*
X45496Y-46988D01*
X45524Y-47002D01*
X45539Y-47016D01*
X45553Y-47044D01*
X45567Y-47101D01*
X45567Y-47172D01*
X45553Y-47229D01*
X45539Y-47257D01*
X45524Y-47271D01*
X45496Y-47286D01*
X45468Y-47286D01*
X45439Y-47271D01*
X45425Y-47257D01*
X45411Y-47229D01*
X45397Y-47172D01*
X45397Y-47101D01*
X45411Y-47044D01*
X45425Y-47016D01*
X45439Y-47002D01*
X45468Y-46988D01*
X45624Y-47314D02*
X45851Y-47314D01*
X46021Y-47130D02*
X46064Y-47144D01*
X46078Y-47158D01*
X46092Y-47186D01*
X46092Y-47229D01*
X46078Y-47257D01*
X46064Y-47271D01*
X46035Y-47286D01*
X45922Y-47286D01*
X45922Y-46988D01*
X46021Y-46988D01*
X46050Y-47002D01*
X46064Y-47016D01*
X46078Y-47044D01*
X46078Y-47073D01*
X46064Y-47101D01*
X46050Y-47115D01*
X46021Y-47130D01*
X45922Y-47130D01*
X46220Y-47286D02*
X46220Y-46988D01*
X46518Y-47002D02*
X46490Y-46988D01*
X46447Y-46988D01*
X46405Y-47002D01*
X46376Y-47030D01*
X46362Y-47059D01*
X46348Y-47115D01*
X46348Y-47158D01*
X46362Y-47215D01*
X46376Y-47243D01*
X46405Y-47271D01*
X46447Y-47286D01*
X46475Y-47286D01*
X46518Y-47271D01*
X46532Y-47257D01*
X46532Y-47158D01*
X46475Y-47158D01*
X49584Y-46988D02*
X49755Y-46988D01*
X49670Y-47286D02*
X49670Y-46988D01*
X50024Y-47257D02*
X50010Y-47271D01*
X49967Y-47286D01*
X49939Y-47286D01*
X49897Y-47271D01*
X49868Y-47243D01*
X49854Y-47215D01*
X49840Y-47158D01*
X49840Y-47115D01*
X49854Y-47059D01*
X49868Y-47030D01*
X49897Y-47002D01*
X49939Y-46988D01*
X49967Y-46988D01*
X50010Y-47002D01*
X50024Y-47016D01*
X50138Y-47016D02*
X50152Y-47002D01*
X50180Y-46988D01*
X50251Y-46988D01*
X50280Y-47002D01*
X50294Y-47016D01*
X50308Y-47044D01*
X50308Y-47073D01*
X50294Y-47115D01*
X50124Y-47286D01*
X50308Y-47286D01*
X50493Y-46988D02*
X50521Y-46988D01*
X50549Y-47002D01*
X50564Y-47016D01*
X50578Y-47044D01*
X50592Y-47101D01*
X50592Y-47172D01*
X50578Y-47229D01*
X50564Y-47257D01*
X50549Y-47271D01*
X50521Y-47286D01*
X50493Y-47286D01*
X50464Y-47271D01*
X50450Y-47257D01*
X50436Y-47229D01*
X50422Y-47172D01*
X50422Y-47101D01*
X50436Y-47044D01*
X50450Y-47016D01*
X50464Y-47002D01*
X50493Y-46988D01*
X50862Y-46988D02*
X50720Y-46988D01*
X50706Y-47130D01*
X50720Y-47115D01*
X50748Y-47101D01*
X50819Y-47101D01*
X50848Y-47115D01*
X50862Y-47130D01*
X50876Y-47158D01*
X50876Y-47229D01*
X50862Y-47257D01*
X50848Y-47271D01*
X50819Y-47286D01*
X50748Y-47286D01*
X50720Y-47271D01*
X50706Y-47257D01*
X51061Y-46988D02*
X51089Y-46988D01*
X51117Y-47002D01*
X51132Y-47016D01*
X51146Y-47044D01*
X51160Y-47101D01*
X51160Y-47172D01*
X51146Y-47229D01*
X51132Y-47257D01*
X51117Y-47271D01*
X51089Y-47286D01*
X51061Y-47286D01*
X51032Y-47271D01*
X51018Y-47257D01*
X51004Y-47229D01*
X50990Y-47172D01*
X50990Y-47101D01*
X51004Y-47044D01*
X51018Y-47016D01*
X51032Y-47002D01*
X51061Y-46988D01*
X51217Y-47314D02*
X51444Y-47314D01*
X51501Y-47271D02*
X51543Y-47286D01*
X51614Y-47286D01*
X51643Y-47271D01*
X51657Y-47257D01*
X51671Y-47229D01*
X51671Y-47200D01*
X51657Y-47172D01*
X51643Y-47158D01*
X51614Y-47144D01*
X51558Y-47130D01*
X51529Y-47115D01*
X51515Y-47101D01*
X51501Y-47073D01*
X51501Y-47044D01*
X51515Y-47016D01*
X51529Y-47002D01*
X51558Y-46988D01*
X51628Y-46988D01*
X51671Y-47002D01*
X51799Y-47286D02*
X51799Y-46988D01*
X51898Y-47200D01*
X51998Y-46988D01*
X51998Y-47286D01*
X52126Y-47200D02*
X52268Y-47200D01*
X52097Y-47286D02*
X52197Y-46988D01*
X52296Y-47286D01*
X52537Y-47286D02*
X52395Y-47286D01*
X52395Y-46988D01*
X52778Y-47286D02*
X52636Y-47286D01*
X52636Y-46988D01*
%LPC*%
G54D12*
X44776Y-34699D03*
X44776Y-34199D03*
X45276Y-34699D03*
X45276Y-34199D03*
X45776Y-34699D03*
X45776Y-34199D03*
G54D13*
X44276Y-34449D03*
G54D14*
X46276Y-34049D03*
X46276Y-34849D03*
G54D12*
X50681Y-34699D03*
X50681Y-34199D03*
X51181Y-34699D03*
X51181Y-34199D03*
X51681Y-34699D03*
X51681Y-34199D03*
G54D13*
X50181Y-34449D03*
G54D14*
X52181Y-34049D03*
X52181Y-34849D03*
G54D12*
X44776Y-39620D03*
X44776Y-39120D03*
X45276Y-39620D03*
X45276Y-39120D03*
X45776Y-39620D03*
X45776Y-39120D03*
G54D13*
X44276Y-39370D03*
G54D14*
X46276Y-38970D03*
X46276Y-39770D03*
G54D15*
X44276Y-38370D03*
G54D16*
X45526Y-38370D03*
X44326Y-40370D03*
X45526Y-40370D03*
G54D12*
X50681Y-39620D03*
X50681Y-39120D03*
X51181Y-39620D03*
X51181Y-39120D03*
X51681Y-39620D03*
X51681Y-39120D03*
G54D13*
X50181Y-39370D03*
G54D14*
X52181Y-38970D03*
X52181Y-39770D03*
G54D15*
X50181Y-38370D03*
G54D16*
X51431Y-38370D03*
X50231Y-40370D03*
X51431Y-40370D03*
G54D12*
X46276Y-44041D03*
X46276Y-44541D03*
X45776Y-44041D03*
X45776Y-44541D03*
X44276Y-44541D03*
X44276Y-44041D03*
X44776Y-44541D03*
X44776Y-44041D03*
X45276Y-44541D03*
X45276Y-44041D03*
G54D13*
X43776Y-44291D03*
G54D14*
X46776Y-43891D03*
X46776Y-44691D03*
G54D12*
X52181Y-44041D03*
X52181Y-44541D03*
X51681Y-44041D03*
X51681Y-44541D03*
X50181Y-44541D03*
X50181Y-44041D03*
X50681Y-44541D03*
X50681Y-44041D03*
X51181Y-44541D03*
X51181Y-44041D03*
G54D13*
X49681Y-44291D03*
G54D14*
X52681Y-43891D03*
X52681Y-44691D03*
G54D12*
X46276Y-48963D03*
X46276Y-49463D03*
X45776Y-48963D03*
X45776Y-49463D03*
X44276Y-49463D03*
X44276Y-48963D03*
X44776Y-49463D03*
X44776Y-48963D03*
X45276Y-49463D03*
X45276Y-48963D03*
G54D13*
X43776Y-49213D03*
G54D14*
X46776Y-48813D03*
X46776Y-49613D03*
G54D15*
X43776Y-48213D03*
G54D16*
X46026Y-48213D03*
X43826Y-50213D03*
X46026Y-50213D03*
G54D12*
X52181Y-48963D03*
X52181Y-49463D03*
X51681Y-48963D03*
X51681Y-49463D03*
X50181Y-49463D03*
X50181Y-48963D03*
X50681Y-49463D03*
X50681Y-48963D03*
X51181Y-49463D03*
X51181Y-48963D03*
G54D13*
X49681Y-49213D03*
G54D14*
X52681Y-48813D03*
X52681Y-49613D03*
G54D15*
X49681Y-48213D03*
G54D16*
X51931Y-48213D03*
X49731Y-50213D03*
X51931Y-50213D03*
M02*
