G04 (created by PCBNEW-RS274X (2012-05-18 BZR 3565)-testing) date 5/24/2012 1:48:57 AM*
%MOIN*%
G04 Gerber Fmt 3.4, Leading zero omitted, Abs format*
%FSLAX34Y34*%
G01*
G70*
G90*
G04 APERTURE LIST*
%ADD10C,0.006*%
%ADD11C,0.0309*%
G04 APERTURE END LIST*
G54D10*
G54D11*
X44776Y-34699D03*
X44776Y-34199D03*
X45276Y-34699D03*
X45276Y-34199D03*
X45776Y-34699D03*
X45776Y-34199D03*
X50681Y-34699D03*
X50681Y-34199D03*
X51181Y-34699D03*
X51181Y-34199D03*
X51681Y-34699D03*
X51681Y-34199D03*
X44776Y-39620D03*
X44776Y-39120D03*
X45276Y-39620D03*
X45276Y-39120D03*
X45776Y-39620D03*
X45776Y-39120D03*
X50681Y-39620D03*
X50681Y-39120D03*
X51181Y-39620D03*
X51181Y-39120D03*
X51681Y-39620D03*
X51681Y-39120D03*
X46276Y-44041D03*
X46276Y-44541D03*
X45776Y-44041D03*
X45776Y-44541D03*
X44276Y-44541D03*
X44276Y-44041D03*
X44776Y-44541D03*
X44776Y-44041D03*
X45276Y-44541D03*
X45276Y-44041D03*
X52181Y-44041D03*
X52181Y-44541D03*
X51681Y-44041D03*
X51681Y-44541D03*
X50181Y-44541D03*
X50181Y-44041D03*
X50681Y-44541D03*
X50681Y-44041D03*
X51181Y-44541D03*
X51181Y-44041D03*
X46276Y-48963D03*
X46276Y-49463D03*
X45776Y-48963D03*
X45776Y-49463D03*
X44276Y-49463D03*
X44276Y-48963D03*
X44776Y-49463D03*
X44776Y-48963D03*
X45276Y-49463D03*
X45276Y-48963D03*
X52181Y-48963D03*
X52181Y-49463D03*
X51681Y-48963D03*
X51681Y-49463D03*
X50181Y-49463D03*
X50181Y-48963D03*
X50681Y-49463D03*
X50681Y-48963D03*
X51181Y-49463D03*
X51181Y-48963D03*
M02*
