M48
;DRILL file {KiCad (after 2015-may-01 BZR unknown)-product} date Sun 10 May 2015 22:33:10 EDT
;FORMAT={-:-/ absolute / inch / decimal}
FMAT,2
INCH,TZ
T1C0.016
T2C0.024
T3C0.031
T4C0.032
T5C0.039
T6C0.043
T7C0.050
T8C0.063
%
G90
G05
M72
T1
X5.7972Y-2.1043
X5.8081Y-2.0049
X5.8701Y-2.0758
X5.9833Y-2.2392
X6.0079Y-2.5207
X6.0236Y-3.2549
X6.0266Y-3.1142
X6.0443Y-3.0768
X6.0453Y-3.0177
X6.0482Y-2.9803
X6.0482Y-3.0443
X6.0502Y-2.9203
X6.0512Y-2.9587
X6.0531Y-2.6467
X6.0689Y-2.5098
X6.0915Y-3.2569
X6.1004Y-2.5846
X6.1122Y-2.5118
X6.1171Y-2.4104
X6.124Y-2.2795
X6.128Y-2.56
X6.1299Y-3.2313
X6.1329Y-2.2156
X6.1368Y-2.3514
X6.1476Y-2.938
X6.1496Y-2.9862
X6.1496Y-3.0266
X6.1496Y-3.0915
X6.1506Y-3.1959
X6.1516Y-2.7254
X6.1545Y-2.25
X6.1545Y-2.4724
X6.1555Y-3.1388
X6.2057Y-2.5837
X6.2067Y-2.6152
X6.2146Y-1.7766
X6.2293Y-2.4242
X6.2333Y-2.6713
X6.2362Y-2.5561
X6.2726Y-2.435
X6.2736Y-2.7352
X6.2746Y-2.7687
X6.2825Y-2.6939
X6.2972Y-2.4035
X6.3406Y-2.7874
X6.3543Y-2.5157
X6.3553Y-2.4843
X6.3789Y-1.874
X6.3809Y-2.4626
X6.3878Y-2.9232
X6.3927Y-2.0443
X6.4035Y-2.2618
X6.4252Y-2.9488
X6.44Y-2.0463
X6.4459Y-2.7785
X6.4528Y-2.2402
X6.4744Y-1.8789
X6.5167Y-2.5246
X6.5197Y-3.2795
X6.5325Y-2.0305
X6.564Y-2.4862
X6.5699Y-3.2785
X6.5768Y-2.2598
X6.5866Y-2.6083
X6.5906Y-2.0925
X6.5984Y-2.313
X6.6024Y-2.6378
X6.6132Y-2.1624
X6.6142Y-1.814
X6.6201Y-3.4114
X6.6339Y-2.4163
X6.6604Y-2.3996
X6.6693Y-2.6467
X6.6703Y-2.0689
X6.6713Y-2.7185
X6.7008Y-2.0413
X6.7028Y-2.2028
X6.7047Y-2.1496
X6.7067Y-2.2441
X6.7067Y-2.3366
X6.7087Y-2.4833
X6.7185Y-2.5118
X6.751Y-1.8209
X6.7598Y-2.376
X6.7687Y-2.7923
X6.7736Y-2.0394
X6.7835Y-2.3406
X6.8041Y-2.498
X6.815Y-1.6949
X6.8563Y-2.3012
X6.8809Y-1.9587
X6.8888Y-2.9065
X6.9134Y-2.9754
X6.9242Y-2.2146
X6.9469Y-2.1831
X6.9646Y-2.0669
X6.9724Y-1.9154
X7.003Y-2.8091
X7.0177Y-2.0364
X7.0295Y-2.5561
X7.0492Y-2.1594
X7.0571Y-3.3691
X7.061Y-2.9902
X7.0768Y-1.9862
X7.0768Y-2.8071
X7.1004Y-2.1142
X7.1014Y-2.5492
X7.1063Y-1.9537
X7.1427Y-1.9055
X7.1545Y-2.063
X7.1732Y-2.9665
X7.19Y-2.0246
X7.2185Y-2.9793
X7.247Y-3.0364
X7.2638Y-1.9557
X7.2844Y-3.4134
X7.2874Y-3.1929
X7.2874Y-3.3504
X7.2982Y-1.9606
X7.3002Y-2.69
X7.3209Y-2.9803
X7.4016Y-3.1811
X7.4026Y-2.7736
X7.4169Y-1.7358
X7.5472Y-2.0581
X7.7244Y-2.1112
T2
X6.5717Y-1.6035
X6.5717Y-1.6535
X6.6217Y-1.6035
X6.6217Y-1.6535
X6.6717Y-1.6035
X6.6717Y-1.6535
X6.7217Y-1.6035
X6.7217Y-1.6535
X6.7717Y-1.6035
X6.7717Y-1.6535
X6.8217Y-1.6035
X6.8217Y-1.6535
X6.8717Y-1.6035
X6.8717Y-1.6535
X6.9217Y-1.6035
X6.9217Y-1.6535
X6.9717Y-1.6035
X6.9717Y-1.6535
X7.0217Y-1.6035
X7.0217Y-1.6535
X7.0717Y-1.6035
X7.0717Y-1.6535
T3
X6.7411Y-3.2392
X7.1348Y-3.2392
T4
X5.6413Y-2.4654
X5.6413Y-2.6654
X5.6413Y-2.8654
X5.6461Y-2.5654
X5.6461Y-2.7654
X5.663Y-1.7496
X5.6638Y-1.6354
X5.7594Y-2.3083
X5.7594Y-2.5083
X5.7594Y-2.7083
X5.7594Y-2.9083
X5.763Y-1.7544
X5.7638Y-1.6402
X5.7642Y-2.4083
X5.7642Y-2.6083
X5.7642Y-2.8083
X5.863Y-1.7496
X5.8638Y-1.6354
X5.963Y-1.7544
X7.2161Y-1.6196
X7.2169Y-1.7358
X7.3161Y-1.6244
X7.3169Y-1.7406
X7.4161Y-1.6196
X7.4169Y-1.7358
X7.5161Y-1.6244
T5
X6.9469Y-1.815
T6
X5.7313Y-1.9596
X5.7313Y-2.1486
T7
X7.0969Y-1.815
T8
X7.7677Y-1.6122
X7.7677Y-1.8248
X7.874Y-1.7185
X7.9803Y-1.6122
X7.9803Y-1.8248
T5
X5.5935Y-1.8927G85X5.6328Y-1.8927
G05
X5.5935Y-2.2155G85X5.6328Y-2.2155
G05
T0
M30
