G04 #@! TF.FileFunction,Soldermask,Top*
%FSLAX46Y46*%
G04 Gerber Fmt 4.6, Leading zero omitted, Abs format (unit mm)*
G04 Created by KiCad (PCBNEW (after 2015-may-01 BZR unknown)-product) date Sun 10 May 2015 22:33:08 EDT*
%MOMM*%
G01*
G04 APERTURE LIST*
%ADD10C,0.100000*%
%ADD11R,2.100000X4.000000*%
%ADD12R,1.150000X1.200000*%
%ADD13R,1.200000X1.150000*%
%ADD14R,1.598880X1.598880*%
%ADD15C,2.398980*%
%ADD16R,2.398980X2.398980*%
%ADD17R,1.797000X1.797000*%
%ADD18C,1.797000*%
%ADD19R,1.160000X2.800000*%
%ADD20C,1.300000*%
%ADD21R,1.300000X0.900000*%
%ADD22R,0.900000X1.300000*%
%ADD23R,7.000000X2.200000*%
%ADD24R,3.400000X2.200000*%
%ADD25R,2.200000X3.400000*%
%ADD26R,6.800000X6.800000*%
%ADD27R,2.099260X0.798780*%
%ADD28R,2.701240X1.700480*%
%ADD29R,2.602180X1.700480*%
%ADD30R,2.899360X2.200860*%
%ADD31R,1.700480X2.000200*%
%ADD32C,3.300000*%
%ADD33C,2.900000*%
%ADD34R,1.200000X1.600000*%
%ADD35R,1.000000X1.300000*%
%ADD36R,1.924000X1.162000*%
%ADD37R,1.800000X1.800000*%
%ADD38C,1.800000*%
%ADD39C,0.254000*%
G04 APERTURE END LIST*
D10*
D11*
X149400000Y-80975000D03*
X142400000Y-80975000D03*
D12*
X154900000Y-69450000D03*
X154900000Y-67950000D03*
D10*
G36*
X161111180Y-68498008D02*
X160298008Y-69311180D01*
X159449480Y-68462652D01*
X160262652Y-67649480D01*
X161111180Y-68498008D01*
X161111180Y-68498008D01*
G37*
G36*
X160050520Y-67437348D02*
X159237348Y-68250520D01*
X158388820Y-67401992D01*
X159201992Y-66588820D01*
X160050520Y-67437348D01*
X160050520Y-67437348D01*
G37*
D12*
X177350000Y-60650000D03*
X177350000Y-59150000D03*
D13*
X173350000Y-55950000D03*
X174850000Y-55950000D03*
X184250000Y-82050000D03*
X185750000Y-82050000D03*
X191450000Y-47200000D03*
X192950000Y-47200000D03*
X191800000Y-44900000D03*
X193300000Y-44900000D03*
X184050000Y-69500000D03*
X185550000Y-69500000D03*
D14*
X152050000Y-48100980D03*
X152050000Y-50199020D03*
X153850000Y-48100980D03*
X153850000Y-50199020D03*
X155550000Y-48100980D03*
X155550000Y-50199020D03*
X157350000Y-48200980D03*
X157350000Y-50299020D03*
D15*
X180260000Y-46100000D03*
D16*
X176450000Y-46100000D03*
D10*
G36*
X155993395Y-65525737D02*
X157174263Y-66706605D01*
X156442407Y-67438461D01*
X155261539Y-66257593D01*
X155993395Y-65525737D01*
X155993395Y-65525737D01*
G37*
G36*
X155357593Y-66161539D02*
X156538461Y-67342407D01*
X155806605Y-68074263D01*
X154625737Y-66893395D01*
X155357593Y-66161539D01*
X155357593Y-66161539D01*
G37*
D17*
X188390000Y-44089040D03*
D18*
X185850000Y-44210960D03*
X183310000Y-44089040D03*
D17*
X148940000Y-41539040D03*
D18*
X146400000Y-41660960D03*
X143860000Y-41539040D03*
X148920000Y-44439040D03*
X146380000Y-44560960D03*
D17*
X151460000Y-44560960D03*
D18*
X143840000Y-44439040D03*
X188370000Y-41139040D03*
X185830000Y-41260960D03*
D17*
X190910000Y-41260960D03*
D18*
X183290000Y-41139040D03*
D17*
X143289040Y-72780000D03*
D18*
X143410960Y-70240000D03*
X143289040Y-67700000D03*
X143410960Y-65160000D03*
X143289040Y-62620000D03*
X146410960Y-61170000D03*
X146289040Y-63710000D03*
X146410960Y-66250000D03*
X146289040Y-68790000D03*
X146410960Y-71330000D03*
D17*
X146289040Y-58630000D03*
D18*
X146289040Y-73870000D03*
D19*
X161730000Y-49620000D03*
X161730000Y-45810000D03*
X163000000Y-49620000D03*
X163000000Y-45810000D03*
X164270000Y-49620000D03*
X164270000Y-45810000D03*
X165540000Y-49620000D03*
X165540000Y-45810000D03*
X166810000Y-49620000D03*
X166810000Y-45810000D03*
D20*
X166920000Y-40730000D03*
X168190000Y-40730000D03*
X169460000Y-40730000D03*
X170730000Y-40730000D03*
X172000000Y-40730000D03*
X173270000Y-40730000D03*
X174540000Y-40730000D03*
X175810000Y-40730000D03*
X177080000Y-40730000D03*
X178350000Y-40730000D03*
X179620000Y-40730000D03*
X179620000Y-42000000D03*
X178350000Y-42000000D03*
X177080000Y-42000000D03*
X175810000Y-42000000D03*
X174540000Y-42000000D03*
X173270000Y-42000000D03*
X172000000Y-42000000D03*
X170730000Y-42000000D03*
X169460000Y-42000000D03*
X168190000Y-42000000D03*
X166920000Y-42000000D03*
D21*
X174400000Y-48550000D03*
X174400000Y-47050000D03*
X172150000Y-48550000D03*
X172150000Y-47050000D03*
X152100000Y-51900000D03*
X152100000Y-53400000D03*
X154000000Y-51900000D03*
X154000000Y-53400000D03*
X155600000Y-51900000D03*
X155600000Y-53400000D03*
X157550000Y-51900000D03*
X157550000Y-53400000D03*
D22*
X171600000Y-64450000D03*
X173100000Y-64450000D03*
X184200000Y-79950000D03*
X185700000Y-79950000D03*
X185950000Y-84400000D03*
X184450000Y-84400000D03*
X183950000Y-73750000D03*
X185450000Y-73750000D03*
X184000000Y-71600000D03*
X185500000Y-71600000D03*
D23*
X203200000Y-86100000D03*
D24*
X205700000Y-82650000D03*
X205700000Y-78200000D03*
X205700000Y-73700000D03*
X205700000Y-69200000D03*
X205700000Y-64700000D03*
X205700000Y-60200000D03*
X205700000Y-55700000D03*
D25*
X204000000Y-51600000D03*
X194800000Y-51600000D03*
X199400000Y-51600000D03*
X190200000Y-51600000D03*
D24*
X188500000Y-55700000D03*
X188500000Y-60200000D03*
X188500000Y-64700000D03*
X188500000Y-69200000D03*
X188500000Y-73700000D03*
X188500000Y-78200000D03*
X188500000Y-82650000D03*
D23*
X191000000Y-86100000D03*
D26*
X197200000Y-57700000D03*
D27*
X145475680Y-52175000D03*
X145475680Y-51524760D03*
X145475680Y-53475480D03*
D28*
X142575000Y-48075440D03*
D29*
X145574740Y-49774700D03*
D28*
X142575000Y-56274560D03*
D29*
X145574740Y-54575300D03*
D27*
X145475680Y-52825240D03*
D30*
X142374340Y-50775460D03*
X142374340Y-53574540D03*
D27*
X145475680Y-50874520D03*
D31*
X172899380Y-61999920D03*
X172899380Y-58200080D03*
X175200620Y-58200080D03*
X175200620Y-61999920D03*
D32*
X200000000Y-43650000D03*
D33*
X202700020Y-40949980D03*
D32*
X197299980Y-40949980D03*
X197299980Y-46350020D03*
D33*
X202700020Y-46350020D03*
D22*
X172000000Y-44300000D03*
X170500000Y-44300000D03*
D34*
X153800000Y-85400000D03*
D35*
X153800000Y-84350000D03*
D34*
X154900000Y-85400000D03*
D35*
X154900000Y-84350000D03*
D34*
X156000000Y-85400000D03*
D35*
X156000000Y-84350000D03*
D34*
X157100000Y-85400000D03*
D35*
X157100000Y-84350000D03*
D34*
X158200000Y-85400000D03*
D35*
X158200000Y-84350000D03*
D34*
X161200000Y-85400000D03*
D35*
X161200000Y-84350000D03*
D34*
X162300000Y-85400000D03*
D35*
X162300000Y-84350000D03*
D34*
X163400000Y-85400000D03*
D35*
X163400000Y-84350000D03*
D34*
X164500000Y-85400000D03*
D35*
X164500000Y-84350000D03*
D34*
X165600000Y-85400000D03*
D35*
X165600000Y-84350000D03*
D34*
X166700000Y-85400000D03*
D35*
X166700000Y-84350000D03*
D34*
X167800000Y-85400000D03*
D35*
X167800000Y-84350000D03*
D34*
X153800000Y-72000000D03*
D35*
X153800000Y-73000000D03*
D34*
X154900000Y-72000000D03*
D35*
X154900000Y-73000000D03*
D34*
X156000000Y-72000000D03*
D35*
X156000000Y-73000000D03*
D34*
X157100000Y-72000000D03*
D35*
X157100000Y-73000000D03*
D34*
X158200000Y-72000000D03*
D35*
X158200000Y-73000000D03*
D34*
X161200000Y-72000000D03*
D35*
X161200000Y-73000000D03*
D34*
X162300000Y-72000000D03*
D35*
X162300000Y-73000000D03*
D34*
X163400000Y-72000000D03*
D35*
X163400000Y-73000000D03*
D34*
X164500000Y-72000000D03*
D35*
X164500000Y-73000000D03*
D34*
X165600000Y-72000000D03*
D35*
X165600000Y-73000000D03*
D34*
X166700000Y-72000000D03*
D35*
X166700000Y-73000000D03*
D34*
X167800000Y-72000000D03*
D35*
X167800000Y-73000000D03*
D36*
X152755000Y-65060000D03*
X152755000Y-70140000D03*
X148945000Y-65060000D03*
X148945000Y-70140000D03*
D12*
X168650000Y-51650000D03*
X168650000Y-53150000D03*
D10*
G36*
X152713820Y-60751992D02*
X153526992Y-59938820D01*
X154375520Y-60787348D01*
X153562348Y-61600520D01*
X152713820Y-60751992D01*
X152713820Y-60751992D01*
G37*
G36*
X153774480Y-61812652D02*
X154587652Y-60999480D01*
X155436180Y-61848008D01*
X154623008Y-62661180D01*
X153774480Y-61812652D01*
X153774480Y-61812652D01*
G37*
G36*
X156883135Y-63068075D02*
X158085555Y-61865655D01*
X158601743Y-62381843D01*
X157399323Y-63584263D01*
X156883135Y-63068075D01*
X156883135Y-63068075D01*
G37*
G36*
X157236957Y-63421897D02*
X158439377Y-62219477D01*
X158955565Y-62735665D01*
X157753145Y-63938085D01*
X157236957Y-63421897D01*
X157236957Y-63421897D01*
G37*
G36*
X157590779Y-63775719D02*
X158793199Y-62573299D01*
X159309387Y-63089487D01*
X158106967Y-64291907D01*
X157590779Y-63775719D01*
X157590779Y-63775719D01*
G37*
G36*
X157944601Y-64129541D02*
X159147021Y-62927121D01*
X159663209Y-63443309D01*
X158460789Y-64645729D01*
X157944601Y-64129541D01*
X157944601Y-64129541D01*
G37*
G36*
X158298423Y-64483363D02*
X159500843Y-63280943D01*
X160017031Y-63797131D01*
X158814611Y-64999551D01*
X158298423Y-64483363D01*
X158298423Y-64483363D01*
G37*
G36*
X155823464Y-62008404D02*
X157025884Y-60805984D01*
X157542072Y-61322172D01*
X156339652Y-62524592D01*
X155823464Y-62008404D01*
X155823464Y-62008404D01*
G37*
G36*
X156175490Y-62360430D02*
X157377910Y-61158010D01*
X157894098Y-61674198D01*
X156691678Y-62876618D01*
X156175490Y-62360430D01*
X156175490Y-62360430D01*
G37*
G36*
X156529313Y-62714252D02*
X157731733Y-61511832D01*
X158247921Y-62028020D01*
X157045501Y-63230440D01*
X156529313Y-62714252D01*
X156529313Y-62714252D01*
G37*
G36*
X163955984Y-66624116D02*
X164472172Y-66107928D01*
X165674592Y-67310348D01*
X165158404Y-67826536D01*
X163955984Y-66624116D01*
X163955984Y-66624116D01*
G37*
G36*
X164308010Y-66272090D02*
X164824198Y-65755902D01*
X166026618Y-66958322D01*
X165510430Y-67474510D01*
X164308010Y-66272090D01*
X164308010Y-66272090D01*
G37*
G36*
X164661832Y-65918267D02*
X165178020Y-65402079D01*
X166380440Y-66604499D01*
X165864252Y-67120687D01*
X164661832Y-65918267D01*
X164661832Y-65918267D01*
G37*
G36*
X165015655Y-65564445D02*
X165531843Y-65048257D01*
X166734263Y-66250677D01*
X166218075Y-66766865D01*
X165015655Y-65564445D01*
X165015655Y-65564445D01*
G37*
G36*
X165369477Y-65210623D02*
X165885665Y-64694435D01*
X167088085Y-65896855D01*
X166571897Y-66413043D01*
X165369477Y-65210623D01*
X165369477Y-65210623D01*
G37*
G36*
X165723299Y-64856801D02*
X166239487Y-64340613D01*
X167441907Y-65543033D01*
X166925719Y-66059221D01*
X165723299Y-64856801D01*
X165723299Y-64856801D01*
G37*
G36*
X166077121Y-64502979D02*
X166593309Y-63986791D01*
X167795729Y-65189211D01*
X167279541Y-65705399D01*
X166077121Y-64502979D01*
X166077121Y-64502979D01*
G37*
G36*
X166430943Y-64149157D02*
X166947131Y-63632969D01*
X168149551Y-64835389D01*
X167633363Y-65351577D01*
X166430943Y-64149157D01*
X166430943Y-64149157D01*
G37*
G36*
X169257928Y-59177828D02*
X170460348Y-57975408D01*
X170976536Y-58491596D01*
X169774116Y-59694016D01*
X169257928Y-59177828D01*
X169257928Y-59177828D01*
G37*
G36*
X168905902Y-58825802D02*
X170108322Y-57623382D01*
X170624510Y-58139570D01*
X169422090Y-59341990D01*
X168905902Y-58825802D01*
X168905902Y-58825802D01*
G37*
G36*
X168552079Y-58471980D02*
X169754499Y-57269560D01*
X170270687Y-57785748D01*
X169068267Y-58988168D01*
X168552079Y-58471980D01*
X168552079Y-58471980D01*
G37*
G36*
X168198257Y-58118157D02*
X169400677Y-56915737D01*
X169916865Y-57431925D01*
X168714445Y-58634345D01*
X168198257Y-58118157D01*
X168198257Y-58118157D01*
G37*
G36*
X167844435Y-57764335D02*
X169046855Y-56561915D01*
X169563043Y-57078103D01*
X168360623Y-58280523D01*
X167844435Y-57764335D01*
X167844435Y-57764335D01*
G37*
G36*
X167490613Y-57410513D02*
X168693033Y-56208093D01*
X169209221Y-56724281D01*
X168006801Y-57926701D01*
X167490613Y-57410513D01*
X167490613Y-57410513D01*
G37*
G36*
X167136791Y-57056691D02*
X168339211Y-55854271D01*
X168855399Y-56370459D01*
X167652979Y-57572879D01*
X167136791Y-57056691D01*
X167136791Y-57056691D01*
G37*
G36*
X166782969Y-56702869D02*
X167985389Y-55500449D01*
X168501577Y-56016637D01*
X167299157Y-57219057D01*
X166782969Y-56702869D01*
X166782969Y-56702869D01*
G37*
G36*
X161125408Y-53189652D02*
X161641596Y-52673464D01*
X162844016Y-53875884D01*
X162327828Y-54392072D01*
X161125408Y-53189652D01*
X161125408Y-53189652D01*
G37*
G36*
X160773382Y-53541678D02*
X161289570Y-53025490D01*
X162491990Y-54227910D01*
X161975802Y-54744098D01*
X160773382Y-53541678D01*
X160773382Y-53541678D01*
G37*
G36*
X160419560Y-53895501D02*
X160935748Y-53379313D01*
X162138168Y-54581733D01*
X161621980Y-55097921D01*
X160419560Y-53895501D01*
X160419560Y-53895501D01*
G37*
G36*
X160065737Y-54249323D02*
X160581925Y-53733135D01*
X161784345Y-54935555D01*
X161268157Y-55451743D01*
X160065737Y-54249323D01*
X160065737Y-54249323D01*
G37*
G36*
X159711915Y-54603145D02*
X160228103Y-54086957D01*
X161430523Y-55289377D01*
X160914335Y-55805565D01*
X159711915Y-54603145D01*
X159711915Y-54603145D01*
G37*
G36*
X159358093Y-54956967D02*
X159874281Y-54440779D01*
X161076701Y-55643199D01*
X160560513Y-56159387D01*
X159358093Y-54956967D01*
X159358093Y-54956967D01*
G37*
G36*
X159004271Y-55310789D02*
X159520459Y-54794601D01*
X160722879Y-55997021D01*
X160206691Y-56513209D01*
X159004271Y-55310789D01*
X159004271Y-55310789D01*
G37*
G36*
X158650449Y-55664611D02*
X159166637Y-55148423D01*
X160369057Y-56350843D01*
X159852869Y-56867031D01*
X158650449Y-55664611D01*
X158650449Y-55664611D01*
G37*
G36*
X158650449Y-64835389D02*
X159852869Y-63632969D01*
X160369057Y-64149157D01*
X159166637Y-65351577D01*
X158650449Y-64835389D01*
X158650449Y-64835389D01*
G37*
G36*
X159004271Y-65189211D02*
X160206691Y-63986791D01*
X160722879Y-64502979D01*
X159520459Y-65705399D01*
X159004271Y-65189211D01*
X159004271Y-65189211D01*
G37*
G36*
X159358093Y-65543033D02*
X160560513Y-64340613D01*
X161076701Y-64856801D01*
X159874281Y-66059221D01*
X159358093Y-65543033D01*
X159358093Y-65543033D01*
G37*
G36*
X166782969Y-63797131D02*
X167299157Y-63280943D01*
X168501577Y-64483363D01*
X167985389Y-64999551D01*
X166782969Y-63797131D01*
X166782969Y-63797131D01*
G37*
G36*
X167136791Y-63443309D02*
X167652979Y-62927121D01*
X168855399Y-64129541D01*
X168339211Y-64645729D01*
X167136791Y-63443309D01*
X167136791Y-63443309D01*
G37*
G36*
X167490613Y-63089487D02*
X168006801Y-62573299D01*
X169209221Y-63775719D01*
X168693033Y-64291907D01*
X167490613Y-63089487D01*
X167490613Y-63089487D01*
G37*
G36*
X166430943Y-56350843D02*
X167633363Y-55148423D01*
X168149551Y-55664611D01*
X166947131Y-56867031D01*
X166430943Y-56350843D01*
X166430943Y-56350843D01*
G37*
G36*
X166077121Y-55997021D02*
X167279541Y-54794601D01*
X167795729Y-55310789D01*
X166593309Y-56513209D01*
X166077121Y-55997021D01*
X166077121Y-55997021D01*
G37*
G36*
X165723299Y-55643199D02*
X166925719Y-54440779D01*
X167441907Y-54956967D01*
X166239487Y-56159387D01*
X165723299Y-55643199D01*
X165723299Y-55643199D01*
G37*
G36*
X158298423Y-56016637D02*
X158814611Y-55500449D01*
X160017031Y-56702869D01*
X159500843Y-57219057D01*
X158298423Y-56016637D01*
X158298423Y-56016637D01*
G37*
G36*
X157944601Y-56370459D02*
X158460789Y-55854271D01*
X159663209Y-57056691D01*
X159147021Y-57572879D01*
X157944601Y-56370459D01*
X157944601Y-56370459D01*
G37*
G36*
X157590779Y-56724281D02*
X158106967Y-56208093D01*
X159309387Y-57410513D01*
X158793199Y-57926701D01*
X157590779Y-56724281D01*
X157590779Y-56724281D01*
G37*
G36*
X159711915Y-65896855D02*
X160914335Y-64694435D01*
X161430523Y-65210623D01*
X160228103Y-66413043D01*
X159711915Y-65896855D01*
X159711915Y-65896855D01*
G37*
G36*
X160065737Y-66250677D02*
X161268157Y-65048257D01*
X161784345Y-65564445D01*
X160581925Y-66766865D01*
X160065737Y-66250677D01*
X160065737Y-66250677D01*
G37*
G36*
X160419560Y-66604499D02*
X161621980Y-65402079D01*
X162138168Y-65918267D01*
X160935748Y-67120687D01*
X160419560Y-66604499D01*
X160419560Y-66604499D01*
G37*
G36*
X160773382Y-66958322D02*
X161975802Y-65755902D01*
X162491990Y-66272090D01*
X161289570Y-67474510D01*
X160773382Y-66958322D01*
X160773382Y-66958322D01*
G37*
G36*
X161125408Y-67310348D02*
X162327828Y-66107928D01*
X162844016Y-66624116D01*
X161641596Y-67826536D01*
X161125408Y-67310348D01*
X161125408Y-67310348D01*
G37*
G36*
X167844435Y-62735665D02*
X168360623Y-62219477D01*
X169563043Y-63421897D01*
X169046855Y-63938085D01*
X167844435Y-62735665D01*
X167844435Y-62735665D01*
G37*
G36*
X168198257Y-62381843D02*
X168714445Y-61865655D01*
X169916865Y-63068075D01*
X169400677Y-63584263D01*
X168198257Y-62381843D01*
X168198257Y-62381843D01*
G37*
G36*
X168552079Y-62028020D02*
X169068267Y-61511832D01*
X170270687Y-62714252D01*
X169754499Y-63230440D01*
X168552079Y-62028020D01*
X168552079Y-62028020D01*
G37*
G36*
X168905902Y-61674198D02*
X169422090Y-61158010D01*
X170624510Y-62360430D01*
X170108322Y-62876618D01*
X168905902Y-61674198D01*
X168905902Y-61674198D01*
G37*
G36*
X169257928Y-61322172D02*
X169774116Y-60805984D01*
X170976536Y-62008404D01*
X170460348Y-62524592D01*
X169257928Y-61322172D01*
X169257928Y-61322172D01*
G37*
G36*
X165369477Y-55289377D02*
X166571897Y-54086957D01*
X167088085Y-54603145D01*
X165885665Y-55805565D01*
X165369477Y-55289377D01*
X165369477Y-55289377D01*
G37*
G36*
X165015655Y-54935555D02*
X166218075Y-53733135D01*
X166734263Y-54249323D01*
X165531843Y-55451743D01*
X165015655Y-54935555D01*
X165015655Y-54935555D01*
G37*
G36*
X164661832Y-54581733D02*
X165864252Y-53379313D01*
X166380440Y-53895501D01*
X165178020Y-55097921D01*
X164661832Y-54581733D01*
X164661832Y-54581733D01*
G37*
G36*
X164308010Y-54227910D02*
X165510430Y-53025490D01*
X166026618Y-53541678D01*
X164824198Y-54744098D01*
X164308010Y-54227910D01*
X164308010Y-54227910D01*
G37*
G36*
X163955984Y-53875884D02*
X165158404Y-52673464D01*
X165674592Y-53189652D01*
X164472172Y-54392072D01*
X163955984Y-53875884D01*
X163955984Y-53875884D01*
G37*
G36*
X157236957Y-57078103D02*
X157753145Y-56561915D01*
X158955565Y-57764335D01*
X158439377Y-58280523D01*
X157236957Y-57078103D01*
X157236957Y-57078103D01*
G37*
G36*
X156883135Y-57431925D02*
X157399323Y-56915737D01*
X158601743Y-58118157D01*
X158085555Y-58634345D01*
X156883135Y-57431925D01*
X156883135Y-57431925D01*
G37*
G36*
X156529313Y-57785748D02*
X157045501Y-57269560D01*
X158247921Y-58471980D01*
X157731733Y-58988168D01*
X156529313Y-57785748D01*
X156529313Y-57785748D01*
G37*
G36*
X156175490Y-58139570D02*
X156691678Y-57623382D01*
X157894098Y-58825802D01*
X157377910Y-59341990D01*
X156175490Y-58139570D01*
X156175490Y-58139570D01*
G37*
G36*
X155823464Y-58491596D02*
X156339652Y-57975408D01*
X157542072Y-59177828D01*
X157025884Y-59694016D01*
X155823464Y-58491596D01*
X155823464Y-58491596D01*
G37*
D37*
X171225000Y-82275000D03*
D38*
X181225000Y-82275000D03*
D22*
X181550000Y-86150000D03*
X180050000Y-86150000D03*
D39*
G36*
X155947812Y-73902545D02*
X155873056Y-75871102D01*
X155798233Y-79063558D01*
X155507371Y-80905686D01*
X154326840Y-81826500D01*
X152096055Y-82008075D01*
X152170861Y-86546271D01*
X141050270Y-86398325D01*
X141028869Y-86389764D01*
X141249301Y-76176416D01*
X151632827Y-76127553D01*
X151958718Y-80188649D01*
X153747322Y-80018306D01*
X154051867Y-78993926D01*
X154076992Y-75501633D01*
X154126400Y-72833593D01*
X154632332Y-71909716D01*
X155829535Y-72388597D01*
X155947812Y-73902545D01*
X155947812Y-73902545D01*
G37*
X155947812Y-73902545D02*
X155873056Y-75871102D01*
X155798233Y-79063558D01*
X155507371Y-80905686D01*
X154326840Y-81826500D01*
X152096055Y-82008075D01*
X152170861Y-86546271D01*
X141050270Y-86398325D01*
X141028869Y-86389764D01*
X141249301Y-76176416D01*
X151632827Y-76127553D01*
X151958718Y-80188649D01*
X153747322Y-80018306D01*
X154051867Y-78993926D01*
X154076992Y-75501633D01*
X154126400Y-72833593D01*
X154632332Y-71909716D01*
X155829535Y-72388597D01*
X155947812Y-73902545D01*
M02*
