G04 #@! TF.FileFunction,Copper,L2,Bot,Signal*
%FSLAX46Y46*%
G04 Gerber Fmt 4.6, Leading zero omitted, Abs format (unit mm)*
G04 Created by KiCad (PCBNEW (after 2015-may-01 BZR unknown)-product) date Sun 10 May 2015 22:33:08 EDT*
%MOMM*%
G01*
G04 APERTURE LIST*
%ADD10C,0.100000*%
%ADD11R,1.049020X0.599440*%
%ADD12R,1.501140X1.049020*%
%ADD13R,0.750000X0.800000*%
%ADD14C,1.998980*%
%ADD15R,1.998980X1.998980*%
%ADD16R,0.635000X1.270000*%
%ADD17R,1.397000X1.397000*%
%ADD18C,1.397000*%
%ADD19C,0.900000*%
%ADD20R,0.600000X1.550000*%
%ADD21R,2.301240X1.300480*%
%ADD22R,2.202180X1.300480*%
%ADD23C,2.900000*%
%ADD24C,2.500000*%
%ADD25R,0.599440X1.000760*%
%ADD26R,0.900000X0.500000*%
%ADD27R,0.762000X1.524000*%
%ADD28C,1.524000*%
%ADD29R,0.800000X0.750000*%
%ADD30R,1.400000X1.400000*%
%ADD31C,1.400000*%
%ADD32C,0.600000*%
%ADD33C,0.152400*%
%ADD34C,0.400000*%
%ADD35C,0.200000*%
%ADD36C,0.800000*%
G04 APERTURE END LIST*
D10*
D11*
X176830880Y-68955080D03*
X176830880Y-70054900D03*
X176830880Y-71154720D03*
X176830880Y-72254540D03*
X176830880Y-73354360D03*
X176830880Y-74454180D03*
X176830880Y-75554000D03*
X176830880Y-76653820D03*
D12*
X174301040Y-65399080D03*
X174301040Y-78850920D03*
X182700820Y-65399080D03*
X182700820Y-78850920D03*
D13*
X168000000Y-76750000D03*
X168000000Y-75250000D03*
X171000000Y-76750000D03*
X171000000Y-75250000D03*
D14*
X180260000Y-46100000D03*
D15*
X176450000Y-46100000D03*
D16*
X148300420Y-48800000D03*
X149199580Y-48800000D03*
X148250420Y-50950000D03*
X149149580Y-50950000D03*
D17*
X188390000Y-44089040D03*
D18*
X185850000Y-44210960D03*
X183310000Y-44089040D03*
D17*
X148940000Y-41539040D03*
D18*
X146400000Y-41660960D03*
X143860000Y-41539040D03*
X148920000Y-44439040D03*
X146380000Y-44560960D03*
D17*
X151460000Y-44560960D03*
D18*
X143840000Y-44439040D03*
X188370000Y-41139040D03*
X185830000Y-41260960D03*
D17*
X190910000Y-41260960D03*
D18*
X183290000Y-41139040D03*
D17*
X143289040Y-72780000D03*
D18*
X143410960Y-70240000D03*
X143289040Y-67700000D03*
X143410960Y-65160000D03*
X143289040Y-62620000D03*
X146410960Y-61170000D03*
X146289040Y-63710000D03*
X146410960Y-66250000D03*
X146289040Y-68790000D03*
X146410960Y-71330000D03*
D17*
X146289040Y-58630000D03*
D18*
X146289040Y-73870000D03*
D19*
X166920000Y-40730000D03*
X168190000Y-40730000D03*
X169460000Y-40730000D03*
X170730000Y-40730000D03*
X172000000Y-40730000D03*
X173270000Y-40730000D03*
X174540000Y-40730000D03*
X175810000Y-40730000D03*
X177080000Y-40730000D03*
X178350000Y-40730000D03*
X179620000Y-40730000D03*
X179620000Y-42000000D03*
X178350000Y-42000000D03*
X177080000Y-42000000D03*
X175810000Y-42000000D03*
X174540000Y-42000000D03*
X173270000Y-42000000D03*
X172000000Y-42000000D03*
X170730000Y-42000000D03*
X169460000Y-42000000D03*
X168190000Y-42000000D03*
X166920000Y-42000000D03*
D20*
X173855000Y-49700000D03*
X172585000Y-49700000D03*
X171315000Y-49700000D03*
X170045000Y-49700000D03*
X170045000Y-44300000D03*
X171315000Y-44300000D03*
X172585000Y-44300000D03*
X173855000Y-44300000D03*
D21*
X142575000Y-48075440D03*
D22*
X145574740Y-49774700D03*
D21*
X142575000Y-56274560D03*
D22*
X145574740Y-54575300D03*
D23*
X200000000Y-43650000D03*
D24*
X202700020Y-40949980D03*
D23*
X197299980Y-40949980D03*
X197299980Y-46350020D03*
D24*
X202700020Y-46350020D03*
D25*
X170650240Y-71050040D03*
X169349760Y-71050040D03*
X170000000Y-72949960D03*
D26*
X167650000Y-72250000D03*
X167650000Y-73750000D03*
D27*
X184460000Y-62905000D03*
X189540000Y-62905000D03*
X184460000Y-59095000D03*
X189540000Y-59095000D03*
D28*
X163350000Y-77250000D03*
X159375000Y-77575000D03*
X148925000Y-54350000D03*
D29*
X166450000Y-60200000D03*
X167950000Y-60200000D03*
D30*
X171225000Y-82275000D03*
D31*
X181225000Y-82275000D03*
D32*
X156150000Y-74625000D03*
X156200000Y-75850000D03*
X156200000Y-76875000D03*
X156200000Y-78525000D03*
X156350000Y-79725000D03*
X156225000Y-81175000D03*
X155700000Y-82075000D03*
X154725000Y-82725000D03*
X153000000Y-82675000D03*
X153075000Y-79100000D03*
X153525000Y-78150000D03*
X153625000Y-77325000D03*
X153550000Y-76650000D03*
X153625000Y-75700000D03*
X153700000Y-75150000D03*
X153675000Y-74175000D03*
X161050000Y-70800000D03*
X185425000Y-68325000D03*
X185025000Y-86700000D03*
X185100000Y-85100000D03*
X185100000Y-81100000D03*
X196200000Y-53625000D03*
X168150000Y-86650000D03*
X173100000Y-43050000D03*
X174775000Y-49750000D03*
X169425000Y-52550000D03*
X159325000Y-61850000D03*
X159575000Y-68425000D03*
X169175000Y-60950000D03*
X174150000Y-58450000D03*
X181425000Y-48400000D03*
X180500000Y-49625000D03*
X179750000Y-50450000D03*
X181725000Y-52400000D03*
X180350000Y-53700000D03*
X178250000Y-51725000D03*
X176900000Y-52500000D03*
X179050000Y-54850000D03*
X182625000Y-51425000D03*
X184500000Y-49675000D03*
X185375000Y-49800000D03*
X172825000Y-63450000D03*
X170400000Y-63075000D03*
X170350000Y-59350000D03*
X172300000Y-59450000D03*
X191700000Y-52275000D03*
X179250000Y-85575000D03*
X166875000Y-83275000D03*
X163575000Y-51975000D03*
X162375000Y-51925000D03*
X165925000Y-51575000D03*
X155375000Y-61225000D03*
X158225000Y-61575000D03*
X170200000Y-51850000D03*
X172050000Y-51800000D03*
X177100000Y-48650000D03*
X168500000Y-61375000D03*
X158325000Y-67850000D03*
X179350000Y-75950000D03*
X182200000Y-75350000D03*
X167050000Y-57400000D03*
X161425000Y-63100000D03*
X177875000Y-71350000D03*
X183350000Y-75675000D03*
X174975000Y-73825000D03*
X169450000Y-69050000D03*
X162075000Y-62550000D03*
X175600000Y-75575000D03*
X171925000Y-70925000D03*
X161400000Y-63900000D03*
X188025000Y-70450000D03*
X185950000Y-75700000D03*
X184075000Y-77125000D03*
X147525000Y-50925000D03*
X157850000Y-45125000D03*
X158400000Y-64925000D03*
X155250000Y-63800000D03*
X149100000Y-52725000D03*
X188390000Y-44089040D03*
X170350000Y-57000000D03*
X159950000Y-61050000D03*
X167400000Y-53150000D03*
X170300000Y-54600000D03*
X156250000Y-69225000D03*
X153750000Y-67225000D03*
X157650000Y-66425000D03*
X154950000Y-65650000D03*
X157625000Y-65625000D03*
X155775000Y-56275000D03*
X156325000Y-57150000D03*
X155550000Y-57900000D03*
X155875000Y-59725000D03*
X151975000Y-56875000D03*
X166725000Y-63150000D03*
X162025000Y-47600000D03*
X165525000Y-64125000D03*
X164450000Y-47725000D03*
X167600000Y-58750000D03*
X168000000Y-46075000D03*
X167975000Y-54925000D03*
X176450000Y-55450000D03*
X170250000Y-55950000D03*
X175875000Y-56250000D03*
X179750000Y-71300000D03*
X188000000Y-80800000D03*
X155650000Y-65025000D03*
X154150000Y-63750000D03*
X159375000Y-70325000D03*
X171475000Y-46250000D03*
X170650000Y-63800000D03*
X167700000Y-67000000D03*
X159350000Y-69475000D03*
X171700000Y-60350000D03*
X167300000Y-66250000D03*
X163725000Y-70575000D03*
X162650000Y-57450000D03*
X163900000Y-56900000D03*
X169400000Y-67225000D03*
X178550000Y-64925000D03*
X180375000Y-64750000D03*
X156325000Y-62800000D03*
X152600000Y-64025000D03*
X162250000Y-74250000D03*
X163200000Y-74900000D03*
X147250000Y-53450000D03*
X165600000Y-83300000D03*
D33*
X143050000Y-52900000D02*
X142900000Y-53050000D01*
D34*
X156150000Y-75800000D02*
X156150000Y-74625000D01*
X156200000Y-75850000D02*
X156150000Y-75800000D01*
X156200000Y-78525000D02*
X156200000Y-76875000D01*
X156350000Y-81050000D02*
X156350000Y-79725000D01*
X156225000Y-81175000D02*
X156350000Y-81050000D01*
X155375000Y-82075000D02*
X155700000Y-82075000D01*
X154725000Y-82725000D02*
X155375000Y-82075000D01*
X153000000Y-79175000D02*
X153000000Y-82675000D01*
X153075000Y-79100000D02*
X153000000Y-79175000D01*
X153525000Y-77425000D02*
X153525000Y-78150000D01*
X153625000Y-77325000D02*
X153525000Y-77425000D01*
X153550000Y-75775000D02*
X153550000Y-76650000D01*
X153625000Y-75700000D02*
X153550000Y-75775000D01*
X153700000Y-74200000D02*
X153700000Y-75150000D01*
X153675000Y-74175000D02*
X153700000Y-74200000D01*
D35*
X158625000Y-69375000D02*
X159575000Y-68425000D01*
X158625000Y-70475000D02*
X158625000Y-69375000D01*
X159225000Y-71075000D02*
X158625000Y-70475000D01*
X160775000Y-71075000D02*
X159225000Y-71075000D01*
X161050000Y-70800000D02*
X160775000Y-71075000D01*
X182700820Y-78850920D02*
X174301040Y-78850920D01*
X174301040Y-65399080D02*
X174301040Y-58601040D01*
X174301040Y-58601040D02*
X174150000Y-58450000D01*
X182700820Y-65399080D02*
X184175920Y-65399080D01*
X189540000Y-60035000D02*
X189540000Y-59095000D01*
X184175920Y-65399080D02*
X189540000Y-60035000D01*
X185425000Y-68325000D02*
X182700820Y-65600820D01*
X182700820Y-65600820D02*
X182700820Y-65399080D01*
D34*
X174301040Y-78850920D02*
X174301040Y-75848960D01*
X175695820Y-74454180D02*
X176830880Y-74454180D01*
X174301040Y-75848960D02*
X175695820Y-74454180D01*
X168000000Y-76750000D02*
X171000000Y-76750000D01*
X171000000Y-76750000D02*
X172200120Y-76750000D01*
X172200120Y-76750000D02*
X174301040Y-78850920D01*
X185100000Y-81100000D02*
X185100000Y-85100000D01*
X185025000Y-86700000D02*
X185025000Y-86650000D01*
X196200000Y-53625000D02*
X195225000Y-54600000D01*
X195225000Y-54600000D02*
X195225000Y-80125000D01*
X195225000Y-80125000D02*
X188700000Y-86650000D01*
X188700000Y-86650000D02*
X185025000Y-86650000D01*
X185025000Y-86650000D02*
X168150000Y-86650000D01*
D35*
X173100000Y-43050000D02*
X172585000Y-43565000D01*
X172585000Y-43565000D02*
X172585000Y-44300000D01*
D33*
X174725000Y-49700000D02*
X173855000Y-49700000D01*
X174775000Y-49750000D02*
X174725000Y-49700000D01*
X170045000Y-49700000D02*
X170045000Y-51030000D01*
X169425000Y-51650000D02*
X169425000Y-52550000D01*
X170045000Y-51030000D02*
X169425000Y-51650000D01*
D35*
X159325000Y-61850000D02*
X159600000Y-62125000D01*
X159600000Y-62125000D02*
X159575000Y-68425000D01*
D36*
X143860000Y-41539040D02*
X143860000Y-41515000D01*
X143860000Y-41515000D02*
X145675000Y-39700000D01*
X145675000Y-39700000D02*
X171250000Y-39700000D01*
X170730000Y-42000000D02*
X170730000Y-40730000D01*
X170730000Y-40730000D02*
X170750000Y-40710000D01*
X175810000Y-40260000D02*
X175810000Y-40730000D01*
X170750000Y-40200000D02*
X171250000Y-39700000D01*
X170750000Y-40710000D02*
X170750000Y-40200000D01*
X175250000Y-39700000D02*
X175750000Y-40200000D01*
X175200000Y-39700000D02*
X175250000Y-39700000D01*
X171250000Y-39700000D02*
X175200000Y-39700000D01*
X175750000Y-40200000D02*
X175810000Y-40260000D01*
D35*
X171000000Y-76750000D02*
X171050000Y-76700000D01*
X168000000Y-76750000D02*
X167750000Y-77000000D01*
X172800000Y-44515000D02*
X172800000Y-45000000D01*
X172585000Y-44300000D02*
X172800000Y-44515000D01*
X174905000Y-48650000D02*
X173855000Y-49700000D01*
X175750000Y-46800000D02*
X175750000Y-48650000D01*
X175750000Y-48650000D02*
X174905000Y-48650000D01*
X176440000Y-46110000D02*
X175750000Y-46800000D01*
X173855000Y-49700000D02*
X172585000Y-49700000D01*
X172585000Y-49700000D02*
X171315000Y-49700000D01*
X169750000Y-49800000D02*
X170045000Y-49700000D01*
X171215000Y-49800000D02*
X169750000Y-49800000D01*
X171315000Y-49700000D02*
X171215000Y-49800000D01*
X169075000Y-60850000D02*
X168550000Y-60325000D01*
X169075000Y-60950000D02*
X169075000Y-60850000D01*
X169175000Y-60950000D02*
X169075000Y-60950000D01*
X168425000Y-60200000D02*
X167950000Y-60200000D01*
X168550000Y-60325000D02*
X168425000Y-60200000D01*
X169700000Y-58450000D02*
X174150000Y-58450000D01*
X167950000Y-60200000D02*
X169700000Y-58450000D01*
D34*
X177375000Y-45175000D02*
X176450000Y-46100000D01*
X180160960Y-44089040D02*
X179075000Y-45175000D01*
X179075000Y-45175000D02*
X177375000Y-45175000D01*
X183310000Y-44089040D02*
X180160960Y-44089040D01*
X181425000Y-48400000D02*
X181475000Y-48400000D01*
X180500000Y-49625000D02*
X179750000Y-50375000D01*
X179750000Y-50375000D02*
X179750000Y-50450000D01*
X181725000Y-52400000D02*
X180425000Y-53700000D01*
X180425000Y-53700000D02*
X180350000Y-53700000D01*
X178250000Y-51725000D02*
X177475000Y-52500000D01*
X177475000Y-52500000D02*
X176900000Y-52500000D01*
X179050000Y-54850000D02*
X179175000Y-54975000D01*
X179175000Y-54975000D02*
X180625000Y-54975000D01*
X180625000Y-54975000D02*
X182700000Y-52900000D01*
X182700000Y-52900000D02*
X182700000Y-51500000D01*
X182700000Y-51500000D02*
X182625000Y-51425000D01*
X184500000Y-49675000D02*
X184625000Y-49800000D01*
X184625000Y-49800000D02*
X185375000Y-49800000D01*
D35*
X172450000Y-63075000D02*
X172825000Y-63450000D01*
X170400000Y-63075000D02*
X172450000Y-63075000D01*
X170450000Y-59450000D02*
X170350000Y-59350000D01*
X172300000Y-59450000D02*
X170450000Y-59450000D01*
D34*
X146380000Y-44560960D02*
X146380000Y-45920000D01*
X144650000Y-63920960D02*
X143410960Y-65160000D01*
X144650000Y-60675000D02*
X144650000Y-63920960D01*
X144100000Y-60125000D02*
X144650000Y-60675000D01*
X144100000Y-48200000D02*
X144100000Y-60125000D01*
X146380000Y-45920000D02*
X144100000Y-48200000D01*
X173850000Y-85600000D02*
X173850000Y-81350000D01*
X166600000Y-74800000D02*
X167650000Y-73750000D01*
X166600000Y-77675000D02*
X166600000Y-74800000D01*
X167975000Y-79050000D02*
X166600000Y-77675000D01*
X171550000Y-79050000D02*
X167975000Y-79050000D01*
X173850000Y-81350000D02*
X171550000Y-79050000D01*
X179250000Y-85575000D02*
X183775000Y-85575000D01*
X192200000Y-52775000D02*
X191700000Y-52275000D01*
X192200000Y-82175000D02*
X192200000Y-52775000D01*
X188500000Y-85875000D02*
X192200000Y-82175000D01*
X184075000Y-85875000D02*
X188500000Y-85875000D01*
X183775000Y-85575000D02*
X184075000Y-85875000D01*
D36*
X179225000Y-85600000D02*
X179250000Y-85575000D01*
X169200000Y-85600000D02*
X173850000Y-85600000D01*
X173850000Y-85600000D02*
X179225000Y-85600000D01*
X166875000Y-83275000D02*
X169200000Y-85600000D01*
D35*
X170650240Y-71050040D02*
X170599960Y-71050040D01*
X170599960Y-71050040D02*
X169050000Y-72600000D01*
X168800000Y-72600000D02*
X167650000Y-73750000D01*
X169050000Y-72600000D02*
X168800000Y-72600000D01*
D34*
X146410960Y-71330000D02*
X145855000Y-71330000D01*
X144850000Y-66599040D02*
X143410960Y-65160000D01*
X144850000Y-70325000D02*
X144850000Y-66599040D01*
X145855000Y-71330000D02*
X144850000Y-70325000D01*
X143410960Y-65160000D02*
X143410960Y-64789040D01*
X146410960Y-71330000D02*
X146410960Y-71464040D01*
D33*
X162425000Y-51975000D02*
X163575000Y-51975000D01*
X162375000Y-51925000D02*
X162425000Y-51975000D01*
X166450000Y-60200000D02*
X166450000Y-59150000D01*
X165925000Y-58625000D02*
X165925000Y-51575000D01*
X166450000Y-59150000D02*
X165925000Y-58625000D01*
X158225000Y-61575000D02*
X156875000Y-60225000D01*
X156375000Y-60225000D02*
X155375000Y-61225000D01*
X156875000Y-60225000D02*
X156375000Y-60225000D01*
D36*
X146400000Y-44540960D02*
X146380000Y-44560960D01*
D34*
X146400000Y-41660960D02*
X146400000Y-41225000D01*
X146380000Y-41680960D02*
X146400000Y-41660960D01*
D35*
X146410960Y-71889040D02*
X146410960Y-71330000D01*
X175530000Y-43550000D02*
X177080000Y-42000000D01*
X174605000Y-43550000D02*
X175530000Y-43550000D01*
X173855000Y-44300000D02*
X174605000Y-43550000D01*
X170250000Y-51800000D02*
X170200000Y-51850000D01*
X172050000Y-51800000D02*
X170250000Y-51800000D01*
X177710000Y-48650000D02*
X180250000Y-46110000D01*
X177100000Y-48650000D02*
X177710000Y-48650000D01*
X172100000Y-51700000D02*
X172050000Y-51800000D01*
X174050000Y-51700000D02*
X172100000Y-51700000D01*
X177100000Y-48650000D02*
X174050000Y-51700000D01*
X167625000Y-61375000D02*
X166450000Y-60200000D01*
X168500000Y-61375000D02*
X167625000Y-61375000D01*
X154175000Y-68025000D02*
X152450000Y-69750000D01*
X152450000Y-69750000D02*
X147990960Y-69750000D01*
X147990960Y-69750000D02*
X146410960Y-71330000D01*
D33*
X158300000Y-67875000D02*
X158150000Y-68025000D01*
D35*
X159175000Y-67000000D02*
X158325000Y-67850000D01*
X159175000Y-62525000D02*
X159175000Y-67000000D01*
X158225000Y-61575000D02*
X159175000Y-62525000D01*
X158150000Y-68025000D02*
X154175000Y-68025000D01*
D34*
X170000000Y-72949960D02*
X174425040Y-72949960D01*
X175120460Y-72254540D02*
X176830880Y-72254540D01*
X174425040Y-72949960D02*
X175120460Y-72254540D01*
X170000000Y-72949960D02*
X170000000Y-74250000D01*
X170000000Y-74250000D02*
X171000000Y-75250000D01*
X171000000Y-75250000D02*
X168000000Y-75250000D01*
D35*
X170000000Y-73250000D02*
X170000000Y-72949960D01*
X170000000Y-72949960D02*
X170200040Y-73150000D01*
X179950000Y-75350000D02*
X179350000Y-75950000D01*
X182200000Y-75350000D02*
X179950000Y-75350000D01*
X176830880Y-70054900D02*
X179120100Y-70054900D01*
X167475000Y-57825000D02*
X167050000Y-57400000D01*
X177100000Y-57825000D02*
X167475000Y-57825000D01*
X179425000Y-60150000D02*
X177100000Y-57825000D01*
X179425000Y-69750000D02*
X179425000Y-60150000D01*
X179120100Y-70054900D02*
X179425000Y-69750000D01*
X161425000Y-63100000D02*
X168100000Y-69825000D01*
X168100000Y-69825000D02*
X173600000Y-69775000D01*
X173600000Y-69775000D02*
X175754720Y-71154720D01*
X175754720Y-71154720D02*
X176830880Y-71154720D01*
X177679720Y-71154720D02*
X176830880Y-71154720D01*
X177875000Y-71350000D02*
X177679720Y-71154720D01*
X181029360Y-73354360D02*
X176830880Y-73354360D01*
X183350000Y-75675000D02*
X181029360Y-73354360D01*
X168125000Y-68600000D02*
X169000000Y-68600000D01*
X175445640Y-73354360D02*
X176830880Y-73354360D01*
X174975000Y-73825000D02*
X175445640Y-73354360D01*
X169000000Y-68600000D02*
X169450000Y-69050000D01*
X162075000Y-62550000D02*
X168125000Y-68600000D01*
X168125000Y-68600000D02*
X168150000Y-68600000D01*
X175621000Y-75554000D02*
X176830880Y-75554000D01*
X175600000Y-75575000D02*
X175621000Y-75554000D01*
X171200000Y-70200000D02*
X171925000Y-70925000D01*
X167700000Y-70200000D02*
X171200000Y-70200000D01*
X161400000Y-63900000D02*
X167700000Y-70200000D01*
X176830880Y-75554000D02*
X177404000Y-75554000D01*
X188025000Y-73625000D02*
X188025000Y-70450000D01*
X185950000Y-75700000D02*
X188025000Y-73625000D01*
X178975000Y-77125000D02*
X184075000Y-77125000D01*
X177404000Y-75554000D02*
X178975000Y-77125000D01*
D36*
X148250420Y-50950000D02*
X148250420Y-49025420D01*
X148250420Y-49025420D02*
X148225840Y-49050000D01*
X148225840Y-49050000D02*
X147975000Y-49050000D01*
D34*
X147550000Y-50950000D02*
X148250420Y-50950000D01*
X147525000Y-50925000D02*
X147550000Y-50950000D01*
D33*
X148250420Y-48850000D02*
X148300420Y-48800000D01*
D36*
X179620000Y-42000000D02*
X179620000Y-42555000D01*
X166920000Y-43145000D02*
X166920000Y-42000000D01*
X168925000Y-45150000D02*
X166920000Y-43145000D01*
X168925000Y-46725000D02*
X168925000Y-45150000D01*
X169575000Y-47375000D02*
X168925000Y-46725000D01*
X174450000Y-47375000D02*
X169575000Y-47375000D01*
X174825000Y-47000000D02*
X174450000Y-47375000D01*
X174825000Y-44875000D02*
X174825000Y-47000000D01*
X175250000Y-44450000D02*
X174825000Y-44875000D01*
X175950000Y-44450000D02*
X175250000Y-44450000D01*
X176500000Y-43900000D02*
X175950000Y-44450000D01*
X178275000Y-43900000D02*
X176500000Y-43900000D01*
X179620000Y-42555000D02*
X178275000Y-43900000D01*
X149199580Y-48800000D02*
X149199580Y-47625420D01*
X156725000Y-46250000D02*
X157850000Y-45125000D01*
X150575000Y-46250000D02*
X156725000Y-46250000D01*
X149199580Y-47625420D02*
X150575000Y-46250000D01*
D33*
X158400000Y-64925000D02*
X157275000Y-63800000D01*
X157275000Y-63800000D02*
X155250000Y-63800000D01*
X149100000Y-52725000D02*
X149149580Y-52675420D01*
X149149580Y-52675420D02*
X149149580Y-50950000D01*
D35*
X188340000Y-44710000D02*
X176800000Y-56250000D01*
X188390000Y-44710000D02*
X188340000Y-44710000D01*
X188390000Y-44089040D02*
X188390000Y-44710000D01*
X176050000Y-57000000D02*
X170350000Y-57000000D01*
X176800000Y-56250000D02*
X176050000Y-57000000D01*
D33*
X159950000Y-61050000D02*
X160025000Y-60975000D01*
X160025000Y-60975000D02*
X160025000Y-45425000D01*
X160025000Y-45425000D02*
X156139040Y-41539040D01*
X156139040Y-41539040D02*
X148940000Y-41539040D01*
D35*
X186250000Y-45400000D02*
X186250000Y-45400000D01*
X186995970Y-44654030D02*
X186250000Y-45400000D01*
X186997598Y-44654030D02*
X186995970Y-44654030D01*
X186997598Y-42511442D02*
X186997598Y-44654030D01*
X188370000Y-41139040D02*
X186997598Y-42511442D01*
X186050000Y-45600000D02*
X185800000Y-45600000D01*
X186250000Y-45400000D02*
X186050000Y-45600000D01*
X178250000Y-53150000D02*
X167400000Y-53150000D01*
X185800000Y-45600000D02*
X178250000Y-53150000D01*
X187850000Y-42850000D02*
X187350000Y-43200000D01*
X189320960Y-42850000D02*
X187850000Y-42850000D01*
X190910000Y-41260960D02*
X189320960Y-42850000D01*
X187350000Y-43650000D02*
X187350000Y-44800000D01*
X187350000Y-43200000D02*
X187350000Y-43650000D01*
X177550000Y-54600000D02*
X170300000Y-54600000D01*
X187350000Y-44800000D02*
X177550000Y-54600000D01*
X148345000Y-72780000D02*
X150725000Y-70400000D01*
X150725000Y-70400000D02*
X155075000Y-70400000D01*
X155075000Y-70400000D02*
X156250000Y-69225000D01*
X143289040Y-72780000D02*
X148345000Y-72780000D01*
X156850000Y-67225000D02*
X153750000Y-67225000D01*
X157650000Y-66425000D02*
X156850000Y-67225000D01*
X157600000Y-65650000D02*
X154950000Y-65650000D01*
X157625000Y-65625000D02*
X157600000Y-65650000D01*
X146410960Y-61170000D02*
X148580000Y-61170000D01*
X153475000Y-56275000D02*
X155775000Y-56275000D01*
X148580000Y-61170000D02*
X153475000Y-56275000D01*
X146289040Y-63710000D02*
X148040000Y-63710000D01*
X154600000Y-57150000D02*
X156325000Y-57150000D01*
X148040000Y-63710000D02*
X154600000Y-57150000D01*
X146410960Y-66250000D02*
X147200000Y-66250000D01*
X147200000Y-66250000D02*
X155550000Y-57900000D01*
X146289040Y-68790000D02*
X146810000Y-68790000D01*
X146810000Y-68790000D02*
X155875000Y-59725000D01*
X151975000Y-56875000D02*
X150220000Y-58630000D01*
X150220000Y-58630000D02*
X146289040Y-58630000D01*
D33*
X166725000Y-63150000D02*
X165375000Y-61800000D01*
X165375000Y-61800000D02*
X165375000Y-47100000D01*
X165375000Y-47100000D02*
X165175000Y-46900000D01*
X165175000Y-46900000D02*
X162725000Y-46900000D01*
X162725000Y-46900000D02*
X162025000Y-47600000D01*
X165525000Y-64125000D02*
X164450000Y-63050000D01*
X164450000Y-63050000D02*
X164450000Y-47725000D01*
X166425000Y-57575000D02*
X167600000Y-58750000D01*
X166575000Y-47700000D02*
X166425000Y-57575000D01*
X168000000Y-46075000D02*
X166575000Y-47700000D01*
X168375000Y-55325000D02*
X167975000Y-54925000D01*
X176325000Y-55325000D02*
X168375000Y-55325000D01*
X176450000Y-55450000D02*
X176325000Y-55325000D01*
X170250000Y-55950000D02*
X170550000Y-56250000D01*
X170550000Y-56250000D02*
X175875000Y-56250000D01*
X188000000Y-79550000D02*
X179750000Y-71300000D01*
X188000000Y-79600000D02*
X188000000Y-79550000D01*
X188000000Y-80800000D02*
X188000000Y-79600000D01*
X155650000Y-65025000D02*
X154375000Y-63750000D01*
X154375000Y-63750000D02*
X154150000Y-63750000D01*
D35*
X167700000Y-67000000D02*
X167100000Y-67000000D01*
X160800000Y-68900000D02*
X159375000Y-70325000D01*
X160800000Y-62700000D02*
X160800000Y-68900000D01*
X161575000Y-61925000D02*
X160800000Y-62700000D01*
X163025000Y-61925000D02*
X161575000Y-61925000D01*
X163100000Y-62000000D02*
X163025000Y-61925000D01*
X163100000Y-63000000D02*
X163100000Y-62000000D01*
X167100000Y-67000000D02*
X163100000Y-63000000D01*
X171315000Y-46090000D02*
X171315000Y-44300000D01*
X171475000Y-46250000D02*
X171315000Y-46090000D01*
X170600000Y-63950000D02*
X168750000Y-65800000D01*
X170600000Y-63900000D02*
X170600000Y-63950000D01*
X170650000Y-63900000D02*
X170600000Y-63900000D01*
X170650000Y-63800000D02*
X170650000Y-63900000D01*
X167700000Y-66850000D02*
X167700000Y-67000000D01*
X168750000Y-65800000D02*
X167700000Y-66850000D01*
X171724186Y-43545814D02*
X173270000Y-42000000D01*
X171315000Y-44300000D02*
X171724186Y-43890814D01*
X171724186Y-43890814D02*
X171724186Y-43545814D01*
X166850000Y-66250000D02*
X163775000Y-63175000D01*
X163775000Y-63175000D02*
X163775000Y-61450000D01*
X163775000Y-61450000D02*
X163825000Y-61400000D01*
X166850000Y-66250000D02*
X167300000Y-66250000D01*
X161100000Y-61400000D02*
X163825000Y-61400000D01*
X160300000Y-62200000D02*
X161100000Y-61400000D01*
X160300000Y-68525000D02*
X160300000Y-62200000D01*
X159350000Y-69475000D02*
X160300000Y-68525000D01*
X171700000Y-60350000D02*
X171650000Y-60350000D01*
X171650000Y-60350000D02*
X167100000Y-65250000D01*
X167100000Y-65250000D02*
X167100000Y-66050000D01*
X167100000Y-66050000D02*
X167300000Y-66250000D01*
X170045000Y-43955000D02*
X170045000Y-44300000D01*
X172000000Y-42000000D02*
X170045000Y-43955000D01*
X169349760Y-71050040D02*
X164200040Y-71050040D01*
X164200040Y-71050040D02*
X163725000Y-70575000D01*
D34*
X167650000Y-72250000D02*
X168149800Y-72250000D01*
X168149800Y-72250000D02*
X169349760Y-71050040D01*
D33*
X162650000Y-57450000D02*
X163350000Y-57450000D01*
X163350000Y-57450000D02*
X163900000Y-56900000D01*
D35*
X184460000Y-62905000D02*
X182220000Y-62905000D01*
X176250000Y-67225000D02*
X169400000Y-67225000D01*
X178550000Y-64925000D02*
X176250000Y-67225000D01*
X182220000Y-62905000D02*
X180375000Y-64750000D01*
D33*
X156325000Y-62800000D02*
X156225000Y-62900000D01*
X156225000Y-62900000D02*
X153550000Y-63075000D01*
X153550000Y-63075000D02*
X152600000Y-64025000D01*
D35*
X159550000Y-77400000D02*
X161300000Y-77400000D01*
D33*
X162250000Y-74250000D02*
X162250000Y-76450000D01*
X162250000Y-76450000D02*
X161300000Y-77400000D01*
D35*
X159550000Y-77400000D02*
X159375000Y-77575000D01*
D33*
X163200000Y-77100000D02*
X163200000Y-74900000D01*
X163350000Y-77250000D02*
X163200000Y-77100000D01*
D35*
X148150000Y-54350000D02*
X148925000Y-54350000D01*
X147250000Y-53450000D02*
X148150000Y-54350000D01*
X171225000Y-82275000D02*
X166625000Y-82275000D01*
X166625000Y-82275000D02*
X165600000Y-83300000D01*
M02*
